<?xml version="1.0" encoding="UTF-8" standalone="no"?>
<svg xmlns:xlink="http://www.w3.org/1999/xlink" height="52.25px" width="55.5px" xmlns="http://www.w3.org/2000/svg">
  <g transform="matrix(1.0, 0.0, 0.0, 1.0, 27.75, 26.1)">
    <path d="M-0.05 -26.1 Q11.4 -26.1 19.6 -18.45 27.75 -10.75 27.75 0.05 27.75 10.8 19.6 18.45 11.4 26.15 -0.05 26.15 -11.5 26.15 -19.65 18.45 -27.75 10.8 -27.75 0.05 -27.75 -10.75 -19.65 -18.45 -11.5 -26.1 -0.05 -26.1" fill="url(#gradient0)" fill-rule="evenodd" stroke="none"/>
    <path d="M-0.5 -13.4 Q5.6 -13.4 9.95 -9.35 14.3 -5.25 14.3 0.5 14.3 6.25 9.95 10.3 5.6 14.4 -0.5 14.4 -6.6 14.4 -10.95 10.3 -15.25 6.25 -15.25 0.5 -15.25 -5.25 -10.95 -9.35 -6.6 -13.4 -0.5 -13.4" fill="#9900ff" fill-rule="evenodd" stroke="none"/>
    <path d="M-0.5 -13.4 Q5.6 -13.4 9.95 -9.35 14.3 -5.25 14.3 0.5 14.3 6.25 9.95 10.3 5.6 14.4 -0.5 14.4 -6.6 14.4 -10.95 10.3 -15.25 6.25 -15.25 0.5 -15.25 -5.25 -10.95 -9.35 -6.6 -13.4 -0.5 -13.4 Z" fill="none" stroke="#9966ff" stroke-linecap="round" stroke-linejoin="round" stroke-width="1.0"/>
  </g>
  <defs>
    <radialGradient cx="0" cy="0" gradientTransform="matrix(0.0344, 0.0, 0.0, 0.0344, 0.0, 0.0)" gradientUnits="userSpaceOnUse" id="gradient0" r="819.2" spreadMethod="pad">
      <stop offset="0.0" stop-color="#9460ca" stop-opacity="0.8901961"/>
      <stop offset="0.8274509803921568" stop-color="#8b58be" stop-opacity="0.33333334"/>
      <stop offset="1.0" stop-color="#704699" stop-opacity="0.0"/>
    </radialGradient>
  </defs>
</svg>
