<?xml version="1.0" encoding="UTF-8" standalone="no"?>
<svg xmlns:xlink="http://www.w3.org/1999/xlink" height="277.75px" width="111.0px" xmlns="http://www.w3.org/2000/svg">
  <g transform="matrix(1.0, 0.0, 0.0, 1.0, 55.5, 138.85)">
    <path d="M-2.1 -79.9 L-2.0 -79.6 -2.7 -79.4 -2.1 -79.9" fill="#42f0de" fill-opacity="0.77254903" fill-rule="evenodd" stroke="none"/>
    <path d="M4.2 52.5 L2.4 60.5 2.4 60.55 2.0 60.4 Q2.0 59.0 2.35 57.45 3.0 54.65 4.0 52.45 L4.0 52.4 4.2 52.5" fill="#11d5c0" fill-opacity="0.77254903" fill-rule="evenodd" stroke="none"/>
    <path d="M-47.15 -15.6 L-47.45 -15.6 Q-48.6 -16.25 -48.85 -17.45 L-47.15 -15.6" fill="#89f5ea" fill-opacity="0.77254903" fill-rule="evenodd" stroke="none"/>
    <path d="M9.45 23.0 L9.4 23.0 9.35 22.2 9.45 23.0 M-46.95 -15.35 L-47.45 -15.6 -47.15 -15.6 -46.95 -15.35 M-3.5 -25.35 L-2.75 -25.65 -3.0 -23.6 -3.5 -25.35" fill="#69f3e4" fill-opacity="0.77254903" fill-rule="evenodd" stroke="none"/>
    <path d="M4.3 52.0 L4.3 52.1 4.2 52.45 4.0 52.4 4.0 51.9 4.3 52.0" fill="#096f64" fill-opacity="0.77254903" fill-rule="evenodd" stroke="none"/>
    <path d="M9.4 23.0 L9.45 23.0 9.75 27.2 9.6 28.0 9.4 23.0" fill="#89f5ea" fill-rule="evenodd" stroke="none"/>
    <path d="M4.3 52.1 L4.2 52.5 4.2 52.45 4.3 52.1" fill="#0a646d" fill-opacity="0.77254903" fill-rule="evenodd" stroke="none"/>
    <path d="M3.85 51.95 L4.0 51.9 4.0 52.4 3.85 51.95" fill="#62f2e3" fill-opacity="0.77254903" fill-rule="evenodd" stroke="none"/>
    <path d="M4.2 52.45 L4.2 52.5 4.0 52.4 4.2 52.45" fill="#0c8d80" fill-opacity="0.77254903" fill-rule="evenodd" stroke="none"/>
    <path d="M2.4 60.55 L1.95 62.5 Q-2.95 84.0 -6.55 98.75 L-13.95 129.15 Q-14.85 103.25 -18.85 78.5 L-13.0 77.4 -1.0 70.4 0.0 63.4 2.0 60.4 2.4 60.55 M-12.75 26.85 L-16.65 29.5 Q-20.55 32.3 -23.75 35.65 L-24.0 36.4 -27.45 38.65 -30.5 28.2 -28.25 24.9 Q-27.2 23.2 -27.0 21.4 L-24.0 20.4 -22.0 18.45 -19.35 15.9 -12.75 26.85 M-26.4 42.6 L-15.45 34.0 -11.0 30.25 Q-7.45 41.0 -8.05 52.5 L-8.2 57.3 Q-14.85 61.1 -20.9 66.75 -23.3 54.55 -26.4 42.6 M-49.95 -34.35 L-49.05 -34.45 -41.7 -34.45 -35.55 -34.0 -31.95 -33.35 Q-30.25 -16.35 -25.0 -0.1 L-23.5 3.9 -24.0 6.4 -30.0 11.4 -34.15 17.0 Q-39.8 0.55 -46.95 -15.35 L-47.15 -15.6 -48.85 -17.45 Q-50.55 -25.45 -49.95 -34.35" fill="#e09916" fill-opacity="0.77254903" fill-rule="evenodd" stroke="none"/>
    <path d="M-22.5 -29.7 L-19.0 -27.55 -18.9 -27.5 Q-11.65 -22.5 -3.5 -25.35 L-3.0 -23.6 -0.35 -17.25 Q-13.3 -8.75 -22.25 1.15 L-23.0 1.4 -23.5 3.9 -25.0 -0.1 Q-30.25 -16.35 -31.95 -33.35 L-30.0 -32.8 Q-26.15 -31.65 -22.5 -29.7 M9.6 28.0 L4.3 52.0 4.0 51.9 3.85 51.95 Q-1.2 53.55 -5.9 56.0 L-8.2 57.3 -8.05 52.5 Q-7.45 41.0 -11.0 30.25 L-2.65 22.75 Q0.8 19.6 5.0 17.4 L8.2 13.7 9.35 22.2 9.4 23.0 9.6 28.0 M6.85 6.65 Q5.0 7.85 3.65 10.2 3.5 10.4 3.0 10.4 L2.0 13.4 -12.0 26.4 -12.75 26.85 -19.35 15.9 Q-7.7 4.65 3.75 -5.4 5.55 0.55 6.85 6.65" fill="#742800" fill-opacity="0.77254903" fill-rule="evenodd" stroke="none"/>
    <path d="M3.0 -66.1 L2.0 -68.6 Q-0.2 -74.1 -2.0 -79.6 L-2.1 -79.9 Q-6.4 -92.95 -8.85 -106.35 14.0 -95.4 17.45 -68.85 18.15 -63.35 22.7 -59.95 35.9 -50.2 34.75 -33.85 L33.85 -33.3 32.1 -29.8 31.9 -29.8 Q27.55 -29.6 23.15 -30.65 27.55 -29.6 31.9 -29.8 L32.1 -29.8 Q34.2 -29.75 36.15 -28.95 37.35 -28.35 42.9 -27.0 42.85 -22.45 44.8 -17.85 46.25 -14.4 43.35 -13.2 36.15 -10.35 33.4 -3.65 23.1 21.7 15.35 48.0 3.05 89.5 -9.8 130.45 L-12.0 137.4 -13.95 129.15 -6.55 98.75 Q-2.95 84.0 1.95 62.5 L2.4 60.55 2.4 60.5 4.2 52.5 4.3 52.1 4.3 52.0 9.6 28.0 10.5 28.15 10.55 27.95 10.7 27.4 11.8 22.8 14.35 11.8 Q18.8 -8.75 22.0 -29.6 L23.15 -30.65 9.05 -50.55 9.4 -51.4 6.1 -58.95 3.0 -66.1" fill="#8f2c01" fill-opacity="0.77254903" fill-rule="evenodd" stroke="none"/>
    <path d="M32.1 -29.8 L33.85 -33.3 34.75 -33.85 Q35.9 -50.2 22.7 -59.95 18.15 -63.35 17.45 -68.85 14.0 -95.4 -8.85 -106.35 -11.5 -120.75 -12.0 -135.6 L-11.05 -136.4 Q4.4 -120.15 15.4 -100.7 23.25 -86.9 28.85 -71.5 36.0 -51.85 54.0 -51.6 52.35 -47.4 49.65 -44.0 42.9 -35.55 42.9 -27.0 37.35 -28.35 36.15 -28.95 34.2 -29.75 32.1 -29.8" fill="#e34502" fill-opacity="0.77254903" fill-rule="evenodd" stroke="none"/>
    <path d="M3.0 -66.1 L6.1 -58.95 9.4 -51.4 9.05 -50.55 -2.75 -25.65 -3.5 -25.35 Q-11.65 -22.5 -18.9 -27.5 L-19.0 -27.55 -18.0 -28.6 Q-18.0 -29.6 -17.6 -30.4 L-14.25 -36.75 Q-6.0 -52.35 3.0 -66.1 M-2.0 -79.6 Q-0.2 -74.1 2.0 -68.6 -11.05 -55.85 -18.6 -39.4 -20.8 -34.7 -22.5 -29.7 -26.15 -31.65 -30.0 -32.8 L-29.0 -34.6 Q-28.15 -38.4 -26.65 -41.95 -25.5 -44.85 -23.9 -47.55 -19.85 -54.55 -14.0 -60.6 -10.85 -72.15 -2.7 -79.4 L-2.0 -79.6" fill="#ff8e02" fill-opacity="0.77254903" fill-rule="evenodd" stroke="none"/>
    <path d="M-12.75 26.85 L-12.0 26.4 2.0 13.4 3.0 10.4 Q3.5 10.4 3.65 10.2 5.0 7.85 6.85 6.65 L8.2 13.7 5.0 17.4 Q0.8 19.6 -2.65 22.75 L-11.0 30.25 -15.45 34.0 -26.4 42.6 -27.45 38.65 -24.0 36.4 -23.75 35.65 Q-20.55 32.3 -16.65 29.5 L-12.75 26.85 M3.75 -5.4 Q-7.7 4.65 -19.35 15.9 L-22.0 18.45 -24.0 20.4 -27.0 21.4 Q-27.2 23.2 -28.25 24.9 L-30.5 28.2 Q-32.25 22.55 -34.15 17.0 L-30.0 11.4 -24.0 6.4 -23.5 3.9 -23.0 1.4 -22.25 1.15 Q-13.3 -8.75 -0.35 -17.25 1.95 -11.4 3.75 -5.4 M4.0 52.4 L4.0 52.45 Q3.0 54.65 2.35 57.45 2.0 59.0 2.0 60.4 L0.0 63.4 -1.0 70.4 -13.0 77.4 -18.85 78.5 Q-19.8 72.6 -20.9 66.75 -14.85 61.1 -8.2 57.3 L-5.9 56.0 Q-1.2 53.55 3.85 51.95 L4.0 52.4" fill="#feaa56" fill-opacity="0.77254903" fill-rule="evenodd" stroke="none"/>
    <path d="M2.0 -68.6 L3.0 -66.1 Q-6.0 -52.35 -14.25 -36.75 L-17.6 -30.4 Q-18.0 -29.6 -18.0 -28.6 L-19.0 -27.55 -22.5 -29.7 Q-20.8 -34.7 -18.6 -39.4 -11.05 -55.85 2.0 -68.6 M9.05 -50.55 L23.15 -30.65 22.0 -29.6 Q18.8 -8.75 14.35 11.8 L11.8 22.8 10.7 27.4 9.75 27.2 9.45 23.0 9.35 22.2 8.2 13.7 6.85 6.65 Q5.55 0.55 3.75 -5.4 1.95 -11.4 -0.35 -17.25 L-3.0 -23.6 -2.75 -25.65 9.05 -50.55 M-8.85 -106.35 Q-6.4 -92.95 -2.1 -79.9 L-2.7 -79.4 Q-10.85 -72.15 -14.0 -60.6 -19.85 -54.55 -23.9 -47.55 -25.5 -44.85 -26.65 -41.95 -28.15 -38.4 -29.0 -34.6 L-30.0 -32.8 -31.95 -33.35 -35.55 -34.0 -41.7 -34.45 -49.05 -34.45 -49.95 -34.35 -53.75 -34.7 -53.0 -36.1 -52.05 -36.55 Q-51.6 -36.7 -51.2 -37.0 -50.75 -37.2 -50.4 -37.5 L-49.7 -38.15 -49.1 -38.95 -48.65 -39.8 -48.25 -40.8 -47.9 -41.85 -47.55 -42.75 -47.3 -43.15 Q-26.15 -83.05 -18.2 -130.3 L-11.95 -137.35 -11.1 -136.45 -11.05 -136.4 -12.0 -135.6 Q-11.5 -120.75 -8.85 -106.35" fill="#ffffdb" fill-opacity="0.77254903" fill-rule="evenodd" stroke="none"/>
    <path d="M2.0 -68.6 L3.0 -66.1 6.1 -58.95 9.4 -51.4 9.05 -50.55 23.15 -30.65 Q27.55 -29.6 31.9 -29.8 L32.1 -29.8 Q34.2 -29.75 36.15 -28.95 37.35 -28.35 42.9 -27.0 42.85 -22.45 44.8 -17.85 46.25 -14.4 43.35 -13.2 36.15 -10.35 33.4 -3.65 23.1 21.7 15.35 48.0 3.05 89.5 -9.8 130.45 L-12.0 137.4 -13.95 129.15 Q-14.85 103.25 -18.85 78.5 -19.8 72.6 -20.9 66.75 -23.3 54.55 -26.4 42.6 L-27.45 38.65 -30.5 28.2 Q-32.25 22.55 -34.15 17.0 -39.8 0.55 -46.95 -15.35 L-47.45 -15.6 Q-48.6 -16.25 -48.85 -17.45 -50.55 -25.45 -49.95 -34.35 L-53.75 -34.7 -53.0 -36.1 -52.05 -36.55 Q-51.6 -36.7 -51.2 -37.0 -50.75 -37.2 -50.4 -37.5 L-49.7 -38.15 -49.1 -38.95 -48.65 -39.8 -48.25 -40.8 -47.9 -41.85 -47.55 -42.75 -47.3 -43.15 Q-26.15 -83.05 -18.2 -130.3 L-11.95 -137.35 -11.1 -136.45 -11.05 -136.4 Q4.4 -120.15 15.4 -100.7 23.25 -86.9 28.85 -71.5 36.0 -51.85 54.0 -51.6 52.35 -47.4 49.65 -44.0 42.9 -35.55 42.9 -27.0 M-8.85 -106.35 Q-6.4 -92.95 -2.1 -79.9 L-2.0 -79.6 Q-0.2 -74.1 2.0 -68.6 M-22.5 -29.7 L-19.0 -27.55 -18.9 -27.5 Q-11.65 -22.5 -3.5 -25.35 L-2.75 -25.65 9.05 -50.55 M22.0 -29.6 Q18.8 -8.75 14.35 11.8 L11.8 22.8 10.7 27.4 10.55 27.95 10.5 28.15 9.75 27.2 9.45 23.0 9.35 22.2 8.2 13.7 6.85 6.65 Q5.55 0.55 3.75 -5.4 1.95 -11.4 -0.35 -17.25 L-3.0 -23.6 M9.6 28.0 L4.3 52.0 4.3 52.1 4.2 52.45 4.2 52.5 2.4 60.5 2.4 60.55 1.95 62.5 Q-2.95 84.0 -6.55 98.75 L-13.95 129.15 M9.6 28.0 L9.75 27.2 M-18.0 -131.6 L-18.2 -130.3 M-12.0 -135.6 Q-11.5 -120.75 -8.85 -106.35 M-30.0 -32.8 Q-26.15 -31.65 -22.5 -29.7 M-49.05 -34.45 L-41.7 -34.45 -35.55 -34.0 -31.95 -33.35 -30.0 -32.8 M-54.0 -34.2 L-53.75 -34.7" fill="none" stroke="#ffcc00" stroke-linecap="round" stroke-linejoin="round" stroke-width="3.0"/>
  </g>
</svg>
