<?xml version="1.0" encoding="UTF-8" standalone="no"?>
<svg xmlns:xlink="http://www.w3.org/1999/xlink" height="40.0px" width="23.1px" xmlns="http://www.w3.org/2000/svg">
  <g transform="matrix(1.0, 0.0, 0.0, 1.0, 11.55, 20.0)">
    <path d="M4.5 -13.95 L5.0 -13.1 5.6 -12.25 6.4 -11.25 8.95 -8.0 9.9 -6.65 Q11.55 -4.0 11.55 -1.3 L11.3 1.25 10.65 3.8 9.9 5.8 9.1 6.6 Q8.75 6.6 8.75 6.3 L9.0 5.5 Q10.15 2.8 10.15 -0.8 10.15 -4.95 5.35 -8.4 L4.15 -9.15 Q3.7 -9.4 3.4 -9.6 L2.75 -9.85 2.0 -10.0 2.0 13.1 Q2.0 14.4 1.2 15.7 L-1.0 17.9 Q-2.3 18.85 -3.95 19.45 -5.55 20.0 -7.15 20.0 -9.05 20.0 -10.3 19.15 -11.55 18.3 -11.55 16.6 -11.55 15.25 -10.75 14.0 -9.9 12.75 -8.6 11.75 -7.25 10.8 -5.65 10.2 L-2.5 9.6 Q-0.1 9.6 1.1 10.85 L1.1 -20.0 1.75 -20.0 3.0 -17.05 3.9 -15.15 4.5 -13.95" fill="#ff6666" fill-rule="evenodd" stroke="none"/>
  </g>
</svg>
