<?xml version="1.0" encoding="UTF-8" standalone="no"?>
<svg xmlns:xlink="http://www.w3.org/1999/xlink" height="38.1px" width="22.0px" xmlns="http://www.w3.org/2000/svg">
  <g transform="matrix(1.0, 0.0, 0.0, 1.0, 6.5, 33.0)">
    <path d="M6.2 -33.0 L7.4 -30.25 8.15 -28.4 8.85 -27.25 Q9.0 -26.75 9.3 -26.5 L9.8 -25.7 10.65 -24.7 13.0 -21.6 13.95 -20.35 Q15.5 -17.85 15.5 -15.2 L15.3 -12.85 14.7 -10.4 13.95 -8.45 Q13.6 -7.75 13.2 -7.75 L12.9 -7.95 13.1 -8.75 Q14.2 -11.35 14.2 -14.75 14.2 -18.75 9.55 -22.05 8.9 -22.4 8.45 -22.7 L7.8 -23.2 7.15 -23.35 6.4 -23.55 6.4 -1.55 Q6.4 -0.2 5.6 1.0 L3.55 3.05 Q2.3 3.95 0.75 4.45 -0.8 5.1 -2.25 5.1 -4.1 5.1 -5.25 4.2 -6.5 3.35 -6.5 1.8 -6.5 0.55 -5.75 -0.55 -4.9 -1.85 -3.65 -2.75 -2.45 -3.7 -0.95 -4.2 L2.15 -4.8 Q4.4 -4.8 5.6 -3.7 L5.6 -33.0 6.2 -33.0" fill="#efcc80" fill-rule="evenodd" stroke="none"/>
  </g>
</svg>
