<?xml version="1.0" encoding="UTF-8" standalone="no"?>
<svg xmlns:xlink="http://www.w3.org/1999/xlink" height="177.3px" width="389.05px" xmlns="http://www.w3.org/2000/svg">
  <g transform="matrix(1.0, 0.0, 0.0, 1.0, 190.05, 130.35)">
    <path d="M4.9 11.6 L6.3 12.45 Q7.95 12.45 7.85 10.65 7.85 7.7 3.3 5.65 -0.75 3.8 -6.65 3.35 -12.55 2.95 -16.65 4.15 -21.2 5.55 -21.2 8.4 -21.2 9.15 -20.7 9.95 -20.15 10.75 -19.45 10.85 -20.25 12.25 -20.25 14.05 -20.25 15.6 -19.5 18.45 -18.55 22.2 -17.25 22.2 -16.4 22.2 -15.6 20.25 -14.8 18.3 -13.55 18.3 -10.1 18.3 -9.35 21.3 -8.95 22.9 -9.05 25.35 -9.15 25.65 -8.4 25.65 -7.75 25.65 -6.0 22.2 -4.3 18.75 -3.5 18.75 -1.55 18.75 -0.05 20.2 L1.4 21.6 Q2.75 21.6 4.1 17.35 L5.15 13.2 4.9 11.6 M10.0 10.3 Q10.25 11.7 9.65 13.25 5.95 23.1 1.75 32.75 L-1.7 20.7 Q-4.6 25.45 -5.4 31.1 -5.9 34.85 -6.9 38.5 -11.2 32.9 -11.35 25.25 L-11.5 21.25 Q-13.8 23.85 -14.5 27.55 L-15.3 31.15 -16.1 34.5 Q-23.75 23.9 -26.25 11.3 -26.45 10.4 -26.15 9.45 L-25.8 8.55 Q-17.75 -0.8 -8.3 -1.1 L-5.0 -1.3 Q4.35 0.6 9.25 8.35 9.8 9.2 10.0 10.3" fill="#00ff00" fill-rule="evenodd" stroke="none"/>
    <path d="M103.0 -119.5 Q109.25 -126.55 118.6 -128.75 136.4 -132.65 151.15 -122.55 143.4 -123.2 135.45 -122.3 129.5 -122.75 124.35 -119.95 119.1 -117.0 114.7 -112.95 108.1 -106.85 107.35 -98.45 L104.25 -102.65 96.2 -104.45 Q95.55 -109.9 98.85 -114.35 L103.0 -119.5 M-45.75 -14.85 L-42.0 -10.6 Q-37.55 -5.5 -31.3 -7.0 -30.0 -7.2 -28.95 -7.9 -20.85 -13.25 -11.55 -15.0 L-10.1 -14.95 Q-6.7 -13.95 -7.85 -10.6 L-2.3 -8.1 Q-2.3 -11.1 -0.4 -13.1 L0.25 -13.7 Q1.85 -14.05 3.7 -12.4 L6.65 -10.0 13.0 -4.6 Q17.1 -0.9 21.6 -3.1 L22.75 -3.75 27.7 -6.75 Q30.75 -8.6 32.85 -10.65 34.9 -12.75 38.3 -14.95 41.65 -17.15 42.3 -18.1 49.8 -25.4 54.55 -34.95 57.3 -40.55 62.3 -44.6 65.65 -47.15 69.75 -45.8 70.65 -42.95 68.6 -40.6 66.1 -37.55 68.65 -35.1 69.45 -34.4 70.5 -33.85 L74.0 -32.2 75.9 -31.0 75.8 -29.8 74.4 -28.65 62.8 -28.95 50.4 -14.55 Q48.25 -11.65 40.75 -6.95 32.45 -1.8 30.6 0.0 L29.1 1.2 43.45 -0.8 Q53.25 -2.25 57.65 -3.55 60.35 -4.3 63.05 -5.2 73.5 -9.85 83.25 -14.95 85.25 -16.0 87.25 -16.4 92.15 -16.3 92.0 -11.65 L90.65 -10.15 Q89.3 -9.1 88.75 -7.45 87.6 -3.7 90.05 -0.6 L89.7 0.35 83.0 1.15 82.55 0.6 Q79.7 -0.35 76.5 -0.5 71.5 -0.75 67.05 0.95 L60.8 3.65 Q56.45 5.55 51.9 7.8 49.6 8.95 47.1 9.45 L37.25 10.7 27.35 11.65 26.2 11.85 Q24.7 12.2 23.3 12.85 22.4 13.2 21.6 13.75 L20.8 14.3 21.3 14.95 21.6 15.4 21.8 15.55 26.2 16.0 38.95 17.6 Q47.7 18.85 51.5 20.15 L55.75 21.45 Q61.4 23.1 66.9 24.35 71.3 25.2 74.5 28.15 75.7 29.25 74.7 30.55 72.7 33.25 68.85 32.65 61.1 32.0 53.65 29.95 L49.3 28.6 40.65 27.1 31.9 25.7 26.2 25.1 24.7 25.25 Q23.05 25.55 21.6 26.35 20.85 26.75 20.15 27.3 18.1 28.85 15.35 29.2 12.4 29.35 9.75 28.2 7.75 31.3 6.5 34.9 5.15 38.95 2.6 42.4 2.2 42.9 1.65 42.9 -7.35 44.1 -16.05 41.75 -17.45 41.45 -18.55 40.7 -23.65 37.4 -25.65 31.55 -27.75 31.75 -29.45 30.45 L-30.5 29.05 Q-31.9 24.95 -34.7 21.75 -35.4 21.0 -36.25 20.8 -46.0 19.45 -55.3 22.65 L-55.6 22.75 Q-59.2 23.9 -62.55 25.55 -68.55 28.55 -75.35 29.25 L-76.15 28.85 -77.5 27.95 Q-78.45 27.25 -78.65 26.0 -78.85 24.85 -78.6 23.9 L-78.4 23.6 Q-77.05 22.75 -75.6 22.15 -69.9 19.55 -63.95 18.25 -60.25 17.6 -56.9 16.15 L-54.2 14.8 -44.55 9.5 Q-46.65 9.2 -48.95 7.65 -53.2 5.8 -59.45 4.55 L-62.35 4.0 Q-71.05 -0.55 -79.3 -6.25 -80.45 -6.95 -81.8 -6.75 -84.45 -7.25 -85.45 -9.7 L-81.85 -14.5 -81.85 -15.05 -81.95 -16.2 -82.25 -17.3 Q-82.8 -18.95 -83.85 -20.0 L-84.65 -20.75 -84.85 -21.0 -84.4 -24.45 -82.35 -25.25 -73.6 -14.45 Q-72.25 -12.85 -70.55 -11.65 -64.35 -7.45 -57.5 -4.7 L-54.25 -3.65 Q-49.7 -1.9 -45.75 0.75 L-43.05 2.75 -45.4 0.15 Q-49.65 -4.75 -52.3 -10.35 L-58.55 -22.9 Q-60.05 -25.8 -62.35 -28.05 -63.5 -29.25 -64.85 -30.0 -69.0 -32.55 -68.15 -36.9 L-62.55 -39.55 -62.85 -42.3 Q-63.0 -44.0 -62.7 -45.7 -62.55 -46.5 -62.0 -47.2 -57.35 -45.9 -55.65 -41.55 -54.5 -38.65 -54.0 -35.5 -52.25 -24.25 -45.75 -14.85 M28.8 -5.15 L26.2 -2.35 24.4 -0.9 23.3 0.0 22.95 0.25 21.6 0.65 20.7 0.8 20.2 0.95 19.0 1.25 Q17.1 1.3 15.6 0.5 14.1 -0.25 13.0 -0.95 L10.35 -2.85 9.6 -3.55 7.5 -5.45 6.65 -6.1 5.4 -7.1 Q4.65 -7.5 4.1 -8.15 L2.3 -9.75 4.1 -8.15 Q4.65 -7.5 5.4 -7.1 L6.65 -6.1 7.5 -5.45 9.6 -3.55 10.35 -2.85 13.0 -0.95 Q14.1 -0.25 15.6 0.5 17.1 1.3 19.0 1.25 L20.2 0.95 20.7 0.8 21.6 0.65 22.95 0.25 23.3 0.0 24.4 -0.9 26.2 -2.35 28.8 -5.15 M72.1 -42.05 Q79.9 -49.6 85.05 -58.45 92.65 -71.6 94.35 -87.6 L94.9 -94.05 Q95.1 -97.25 96.6 -100.45 102.85 -101.4 103.35 -95.6 103.75 -90.75 103.25 -86.35 102.0 -75.0 98.0 -64.45 95.95 -59.05 93.15 -54.5 88.65 -47.0 81.9 -41.95 79.6 -40.3 76.8 -39.85 L73.1 -39.65 Q72.35 -40.75 72.15 -41.55 L72.1 -42.05 M56.7 -29.35 L56.8 -29.7 57.85 -29.95 59.85 -30.3 Q60.55 -30.5 60.75 -30.75 60.05 -31.15 59.65 -32.5 L59.75 -32.9 Q60.3 -33.3 60.65 -34.3 L62.75 -33.95 63.25 -33.8 67.1 -31.05 63.25 -33.8 62.75 -33.95 60.65 -34.3 Q60.3 -33.3 59.75 -32.9 L59.65 -32.5 Q60.05 -31.15 60.75 -30.75 60.55 -30.5 59.85 -30.3 L57.85 -29.95 56.8 -29.7 56.7 -29.35 M59.6 -35.1 Q60.15 -36.5 61.25 -37.45 63.6 -39.45 65.15 -41.3 L65.95 -42.0 Q66.7 -42.55 66.8 -42.0 66.7 -42.55 65.95 -42.0 L65.15 -41.3 Q63.6 -39.45 61.25 -37.45 60.15 -36.5 59.6 -35.1 M94.7 -67.0 Q93.05 -63.75 90.65 -60.75 L89.75 -59.45 Q88.6 -57.4 86.95 -56.95 88.6 -57.4 89.75 -59.45 L90.65 -60.75 Q93.05 -63.75 94.7 -67.0 M83.55 -54.45 L84.0 -54.25 84.25 -54.0 Q84.75 -52.45 86.1 -50.9 84.75 -52.45 84.25 -54.0 L84.0 -54.25 83.55 -54.45 M85.05 -58.45 L85.85 -57.55 86.7 -56.7 Q88.2 -55.5 88.4 -54.05 88.2 -55.5 86.7 -56.7 L85.85 -57.55 85.05 -58.45 M91.95 -5.55 Q91.9 -9.7 93.75 -11.9 L94.15 -12.3 Q101.45 -15.8 109.75 -15.45 119.05 -15.1 129.3 -15.25 137.65 -15.7 145.4 -18.15 151.4 -20.05 157.65 -20.6 L158.75 -20.4 Q161.0 -18.7 159.8 -15.7 157.75 -10.5 152.35 -8.95 147.6 -7.5 142.15 -7.1 L116.15 -8.15 Q110.35 -8.65 104.95 -6.75 L99.95 -5.1 Q95.65 -3.6 91.95 -5.55 M194.25 -5.35 Q199.45 -0.25 198.3 7.25 L197.8 11.5 Q197.55 14.95 196.05 18.15 192.5 6.75 183.3 -1.45 180.55 -3.95 177.35 -5.9 171.3 -9.65 164.1 -10.35 L162.1 -12.9 160.85 -13.1 Q162.05 -14.0 162.35 -15.3 162.55 -16.35 162.1 -17.2 160.7 -20.1 159.8 -23.25 166.7 -24.6 173.5 -21.6 L179.3 -19.05 Q185.55 -15.45 190.3 -9.65 L194.25 -5.35 M59.3 26.5 L54.45 25.4 51.8 24.95 50.95 24.85 Q49.35 24.7 48.1 23.55 47.2 22.8 46.05 22.75 L45.55 22.85 45.1 23.2 43.75 24.2 42.85 24.6 Q41.55 25.05 41.25 23.9 L41.0 23.5 Q40.05 22.75 35.25 22.6 L29.05 23.0 Q29.45 22.25 29.2 21.35 29.0 20.6 27.95 20.1 L27.6 19.95 27.3 19.75 Q27.1 19.35 26.5 19.5 L26.2 19.6 25.95 19.65 24.7 20.7 22.95 22.95 22.4 23.4 21.6 23.5 Q21.0 23.45 20.55 22.9 19.05 20.95 20.65 18.95 L21.1 18.5 Q21.9 17.9 21.3 18.15 21.9 17.9 21.1 18.5 L20.65 18.95 Q19.05 20.95 20.55 22.9 21.0 23.45 21.6 23.5 L22.4 23.4 22.95 22.95 24.7 20.7 25.95 19.65 26.2 19.6 26.5 19.5 Q27.1 19.35 27.3 19.75 L27.6 19.95 27.95 20.1 Q29.0 20.6 29.2 21.35 29.45 22.25 29.05 23.0 L35.25 22.6 Q40.05 22.75 41.0 23.5 L41.25 23.9 Q41.55 25.05 42.85 24.6 L43.75 24.2 45.1 23.2 45.55 22.85 46.05 22.75 Q47.2 22.8 48.1 23.55 49.35 24.7 50.95 24.85 L51.8 24.95 54.45 25.4 59.3 26.5 M50.95 3.45 Q48.95 4.15 46.95 5.55 L46.3 5.95 45.85 5.9 Q45.35 5.55 44.35 5.45 L43.2 5.2 43.3 5.75 Q43.3 6.6 42.55 6.75 41.95 6.9 41.55 7.3 L32.9 7.5 32.8 7.45 32.25 7.35 31.95 7.4 Q29.8 7.8 28.5 6.9 29.1 8.3 28.15 9.45 27.7 10.0 27.05 9.95 L26.2 10.0 Q24.65 10.05 23.6 10.65 23.7 9.3 23.05 8.6 22.35 7.9 21.6 7.65 L21.0 7.5 20.5 7.6 Q18.1 9.05 18.4 12.4 18.1 9.05 20.5 7.6 L21.0 7.5 21.6 7.65 Q22.35 7.9 23.05 8.6 23.7 9.3 23.6 10.65 24.65 10.05 26.2 10.0 L27.05 9.95 Q27.7 10.0 28.15 9.45 29.1 8.3 28.5 6.9 29.8 7.8 31.95 7.4 L32.25 7.35 32.8 7.45 32.9 7.5 41.55 7.3 Q41.95 6.9 42.55 6.75 43.3 6.6 43.3 5.75 L43.2 5.2 44.35 5.45 Q45.35 5.55 45.85 5.9 L46.3 5.95 46.95 5.55 Q48.95 4.15 50.95 3.45 M15.25 5.05 L21.6 4.4 Q23.95 3.85 26.2 2.8 L29.1 1.2 26.2 2.8 Q23.95 3.85 21.6 4.4 L15.25 5.05 13.45 4.65 14.0 5.7 15.25 5.05 M9.75 28.2 Q12.45 24.5 13.75 20.45 15.65 14.55 14.6 7.95 L14.35 6.4 14.0 5.7 14.35 6.4 14.6 7.95 Q15.65 14.55 13.75 20.45 12.45 24.5 9.75 28.2 M-2.3 -8.1 L1.65 -5.6 Q8.1 -1.2 13.25 4.6 L13.45 4.65 13.25 4.6 Q8.1 -1.2 1.65 -5.6 L-2.3 -8.1 M-29.95 7.5 L-29.45 7.4 -29.1 7.25 -27.3 5.5 -27.05 5.25 -23.65 2.85 -22.4 2.1 -21.55 1.5 Q-20.5 0.45 -18.75 -0.65 L-16.75 -1.8 -16.1 -2.2 Q-14.1 -3.6 -12.1 -4.35 L-11.55 -4.45 -5.2 -4.5 -4.35 -4.35 Q-1.5 -3.7 0.3 -2.3 L5.15 1.2 5.5 1.4 Q7.75 2.7 9.5 4.9 L9.85 5.1 10.15 5.35 Q10.75 6.1 11.8 6.35 10.75 6.1 10.15 5.35 L9.85 5.1 9.5 4.9 Q7.75 2.7 5.5 1.4 L5.15 1.2 0.3 -2.3 Q-1.5 -3.7 -4.35 -4.35 L-5.2 -4.5 -11.55 -4.45 -12.1 -4.35 Q-14.1 -3.6 -16.1 -2.2 L-16.75 -1.8 -18.75 -0.65 Q-20.5 0.45 -21.55 1.5 L-22.4 2.1 -23.65 2.85 -27.05 5.25 -27.3 5.5 -29.1 7.25 -29.45 7.4 -29.95 7.5 M10.0 10.3 Q9.8 9.2 9.25 8.35 4.35 0.6 -5.0 -1.3 L-8.3 -1.1 Q-17.75 -0.8 -25.8 8.55 L-26.15 9.45 Q-26.45 10.4 -26.25 11.3 -23.75 23.9 -16.1 34.5 L-15.3 31.15 -14.5 27.55 Q-13.8 23.85 -11.5 21.25 L-11.35 25.25 Q-11.2 32.9 -6.9 38.5 -5.9 34.85 -5.4 31.1 -4.6 25.45 -1.7 20.7 L1.75 32.75 Q5.95 23.1 9.65 13.25 10.25 11.7 10.0 10.3 M14.4 20.7 Q15.75 20.45 16.7 19.8 L17.55 18.65 Q18.7 15.95 20.8 14.3 18.7 15.95 17.55 18.65 L16.7 19.8 Q15.75 20.45 14.4 20.7 M-105.15 -100.95 Q-107.9 -104.0 -109.8 -107.5 -108.7 -108.3 -107.4 -108.45 -106.65 -108.35 -106.05 -107.95 -101.55 -105.2 -97.35 -101.75 -92.7 -97.85 -89.5 -92.65 -84.1 -83.9 -77.8 -75.5 -71.5 -67.25 -66.2 -58.4 -64.9 -56.25 -64.7 -53.9 L-64.4 -47.75 -64.15 -43.25 -65.7 -41.0 -67.3 -40.9 Q-70.1 -43.6 -71.05 -47.45 -72.3 -52.75 -75.9 -56.45 -81.75 -62.45 -86.7 -69.35 -89.15 -72.75 -90.9 -76.5 -95.65 -86.55 -103.25 -94.75 -103.05 -96.8 -103.85 -98.8 -104.3 -100.05 -105.15 -100.95 M-185.3 -2.25 L-181.35 -6.55 Q-176.6 -12.35 -170.35 -15.95 L-164.55 -18.5 Q-157.75 -21.5 -150.85 -20.15 -151.75 -17.0 -153.15 -14.1 -153.6 -13.25 -153.4 -12.2 -153.1 -10.9 -151.9 -10.0 L-153.15 -9.8 -155.15 -7.25 Q-162.35 -6.55 -168.4 -2.8 -171.6 -0.85 -174.35 1.65 -183.55 9.85 -187.1 21.25 -188.6 18.05 -188.85 14.6 L-189.35 10.35 Q-190.5 2.85 -185.3 -2.25 M-171.5 -120.4 Q-172.15 -120.45 -172.75 -120.85 -161.6 -126.3 -149.2 -127.2 L-148.4 -127.85 Q-141.85 -127.75 -135.35 -126.4 -128.95 -125.0 -122.95 -122.85 -116.85 -120.75 -112.85 -115.9 -112.0 -114.85 -112.45 -113.55 -113.2 -111.4 -113.25 -109.05 -113.25 -107.55 -112.55 -106.25 L-108.75 -100.3 Q-114.4 -99.25 -118.3 -101.85 -121.95 -104.35 -124.55 -108.05 -127.45 -112.2 -132.15 -114.0 -148.0 -119.65 -164.9 -119.9 L-171.5 -120.4 M-80.9 -71.9 L-81.25 -70.45 -81.4 -69.9 Q-81.8 -67.6 -79.5 -67.6 L-78.65 -67.7 -75.75 -67.8 -75.15 -67.7 Q-74.65 -67.65 -74.75 -67.0 -75.0 -65.35 -76.6 -64.7 L-77.05 -64.35 Q-77.95 -63.2 -76.65 -62.65 L-76.3 -62.5 -74.0 -62.65 -73.25 -63.1 Q-72.15 -63.95 -71.5 -62.35 L-71.3 -61.9 Q-70.4 -60.4 -70.55 -59.25 -70.4 -60.4 -71.3 -61.9 L-71.5 -62.35 Q-72.15 -63.95 -73.25 -63.1 L-74.0 -62.65 -76.3 -62.5 -76.65 -62.65 Q-77.95 -63.2 -77.05 -64.35 L-76.6 -64.7 Q-75.0 -65.35 -74.75 -67.0 -74.65 -67.65 -75.15 -67.7 L-75.75 -67.8 -78.65 -67.7 -79.5 -67.6 Q-81.8 -67.6 -81.4 -69.9 L-81.25 -70.45 -80.9 -71.9 M-151.7 -13.2 L-151.5 -17.05 -133.05 -15.45 Q-118.95 -14.7 -105.95 -20.05 -98.85 -22.95 -91.2 -21.9 -85.7 -21.4 -84.0 -16.6 L-85.1 -13.2 Q-87.95 -11.35 -91.4 -12.25 L-93.05 -12.8 Q-102.25 -12.1 -111.1 -9.35 L-117.8 -7.6 Q-125.3 -6.35 -132.85 -6.3 -143.65 -6.25 -151.7 -13.2 M-75.45 -10.35 L-73.4 -8.1 Q-71.95 -6.1 -70.0 -5.1 -68.15 -4.15 -66.5 -5.15 L-67.15 -4.3 -67.3 -4.0 Q-67.55 -2.4 -66.5 -1.95 -66.2 -1.85 -66.05 -1.65 L-65.4 -1.05 Q-64.15 -0.45 -63.3 -1.45 L-63.05 -1.65 -62.6 -1.55 Q-61.75 -1.0 -61.55 0.0 L-61.3 0.55 Q-60.8 1.2 -59.6 1.0 L-56.8 0.25 -56.5 0.15 Q-55.2 0.35 -55.45 2.0 -55.65 3.35 -54.7 3.4 L-51.8 2.95 -48.75 2.1 Q-49.2 2.2 -49.5 2.65 L-49.7 3.15 Q-49.7 4.45 -48.35 5.15 L-47.55 5.6 -46.0 6.45 Q-45.25 6.8 -44.65 7.2 -43.75 7.9 -43.5 7.2 -43.75 7.9 -44.65 7.2 -45.25 6.8 -46.0 6.45 L-47.55 5.6 -48.35 5.15 Q-49.7 4.45 -49.7 3.15 L-49.5 2.65 Q-49.2 2.2 -48.75 2.1 L-51.8 2.95 -54.7 3.4 Q-55.65 3.35 -55.45 2.0 -55.2 0.35 -56.5 0.15 L-56.8 0.25 -59.6 1.0 Q-60.8 1.2 -61.3 0.55 L-61.55 0.0 Q-61.75 -1.0 -62.6 -1.55 L-63.05 -1.65 -63.3 -1.45 Q-64.15 -0.45 -65.4 -1.05 L-66.05 -1.65 Q-66.2 -1.85 -66.5 -1.95 -67.55 -2.4 -67.3 -4.0 L-67.15 -4.3 -66.5 -5.15 Q-68.15 -4.15 -70.0 -5.1 -71.95 -6.1 -73.4 -8.1 L-75.45 -10.35 M-55.85 -33.35 Q-56.05 -31.1 -55.75 -29.05 -55.45 -26.8 -54.1 -25.05 L-53.7 -24.4 Q-53.2 -23.4 -53.15 -22.15 L-53.05 -21.55 Q-52.8 -19.85 -51.55 -18.95 L-51.35 -18.65 -51.1 -18.25 Q-50.7 -17.8 -51.25 -17.25 L-51.45 -16.95 Q-51.6 -16.15 -51.2 -15.9 L-50.75 -15.7 -49.8 -15.3 Q-48.25 -14.7 -49.0 -13.5 L-49.15 -13.15 Q-49.6 -11.6 -48.4 -11.4 L-47.8 -11.35 Q-46.85 -11.4 -46.65 -10.9 -47.5 -10.75 -47.15 -9.55 L-46.95 -9.2 Q-46.1 -8.3 -44.35 -8.55 L-43.8 -8.5 Q-43.2 -8.2 -43.5 -7.75 L-43.65 -7.45 Q-43.9 -6.0 -43.1 -5.0 L-42.75 -4.5 -41.7 -3.9 Q-40.35 -3.6 -39.15 -3.9 L-37.45 -3.75 Q-38.6 -3.15 -38.65 -1.7 -38.7 -0.15 -37.45 0.6 L-37.15 0.75 Q-36.5 0.85 -36.05 1.2 -34.75 2.1 -33.4 1.45 L-32.95 1.1 -32.2 0.1 -28.25 -3.15 -27.95 -3.45 Q-26.6 -4.6 -25.8 -5.65 L-25.35 -6.05 -21.55 -8.25 Q-21.15 -8.45 -20.8 -8.7 -18.55 -10.25 -15.85 -10.9 -18.55 -10.25 -20.8 -8.7 -21.15 -8.45 -21.55 -8.25 L-25.35 -6.05 -25.8 -5.65 Q-26.6 -4.6 -27.95 -3.45 L-28.25 -3.15 -32.2 0.1 -32.95 1.1 -33.4 1.45 Q-34.75 2.1 -36.05 1.2 -36.5 0.85 -37.15 0.75 L-37.45 0.6 Q-38.7 -0.15 -38.65 -1.7 -38.6 -3.15 -37.45 -3.75 L-39.15 -3.9 Q-40.35 -3.6 -41.7 -3.9 L-42.75 -4.5 -43.1 -5.0 Q-43.9 -6.0 -43.65 -7.45 L-43.5 -7.75 Q-43.2 -8.2 -43.8 -8.5 L-44.35 -8.55 Q-46.1 -8.3 -46.95 -9.2 L-47.15 -9.55 Q-47.5 -10.75 -46.65 -10.9 -46.85 -11.4 -47.8 -11.35 L-48.4 -11.4 Q-49.6 -11.6 -49.15 -13.15 L-49.0 -13.5 Q-48.25 -14.7 -49.8 -15.3 L-50.75 -15.7 -51.2 -15.9 Q-51.6 -16.15 -51.45 -16.95 L-51.25 -17.25 Q-50.7 -17.8 -51.1 -18.25 L-51.35 -18.65 -51.55 -18.95 Q-52.8 -19.85 -53.05 -21.55 L-53.15 -22.15 Q-53.2 -23.4 -53.7 -24.4 L-54.1 -25.05 Q-55.45 -26.8 -55.75 -29.05 -56.05 -31.1 -55.85 -33.35 M-25.65 31.55 L-33.0 13.15 -32.65 7.3 -35.25 7.55 Q-36.65 7.2 -37.75 6.5 L-43.05 2.75 -37.75 6.5 Q-36.65 7.2 -35.25 7.55 L-32.65 7.3 Q-30.65 3.15 -27.75 0.0 -19.7 -8.95 -7.85 -10.6 -19.7 -8.95 -27.75 0.0 -30.65 3.15 -32.65 7.3 L-33.0 13.15 -25.65 31.55 M-48.4 2.0 L-48.75 2.1 -48.4 2.0 M-33.0 13.15 L-44.55 9.5 -33.0 13.15 M-61.35 20.7 L-60.45 20.6 -60.15 20.5 Q-59.35 20.2 -58.45 20.05 L-57.9 19.95 Q-57.0 19.9 -56.55 18.95 L-56.3 18.5 -56.15 18.35 -55.85 18.3 Q-54.9 18.4 -54.1 18.95 L-53.55 19.15 -53.25 19.15 Q-52.65 19.2 -52.65 18.7 L-52.6 17.25 Q-52.55 17.0 -52.1 16.9 -50.85 17.05 -49.8 17.5 L-46.65 18.15 Q-46.8 17.2 -47.4 16.35 L-47.95 15.65 -48.4 14.7 Q-48.55 13.75 -47.5 13.5 L-46.65 13.35 -44.05 13.35 -43.2 13.45 Q-42.3 13.5 -41.8 14.45 L-39.45 19.0 -41.8 14.45 Q-42.3 13.5 -43.2 13.45 L-44.05 13.35 -46.65 13.35 -47.5 13.5 Q-48.55 13.75 -48.4 14.7 L-47.95 15.65 -47.4 16.35 Q-46.8 17.2 -46.65 18.15 L-49.8 17.5 Q-50.85 17.05 -52.1 16.9 -52.55 17.0 -52.6 17.25 L-52.65 18.7 Q-52.65 19.2 -53.25 19.15 L-53.55 19.15 -54.1 18.95 Q-54.9 18.4 -55.85 18.3 L-56.15 18.35 -56.3 18.5 -56.55 18.95 Q-57.0 19.9 -57.9 19.95 L-58.45 20.05 Q-59.35 20.2 -60.15 20.5 L-60.45 20.6 -61.35 20.7" fill="#4a3623" fill-rule="evenodd" stroke="none"/>
    <path d="M-45.75 -14.85 Q-43.25 -16.3 -40.65 -17.45 -36.35 -19.35 -31.8 -20.0 L-22.75 -21.4 Q-1.9 -24.5 18.95 -22.35 L19.4 -21.85 21.6 -21.7 21.65 -21.7 26.2 -20.9 34.35 -19.7 Q40.6 -18.8 42.3 -18.1 41.65 -17.15 38.3 -14.95 34.9 -12.75 32.85 -10.65 30.75 -8.6 27.7 -6.75 L22.75 -3.75 21.6 -3.1 Q17.1 -0.9 13.0 -4.6 L6.65 -10.0 3.7 -12.4 Q1.85 -14.05 0.25 -13.7 L-0.4 -13.1 Q-2.3 -11.1 -2.3 -8.1 L-7.85 -10.6 Q-6.7 -13.95 -10.1 -14.95 L-11.55 -15.0 Q-20.85 -13.25 -28.95 -7.9 -30.0 -7.2 -31.3 -7.0 -37.55 -5.5 -42.0 -10.6 L-45.75 -14.85 M50.4 -14.55 L63.05 -5.2 Q60.35 -4.3 57.65 -3.55 53.25 -2.25 43.45 -0.8 L29.1 1.2 30.6 0.0 Q32.45 -1.8 40.75 -6.95 48.25 -11.65 50.4 -14.55 M60.8 3.65 L59.5 7.35 Q57.25 14.45 55.75 21.45 L51.5 20.15 Q47.7 18.85 38.95 17.6 L26.2 16.0 21.8 15.55 21.6 15.4 21.3 14.95 20.8 14.3 21.6 13.75 Q22.4 13.2 23.3 12.85 24.7 12.2 26.2 11.85 L27.35 11.65 37.25 10.7 47.1 9.45 Q49.6 8.95 51.9 7.8 56.45 5.55 60.8 3.65 M53.65 29.95 L53.0 32.9 Q52.05 37.4 51.9 42.1 L44.05 42.9 30.6 43.6 26.2 44.0 21.6 44.45 12.25 45.3 -9.2 46.25 Q-21.0 46.85 -32.8 45.7 L-52.4 44.0 -53.65 43.9 -55.6 22.75 -55.3 22.65 Q-46.0 19.45 -36.25 20.8 -35.4 21.0 -34.7 21.75 -31.9 24.95 -30.5 29.05 L-29.45 30.45 Q-27.75 31.75 -25.65 31.55 -23.65 37.4 -18.55 40.7 -17.45 41.45 -16.05 41.75 -7.35 44.1 1.65 42.9 2.2 42.9 2.6 42.4 5.15 38.95 6.5 34.9 7.75 31.3 9.75 28.2 12.4 29.35 15.35 29.2 18.1 28.85 20.15 27.3 20.85 26.75 21.6 26.35 23.05 25.55 24.7 25.25 L26.2 25.1 31.9 25.7 40.65 27.1 49.3 28.6 53.65 29.95 M-56.9 16.15 Q-58.8 11.7 -59.25 7.1 L-59.45 4.55 Q-53.2 5.8 -48.95 7.65 -46.65 9.2 -44.55 9.5 L-54.2 14.8 -56.9 16.15 M-57.5 -4.7 L-52.3 -10.35 Q-49.65 -4.75 -45.4 0.15 L-45.75 0.75 Q-49.7 -1.9 -54.25 -3.65 L-57.5 -4.7 M15.25 5.05 L14.0 5.7 13.45 4.65 15.25 5.05" fill="url(#gradient0)" fill-rule="evenodd" stroke="none"/>
    <path d="M-19.45 10.85 L-19.25 10.85 -15.3 8.75 Q-10.9 6.65 -7.5 6.65 -4.5 6.65 1.15 9.55 L4.9 11.6 5.15 13.2 4.1 17.35 Q2.75 21.6 1.4 21.6 L-0.05 20.2 Q-1.55 18.75 -3.5 18.75 -4.3 18.75 -6.0 22.2 -7.75 25.65 -8.4 25.65 -9.15 25.65 -9.05 25.35 -8.95 22.9 -9.35 21.3 -10.1 18.3 -13.55 18.3 -14.8 18.3 -15.6 20.25 -16.4 22.2 -17.25 22.2 -18.55 22.2 -19.5 18.45 -20.25 15.6 -20.25 14.05 -20.25 12.25 -19.45 10.85 M-13.8 14.5 Q-12.75 16.8 -4.3 16.8 1.1 16.8 1.1 14.1 1.1 13.1 -1.25 12.15 -3.5 11.2 -6.4 10.85 L-11.8 11.05 Q-12.45 10.5 -13.85 10.4 -16.5 10.25 -16.5 12.7 -16.5 13.3 -16.1 13.85 -15.6 14.55 -14.7 14.55 L-13.8 14.5" fill="#2b441a" fill-rule="evenodd" stroke="none"/>
    <path d="M-11.8 11.05 L-6.4 10.85 Q-3.5 11.2 -1.25 12.15 1.1 13.1 1.1 14.1 1.1 16.8 -4.3 16.8 -12.75 16.8 -13.8 14.5 -12.4 14.3 -11.75 13.55 -11.25 12.95 -11.25 12.3 -11.25 11.5 -11.8 11.05" fill="#000000" fill-rule="evenodd" stroke="none"/>
    <path d="M4.9 11.6 L1.15 9.55 Q-4.5 6.65 -7.5 6.65 -10.9 6.65 -15.3 8.75 L-19.25 10.85 -19.45 10.85 Q-20.15 10.75 -20.7 9.95 -21.2 9.15 -21.2 8.4 -21.2 5.55 -16.65 4.15 -12.55 2.95 -6.65 3.35 -0.75 3.8 3.3 5.65 7.85 7.7 7.85 10.65 7.95 12.45 6.3 12.45 L4.9 11.6 M-11.8 11.05 Q-11.25 11.5 -11.25 12.3 -11.25 12.95 -11.75 13.55 -12.4 14.3 -13.8 14.5 L-14.7 14.55 Q-15.6 14.55 -16.1 13.85 -16.5 13.3 -16.5 12.7 -16.5 10.25 -13.85 10.4 -12.45 10.5 -11.8 11.05" fill="#99ff99" fill-rule="evenodd" stroke="none"/>
    <path d="M103.0 -119.5 L98.85 -114.35 Q95.55 -109.9 96.2 -104.45 L104.25 -102.65 107.35 -98.45 Q108.1 -106.85 114.7 -112.95 119.1 -117.0 124.35 -119.95 129.5 -122.75 135.45 -122.3 143.4 -123.2 151.15 -122.55 136.4 -132.65 118.6 -128.75 109.25 -126.55 103.0 -119.5 M42.3 -18.1 Q40.6 -18.8 34.35 -19.7 L26.2 -20.9 21.65 -21.7 21.6 -21.7 19.4 -21.85 18.95 -22.35 Q-1.9 -24.5 -22.75 -21.4 L-31.8 -20.0 Q-36.35 -19.35 -40.65 -17.45 -43.25 -16.3 -45.75 -14.85 L-42.0 -10.6 Q-37.55 -5.5 -31.3 -7.0 -30.0 -7.2 -28.95 -7.9 -20.85 -13.25 -11.55 -15.0 L-10.1 -14.95 Q-6.7 -13.95 -7.85 -10.6 L-2.3 -8.1 Q-2.3 -11.1 -0.4 -13.1 L0.25 -13.7 Q1.85 -14.05 3.7 -12.4 L6.65 -10.0 13.0 -4.6 Q17.1 -0.9 21.6 -3.1 L22.75 -3.75 27.7 -6.75 Q30.75 -8.6 32.85 -10.65 34.9 -12.75 38.3 -14.95 41.65 -17.15 42.3 -18.1 49.8 -25.4 54.55 -34.95 57.3 -40.55 62.3 -44.6 65.65 -47.15 69.75 -45.8 70.65 -42.95 68.6 -40.6 66.1 -37.55 68.65 -35.1 69.45 -34.4 70.5 -33.85 L74.0 -32.2 75.9 -31.0 75.8 -29.8 74.4 -28.65 62.8 -28.95 50.4 -14.55 63.05 -5.2 Q73.5 -9.85 83.25 -14.95 85.25 -16.0 87.25 -16.4 92.15 -16.3 92.0 -11.65 L90.65 -10.15 Q89.3 -9.1 88.75 -7.45 87.6 -3.7 90.05 -0.6 L89.7 0.35 83.0 1.15 82.55 0.6 Q79.7 -0.35 76.5 -0.5 71.5 -0.75 67.05 0.95 L60.8 3.65 59.5 7.35 Q57.25 14.45 55.75 21.45 61.4 23.1 66.9 24.35 71.3 25.2 74.5 28.15 75.7 29.25 74.7 30.55 72.7 33.25 68.85 32.65 61.1 32.0 53.65 29.95 L53.0 32.9 Q52.05 37.4 51.9 42.1 L44.05 42.9 30.6 43.6 26.2 44.0 21.6 44.45 12.25 45.3 -9.2 46.25 Q-21.0 46.85 -32.8 45.7 L-52.4 44.0 -53.65 43.9 -55.6 22.75 Q-59.2 23.9 -62.55 25.55 -68.55 28.55 -75.35 29.25 L-76.15 28.85 -77.5 27.95 Q-78.45 27.25 -78.65 26.0 -78.85 24.85 -78.6 23.9 L-78.4 23.6 Q-77.05 22.75 -75.6 22.15 -69.9 19.55 -63.95 18.25 -60.25 17.6 -56.9 16.15 -58.8 11.7 -59.25 7.1 L-59.45 4.55 -62.35 4.0 Q-71.05 -0.55 -79.3 -6.25 -80.45 -6.95 -81.8 -6.75 -84.45 -7.25 -85.45 -9.7 L-81.85 -14.5 -81.85 -15.05 -81.95 -16.2 -82.25 -17.3 Q-82.8 -18.95 -83.85 -20.0 L-84.65 -20.75 -84.85 -21.0 -84.4 -24.45 -82.35 -25.25 -73.6 -14.45 Q-72.25 -12.85 -70.55 -11.65 -64.35 -7.45 -57.5 -4.7 L-52.3 -10.35 -58.55 -22.9 Q-60.05 -25.8 -62.35 -28.05 -63.5 -29.25 -64.85 -30.0 -69.0 -32.55 -68.15 -36.9 L-62.55 -39.55 -62.85 -42.3 Q-63.0 -44.0 -62.7 -45.7 -62.55 -46.5 -62.0 -47.2 -57.35 -45.9 -55.65 -41.55 -54.5 -38.65 -54.0 -35.5 -52.25 -24.25 -45.75 -14.85 M72.1 -42.05 Q79.9 -49.6 85.05 -58.45 92.65 -71.6 94.35 -87.6 L94.9 -94.05 Q95.1 -97.25 96.6 -100.45 102.85 -101.4 103.35 -95.6 103.75 -90.75 103.25 -86.35 102.0 -75.0 98.0 -64.45 95.95 -59.05 93.15 -54.5 88.65 -47.0 81.9 -41.95 79.6 -40.3 76.8 -39.85 L73.1 -39.65 Q72.35 -40.75 72.15 -41.55 L72.1 -42.05 M50.4 -14.55 Q48.25 -11.65 40.75 -6.95 32.45 -1.8 30.6 0.0 L29.1 1.2 43.45 -0.8 Q53.25 -2.25 57.65 -3.55 60.35 -4.3 63.05 -5.2 M91.95 -5.55 Q91.9 -9.7 93.75 -11.9 L94.15 -12.3 Q101.45 -15.8 109.75 -15.45 119.05 -15.1 129.3 -15.25 137.65 -15.7 145.4 -18.15 151.4 -20.05 157.65 -20.6 L158.75 -20.4 Q161.0 -18.7 159.8 -15.7 157.75 -10.5 152.35 -8.95 147.6 -7.5 142.15 -7.1 L116.15 -8.15 Q110.35 -8.65 104.95 -6.75 L99.95 -5.1 Q95.65 -3.6 91.95 -5.55 M194.25 -5.35 Q199.45 -0.25 198.3 7.25 L197.8 11.5 Q197.55 14.95 196.05 18.15 192.5 6.75 183.3 -1.45 180.55 -3.95 177.35 -5.9 171.3 -9.65 164.1 -10.35 L162.1 -12.9 160.85 -13.1 Q162.05 -14.0 162.35 -15.3 162.55 -16.35 162.1 -17.2 160.7 -20.1 159.8 -23.25 166.7 -24.6 173.5 -21.6 L179.3 -19.05 Q185.55 -15.45 190.3 -9.65 L194.25 -5.35 M21.3 14.95 L21.6 15.4 21.8 15.55 26.2 16.0 38.95 17.6 Q47.7 18.85 51.5 20.15 L55.75 21.45 M60.8 3.65 Q56.45 5.55 51.9 7.8 49.6 8.95 47.1 9.45 L37.25 10.7 27.35 11.65 26.2 11.85 Q24.7 12.2 23.3 12.85 22.4 13.2 21.6 13.75 L20.8 14.3 Q18.7 15.95 17.55 18.65 L16.7 19.8 Q15.75 20.45 14.4 20.7 M53.65 29.95 L49.3 28.6 40.65 27.1 31.9 25.7 26.2 25.1 24.7 25.25 Q23.05 25.55 21.6 26.35 20.85 26.75 20.15 27.3 18.1 28.85 15.35 29.2 12.4 29.35 9.75 28.2 7.75 31.3 6.5 34.9 5.15 38.95 2.6 42.4 2.2 42.9 1.65 42.9 -7.35 44.1 -16.05 41.75 -17.45 41.45 -18.55 40.7 -23.65 37.4 -25.65 31.55 -27.75 31.75 -29.45 30.45 L-30.5 29.05 Q-31.9 24.95 -34.7 21.75 -35.4 21.0 -36.25 20.8 -46.0 19.45 -55.3 22.65 L-55.6 22.75 M29.1 1.2 L26.2 2.8 Q23.95 3.85 21.6 4.4 L15.25 5.05 13.45 4.65 13.25 4.6 Q8.1 -1.2 1.65 -5.6 L-2.3 -8.1 M14.0 5.7 L14.35 6.4 14.6 7.95 Q15.65 14.55 13.75 20.45 12.45 24.5 9.75 28.2 M14.0 5.7 L13.45 4.65 M10.0 10.3 Q10.25 11.7 9.65 13.25 5.95 23.1 1.75 32.75 L-1.7 20.7 Q-4.6 25.45 -5.4 31.1 -5.9 34.85 -6.9 38.5 -11.2 32.9 -11.35 25.25 L-11.5 21.25 Q-13.8 23.85 -14.5 27.55 L-15.3 31.15 -16.1 34.5 Q-23.75 23.9 -26.25 11.3 -26.45 10.4 -26.15 9.45 L-25.8 8.55 Q-17.75 -0.8 -8.3 -1.1 L-5.0 -1.3 Q4.35 0.6 9.25 8.35 9.8 9.2 10.0 10.3 M-171.5 -120.4 L-164.9 -119.9 Q-148.0 -119.65 -132.15 -114.0 -127.45 -112.2 -124.55 -108.05 -121.95 -104.35 -118.3 -101.85 -114.4 -99.25 -108.75 -100.3 L-112.55 -106.25 Q-113.25 -107.55 -113.25 -109.05 -113.2 -111.4 -112.45 -113.55 -112.0 -114.85 -112.85 -115.9 -116.85 -120.75 -122.95 -122.85 -128.95 -125.0 -135.35 -126.4 -141.85 -127.75 -148.4 -127.85 L-149.2 -127.2 Q-161.6 -126.3 -172.75 -120.85 -172.15 -120.45 -171.5 -120.4 M-185.3 -2.25 Q-190.5 2.85 -189.35 10.35 L-188.85 14.6 Q-188.6 18.05 -187.1 21.25 -183.55 9.85 -174.35 1.65 -171.6 -0.85 -168.4 -2.8 -162.35 -6.55 -155.15 -7.25 L-153.15 -9.8 -151.9 -10.0 Q-153.1 -10.9 -153.4 -12.2 -153.6 -13.25 -153.15 -14.1 -151.75 -17.0 -150.85 -20.15 -157.75 -21.5 -164.55 -18.5 L-170.35 -15.95 Q-176.6 -12.35 -181.35 -6.55 L-185.3 -2.25 M-105.15 -100.95 Q-104.3 -100.05 -103.85 -98.8 -103.05 -96.8 -103.25 -94.75 -95.65 -86.55 -90.9 -76.5 -89.15 -72.75 -86.7 -69.35 -81.75 -62.45 -75.9 -56.45 -72.3 -52.75 -71.05 -47.45 -70.1 -43.6 -67.3 -40.9 L-65.7 -41.0 -64.15 -43.25 -64.4 -47.75 -64.7 -53.9 Q-64.9 -56.25 -66.2 -58.4 -71.5 -67.25 -77.8 -75.5 -84.1 -83.9 -89.5 -92.65 -92.7 -97.85 -97.35 -101.75 -101.55 -105.2 -106.05 -107.95 -106.65 -108.35 -107.4 -108.45 -108.7 -108.3 -109.8 -107.5 -107.9 -104.0 -105.15 -100.95 M-151.7 -13.2 Q-143.65 -6.25 -132.85 -6.3 -125.3 -6.35 -117.8 -7.6 L-111.1 -9.35 Q-102.25 -12.1 -93.05 -12.8 L-91.4 -12.25 Q-87.95 -11.35 -85.1 -13.2 L-84.0 -16.6 Q-85.7 -21.4 -91.2 -21.9 -98.85 -22.95 -105.95 -20.05 -118.95 -14.7 -133.05 -15.45 L-151.5 -17.05 -151.7 -13.2 M-45.75 0.75 Q-49.7 -1.9 -54.25 -3.65 L-57.5 -4.7 M-43.05 2.75 L-37.75 6.5 Q-36.65 7.2 -35.25 7.55 L-32.65 7.3 Q-30.65 3.15 -27.75 0.0 -19.7 -8.95 -7.85 -10.6 M-32.65 7.3 L-33.0 13.15 -25.65 31.55 M-45.4 0.15 L-43.05 2.75 -45.75 0.75 M-45.4 0.15 Q-49.65 -4.75 -52.3 -10.35 M-59.45 4.55 Q-53.2 5.8 -48.95 7.65 -46.65 9.2 -44.55 9.5 L-33.0 13.15 M-44.55 9.5 L-54.2 14.8 -56.9 16.15" fill="none" stroke="#000000" stroke-linecap="round" stroke-linejoin="round" stroke-width="1.0"/>
    <path d="M2.3 -9.75 L4.1 -8.15 Q4.65 -7.5 5.4 -7.1 L6.65 -6.1 7.5 -5.45 9.6 -3.55 10.35 -2.85 13.0 -0.95 Q14.1 -0.25 15.6 0.5 17.1 1.3 19.0 1.25 L20.2 0.95 20.7 0.8 21.6 0.65 22.95 0.25 23.3 0.0 24.4 -0.9 26.2 -2.35 28.8 -5.15 M66.8 -42.0 Q66.7 -42.55 65.95 -42.0 L65.15 -41.3 Q63.6 -39.45 61.25 -37.45 60.15 -36.5 59.6 -35.1 M67.1 -31.05 L63.25 -33.8 62.75 -33.95 60.65 -34.3 Q60.3 -33.3 59.75 -32.9 L59.65 -32.5 Q60.05 -31.15 60.75 -30.75 60.55 -30.5 59.85 -30.3 L57.85 -29.95 56.8 -29.7 56.7 -29.35 M88.4 -54.05 Q88.2 -55.5 86.7 -56.7 L85.85 -57.55 85.05 -58.45 M86.1 -50.9 Q84.75 -52.45 84.25 -54.0 L84.0 -54.25 83.55 -54.45 M86.95 -56.95 Q88.6 -57.4 89.75 -59.45 L90.65 -60.75 Q93.05 -63.75 94.7 -67.0 M18.4 12.4 Q18.1 9.05 20.5 7.6 L21.0 7.5 21.6 7.65 Q22.35 7.9 23.05 8.6 23.7 9.3 23.6 10.65 24.65 10.05 26.2 10.0 L27.05 9.95 Q27.7 10.0 28.15 9.45 29.1 8.3 28.5 6.9 29.8 7.8 31.95 7.4 L32.25 7.35 32.8 7.45 32.9 7.5 41.55 7.3 Q41.95 6.9 42.55 6.75 43.3 6.6 43.3 5.75 L43.2 5.2 44.35 5.45 Q45.35 5.55 45.85 5.9 L46.3 5.95 46.95 5.55 Q48.95 4.15 50.95 3.45 M21.3 18.15 Q21.9 17.9 21.1 18.5 L20.65 18.95 Q19.05 20.95 20.55 22.9 21.0 23.45 21.6 23.5 L22.4 23.4 22.95 22.95 24.7 20.7 25.95 19.65 26.2 19.6 26.5 19.5 Q27.1 19.35 27.3 19.75 L27.6 19.95 27.95 20.1 Q29.0 20.6 29.2 21.35 29.45 22.25 29.05 23.0 L35.25 22.6 Q40.05 22.75 41.0 23.5 L41.25 23.9 Q41.55 25.05 42.85 24.6 L43.75 24.2 45.1 23.2 45.55 22.85 46.05 22.75 Q47.2 22.8 48.1 23.55 49.35 24.7 50.95 24.85 L51.8 24.95 54.45 25.4 59.3 26.5 M11.8 6.35 Q10.75 6.1 10.15 5.35 L9.85 5.1 9.5 4.9 Q7.75 2.7 5.5 1.4 L5.15 1.2 0.3 -2.3 Q-1.5 -3.7 -4.35 -4.35 L-5.2 -4.5 -11.55 -4.45 -12.1 -4.35 Q-14.1 -3.6 -16.1 -2.2 L-16.75 -1.8 -18.75 -0.65 Q-20.5 0.45 -21.55 1.5 L-22.4 2.1 -23.65 2.85 -27.05 5.25 -27.3 5.5 -29.1 7.25 -29.45 7.4 -29.95 7.5 M-70.55 -59.25 Q-70.4 -60.4 -71.3 -61.9 L-71.5 -62.35 Q-72.15 -63.95 -73.25 -63.1 L-74.0 -62.65 -76.3 -62.5 -76.65 -62.65 Q-77.95 -63.2 -77.05 -64.35 L-76.6 -64.7 Q-75.0 -65.35 -74.75 -67.0 -74.65 -67.65 -75.15 -67.7 L-75.75 -67.8 -78.65 -67.7 -79.5 -67.6 Q-81.8 -67.6 -81.4 -69.9 L-81.25 -70.45 -80.9 -71.9 M-15.85 -10.9 Q-18.55 -10.25 -20.8 -8.7 -21.15 -8.45 -21.55 -8.25 L-25.35 -6.05 -25.8 -5.65 Q-26.6 -4.6 -27.95 -3.45 L-28.25 -3.15 -32.2 0.1 -32.95 1.1 -33.4 1.45 Q-34.75 2.1 -36.05 1.2 -36.5 0.85 -37.15 0.75 L-37.45 0.6 Q-38.7 -0.15 -38.65 -1.7 -38.6 -3.15 -37.45 -3.75 L-39.15 -3.9 Q-40.35 -3.6 -41.7 -3.9 L-42.75 -4.5 -43.1 -5.0 Q-43.9 -6.0 -43.65 -7.45 L-43.5 -7.75 Q-43.2 -8.2 -43.8 -8.5 L-44.35 -8.55 Q-46.1 -8.3 -46.95 -9.2 L-47.15 -9.55 Q-47.5 -10.75 -46.65 -10.9 -46.85 -11.4 -47.8 -11.35 L-48.4 -11.4 Q-49.6 -11.6 -49.15 -13.15 L-49.0 -13.5 Q-48.25 -14.7 -49.8 -15.3 L-50.75 -15.7 -51.2 -15.9 Q-51.6 -16.15 -51.45 -16.95 L-51.25 -17.25 Q-50.7 -17.8 -51.1 -18.25 L-51.35 -18.65 -51.55 -18.95 Q-52.8 -19.85 -53.05 -21.55 L-53.15 -22.15 Q-53.2 -23.4 -53.7 -24.4 L-54.1 -25.05 Q-55.45 -26.8 -55.75 -29.05 -56.05 -31.1 -55.85 -33.35 M-43.5 7.2 Q-43.75 7.9 -44.65 7.2 -45.25 6.8 -46.0 6.45 L-47.55 5.6 -48.35 5.15 Q-49.7 4.45 -49.7 3.15 L-49.5 2.65 Q-49.2 2.2 -48.75 2.1 L-51.8 2.95 -54.7 3.4 Q-55.65 3.35 -55.45 2.0 -55.2 0.35 -56.5 0.15 L-56.8 0.25 -59.6 1.0 Q-60.8 1.2 -61.3 0.55 L-61.55 0.0 Q-61.75 -1.0 -62.6 -1.55 L-63.05 -1.65 -63.3 -1.45 Q-64.15 -0.45 -65.4 -1.05 L-66.05 -1.65 Q-66.2 -1.85 -66.5 -1.95 -67.55 -2.4 -67.3 -4.0 L-67.15 -4.3 -66.5 -5.15 Q-68.15 -4.15 -70.0 -5.1 -71.95 -6.1 -73.4 -8.1 L-75.45 -10.35 M-48.75 2.1 L-48.4 2.0 M-39.45 19.0 L-41.8 14.45 Q-42.3 13.5 -43.2 13.45 L-44.05 13.35 -46.65 13.35 -47.5 13.5 Q-48.55 13.75 -48.4 14.7 L-47.95 15.65 -47.4 16.35 Q-46.8 17.2 -46.65 18.15 L-49.8 17.5 Q-50.85 17.05 -52.1 16.9 -52.55 17.0 -52.6 17.25 L-52.65 18.7 Q-52.65 19.2 -53.25 19.15 L-53.55 19.15 -54.1 18.95 Q-54.9 18.4 -55.85 18.3 L-56.15 18.35 -56.3 18.5 -56.55 18.95 Q-57.0 19.9 -57.9 19.95 L-58.45 20.05 Q-59.35 20.2 -60.15 20.5 L-60.45 20.6 -61.35 20.7" fill="none" stroke="#765638" stroke-linecap="round" stroke-linejoin="round" stroke-width="1.0"/>
  </g>
  <defs>
    <radialGradient cx="0" cy="0" gradientTransform="matrix(0.0624, -0.0204, 0.0295, 0.0904, -24.0, -68.5)" gradientUnits="userSpaceOnUse" id="gradient0" r="819.2" spreadMethod="pad">
      <stop offset="0.0" stop-color="#3f4039"/>
      <stop offset="0.8274509803921568" stop-color="#282d22"/>
      <stop offset="1.0" stop-color="#1e1e1e"/>
    </radialGradient>
  </defs>
</svg>
