<?xml version="1.0" encoding="UTF-8" standalone="no"?>
<svg xmlns:xlink="http://www.w3.org/1999/xlink" height="121.95px" width="249.55px" xmlns="http://www.w3.org/2000/svg">
  <g transform="matrix(1.0, 0.0, 0.0, 1.0, 130.0, 80.0)">
    <path d="M6.0 -3.0 Q12.35 -4.85 19.0 -4.6 21.75 -5.15 24.0 -7.0 L27.0 0.5 27.15 -7.45 29.5 -9.0 Q29.0 -4.7 33.0 -3.5 L33.5 -8.5 33.9 -8.1 Q35.35 -6.1 37.55 -6.3 L38.5 -7.0 37.55 -6.3 Q35.35 -6.1 33.9 -8.1 L33.5 -8.5 33.0 -3.5 Q29.0 -4.7 29.5 -9.0 L27.15 -7.45 27.0 0.5 24.0 -7.0 Q21.75 -5.15 19.0 -4.6 12.35 -4.85 6.0 -3.0 M1.0 -3.5 Q6.5 -7.55 13.3 -8.7 L18.85 -9.75 Q24.6 -9.1 28.55 -12.9 L34.35 -13.1 40.15 -14.2 40.85 -13.6 41.55 -13.5 43.4 -16.45 Q46.3 -20.75 49.45 -24.85 53.6 -30.25 58.15 -35.35 60.45 -37.85 63.0 -40.1 68.2 -44.55 73.65 -48.65 L83.0 -55.4 Q87.5 -58.55 91.25 -62.7 94.95 -66.85 97.65 -71.45 99.95 -75.3 101.5 -79.5 L100.9 -76.85 99.45 -71.65 97.6 -66.65 95.4 -61.9 Q93.55 -58.25 91.25 -55.1 87.2 -49.45 82.05 -44.9 73.05 -36.95 64.85 -27.95 57.7 -20.15 51.5 -11.5 L60.6 -12.15 Q71.8 -13.3 82.55 -16.2 93.15 -19.0 103.3 -23.5 111.55 -27.1 119.05 -31.7 L112.05 -26.15 104.95 -20.9 Q97.7 -15.95 89.65 -12.45 79.45 -8.05 68.6 -5.75 L59.6 -4.6 Q49.3 -3.3 39.0 -0.5 57.8 2.25 76.5 6.4 95.15 10.7 113.5 16.5 L105.45 17.7 Q95.4 18.85 85.55 18.15 75.55 17.55 65.95 14.85 58.05 12.75 50.5 9.55 42.25 8.95 35.3 4.35 L35.0 4.0 34.4 3.85 33.45 7.45 31.6 6.7 Q23.15 3.3 14.3 5.25 L14.1 5.3 Q6.65 2.15 0.45 -2.7 L0.35 -2.8 0.45 -2.7 Q6.65 2.15 14.1 5.3 L14.3 5.25 14.45 6.0 Q10.15 10.95 6.0 16.0 3.9 18.6 2.05 21.4 L-2.45 28.55 -5.55 28.5 -11.25 37.2 -17.0 29.6 -20.95 28.45 -32.15 7.85 -29.05 4.35 -30.0 3.5 -32.65 3.8 Q-41.9 4.9 -49.1 10.8 L-48.6 12.7 -49.8 13.0 Q-55.25 14.75 -60.6 16.7 L-77.95 23.55 Q-86.6 27.05 -95.2 31.0 L-111.4 38.6 -107.75 35.1 -104.6 31.9 Q-100.5 27.7 -95.9 24.05 -91.4 20.4 -86.5 17.3 -76.5 11.05 -65.4 7.45 -59.75 5.55 -53.8 4.2 -62.6 5.8 -71.5 4.3 L-77.4 3.05 -90.75 0.9 -103.85 0.25 -116.7 1.25 Q-123.15 2.45 -129.5 4.0 -126.25 0.2 -121.8 -1.55 L-118.75 -2.6 -111.5 -4.3 Q-101.05 -6.7 -90.45 -8.3 L-76.8 -9.0 Q-63.25 -8.95 -50.0 -5.5 -57.2 -13.35 -65.2 -20.5 -69.65 -24.55 -73.3 -29.55 L-78.35 -36.85 Q-80.5 -40.1 -83.25 -43.1 -91.0 -51.45 -101.65 -55.6 -105.15 -57.0 -109.0 -58.0 -101.9 -59.9 -94.85 -59.2 -90.95 -58.9 -87.2 -57.55 -82.3 -55.85 -78.1 -53.0 L-70.55 -47.4 Q-59.95 -38.7 -52.8 -26.8 -50.35 -22.85 -48.5 -18.5 L-47.25 -15.65 Q-42.5 -13.25 -37.2 -12.95 L-34.1 -12.9 Q-28.7 -14.0 -24.6 -10.95 -24.05 -10.45 -23.8 -9.7 -23.0 -7.2 -23.75 -4.7 L-22.05 -3.15 -21.55 -2.6 -8.0 -11.0 -7.4 -11.4 0.35 -2.8 1.0 -3.5 M-26.5 -3.0 L-27.5 -8.0 Q-30.95 -10.3 -34.5 -9.65 L-38.0 -0.5 Q-38.75 -2.95 -38.65 -5.55 -38.55 -8.2 -40.0 -10.0 -43.2 -5.5 -44.4 -0.3 -43.5 -4.8 -45.1 -9.05 L-46.4 -8.35 -48.0 -11.0 -46.4 -8.35 -45.1 -9.05 Q-43.5 -4.8 -44.4 -0.3 -43.2 -5.5 -40.0 -10.0 -38.55 -8.2 -38.65 -5.55 -38.75 -2.95 -38.0 -0.5 L-34.5 -9.65 Q-30.95 -10.3 -27.5 -8.0 L-26.5 -3.0 M8.55 5.15 Q-1.1 1.8 -7.35 -6.3 L-8.5 -8.0 Q-8.7 -6.05 -10.2 -5.0 -17.8 0.4 -25.8 4.75 -25.85 6.6 -25.2 8.15 L-17.5 25.5 -14.5 19.0 -11.0 32.0 -6.3 19.5 -4.0 25.5 Q1.6 15.0 9.3 5.75 9.85 5.35 9.0 5.35 L8.55 5.15 M-29.3 6.35 Q-28.45 4.35 -26.9 3.1 -25.0 1.5 -22.9 0.25 -16.7 -3.15 -11.0 -7.5 -16.7 -3.15 -22.9 0.25 -25.0 1.5 -26.9 3.1 -28.45 4.35 -29.3 6.35 M14.45 6.0 L14.1 5.3 14.45 6.0 M-49.8 13.0 L-49.1 10.8 -49.8 13.0 M-50.5 3.5 L-53.8 4.2 -50.5 3.5 M-21.55 -2.6 L-29.05 4.35 -21.55 -2.6" fill="#4a3623" fill-rule="evenodd" stroke="none"/>
    <path d="M34.35 -13.1 L28.55 -12.9 Q24.6 -9.1 18.85 -9.75 L13.3 -8.7 Q6.5 -7.55 1.0 -3.5 L0.35 -2.8 -7.4 -11.4 -8.0 -11.0 -21.55 -2.6 -22.05 -3.15 -23.75 -4.7 Q-23.0 -7.2 -23.8 -9.7 -24.05 -10.45 -24.6 -10.95 -28.7 -14.0 -34.1 -12.9 -25.35 -16.05 -16.2 -17.65 -7.1 -19.45 2.25 -19.75 L17.6 -19.3 Q24.05 -18.4 29.75 -15.65 L34.35 -13.1 M14.3 5.25 Q23.15 3.3 31.6 6.7 L33.45 7.45 34.4 3.85 35.0 4.0 35.3 4.35 Q42.25 8.95 50.5 9.55 50.35 19.75 43.0 26.55 38.3 30.95 32.45 33.45 23.85 37.05 14.8 39.15 5.75 41.1 -3.65 41.4 -12.85 41.7 -21.95 40.05 -24.35 39.65 -26.6 38.85 -36.5 35.8 -41.3 26.95 -45.2 19.85 -45.5 11.9 L-48.6 12.7 -49.1 10.8 Q-41.9 4.9 -32.65 3.8 L-30.0 3.5 -29.05 4.35 -32.15 7.85 -20.95 28.45 -17.0 29.6 -11.25 37.2 -5.55 28.5 -2.45 28.55 2.05 21.4 Q3.9 18.6 6.0 16.0 10.15 10.95 14.45 6.0 L14.3 5.25 M-32.35 9.6 L-32.0 10.0 -32.35 9.6" fill="url(#gradient0)" fill-rule="evenodd" stroke="none"/>
    <path d="M9.3 5.75 Q1.6 15.0 -4.0 25.5 L-6.3 19.5 -11.0 32.0 -14.5 19.0 -17.5 25.5 -25.2 8.15 Q-25.85 6.6 -25.8 4.75 -17.8 0.4 -10.2 -5.0 -8.7 -6.05 -8.5 -8.0 L-7.35 -6.3 Q-1.1 1.8 8.55 5.15 L9.3 5.75 M-19.5 13.5 L-23.2 6.6 Q-20.1 4.05 -16.4 2.2 -14.35 1.1 -12.15 0.45 L-10.05 0.6 Q-8.95 1.15 -7.5 1.5 -11.5 3.1 -15.15 5.25 -16.55 6.15 -15.55 7.15 L-9.5 7.0 -11.05 12.4 -10.0 14.0 -11.05 12.4 -9.5 7.0 -15.55 7.15 Q-16.55 6.15 -15.15 5.25 -11.5 3.1 -7.5 1.5 -8.95 1.15 -10.05 0.6 L-12.15 0.45 Q-14.35 1.1 -16.4 2.2 -20.1 4.05 -23.2 6.6 L-19.5 13.5" fill="#00ff00" fill-rule="evenodd" stroke="none"/>
    <path d="M38.5 -7.0 L37.55 -6.3 Q35.35 -6.1 33.9 -8.1 L33.5 -8.5 33.0 -3.5 Q29.0 -4.7 29.5 -9.0 L27.15 -7.45 27.0 0.5 24.0 -7.0 Q21.75 -5.15 19.0 -4.6 12.35 -4.85 6.0 -3.0 M-48.0 -11.0 L-46.4 -8.35 -45.1 -9.05 Q-43.5 -4.8 -44.4 -0.3 -43.2 -5.5 -40.0 -10.0 -38.55 -8.2 -38.65 -5.55 -38.75 -2.95 -38.0 -0.5 L-34.5 -9.65 Q-30.95 -10.3 -27.5 -8.0 L-26.5 -3.0 M-11.0 -7.5 Q-16.7 -3.15 -22.9 0.25 -25.0 1.5 -26.9 3.1 -28.45 4.35 -29.3 6.35" fill="none" stroke="#765638" stroke-linecap="round" stroke-linejoin="round" stroke-width="1.0"/>
    <path d="M34.35 -13.1 L28.55 -12.9 Q24.6 -9.1 18.85 -9.75 L13.3 -8.7 Q6.5 -7.55 1.0 -3.5 M0.35 -2.8 L0.45 -2.7 Q6.65 2.15 14.1 5.3 L14.3 5.25 Q23.15 3.3 31.6 6.7 L33.45 7.45 34.4 3.85 M35.0 4.0 L35.3 4.35 Q42.25 8.95 50.5 9.55 58.05 12.75 65.95 14.85 75.55 17.55 85.55 18.15 95.4 18.85 105.45 17.7 L113.5 16.5 Q95.15 10.7 76.5 6.4 57.8 2.25 39.0 -0.5 49.3 -3.3 59.6 -4.6 L68.6 -5.75 Q79.45 -8.05 89.65 -12.45 97.7 -15.95 104.95 -20.9 L112.05 -26.15 119.05 -31.7 Q111.55 -27.1 103.3 -23.5 93.15 -19.0 82.55 -16.2 71.8 -13.3 60.6 -12.15 L51.5 -11.5 Q57.7 -20.15 64.85 -27.95 73.05 -36.95 82.05 -44.9 87.2 -49.45 91.25 -55.1 93.55 -58.25 95.4 -61.9 L97.6 -66.65 99.45 -71.65 100.9 -76.85 101.5 -79.5 Q99.95 -75.3 97.65 -71.45 94.95 -66.85 91.25 -62.7 87.5 -58.55 83.0 -55.4 L73.65 -48.65 Q68.2 -44.55 63.0 -40.1 60.45 -37.85 58.15 -35.35 53.6 -30.25 49.45 -24.85 46.3 -20.75 43.4 -16.45 L41.55 -13.5 40.85 -13.6 40.15 -14.2 34.35 -13.1 29.75 -15.65 Q24.05 -18.4 17.6 -19.3 L2.25 -19.75 Q-7.1 -19.45 -16.2 -17.65 -25.35 -16.05 -34.1 -12.9 -28.7 -14.0 -24.6 -10.95 -24.05 -10.45 -23.8 -9.7 -23.0 -7.2 -23.75 -4.7 L-22.05 -3.15 M-21.55 -2.6 L-8.0 -11.0 M-7.4 -11.4 L0.35 -2.8 M-48.6 12.7 L-49.8 13.0 Q-55.25 14.75 -60.6 16.7 L-77.95 23.55 Q-86.6 27.05 -95.2 31.0 L-111.4 38.6 -107.75 35.1 -104.6 31.9 Q-100.5 27.7 -95.9 24.05 -91.4 20.4 -86.5 17.3 -76.5 11.05 -65.4 7.45 -59.75 5.55 -53.8 4.2 -62.6 5.8 -71.5 4.3 L-77.4 3.05 -90.75 0.9 -103.85 0.25 -116.7 1.25 Q-123.15 2.45 -129.5 4.0 -126.25 0.2 -121.8 -1.55 L-118.75 -2.6 -111.5 -4.3 Q-101.05 -6.7 -90.45 -8.3 L-76.8 -9.0 Q-63.25 -8.95 -50.0 -5.5 -57.2 -13.35 -65.2 -20.5 -69.65 -24.55 -73.3 -29.55 L-78.35 -36.85 Q-80.5 -40.1 -83.25 -43.1 -91.0 -51.45 -101.65 -55.6 -105.15 -57.0 -109.0 -58.0 -101.9 -59.9 -94.85 -59.2 -90.95 -58.9 -87.2 -57.55 -82.3 -55.85 -78.1 -53.0 L-70.55 -47.4 Q-59.95 -38.7 -52.8 -26.8 -50.35 -22.85 -48.5 -18.5 L-47.25 -15.65 Q-42.5 -13.25 -37.2 -12.95 L-34.1 -12.9 M9.3 5.75 Q1.6 15.0 -4.0 25.5 L-6.3 19.5 -11.0 32.0 -14.5 19.0 -17.5 25.5 -25.2 8.15 Q-25.85 6.6 -25.8 4.75 -17.8 0.4 -10.2 -5.0 -8.7 -6.05 -8.5 -8.0 L-7.35 -6.3 Q-1.1 1.8 8.55 5.15 L9.0 5.35 Q9.85 5.35 9.3 5.75 M-32.0 10.0 L-32.35 9.6 M-30.0 3.5 L-32.65 3.8 Q-41.9 4.9 -49.1 10.8 L-49.8 13.0 M-48.6 12.7 L-45.5 11.9 Q-45.2 19.85 -41.3 26.95 -36.5 35.8 -26.6 38.85 -24.35 39.65 -21.95 40.05 -12.85 41.7 -3.65 41.4 5.75 41.1 14.8 39.15 23.85 37.05 32.45 33.45 38.3 30.95 43.0 26.55 50.35 19.75 50.5 9.55 M14.45 6.0 Q10.15 10.95 6.0 16.0 3.9 18.6 2.05 21.4 L-2.45 28.55 -5.55 28.5 -11.25 37.2 -17.0 29.6 -20.95 28.45 -32.15 7.85 -29.05 4.35 -21.55 -2.6 M-53.8 4.2 L-50.5 3.5 M14.1 5.3 L14.45 6.0" fill="none" stroke="#000000" stroke-linecap="round" stroke-linejoin="round" stroke-width="1.0"/>
    <path d="M-10.0 14.0 L-11.05 12.4 -9.5 7.0 -15.55 7.15 Q-16.55 6.15 -15.15 5.25 -11.5 3.1 -7.5 1.5 -8.95 1.15 -10.05 0.6 L-12.15 0.45 Q-14.35 1.1 -16.4 2.2 -20.1 4.05 -23.2 6.6 L-19.5 13.5" fill="none" stroke="#abfec1" stroke-linecap="round" stroke-linejoin="round" stroke-width="1.0"/>
  </g>
  <defs>
    <radialGradient cx="0" cy="0" gradientTransform="matrix(0.0624, -0.0204, 0.0295, 0.0904, -24.0, -68.5)" gradientUnits="userSpaceOnUse" id="gradient0" r="819.2" spreadMethod="pad">
      <stop offset="0.0" stop-color="#3f4039"/>
      <stop offset="0.8274509803921568" stop-color="#282d22"/>
      <stop offset="1.0" stop-color="#1e1e1e"/>
    </radialGradient>
  </defs>
</svg>
