<?xml version="1.0" encoding="UTF-8" standalone="no"?>
<svg xmlns:xlink="http://www.w3.org/1999/xlink" height="70.75px" width="172.5px" xmlns="http://www.w3.org/2000/svg">
  <g transform="matrix(1.0, 0.0, 0.0, 1.0, 84.55, 39.8)">
    <path d="M20.35 -32.45 L23.85 -32.25 26.35 -31.9 27.95 -30.4 Q28.65 -29.65 28.65 -28.6 L28.4 -26.4 28.2 -25.4 27.9 -24.6 Q27.25 -23.1 26.0 -21.85 L24.65 -20.7 23.7 -20.0 Q22.05 -18.9 20.1 -18.15 L20.35 -32.45 M-25.25 -31.95 L-25.3 -31.0 Q-25.4 -28.65 -22.75 -18.1 L-22.7 -17.9 -23.95 -18.6 -24.1 -18.7 -26.75 -20.25 -27.3 -20.6 Q-28.65 -21.5 -30.2 -23.65 -31.8 -25.85 -31.2 -27.7 -30.85 -28.8 -29.95 -29.3 L-27.5 -30.55 -26.2 -31.2 -25.55 -31.95 -25.25 -31.95 M-23.95 -18.6 L-22.75 -18.1 -23.95 -18.6" fill="#3a371f" fill-rule="evenodd" stroke="none"/>
    <path d="M24.65 -20.7 L24.25 -20.4 23.9 -20.1 22.95 -19.4 23.7 -20.0 23.9 -20.1 23.7 -20.0 24.65 -20.7" fill="url(#gradient0)" fill-rule="evenodd" stroke="none"/>
    <path d="M44.5 -36.5 L46.5 -36.65 Q49.05 -36.7 50.5 -34.7 L51.55 -32.9 52.45 -30.4 Q53.65 -26.2 56.3 -22.6 57.95 -20.35 59.85 -18.25 L61.05 -17.25 Q65.25 -14.85 70.05 -14.05 L76.15 -12.85 81.65 -11.4 84.6 -10.3 Q85.95 -9.55 86.35 -8.05 87.05 -5.25 87.35 -2.5 L72.0 -3.0 62.5 -3.95 57.65 -4.15 Q53.4 -4.25 49.35 -2.65 45.05 -1.05 41.05 1.2 L33.55 5.55 Q31.55 6.65 29.45 7.45 L27.2 7.55 Q26.05 7.15 25.0 6.5 23.2 5.35 22.85 3.3 22.55 1.45 23.4 -0.1 25.0 -2.95 27.25 -5.45 L32.5 -11.25 37.1 -16.05 Q39.45 -18.5 40.8 -21.45 42.3 -24.6 44.05 -33.95 L45.9 -33.7 46.75 -33.35 Q48.0 -33.0 48.2 -31.0 48.45 -28.55 49.25 -27.0 51.35 -22.9 54.0 -19.1 L56.5 -15.65 Q56.8 -15.25 57.3 -15.0 61.85 -12.95 66.85 -11.75 L68.75 -11.3 76.85 -9.7 78.75 -9.3 Q81.85 -8.75 82.3 -5.5 81.85 -8.75 78.75 -9.3 L76.85 -9.7 68.75 -11.3 66.85 -11.75 Q61.85 -12.95 57.3 -15.0 56.8 -15.25 56.5 -15.65 L54.0 -19.1 Q51.35 -22.9 49.25 -27.0 48.45 -28.55 48.2 -31.0 48.0 -33.0 46.75 -33.35 L45.9 -33.7 44.05 -33.95 44.5 -36.5 M61.8 -5.5 L61.0 -6.15 59.25 -6.5 Q56.45 -6.25 53.8 -6.5 L55.3 -12.0 47.3 -11.35 Q46.35 -11.15 45.85 -10.35 43.75 -6.65 39.9 -5.55 38.25 -7.8 40.35 -9.9 L41.55 -11.05 Q42.6 -12.05 43.15 -13.25 42.85 -14.55 41.8 -15.2 40.1 -16.25 38.3 -15.5 40.1 -16.25 41.8 -15.2 42.85 -14.55 43.15 -13.25 42.6 -12.05 41.55 -11.05 L40.35 -9.9 Q38.25 -7.8 39.9 -5.55 43.75 -6.65 45.85 -10.35 46.35 -11.15 47.3 -11.35 L55.3 -12.0 53.8 -6.5 Q56.45 -6.25 59.25 -6.5 L61.0 -6.15 61.8 -5.5 M37.8 -11.5 Q36.45 -10.1 35.45 -8.4 35.05 -7.75 35.2 -7.1 35.65 -5.25 37.3 -5.0 42.8 -4.25 46.85 -6.95 L47.45 -7.65 Q48.05 -9.25 49.8 -9.45 L50.8 -9.55 Q52.3 -9.75 51.8 -8.0 52.3 -9.75 50.8 -9.55 L49.8 -9.45 Q48.05 -9.25 47.45 -7.65 L46.85 -6.95 Q42.8 -4.25 37.3 -5.0 35.65 -5.25 35.2 -7.1 35.05 -7.75 35.45 -8.4 36.45 -10.1 37.8 -11.5" fill="url(#gradient1)" fill-rule="evenodd" stroke="none"/>
    <path d="M52.75 4.3 L52.85 8.45 52.6 13.1 51.75 18.55 51.1 20.4 Q50.25 22.1 48.75 22.8 L47.2 23.2 Q37.3 26.2 27.0 28.0 L19.25 28.95 9.45 30.4 7.45 30.45 7.0 13.3 11.35 10.25 Q14.15 8.4 17.45 7.7 L19.25 10.2 Q22.05 13.55 26.2 14.15 28.55 14.05 30.7 13.25 L38.8 9.9 47.0 6.5 Q49.8 5.3 52.75 4.3 M-23.0 28.7 Q-26.15 29.5 -29.5 29.4 L-36.7 28.7 Q-40.35 28.4 -43.35 26.2 -45.6 24.6 -46.95 22.3 L-51.45 14.5 -55.7 6.5 -55.45 5.6 -55.05 5.7 -48.4 7.25 -43.1 8.7 -36.45 9.35 -35.15 8.8 -30.25 6.0 -30.0 5.85 -23.0 8.05 -23.0 28.7 M-37.15 -20.2 L-33.65 -22.15 -33.7 -18.25 -33.3 -16.15 -32.2 -14.25 -30.65 -12.7 Q-28.7 -11.1 -26.45 -10.05 -24.9 -9.3 -23.2 -8.85 L-17.05 -7.4 -16.45 -7.3 -15.85 -7.2 Q-16.4 -5.45 -17.45 -4.15 L-19.3 -2.55 Q-22.55 -0.35 -26.4 -0.9 L-27.95 -1.4 -28.2 -1.5 -31.4 -7.0 -33.6 -9.75 -33.9 -10.2 -34.95 -12.2 -35.7 -14.3 -36.0 -15.35 -36.35 -16.6 -37.15 -20.2 M15.9 4.25 L11.3 2.95 Q8.0 1.85 6.35 -0.95 5.6 -2.2 5.25 -3.5 4.95 -4.45 5.05 -5.45 L5.2 -7.2 14.25 -8.6 Q19.5 -10.25 24.8 -12.2 L27.95 -13.95 Q28.95 -14.55 29.4 -15.55 L31.85 -21.6 Q31.85 -20.9 32.65 -20.4 33.4 -19.95 34.5 -19.95 L33.7 -17.65 32.15 -15.1 Q28.85 -10.8 24.5 -7.85 20.15 -4.95 16.95 -0.85 15.15 1.45 15.9 4.25 M17.35 -2.6 Q16.05 -2.6 15.15 -4.35 14.25 -6.1 14.25 -8.6 14.25 -6.1 15.15 -4.35 16.05 -2.6 17.35 -2.6 M-26.7 -9.5 Q-28.2 -7.85 -30.35 -7.15 L-31.4 -7.0 -30.35 -7.15 Q-28.2 -7.85 -26.7 -9.5" fill="url(#gradient2)" fill-rule="evenodd" stroke="none"/>
    <path d="M-83.95 1.1 Q-83.7 -0.65 -82.9 -2.25 -82.35 -3.3 -81.4 -3.8 L-75.6 -7.15 Q-71.95 -9.2 -68.35 -11.35 L-63.3 -14.65 -59.9 -17.1 Q-56.6 -19.5 -54.15 -23.05 -51.8 -26.55 -50.0 -30.5 -48.75 -33.3 -47.1 -35.85 -46.2 -37.2 -44.9 -38.2 -43.95 -38.9 -42.8 -39.25 L-42.5 -39.3 -43.0 -36.0 Q-44.2 -28.05 -44.4 -24.9 -44.55 -22.2 -44.15 -19.45 L-43.0 -15.25 -41.2 -11.2 -38.75 -6.45 Q-37.85 -4.75 -37.25 -2.8 -37.05 -2.25 -37.2 -1.55 L-37.85 0.2 Q-39.2 2.7 -41.75 3.1 L-44.95 3.8 Q-46.3 4.15 -47.35 3.2 -50.85 -0.15 -55.15 -2.55 -56.85 -3.45 -58.5 -3.85 -61.9 -4.45 -65.15 -3.15 L-70.55 -1.3 -75.9 0.6 -81.65 0.95 Q-76.3 -5.85 -67.55 -9.55 -60.0 -12.85 -53.8 -18.45 -51.95 -20.15 -51.1 -22.6 L-48.1 -30.65 Q-46.6 -34.4 -43.0 -36.0 -46.6 -34.4 -48.1 -30.65 L-51.1 -22.6 Q-51.95 -20.15 -53.8 -18.45 -60.0 -12.85 -67.55 -9.55 -76.3 -5.85 -81.65 0.95 L-83.95 1.1 M-43.7 -7.5 L-44.15 -6.95 -45.3 -5.6 Q-45.95 -5.0 -46.75 -4.9 -49.35 -4.65 -51.65 -5.65 L-53.05 -6.65 Q-53.75 -7.45 -54.7 -7.35 -57.05 -7.1 -55.7 -4.5 -57.05 -7.1 -54.7 -7.35 -53.75 -7.45 -53.05 -6.65 L-51.65 -5.65 Q-49.35 -4.65 -46.75 -4.9 -45.95 -5.0 -45.3 -5.6 L-44.15 -6.95 -43.7 -7.5 M-43.2 -9.5 L-44.55 -10.95 -45.45 -11.65 -46.5 -11.5 -45.2 -6.5 Q-46.85 -5.5 -48.75 -5.85 -50.3 -5.85 -51.15 -7.25 L-52.05 -9.1 Q-52.45 -10.1 -53.0 -10.9 -54.55 -13.1 -57.25 -12.9 -58.1 -11.45 -58.25 -9.95 L-58.7 -4.5 -58.25 -9.95 Q-58.1 -11.45 -57.25 -12.9 -54.55 -13.1 -53.0 -10.9 -52.45 -10.1 -52.05 -9.1 L-51.15 -7.25 Q-50.3 -5.85 -48.75 -5.85 -46.85 -5.5 -45.2 -6.5 L-46.5 -11.5 -45.45 -11.65 -44.55 -10.95 -43.2 -9.5" fill="url(#gradient3)" fill-rule="evenodd" stroke="none"/>
    <path d="M20.35 -32.45 L20.35 -33.2 20.05 -33.55 20.2 -35.2 24.35 -34.65 Q27.5 -34.2 28.25 -33.75 30.0 -32.7 30.9 -31.85 31.75 -31.05 31.7 -30.4 L32.05 -29.65 32.4 -27.4 Q32.5 -24.4 31.85 -21.6 L29.4 -15.55 Q28.95 -14.55 27.95 -13.95 L24.8 -12.2 Q19.5 -10.25 14.25 -8.6 L5.2 -7.2 -5.65 -6.25 -9.2 -6.35 -15.85 -7.2 -16.45 -7.3 -17.05 -7.4 -23.2 -8.85 Q-24.9 -9.3 -26.45 -10.05 -28.7 -11.1 -30.65 -12.7 L-32.2 -14.25 -33.3 -16.15 -33.7 -18.25 -33.65 -22.15 -33.15 -29.9 -29.35 -32.3 Q-27.65 -33.25 -25.45 -33.45 L-25.3 -32.55 -25.55 -31.95 -26.2 -31.2 -27.5 -30.55 -29.95 -29.3 Q-30.85 -28.8 -31.2 -27.7 -31.8 -25.85 -30.2 -23.65 -28.65 -21.5 -27.3 -20.6 L-26.75 -20.25 -24.1 -18.7 -23.95 -18.6 -22.7 -17.9 -22.75 -18.1 -18.35 -16.75 Q-14.55 -15.85 -10.05 -15.3 L-1.2 -14.75 7.9 -15.6 17.0 -17.3 20.1 -18.15 Q22.05 -18.9 23.7 -20.0 L22.95 -19.4 23.9 -20.1 24.25 -20.4 24.65 -20.7 26.0 -21.85 Q27.25 -23.1 27.9 -24.6 L28.2 -25.4 28.4 -26.4 28.65 -28.6 Q28.65 -29.65 27.95 -30.4 L26.35 -31.9 23.85 -32.25 20.35 -32.45 M16.3 -11.5 L16.3 -14.5 16.3 -14.85 20.35 -15.75 22.2 -16.3 23.4 -16.8 24.2 -17.2 25.35 -17.95 Q26.55 -19.0 27.35 -21.0 28.0 -22.65 27.9 -24.6 28.0 -22.65 27.35 -21.0 26.55 -19.0 25.35 -17.95 L24.2 -17.2 23.4 -16.8 22.2 -16.3 20.35 -15.75 16.3 -14.85 16.3 -14.5 16.3 -11.5 M16.3 -14.85 L15.25 -14.7 9.85 -13.75 6.25 -13.2 -3.15 -12.5 -3.2 -12.5 -3.7 -12.5 -6.65 -12.75 -11.6 -13.55 -14.2 -14.0 Q-17.75 -14.6 -20.75 -16.45 L-21.75 -16.9 -25.75 -17.9 -26.35 -18.05 -28.15 -18.6 Q-28.7 -18.75 -29.15 -19.1 -31.55 -20.85 -31.7 -23.5 -31.55 -20.85 -29.15 -19.1 -28.7 -18.75 -28.15 -18.6 L-26.35 -18.05 -25.75 -17.9 -21.75 -16.9 -20.75 -16.45 Q-17.75 -14.6 -14.2 -14.0 L-11.6 -13.55 -6.65 -12.75 -3.7 -12.5 -3.2 -12.5 -3.15 -12.5 6.25 -13.2 9.85 -13.75 15.25 -14.7 16.3 -14.85 M-11.2 -9.0 Q-10.8 -11.5 -11.6 -13.55 -10.8 -11.5 -11.2 -9.0 M-3.2 -12.5 L-3.2 -8.5 -3.2 -12.5" fill="url(#gradient4)" fill-rule="evenodd" stroke="none"/>
    <path d="M-35.7 -14.3 L-36.15 -15.25 -36.0 -15.35 -35.7 -14.3" fill="url(#gradient5)" fill-rule="evenodd" stroke="none"/>
    <path d="M34.5 -19.95 L36.1 -23.1 Q36.7 -23.95 36.95 -25.0 L38.75 -32.5 39.4 -34.75 Q39.8 -35.95 41.3 -36.2 L44.5 -36.5 44.05 -33.95 Q42.85 -33.75 41.9 -32.45 L41.5 -31.5 Q41.4 -30.1 40.9 -28.95 L39.85 -26.95 35.8 -20.0 35.35 -19.0 Q34.85 -17.65 33.85 -16.45 31.65 -13.65 28.85 -10.95 L24.65 -7.2 Q23.1 -5.9 21.35 -3.45 L20.7 -2.6 Q18.15 -0.1 18.8 3.0 18.15 -0.1 20.7 -2.6 L21.35 -3.45 Q23.1 -5.9 24.65 -7.2 L28.85 -10.95 Q31.65 -13.65 33.85 -16.45 34.85 -17.65 35.35 -19.0 L35.8 -20.0 39.85 -26.95 40.9 -28.95 Q41.4 -30.1 41.5 -31.5 L41.9 -32.45 Q42.85 -33.75 44.05 -33.95 42.3 -24.6 40.8 -21.45 39.45 -18.5 37.1 -16.05 L32.5 -11.25 27.25 -5.45 Q25.0 -2.95 23.4 -0.1 22.55 1.45 22.85 3.3 23.2 5.35 25.0 6.5 26.05 7.15 27.2 7.55 L29.45 7.45 Q31.55 6.65 33.55 5.55 L41.05 1.2 Q45.05 -1.05 49.35 -2.65 53.4 -4.25 57.65 -4.15 L62.5 -3.95 72.0 -3.0 87.35 -2.5 87.45 0.1 87.2 1.15 Q86.8 2.15 85.65 2.5 L84.15 3.15 78.7 3.1 69.45 2.95 61.1 2.7 Q57.35 2.5 53.95 3.85 L52.75 4.3 Q49.8 5.3 47.0 6.5 L38.8 9.9 30.7 13.25 Q28.55 14.05 26.2 14.15 22.05 13.55 19.25 10.2 L17.45 7.7 15.9 4.25 Q15.15 1.45 16.95 -0.85 20.15 -4.95 24.5 -7.85 28.85 -10.8 32.15 -15.1 L33.7 -17.65 34.5 -19.95 M74.3 -1.5 L71.8 -1.5 69.35 -1.3 64.3 -1.1 58.3 -1.25 56.8 -1.05 Q47.7 1.25 39.2 5.85 L35.9 7.7 Q32.45 9.75 28.8 11.0 32.45 9.75 35.9 7.7 L39.2 5.85 Q47.7 1.25 56.8 -1.05 L58.3 -1.25 64.3 -1.1 69.35 -1.3 71.8 -1.5 74.3 -1.5" fill="url(#gradient6)" fill-rule="evenodd" stroke="none"/>
    <path d="M7.45 30.45 Q2.7 30.0 -1.2 27.0 -6.9 22.65 -10.7 16.5 L-13.75 22.1 Q-16.85 27.5 -23.0 28.7 L-23.0 8.05 -30.0 5.85 Q-28.75 5.25 -28.35 3.9 -27.65 1.35 -28.1 -1.05 L-27.95 -1.4 -26.4 -0.9 Q-22.55 -0.35 -19.3 -2.55 L-17.45 -4.15 Q-16.4 -5.45 -15.85 -7.2 L-9.2 -6.35 -5.65 -6.25 5.2 -7.2 5.05 -5.45 Q4.95 -4.45 5.25 -3.5 5.6 -2.2 6.35 -0.95 8.0 1.85 11.3 2.95 L15.9 4.25 17.45 7.7 Q14.15 8.4 11.35 10.25 L7.0 13.3 7.45 30.45 M-25.2 2.0 Q-21.0 0.0 -16.95 -2.35 L-13.75 -3.95 -9.1 -4.25 -4.9 -4.6 Q-2.0 -4.6 0.55 -3.4 L1.4 -2.45 Q2.3 -0.1 4.1 1.7 L6.85 4.15 Q8.55 5.45 10.8 5.5 8.55 5.45 6.85 4.15 L4.1 1.7 Q2.3 -0.1 1.4 -2.45 L0.55 -3.4 Q-2.0 -4.6 -4.9 -4.6 L-9.1 -4.25 -13.75 -3.95 -16.95 -2.35 Q-21.0 0.0 -25.2 2.0" fill="url(#gradient7)" fill-rule="evenodd" stroke="none"/>
    <path d="M-55.45 5.6 L-55.55 5.6 -64.9 5.05 -71.7 6.0 Q-75.95 6.35 -80.2 5.95 -81.4 5.9 -82.3 5.3 -84.2 4.2 -84.05 2.05 L-83.95 1.1 -81.65 0.95 -75.9 0.6 -70.55 -1.3 -65.15 -3.15 Q-61.9 -4.45 -58.5 -3.85 -56.85 -3.45 -55.15 -2.55 -50.85 -0.15 -47.35 3.2 -46.3 4.15 -44.95 3.8 L-41.75 3.1 Q-39.2 2.7 -37.85 0.2 L-37.2 -1.55 Q-37.05 -2.25 -37.25 -2.8 -37.85 -4.75 -38.75 -6.45 L-41.2 -11.2 -43.0 -15.25 -44.15 -19.45 Q-44.55 -22.2 -44.4 -24.9 -44.2 -28.05 -43.0 -36.0 L-42.15 -36.2 -41.65 -36.1 Q-40.25 -35.45 -40.8 -33.05 L-41.2 -29.8 Q-41.5 -27.15 -41.0 -21.3 -40.5 -15.45 -31.7 -0.1 -40.5 -15.45 -41.0 -21.3 -41.5 -27.15 -41.2 -29.8 L-40.8 -33.05 Q-40.25 -35.45 -41.65 -36.1 L-42.15 -36.2 -43.0 -36.0 -42.5 -39.3 -41.55 -39.1 Q-39.15 -37.85 -38.65 -35.0 -38.05 -31.6 -37.8 -28.0 L-37.15 -20.2 -36.35 -16.6 -36.0 -15.35 -36.15 -15.25 -35.7 -14.3 -34.95 -12.2 -33.9 -10.2 -33.6 -9.75 -31.4 -7.0 -28.2 -1.5 -28.1 -1.05 Q-27.65 1.35 -28.35 3.9 -28.75 5.25 -30.0 5.85 L-30.25 6.0 -35.15 8.8 -36.45 9.35 -43.1 8.7 -48.4 7.25 -55.05 5.7 -55.45 5.6" fill="url(#gradient8)" fill-rule="evenodd" stroke="none"/>
    <path d="M31.85 -21.6 Q32.5 -24.4 32.4 -27.4 L32.05 -29.65 31.7 -30.4 Q31.75 -31.05 30.9 -31.85 30.0 -32.7 28.25 -33.75 27.5 -34.2 24.35 -34.65 L20.2 -35.2 20.05 -33.55 20.35 -33.2 20.35 -32.45 23.85 -32.25 26.35 -31.9 27.95 -30.4 Q28.65 -29.65 28.65 -28.6 L28.4 -26.4 28.2 -25.4 M34.5 -19.95 L36.1 -23.1 Q36.7 -23.95 36.95 -25.0 L38.75 -32.5 39.4 -34.75 Q39.8 -35.95 41.3 -36.2 L44.5 -36.5 46.5 -36.65 Q49.05 -36.7 50.5 -34.7 L51.55 -32.9 52.45 -30.4 Q53.65 -26.2 56.3 -22.6 57.95 -20.35 59.85 -18.25 L61.05 -17.25 Q65.25 -14.85 70.05 -14.05 L76.15 -12.85 81.65 -11.4 84.6 -10.3 Q85.95 -9.55 86.35 -8.05 87.05 -5.25 87.35 -2.5 L87.45 0.1 87.2 1.15 Q86.8 2.15 85.65 2.5 L84.15 3.15 78.7 3.1 69.45 2.95 61.1 2.7 Q57.35 2.5 53.95 3.85 L52.75 4.3 52.85 8.45 52.6 13.1 51.75 18.55 51.1 20.4 Q50.25 22.1 48.75 22.8 L47.2 23.2 Q37.3 26.2 27.0 28.0 L19.25 28.95 9.45 30.4 7.45 30.45 Q2.7 30.0 -1.2 27.0 -6.9 22.65 -10.7 16.5 L-13.75 22.1 Q-16.85 27.5 -23.0 28.7 -26.15 29.5 -29.5 29.4 L-36.7 28.7 Q-40.35 28.4 -43.35 26.2 -45.6 24.6 -46.95 22.3 L-51.45 14.5 -55.7 6.5 M-55.45 5.6 L-55.55 5.6 -64.9 5.05 -71.7 6.0 Q-75.95 6.35 -80.2 5.95 -81.4 5.9 -82.3 5.3 -84.2 4.2 -84.05 2.05 L-83.95 1.1 Q-83.7 -0.65 -82.9 -2.25 -82.35 -3.3 -81.4 -3.8 L-75.6 -7.15 Q-71.95 -9.2 -68.35 -11.35 L-63.3 -14.65 -59.9 -17.1 Q-56.6 -19.5 -54.15 -23.05 -51.8 -26.55 -50.0 -30.5 -48.75 -33.3 -47.1 -35.85 -46.2 -37.2 -44.9 -38.2 -43.95 -38.9 -42.8 -39.25 L-42.5 -39.3 -41.55 -39.1 Q-39.15 -37.85 -38.65 -35.0 -38.05 -31.6 -37.8 -28.0 L-37.15 -20.2 -33.65 -22.15 -33.15 -29.9 -29.35 -32.3 Q-27.65 -33.25 -25.45 -33.45 M-25.3 -32.55 L-25.25 -31.95 -25.3 -31.0 Q-25.4 -28.65 -22.75 -18.1 L-18.35 -16.75 Q-14.55 -15.85 -10.05 -15.3 L-1.2 -14.75 7.9 -15.6 17.0 -17.3 20.1 -18.15 20.35 -32.45 M15.9 4.25 L11.3 2.95 Q8.0 1.85 6.35 -0.95 5.6 -2.2 5.25 -3.5 4.95 -4.45 5.05 -5.45 L5.2 -7.2 -5.65 -6.25 -9.2 -6.35 -15.85 -7.2 Q-16.4 -5.45 -17.45 -4.15 L-19.3 -2.55 Q-22.55 -0.35 -26.4 -0.9 L-27.95 -1.4 M-28.1 -1.05 Q-27.65 1.35 -28.35 3.9 -28.75 5.25 -30.0 5.85 L-23.0 8.05 -23.0 28.7 M14.25 -8.6 Q14.25 -6.1 15.15 -4.35 16.05 -2.6 17.35 -2.6 M5.2 -7.2 L14.25 -8.6 Q19.5 -10.25 24.8 -12.2 L27.95 -13.95 Q28.95 -14.55 29.4 -15.55 L31.85 -21.6 Q31.85 -20.9 32.65 -20.4 33.4 -19.95 34.5 -19.95 L33.7 -17.65 32.15 -15.1 Q28.85 -10.8 24.5 -7.85 20.15 -4.95 16.95 -0.85 15.15 1.45 15.9 4.25 L17.45 7.7 19.25 10.2 Q22.05 13.55 26.2 14.15 28.55 14.05 30.7 13.25 L38.8 9.9 47.0 6.5 Q49.8 5.3 52.75 4.3 M27.9 -24.6 Q27.25 -23.1 26.0 -21.85 L24.65 -20.7 24.25 -20.4 23.9 -20.1 22.95 -19.4 23.7 -20.0 Q22.05 -18.9 20.1 -18.15 M23.9 -20.1 L23.7 -20.0 24.65 -20.7 M44.05 -33.95 Q42.3 -24.6 40.8 -21.45 39.45 -18.5 37.1 -16.05 L32.5 -11.25 27.25 -5.45 Q25.0 -2.95 23.4 -0.1 22.55 1.45 22.85 3.3 23.2 5.35 25.0 6.5 26.05 7.15 27.2 7.55 L29.45 7.45 Q31.55 6.65 33.55 5.55 L41.05 1.2 Q45.05 -1.05 49.35 -2.65 53.4 -4.25 57.65 -4.15 L62.5 -3.95 72.0 -3.0 87.35 -2.5 M38.3 -15.5 Q40.1 -16.25 41.8 -15.2 42.85 -14.55 43.15 -13.25 42.6 -12.05 41.55 -11.05 L40.35 -9.9 Q38.25 -7.8 39.9 -5.55 43.75 -6.65 45.85 -10.35 46.35 -11.15 47.3 -11.35 L55.3 -12.0 53.8 -6.5 Q56.45 -6.25 59.25 -6.5 L61.0 -6.15 61.8 -5.5 M44.5 -36.5 L44.05 -33.95 M17.45 7.7 Q14.15 8.4 11.35 10.25 L7.0 13.3 7.45 30.45 M-81.65 0.95 L-75.9 0.6 -70.55 -1.3 -65.15 -3.15 Q-61.9 -4.45 -58.5 -3.85 -56.85 -3.45 -55.15 -2.55 -50.85 -0.15 -47.35 3.2 -46.3 4.15 -44.95 3.8 L-41.75 3.1 Q-39.2 2.7 -37.85 0.2 L-37.2 -1.55 Q-37.05 -2.25 -37.25 -2.8 -37.85 -4.75 -38.75 -6.45 L-41.2 -11.2 -43.0 -15.25 -44.15 -19.45 Q-44.55 -22.2 -44.4 -24.9 -44.2 -28.05 -43.0 -36.0 M-81.65 0.95 L-83.95 1.1 M-42.5 -39.3 L-43.0 -36.0 M-58.7 -4.5 L-58.25 -9.95 Q-58.1 -11.45 -57.25 -12.9 -54.55 -13.1 -53.0 -10.9 -52.45 -10.1 -52.05 -9.1 L-51.15 -7.25 Q-50.3 -5.85 -48.75 -5.85 -46.85 -5.5 -45.2 -6.5 L-46.5 -11.5 -45.45 -11.65 -44.55 -10.95 -43.2 -9.5 M-22.75 -18.1 L-22.7 -17.9 -23.95 -18.6 -24.1 -18.7 -26.75 -20.25 -27.3 -20.6 Q-28.65 -21.5 -30.2 -23.65 -31.8 -25.85 -31.2 -27.7 -30.85 -28.8 -29.95 -29.3 L-27.5 -30.55 -26.2 -31.2 -25.55 -31.95 -25.3 -32.55 M-22.75 -18.1 L-23.95 -18.6 M-35.7 -14.3 L-36.0 -15.35 -36.35 -16.6 -37.15 -20.2 M-33.65 -22.15 L-33.7 -18.25 -33.3 -16.15 -32.2 -14.25 -30.65 -12.7 Q-28.7 -11.1 -26.45 -10.05 -24.9 -9.3 -23.2 -8.85 L-17.05 -7.4 -16.45 -7.3 -15.85 -7.2 M-35.7 -14.3 L-34.95 -12.2 -33.9 -10.2 -33.6 -9.75 -31.4 -7.0 -30.35 -7.15 Q-28.2 -7.85 -26.7 -9.5 M-28.2 -1.5 L-27.95 -1.4 M-28.2 -1.5 L-28.1 -1.05 M-31.4 -7.0 L-28.2 -1.5 M-55.45 5.6 L-55.05 5.7 -48.4 7.25 -43.1 8.7 -36.45 9.35 -35.15 8.8 -30.25 6.0 -30.0 5.85" fill="none" stroke="#000000" stroke-linecap="round" stroke-linejoin="round" stroke-width="1.0"/>
    <path d="M28.2 -25.4 L27.9 -24.6 Q28.0 -22.65 27.35 -21.0 26.55 -19.0 25.35 -17.95 L24.2 -17.2 23.4 -16.8 22.2 -16.3 20.35 -15.75 16.3 -14.85 16.3 -14.5 16.3 -11.5 M-31.7 -23.5 Q-31.55 -20.85 -29.15 -19.1 -28.7 -18.75 -28.15 -18.6 L-26.35 -18.05 -25.75 -17.9 -21.75 -16.9 -20.75 -16.45 Q-17.75 -14.6 -14.2 -14.0 L-11.6 -13.55 -6.65 -12.75 -3.7 -12.5 -3.2 -12.5 -3.15 -12.5 6.25 -13.2 9.85 -13.75 15.25 -14.7 16.3 -14.85 M10.8 5.5 Q8.55 5.45 6.85 4.15 L4.1 1.7 Q2.3 -0.1 1.4 -2.45 L0.55 -3.4 Q-2.0 -4.6 -4.9 -4.6 L-9.1 -4.25 -13.75 -3.95 -16.95 -2.35 Q-21.0 0.0 -25.2 2.0 M44.05 -33.95 Q42.85 -33.75 41.9 -32.45 L41.5 -31.5 Q41.4 -30.1 40.9 -28.95 L39.85 -26.95 35.8 -20.0 35.35 -19.0 Q34.85 -17.65 33.85 -16.45 31.65 -13.65 28.85 -10.95 L24.65 -7.2 Q23.1 -5.9 21.35 -3.45 L20.7 -2.6 Q18.15 -0.1 18.8 3.0 M51.8 -8.0 Q52.3 -9.75 50.8 -9.55 L49.8 -9.45 Q48.05 -9.25 47.45 -7.65 L46.85 -6.95 Q42.8 -4.25 37.3 -5.0 35.65 -5.25 35.2 -7.1 35.05 -7.75 35.45 -8.4 36.45 -10.1 37.8 -11.5 M44.05 -33.95 L45.9 -33.7 46.75 -33.35 Q48.0 -33.0 48.2 -31.0 48.45 -28.55 49.25 -27.0 51.35 -22.9 54.0 -19.1 L56.5 -15.65 Q56.8 -15.25 57.3 -15.0 61.85 -12.95 66.85 -11.75 L68.75 -11.3 76.85 -9.7 78.75 -9.3 Q81.85 -8.75 82.3 -5.5 M28.8 11.0 Q32.45 9.75 35.9 7.7 L39.2 5.85 Q47.7 1.25 56.8 -1.05 L58.3 -1.25 64.3 -1.1 69.35 -1.3 71.8 -1.5 74.3 -1.5 M-43.0 -36.0 Q-46.6 -34.4 -48.1 -30.65 L-51.1 -22.6 Q-51.95 -20.15 -53.8 -18.45 -60.0 -12.85 -67.55 -9.55 -76.3 -5.85 -81.65 0.95 M-43.0 -36.0 L-42.15 -36.2 -41.65 -36.1 Q-40.25 -35.45 -40.8 -33.05 L-41.2 -29.8 Q-41.5 -27.15 -41.0 -21.3 -40.5 -15.45 -31.7 -0.1 M-55.7 -4.5 Q-57.05 -7.1 -54.7 -7.35 -53.75 -7.45 -53.05 -6.65 L-51.65 -5.65 Q-49.35 -4.65 -46.75 -4.9 -45.95 -5.0 -45.3 -5.6 L-44.15 -6.95 -43.7 -7.5 M-3.2 -8.5 L-3.2 -12.5 M-11.6 -13.55 Q-10.8 -11.5 -11.2 -9.0" fill="none" stroke="#ffffff" stroke-linecap="round" stroke-linejoin="round" stroke-width="1.0"/>
  </g>
  <defs>
    <linearGradient gradientTransform="matrix(0.0403, 0.0, 0.0, 0.0178, -0.65, -20.65)" gradientUnits="userSpaceOnUse" id="gradient0" spreadMethod="pad" x1="-819.2" x2="819.2">
      <stop offset="0.0" stop-color="#746558"/>
      <stop offset="0.32941176470588235" stop-color="#ffffff"/>
      <stop offset="0.7490196078431373" stop-color="#d3cbc5"/>
      <stop offset="1.0" stop-color="#746558"/>
    </linearGradient>
    <radialGradient cx="0" cy="0" gradientTransform="matrix(0.0186, -0.0332, 0.0424, 0.0238, 51.8, -18.5)" gradientUnits="userSpaceOnUse" id="gradient1" r="819.2" spreadMethod="pad">
      <stop offset="0.0" stop-color="#ffffff"/>
      <stop offset="0.5215686274509804" stop-color="#d3cbc5"/>
      <stop offset="1.0" stop-color="#746558"/>
    </radialGradient>
    <linearGradient gradientTransform="matrix(0.0663, 0.0, 0.0, 0.0321, -1.45, 4.15)" gradientUnits="userSpaceOnUse" id="gradient2" spreadMethod="pad" x1="-819.2" x2="819.2">
      <stop offset="0.0" stop-color="#746558"/>
      <stop offset="0.32941176470588235" stop-color="#ffffff"/>
      <stop offset="0.7490196078431373" stop-color="#d3cbc5"/>
      <stop offset="1.0" stop-color="#746558"/>
    </linearGradient>
    <radialGradient cx="0" cy="0" gradientTransform="matrix(0.0118, 0.0252, -0.0371, 0.0173, -59.2, -19.5)" gradientUnits="userSpaceOnUse" id="gradient3" r="819.2" spreadMethod="pad">
      <stop offset="0.0" stop-color="#ffffff"/>
      <stop offset="0.5215686274509804" stop-color="#d3cbc5"/>
      <stop offset="1.0" stop-color="#746558"/>
    </radialGradient>
    <radialGradient cx="0" cy="0" gradientTransform="matrix(0.0421, 0.0, 0.0, 0.0421, -0.65, -20.65)" gradientUnits="userSpaceOnUse" id="gradient4" r="819.2" spreadMethod="pad">
      <stop offset="0.0" stop-color="#ffff82"/>
      <stop offset="0.5215686274509804" stop-color="#ffef7a"/>
      <stop offset="1.0" stop-color="#745621"/>
    </radialGradient>
    <radialGradient cx="0" cy="0" gradientTransform="matrix(0.0161, 0.0, 0.0, 0.0161, -39.35, -26.8)" gradientUnits="userSpaceOnUse" id="gradient5" r="819.2" spreadMethod="pad">
      <stop offset="0.0" stop-color="#ffff82"/>
      <stop offset="0.5215686274509804" stop-color="#ffef7a"/>
      <stop offset="1.0" stop-color="#745621"/>
    </radialGradient>
    <radialGradient cx="0" cy="0" gradientTransform="matrix(0.0186, -0.0332, 0.0424, 0.0238, 51.8, -18.5)" gradientUnits="userSpaceOnUse" id="gradient6" r="819.2" spreadMethod="pad">
      <stop offset="0.0" stop-color="#ffff82"/>
      <stop offset="0.5215686274509804" stop-color="#ffef7a"/>
      <stop offset="1.0" stop-color="#745621"/>
    </radialGradient>
    <radialGradient cx="0" cy="0" gradientTransform="matrix(0.027, 0.0, 0.0, 0.0529, -6.6, 11.5)" gradientUnits="userSpaceOnUse" id="gradient7" r="819.2" spreadMethod="pad">
      <stop offset="0.0" stop-color="#ffff82"/>
      <stop offset="0.5215686274509804" stop-color="#ffef7a"/>
      <stop offset="1.0" stop-color="#745621"/>
    </radialGradient>
    <radialGradient cx="0" cy="0" gradientTransform="matrix(0.0401, 0.0, 0.0, 0.0401, -62.1, -19.6)" gradientUnits="userSpaceOnUse" id="gradient8" r="819.2" spreadMethod="pad">
      <stop offset="0.0" stop-color="#ffff82"/>
      <stop offset="0.5215686274509804" stop-color="#ffef7a"/>
      <stop offset="1.0" stop-color="#745621"/>
    </radialGradient>
  </defs>
</svg>
