<?xml version="1.0" encoding="UTF-8" standalone="no"?>
<svg xmlns:xlink="http://www.w3.org/1999/xlink" height="43.0px" width="111.1px" xmlns="http://www.w3.org/2000/svg">
  <g transform="matrix(1.0, 0.0, 0.0, 1.0, 55.4, 21.4)">
    <path d="M-23.25 -18.5 L-22.85 -18.6 Q-13.75 -21.6 -3.95 -20.65 L13.9 -20.75 31.75 -20.8 33.55 -20.55 Q38.9 -19.0 42.75 -14.85 L42.5 -14.5 9.3 -0.9 Q8.2 0.85 8.05 3.0 L7.5 8.2 Q6.5 14.55 7.45 20.8 L-16.5 21.1 -16.5 20.0 Q-16.25 12.35 -17.8 4.85 L-18.9 -0.15 Q-27.25 -1.65 -35.45 -3.95 L-42.65 -4.75 Q-47.6 -4.45 -52.35 -3.0 L-39.75 -10.95 Q-31.8 -15.5 -23.1 -18.85 L-23.25 -18.5" fill="url(#gradient0)" fill-rule="evenodd" stroke="none"/>
    <path d="M-52.35 -3.0 Q-47.6 -4.45 -42.65 -4.75 L-35.45 -3.95 Q-27.25 -1.65 -18.9 -0.15 L-17.8 4.85 Q-16.25 12.35 -16.5 20.0 L-16.5 21.1 -26.25 21.05 -45.3 20.65 -48.9 19.8 Q-51.65 18.7 -53.45 16.05 -54.1 15.05 -54.2 13.9 -54.75 6.7 -54.9 -0.55 L-52.35 -3.0 M7.45 20.8 Q6.5 14.55 7.5 8.2 L8.05 3.0 Q8.2 0.85 9.3 -0.9 L42.5 -14.5 42.75 -14.85 54.1 -7.95 55.2 17.95 Q46.65 19.75 37.75 19.95 L18.1 20.5 7.45 20.8" fill="url(#gradient1)" fill-rule="evenodd" stroke="none"/>
    <path d="M42.75 -14.85 Q38.9 -19.0 33.55 -20.55 L31.75 -20.8 13.9 -20.75 -3.95 -20.65 Q-13.75 -21.6 -22.85 -18.6 L-23.25 -18.5 M-23.1 -18.85 Q-31.8 -15.5 -39.75 -10.95 L-52.35 -3.0 Q-47.6 -4.45 -42.65 -4.75 L-35.45 -3.95 Q-27.25 -1.65 -18.9 -0.15 L-17.8 4.85 Q-16.25 12.35 -16.5 20.0 M-16.5 21.1 L7.45 20.8 Q6.5 14.55 7.5 8.2 L8.05 3.0 Q8.2 0.85 9.3 -0.9 L42.5 -14.5 M42.75 -14.85 L54.1 -7.95 55.2 17.95 Q46.65 19.75 37.75 19.95 L18.1 20.5 7.45 20.8 M-52.35 -3.0 L-54.9 -0.55 Q-54.75 6.7 -54.2 13.9 -54.1 15.05 -53.45 16.05 -51.65 18.7 -48.9 19.8 L-45.3 20.65 -26.25 21.05 -16.5 21.1 M-22.85 -18.6 L-23.1 -18.85" fill="none" stroke="#000000" stroke-linecap="round" stroke-linejoin="round" stroke-width="1.0"/>
  </g>
  <defs>
    <linearGradient gradientTransform="matrix(0.0556, 0.0, 0.0, 0.0258, -2.8, -0.05)" gradientUnits="userSpaceOnUse" id="gradient0" spreadMethod="pad" x1="-819.2" x2="819.2">
      <stop offset="0.0" stop-color="#996715"/>
      <stop offset="0.13725490196078433" stop-color="#e3af39"/>
      <stop offset="0.49411764705882355" stop-color="#fff4b5"/>
      <stop offset="0.8705882352941177" stop-color="#e3af39"/>
      <stop offset="1.0" stop-color="#9e6a16"/>
    </linearGradient>
    <radialGradient cx="0" cy="0" gradientTransform="matrix(0.0794, -0.0259, 0.0376, 0.1151, -18.1, 8.85)" gradientUnits="userSpaceOnUse" id="gradient1" r="819.2" spreadMethod="pad">
      <stop offset="0.0" stop-color="#efefef"/>
      <stop offset="0.8274509803921568" stop-color="#dadae2"/>
      <stop offset="1.0" stop-color="#9d9da2"/>
    </radialGradient>
  </defs>
</svg>
