<?xml version="1.0" encoding="UTF-8" standalone="no"?>
<svg xmlns:xlink="http://www.w3.org/1999/xlink" height="50.45px" width="123.25px" xmlns="http://www.w3.org/2000/svg">
  <g transform="matrix(1.0, 0.0, 0.0, 1.0, 63.85, 25.15)">
    <path d="M9.0 10.7 L7.95 3.0 7.0 -1.5 37.25 -2.75 Q37.4 -6.7 38.5 -10.55 39.25 -13.25 40.35 -15.85 L41.15 -17.55 58.25 -11.5 Q57.45 -6.3 58.25 -1.05 59.55 7.05 58.2 15.05 L56.5 17.4 Q38.1 16.65 19.95 20.5 L11.0 21.9 9.6 20.5 9.4 15.0 9.0 10.7 16.1 10.5 18.05 9.6 16.1 10.5 9.0 10.7 M-49.0 -12.85 Q-42.65 -3.9 -35.35 4.25 L-33.65 4.3 Q-24.65 1.6 -15.4 0.25 L-8.7 23.7 -23.25 24.05 -54.6 24.8 Q-54.6 22.25 -56.2 20.4 -66.3 8.55 -62.15 -2.75 -60.85 -6.2 -56.95 -8.55 L-49.0 -12.85 M47.0 -11.0 L47.5 -5.6 42.05 -4.7 39.85 1.95 22.25 4.0 22.5 19.0 22.25 4.0 39.85 1.95 42.05 -4.7 47.5 -5.6 47.0 -11.0 M54.5 10.0 L54.0 9.75 35.0 11.5 54.0 9.75 54.5 10.0 M20.0 15.0 L9.4 15.0 20.0 15.0 M-24.0 17.0 L-23.25 24.05 -24.0 17.0 M-43.5 22.5 L-44.8 9.8 -50.0 10.5 -49.65 2.6 -40.15 1.55 -37.0 12.6 -31.7 13.0 Q-22.15 14.15 -13.0 12.5 -22.15 14.15 -31.7 13.0 L-37.0 12.6 -40.15 1.55 -49.65 2.6 -50.0 10.5 -44.8 9.8 -43.5 22.5" fill="url(#gradient0)" fill-rule="evenodd" stroke="none"/>
    <path d="M41.15 -17.55 L40.35 -15.85 Q39.25 -13.25 38.5 -10.55 37.4 -6.7 37.25 -2.75 L7.0 -1.5 7.95 3.0 9.0 10.7 9.4 15.0 9.6 20.5 9.05 22.15 -8.7 23.7 -15.4 0.25 Q-24.65 1.6 -33.65 4.3 L-35.35 4.25 Q-42.65 -3.9 -49.0 -12.85 -26.95 -23.85 -1.95 -24.0 11.1 -24.05 24.0 -24.65 31.9 -19.55 41.15 -17.55 M8.5 10.5 L9.0 10.7 8.5 10.5" fill="url(#gradient1)" fill-rule="evenodd" stroke="none"/>
    <path d="M9.0 10.7 L7.95 3.0 7.0 -1.5 37.25 -2.75 Q37.4 -6.7 38.5 -10.55 39.25 -13.25 40.35 -15.85 L41.15 -17.55 Q31.9 -19.55 24.0 -24.65 11.1 -24.05 -1.95 -24.0 -26.95 -23.85 -49.0 -12.85 -42.65 -3.9 -35.35 4.25 L-33.65 4.3 Q-24.65 1.6 -15.4 0.25 L-8.7 23.7 9.05 22.15 9.6 20.5 9.4 15.0 9.0 10.7 M41.15 -17.55 L58.25 -11.5 Q57.45 -6.3 58.25 -1.05 59.55 7.05 58.2 15.05 58.2 16.0 57.7 16.7 57.2 17.4 56.5 17.4 38.1 16.65 19.95 20.5 L11.0 21.9 9.05 22.15 M-49.0 -12.85 L-56.95 -8.55 Q-60.85 -6.2 -62.15 -2.75 -66.3 8.55 -56.2 20.4 -54.6 22.25 -54.6 24.8 L-23.25 24.05 -8.7 23.7" fill="none" stroke="#000000" stroke-linecap="round" stroke-linejoin="round" stroke-width="1.0"/>
    <path d="M9.0 10.7 L8.5 10.5 M22.5 19.0 L22.25 4.0 39.85 1.95 42.05 -4.7 47.5 -5.6 47.0 -11.0 M35.0 11.5 L54.0 9.75 54.5 10.0 M9.0 10.7 L16.1 10.5 18.05 9.6 M9.4 15.0 L20.0 15.0 M-23.25 24.05 L-24.0 17.0 M-13.0 12.5 Q-22.15 14.15 -31.7 13.0 L-37.0 12.6 -40.15 1.55 -49.65 2.6 -50.0 10.5 -44.8 9.8 -43.5 22.5" fill="none" stroke="#990000" stroke-linecap="round" stroke-linejoin="round" stroke-width="1.0"/>
  </g>
  <defs>
    <radialGradient cx="0" cy="0" gradientTransform="matrix(0.0585, -0.0191, 0.0277, 0.0848, -6.0, -12.5)" gradientUnits="userSpaceOnUse" id="gradient0" r="819.2" spreadMethod="pad">
      <stop offset="0.0" stop-color="#a51616"/>
      <stop offset="0.8274509803921568" stop-color="#720101"/>
      <stop offset="1.0" stop-color="#410101"/>
    </radialGradient>
    <linearGradient gradientTransform="matrix(0.0556, 0.0, 0.0, 0.0258, -2.8, -0.05)" gradientUnits="userSpaceOnUse" id="gradient1" spreadMethod="pad" x1="-819.2" x2="819.2">
      <stop offset="0.0" stop-color="#996715"/>
      <stop offset="0.13725490196078433" stop-color="#e3af39"/>
      <stop offset="0.49411764705882355" stop-color="#fff4b5"/>
      <stop offset="0.8705882352941177" stop-color="#e3af39"/>
      <stop offset="1.0" stop-color="#9e6a16"/>
    </linearGradient>
  </defs>
</svg>
