<?xml version="1.0" encoding="UTF-8" standalone="no"?>
<svg xmlns:xlink="http://www.w3.org/1999/xlink" height="41.85px" width="196.65px" xmlns="http://www.w3.org/2000/svg">
  <g transform="matrix(1.0, 0.0, 0.0, 1.0, 94.0, 24.25)">
    <path d="M-8.6 -1.25 Q-7.3 -3.3 -5.2 -4.7 -3.85 -5.6 -2.65 -6.6 1.0 -9.65 5.45 -11.15 L6.45 -11.6 Q8.95 -12.7 11.9 -13.1 L14.7 -12.75 Q19.55 -11.55 24.5 -11.2 27.0 -10.85 29.45 -11.7 33.95 -13.15 38.3 -14.95 41.25 -16.1 44.1 -17.75 L48.15 -18.75 Q51.25 -19.35 54.15 -18.25 56.75 -17.2 59.45 -16.25 L78.65 -9.35 82.55 -8.1 97.25 -3.7 Q97.75 -2.5 98.9 -1.65 99.35 -1.35 99.9 -1.2 L102.15 -0.25 Q100.65 1.15 98.55 1.75 95.6 2.75 92.5 2.8 L83.25 3.1 78.4 3.45 73.85 3.8 66.6 4.8 Q61.8 5.3 57.7 7.35 54.2 9.2 51.05 12.05 L47.35 14.35 44.8 15.2 42.4 15.25 Q37.9 14.5 33.45 15.35 L26.75 15.4 20.0 15.3 10.3 14.75 7.7 13.9 Q6.05 13.1 4.65 11.9 L0.35 8.15 Q-2.75 5.35 -6.95 4.3 -8.45 3.95 -9.0 2.5 L-8.6 -1.25 -9.0 2.5 -10.0 2.5 -10.85 2.25 -11.6 1.95 -15.0 2.6 Q-19.6 3.45 -23.15 6.55 L-28.15 10.85 Q-30.05 12.45 -32.35 13.0 L-40.95 13.6 -50.35 12.65 Q-52.85 12.0 -54.85 10.2 L-56.75 8.25 -58.35 6.2 Q-59.85 4.2 -61.85 2.85 L-62.5 2.45 Q-65.2 0.7 -68.35 -0.2 L-73.0 -0.8 -77.7 -1.1 -84.1 0.0 -93.5 -0.5 -89.45 -2.35 -77.05 -7.8 Q-74.15 -9.05 -71.05 -9.85 L-63.25 -11.5 -51.25 -12.4 -49.3 -12.3 -49.0 -12.3 Q-44.25 -12.6 -40.15 -10.1 -38.15 -8.95 -35.8 -8.4 L-33.0 -8.05 -31.5 -8.6 -27.45 -9.75 -25.05 -10.0 Q-20.3 -9.95 -16.75 -6.7 L-10.7 -1.1 -9.95 -1.1 -9.5 -1.5 -8.6 -1.25 M59.0 -2.25 Q55.8 -1.75 53.05 -3.45 L52.35 -4.1 Q51.7 -4.95 51.4 -5.9 50.9 -7.45 49.5 -8.2 L47.7 -8.9 46.05 -9.3 Q44.6 -9.25 44.3 -7.9 L44.0 -5.2 43.5 2.25 Q40.4 0.95 39.35 -2.25 38.6 -4.55 38.75 -7.0 34.95 -6.3 33.25 -2.85 31.75 0.15 32.6 3.45 31.6 4.7 30.15 3.8 28.9 3.1 28.2 2.05 25.7 -1.7 26.5 -6.25 23.7 -6.0 21.6 -4.45 20.9 -3.9 20.6 -3.05 20.0 -1.25 19.8 0.7 L19.6 4.5 19.65 7.35 Q18.7 8.4 17.6 7.65 14.8 5.85 14.05 2.65 13.6 0.75 13.9 -1.0 L14.3 -4.85 14.0 -5.2 Q10.7 -6.2 7.45 -5.05 6.45 -4.1 6.45 -2.55 L6.45 1.15 Q6.55 4.2 7.3 7.05 L7.2 7.25 6.45 7.85 5.45 8.25 Q4.1 6.9 3.6 4.75 L2.25 -1.25 1.15 -6.2 2.8 -7.15 9.2 -10.6 11.8 -10.55 Q15.95 -8.3 20.5 -7.75 22.45 -7.5 24.5 -7.8 29.1 -8.55 33.5 -10.45 L40.2 -13.3 Q42.6 -14.3 44.85 -15.6 46.4 -16.4 48.4 -16.45 L50.95 -15.75 60.0 -12.95 64.55 -11.35 69.4 -9.7 Q73.1 -8.35 77.0 -8.05 L80.25 -7.5 77.0 -8.05 Q73.1 -8.35 69.4 -9.7 L64.55 -11.35 60.0 -12.95 50.95 -15.75 48.4 -16.45 Q46.4 -16.4 44.85 -15.6 42.6 -14.3 40.2 -13.3 L33.5 -10.45 Q29.1 -8.55 24.5 -7.8 22.45 -7.5 20.5 -7.75 15.95 -8.3 11.8 -10.55 L9.2 -10.6 2.8 -7.15 1.15 -6.2 2.25 -1.25 3.6 4.75 Q4.1 6.9 5.45 8.25 L6.45 7.85 7.2 7.25 7.3 7.05 Q6.55 4.2 6.45 1.15 L6.45 -2.55 Q6.45 -4.1 7.45 -5.05 10.7 -6.2 14.0 -5.2 L14.3 -4.85 13.9 -1.0 Q13.6 0.75 14.05 2.65 14.8 5.85 17.6 7.65 18.7 8.4 19.65 7.35 L19.6 4.5 19.8 0.7 Q20.0 -1.25 20.6 -3.05 20.9 -3.9 21.6 -4.45 23.7 -6.0 26.5 -6.25 25.7 -1.7 28.2 2.05 28.9 3.1 30.15 3.8 31.6 4.7 32.6 3.45 31.75 0.15 33.25 -2.85 34.95 -6.3 38.75 -7.0 38.6 -4.55 39.35 -2.25 40.4 0.95 43.5 2.25 L44.0 -5.2 44.3 -7.9 Q44.6 -9.25 46.05 -9.3 L47.7 -8.9 49.5 -8.2 Q50.9 -7.45 51.4 -5.9 51.7 -4.95 52.35 -4.1 L53.05 -3.45 Q55.8 -1.75 59.0 -2.25 M-56.0 -8.75 L-56.55 -6.0 -56.9 -2.65 Q-57.0 -1.2 -55.8 -0.9 -53.85 -1.15 -52.75 -2.75 -53.3 -4.8 -52.35 -6.9 -51.8 -7.95 -50.55 -7.8 L-49.0 -7.5 Q-46.3 -6.4 -47.0 -3.4 L-47.65 -0.85 Q-48.4 1.7 -47.75 4.0 -45.35 5.3 -42.9 4.5 L-42.9 4.0 -42.3 0.0 Q-42.1 -0.85 -41.45 -1.2 -39.5 -2.15 -37.25 -2.25 L-36.85 0.45 -35.8 2.7 Q-35.0 3.8 -33.75 3.4 -33.1 3.35 -32.85 2.75 L-32.7 0.0 -32.25 -1.9 -31.55 -2.85 Q-29.6 -4.6 -27.2 -3.45 L-26.7 -1.5 Q-26.4 -0.55 -25.45 -0.05 -24.1 0.55 -23.25 -0.5 -24.1 0.55 -25.45 -0.05 -26.4 -0.55 -26.7 -1.5 L-27.2 -3.45 Q-29.6 -4.6 -31.55 -2.85 L-32.25 -1.9 -32.7 0.0 -32.85 2.75 Q-33.1 3.35 -33.75 3.4 -35.0 3.8 -35.8 2.7 L-36.85 0.45 -37.25 -2.25 Q-39.5 -2.15 -41.45 -1.2 -42.1 -0.85 -42.3 0.0 L-42.9 4.0 -42.9 4.5 Q-45.35 5.3 -47.75 4.0 -48.4 1.7 -47.65 -0.85 L-47.0 -3.4 Q-46.3 -6.4 -49.0 -7.5 L-50.55 -7.8 Q-51.8 -7.95 -52.35 -6.9 -53.3 -4.8 -52.75 -2.75 -53.85 -1.15 -55.8 -0.9 -57.0 -1.2 -56.9 -2.65 L-56.55 -6.0 -56.0 -8.75 M-15.5 -0.75 Q-16.85 -3.1 -19.25 -4.5 L-24.15 -6.7 -26.25 -7.15 Q-28.3 -6.9 -30.05 -6.05 L-32.5 -5.05 -35.8 -4.75 Q-38.05 -4.7 -40.15 -5.5 L-43.0 -6.75 -46.0 -8.15 Q-50.0 -9.8 -54.4 -9.55 L-64.25 -8.7 -72.0 -8.0 -64.25 -8.7 -54.4 -9.55 Q-50.0 -9.8 -46.0 -8.15 L-43.0 -6.75 -40.15 -5.5 Q-38.05 -4.7 -35.8 -4.75 L-32.5 -5.05 -30.05 -6.05 Q-28.3 -6.9 -26.25 -7.15 L-24.15 -6.7 -19.25 -4.5 Q-16.85 -3.1 -15.5 -0.75 M-5.8 1.1 Q-5.85 -0.75 -4.55 -2.2 L-2.45 -3.95 1.15 -6.2 -2.45 -3.95 -4.55 -2.2 Q-5.85 -0.75 -5.8 1.1" fill="url(#gradient0)" fill-rule="evenodd" stroke="none"/>
    <path d="M44.1 -17.75 Q41.25 -16.1 38.3 -14.95 33.95 -13.15 29.45 -11.7 27.0 -10.85 24.5 -11.2 19.55 -11.55 14.7 -12.75 L11.9 -13.1 Q8.95 -12.7 6.45 -11.6 L5.45 -11.15 Q1.0 -9.65 -2.65 -6.6 -3.85 -5.6 -5.2 -4.7 -7.3 -3.3 -8.6 -1.25 L-9.5 -1.5 -9.95 -1.1 -10.7 -1.1 -16.75 -6.7 Q-20.3 -9.95 -25.05 -10.0 L-27.45 -9.75 -31.5 -8.6 -33.0 -8.05 -35.8 -8.4 Q-38.15 -8.95 -40.15 -10.1 -44.25 -12.6 -49.0 -12.3 L-49.0 -12.4 Q-48.35 -12.6 -47.75 -12.9 L-45.15 -14.0 -40.9 -15.7 -31.95 -18.65 -22.9 -20.65 -15.0 -22.0 -6.0 -22.6 3.0 -22.9 12.3 -23.45 21.5 -23.7 30.95 -23.15 Q34.95 -22.25 38.8 -20.85 L42.3 -19.45 Q43.4 -19.05 44.0 -18.0 L44.1 -17.75 M-9.0 2.5 Q-8.45 3.95 -6.95 4.3 -2.75 5.35 0.35 8.15 L4.65 11.9 Q6.05 13.1 7.7 13.9 L10.3 14.75 20.0 15.3 26.75 15.4 33.45 15.35 Q37.9 14.5 42.4 15.25 L44.8 15.2 47.35 14.35 51.05 12.05 Q54.2 9.2 57.7 7.35 61.8 5.3 66.6 4.8 L73.85 3.8 78.4 3.45 Q81.5 9.3 78.9 14.65 78.25 16.05 76.65 16.85 L76.2 17.1 -67.75 17.1 Q-63.05 10.65 -62.5 2.45 L-61.85 2.85 Q-59.85 4.2 -58.35 6.2 L-56.75 8.25 -54.85 10.2 Q-52.85 12.0 -50.35 12.65 L-40.95 13.6 -32.35 13.0 Q-30.05 12.45 -28.15 10.85 L-23.15 6.55 Q-19.6 3.45 -15.0 2.6 L-11.6 1.95 -10.85 2.25 -10.0 2.5 -9.0 2.5" fill="url(#gradient1)" fill-rule="evenodd" stroke="none"/>
    <path d="M44.1 -17.75 Q41.25 -16.1 38.3 -14.95 33.95 -13.15 29.45 -11.7 27.0 -10.85 24.5 -11.2 19.55 -11.55 14.7 -12.75 L11.9 -13.1 Q8.95 -12.7 6.45 -11.6 L5.45 -11.15 Q1.0 -9.65 -2.65 -6.6 -3.85 -5.6 -5.2 -4.7 -7.3 -3.3 -8.6 -1.25 L-9.0 2.5 Q-8.45 3.95 -6.95 4.3 -2.75 5.35 0.35 8.15 L4.65 11.9 Q6.05 13.1 7.7 13.9 L10.3 14.75 20.0 15.3 26.75 15.4 33.45 15.35 Q37.9 14.5 42.4 15.25 L44.8 15.2 47.35 14.35 51.05 12.05 Q54.2 9.2 57.7 7.35 61.8 5.3 66.6 4.8 L73.85 3.8 78.4 3.45 83.25 3.1 92.5 2.8 Q95.6 2.75 98.55 1.75 100.65 1.15 102.15 -0.25 L99.9 -1.2 Q99.35 -1.35 98.9 -1.65 97.75 -2.5 97.25 -3.7 L82.55 -8.1 78.65 -9.35 59.45 -16.25 Q56.75 -17.2 54.15 -18.25 51.25 -19.35 48.15 -18.75 L44.1 -17.75 M44.0 -18.0 Q43.4 -19.05 42.3 -19.45 L38.8 -20.85 Q34.95 -22.25 30.95 -23.15 L21.5 -23.7 12.3 -23.45 3.0 -22.9 -6.0 -22.6 -15.0 -22.0 -22.9 -20.65 -31.95 -18.65 -40.9 -15.7 -45.15 -14.0 -47.75 -12.9 Q-48.35 -12.6 -49.0 -12.4 M-49.0 -12.3 Q-44.25 -12.6 -40.15 -10.1 -38.15 -8.95 -35.8 -8.4 L-33.0 -8.05 -31.5 -8.6 -27.45 -9.75 -25.05 -10.0 Q-20.3 -9.95 -16.75 -6.7 L-10.7 -1.1 -9.95 -1.1 -9.5 -1.5 M78.4 3.45 Q81.5 9.3 78.9 14.65 78.25 16.05 76.65 16.85 L76.2 17.1 M-67.75 17.1 Q-63.05 10.65 -62.5 2.45 -65.2 0.7 -68.35 -0.2 L-73.0 -0.8 -77.7 -1.1 -84.1 0.0 -93.5 -0.5 -89.45 -2.35 -77.05 -7.8 Q-74.15 -9.05 -71.05 -9.85 L-63.25 -11.5 -51.25 -12.4 -49.3 -12.3 -49.0 -12.4 M-49.0 -12.3 L-49.3 -12.3 M-62.5 2.45 L-61.85 2.85 Q-59.85 4.2 -58.35 6.2 L-56.75 8.25 -54.85 10.2 Q-52.85 12.0 -50.35 12.65 L-40.95 13.6 -32.35 13.0 Q-30.05 12.45 -28.15 10.85 L-23.15 6.55 Q-19.6 3.45 -15.0 2.6 L-11.6 1.95 -10.85 2.25 -10.0 2.5" fill="none" stroke="#000000" stroke-linecap="round" stroke-linejoin="round" stroke-width="1.0"/>
    <path d="M80.25 -7.5 L77.0 -8.05 Q73.1 -8.35 69.4 -9.7 L64.55 -11.35 60.0 -12.95 50.95 -15.75 48.4 -16.45 Q46.4 -16.4 44.85 -15.6 42.6 -14.3 40.2 -13.3 L33.5 -10.45 Q29.1 -8.55 24.5 -7.8 22.45 -7.5 20.5 -7.75 15.95 -8.3 11.8 -10.55 L9.2 -10.6 2.8 -7.15 1.15 -6.2 2.25 -1.25 3.6 4.75 Q4.1 6.9 5.45 8.25 L6.45 7.85 7.2 7.25 7.3 7.05 Q6.55 4.2 6.45 1.15 L6.45 -2.55 Q6.45 -4.1 7.45 -5.05 10.7 -6.2 14.0 -5.2 L14.3 -4.85 13.9 -1.0 Q13.6 0.75 14.05 2.65 14.8 5.85 17.6 7.65 18.7 8.4 19.65 7.35 L19.6 4.5 19.8 0.7 Q20.0 -1.25 20.6 -3.05 20.9 -3.9 21.6 -4.45 23.7 -6.0 26.5 -6.25 25.7 -1.7 28.2 2.05 28.9 3.1 30.15 3.8 31.6 4.7 32.6 3.45 31.75 0.15 33.25 -2.85 34.95 -6.3 38.75 -7.0 38.6 -4.55 39.35 -2.25 40.4 0.95 43.5 2.25 L44.0 -5.2 44.3 -7.9 Q44.6 -9.25 46.05 -9.3 L47.7 -8.9 49.5 -8.2 Q50.9 -7.45 51.4 -5.9 51.7 -4.95 52.35 -4.1 L53.05 -3.45 Q55.8 -1.75 59.0 -2.25 M-72.0 -8.0 L-64.25 -8.7 -54.4 -9.55 Q-50.0 -9.8 -46.0 -8.15 L-43.0 -6.75 -40.15 -5.5 Q-38.05 -4.7 -35.8 -4.75 L-32.5 -5.05 -30.05 -6.05 Q-28.3 -6.9 -26.25 -7.15 L-24.15 -6.7 -19.25 -4.5 Q-16.85 -3.1 -15.5 -0.75 M-23.25 -0.5 Q-24.1 0.55 -25.45 -0.05 -26.4 -0.55 -26.7 -1.5 L-27.2 -3.45 Q-29.6 -4.6 -31.55 -2.85 L-32.25 -1.9 -32.7 0.0 -32.85 2.75 Q-33.1 3.35 -33.75 3.4 -35.0 3.8 -35.8 2.7 L-36.85 0.45 -37.25 -2.25 Q-39.5 -2.15 -41.45 -1.2 -42.1 -0.85 -42.3 0.0 L-42.9 4.0 -42.9 4.5 Q-45.35 5.3 -47.75 4.0 -48.4 1.7 -47.65 -0.85 L-47.0 -3.4 Q-46.3 -6.4 -49.0 -7.5 L-50.55 -7.8 Q-51.8 -7.95 -52.35 -6.9 -53.3 -4.8 -52.75 -2.75 -53.85 -1.15 -55.8 -0.9 -57.0 -1.2 -56.9 -2.65 L-56.55 -6.0 -56.0 -8.75 M1.15 -6.2 L-2.45 -3.95 -4.55 -2.2 Q-5.85 -0.75 -5.8 1.1" fill="none" stroke="#ffffcc" stroke-linecap="round" stroke-linejoin="round" stroke-width="1.0"/>
  </g>
  <defs>
    <linearGradient gradientTransform="matrix(0.0556, 0.0, 0.0, 0.0258, -2.8, -0.05)" gradientUnits="userSpaceOnUse" id="gradient0" spreadMethod="pad" x1="-819.2" x2="819.2">
      <stop offset="0.0" stop-color="#996715"/>
      <stop offset="0.13725490196078433" stop-color="#e3af39"/>
      <stop offset="0.49411764705882355" stop-color="#fff4b5"/>
      <stop offset="0.8705882352941177" stop-color="#e3af39"/>
      <stop offset="1.0" stop-color="#9e6a16"/>
    </linearGradient>
    <radialGradient cx="0" cy="0" gradientTransform="matrix(0.0794, -0.0259, 0.0376, 0.1151, -31.0, -109.0)" gradientUnits="userSpaceOnUse" id="gradient1" r="819.2" spreadMethod="pad">
      <stop offset="0.0" stop-color="#48246c"/>
      <stop offset="0.8274509803921568" stop-color="#4f2c65"/>
      <stop offset="1.0" stop-color="#412851"/>
    </radialGradient>
  </defs>
</svg>
