<?xml version="1.0" encoding="UTF-8" standalone="no"?>
<svg xmlns:xlink="http://www.w3.org/1999/xlink" height="146.65px" width="202.6px" xmlns="http://www.w3.org/2000/svg">
  <g transform="matrix(1.0, 0.0, 0.0, 1.0, 107.1, 133.1)">
    <path d="M45.55 -24.35 Q52.05 -34.0 55.6 -45.3 56.55 -48.4 57.1 -51.6 L59.6 -66.75 Q60.85 -75.25 60.95 -83.7 61.05 -95.55 57.3 -106.8 54.7 -114.6 49.35 -120.7 44.5 -126.3 38.6 -130.7 40.2 -131.95 42.15 -131.5 48.3 -130.95 53.8 -128.75 58.15 -127.05 61.9 -124.7 L78.05 -113.65 Q83.9 -102.55 89.05 -90.95 90.1 -88.6 90.65 -86.05 92.3 -78.5 93.4 -70.85 95.5 -56.35 94.85 -41.65 94.3 -29.5 91.8 -17.45 91.45 -15.9 90.7 -14.45 86.35 -5.6 81.4 2.8 79.9 5.4 79.35 8.35 78.9 10.7 78.9 13.05 L39.8 13.05 12.85 13.05 Q19.55 3.85 27.85 -4.25 40.9 -17.0 45.55 -24.35 M-25.15 13.05 L-32.0 13.05 -81.75 13.05 -83.15 9.25 Q-85.2 3.8 -87.85 -1.35 -92.95 -11.35 -96.95 -21.55 L-102.4 -35.95 Q-106.75 -47.6 -106.6 -60.0 -106.45 -73.4 -103.4 -86.65 -102.2 -92.0 -100.2 -97.1 -95.65 -108.85 -87.2 -118.3 -79.65 -126.75 -69.05 -130.5 -61.25 -133.2 -52.95 -132.4 -54.7 -129.55 -57.15 -127.15 -63.75 -120.8 -67.75 -112.4 -71.45 -104.7 -72.85 -96.2 -74.7 -85.05 -74.15 -73.8 L-73.5 -73.0 Q-74.05 -63.65 -71.2 -54.7 -67.6 -43.25 -59.6 -34.25 -53.0 -26.85 -44.75 -21.3 -27.65 2.35 -25.2 12.8 L-25.15 13.05 M-84.05 -71.45 L-84.1 -70.65 Q-83.6 -68.45 -81.9 -67.05 -80.7 -66.1 -79.0 -66.45 -78.65 -67.0 -78.6 -67.55 -78.15 -73.5 -80.05 -79.45 -81.85 -80.1 -83.25 -81.35 -87.65 -85.15 -84.65 -90.4 L-83.3 -86.55 Q-82.5 -86.05 -81.55 -86.05 -81.1 -86.2 -80.8 -86.45 -76.45 -91.0 -79.0 -96.85 -79.7 -97.15 -80.25 -97.6 -84.1 -100.95 -81.75 -105.95 -81.4 -104.35 -79.9 -103.45 -79.1 -102.9 -78.2 -103.15 -73.75 -107.15 -75.45 -113.2 L-76.2 -113.35 Q-76.8 -113.65 -77.05 -114.1 -79.55 -118.45 -75.25 -121.65 L-75.35 -119.25 Q-74.7 -118.8 -73.95 -118.5 L-73.05 -118.45 Q-68.95 -120.35 -66.8 -124.95 -68.95 -120.35 -73.05 -118.45 L-73.95 -118.5 Q-74.7 -118.8 -75.35 -119.25 L-75.25 -121.65 Q-79.55 -118.45 -77.05 -114.1 -76.8 -113.65 -76.2 -113.35 L-75.45 -113.2 Q-73.75 -107.15 -78.2 -103.15 -79.1 -102.9 -79.9 -103.45 -81.4 -104.35 -81.75 -105.95 -84.1 -100.95 -80.25 -97.6 -79.7 -97.15 -79.0 -96.85 -76.45 -91.0 -80.8 -86.45 -81.1 -86.2 -81.55 -86.05 -82.5 -86.05 -83.3 -86.55 L-84.65 -90.4 Q-87.65 -85.15 -83.25 -81.35 -81.85 -80.1 -80.05 -79.45 -78.15 -73.5 -78.6 -67.55 -78.65 -67.0 -79.0 -66.45 -80.7 -66.1 -81.9 -67.05 -83.6 -68.45 -84.1 -70.65 -85.9 -65.6 -82.7 -61.7 -82.0 -60.8 -80.95 -60.1 -77.25 -57.5 -76.9 -53.0 -76.75 -50.75 -75.9 -48.65 -75.35 -47.15 -76.4 -46.0 -79.4 -45.55 -81.95 -47.15 L-84.05 -49.0 Q-81.6 -41.05 -73.6 -38.5 -65.8 -36.1 -61.6 -29.1 -60.7 -27.55 -61.45 -26.05 -62.8 -23.45 -65.8 -24.05 -66.9 -24.0 -67.85 -24.45 -72.1 -26.1 -76.0 -28.85 -70.75 -18.05 -59.0 -16.35 L-54.4 -15.6 Q-50.9 -14.85 -47.95 -12.8 -43.4 -9.65 -40.05 -5.45 -39.0 -4.1 -38.55 -2.4 -41.6 -0.4 -45.3 -1.75 L-51.55 -3.65 -54.7 -4.7 Q-50.25 0.55 -43.8 3.25 -36.75 6.1 -32.4 12.5 L-32.0 13.05 -32.4 12.5 Q-36.75 6.1 -43.8 3.25 -50.25 0.55 -54.7 -4.7 L-51.55 -3.65 -45.3 -1.75 Q-41.6 -0.4 -38.55 -2.4 -39.0 -4.1 -40.05 -5.45 -43.4 -9.65 -47.95 -12.8 -50.9 -14.85 -54.4 -15.6 L-59.0 -16.35 Q-70.75 -18.05 -76.0 -28.85 -72.1 -26.1 -67.85 -24.45 -66.9 -24.0 -65.8 -24.05 -62.8 -23.45 -61.45 -26.05 -60.7 -27.55 -61.6 -29.1 -65.8 -36.1 -73.6 -38.5 -81.6 -41.05 -84.05 -49.0 L-81.95 -47.15 Q-79.4 -45.55 -76.4 -46.0 -75.35 -47.15 -75.9 -48.65 -76.75 -50.75 -76.9 -53.0 -77.25 -57.5 -80.95 -60.1 -82.0 -60.8 -82.7 -61.7 -85.9 -65.6 -84.1 -70.65 L-84.05 -71.45 M39.8 13.05 Q43.05 11.75 46.7 11.45 L45.6 9.9 33.9 10.9 32.8 10.25 35.4 5.5 Q36.8 3.15 38.65 1.2 40.75 -1.0 43.75 -0.35 50.8 0.8 55.4 -3.95 58.25 -6.85 58.15 -10.45 56.55 -8.55 54.3 -7.55 50.55 -5.9 46.45 -6.75 L46.35 -9.4 Q46.4 -10.6 46.95 -11.6 49.25 -15.75 53.45 -18.0 58.45 -20.65 59.9 -26.0 58.85 -25.15 57.7 -24.95 55.2 -24.65 52.5 -25.0 L50.45 -25.1 54.65 -31.5 Q58.3 -32.8 59.85 -36.45 60.55 -38.1 61.8 -39.05 66.3 -42.7 66.2 -49.0 65.15 -47.55 63.6 -46.55 62.45 -45.75 61.25 -45.35 L59.3 -44.95 62.35 -56.0 Q62.2 -58.9 63.15 -61.45 63.65 -62.75 64.5 -63.8 68.95 -69.4 71.3 -76.1 L71.6 -77.85 Q70.8 -77.05 70.35 -76.1 69.4 -74.05 67.35 -73.05 66.2 -72.45 64.9 -72.7 64.7 -73.65 64.9 -74.45 65.9 -78.1 65.5 -81.9 64.7 -89.6 69.1 -96.15 72.1 -100.55 69.7 -104.8 69.9 -103.05 69.1 -101.7 68.55 -100.75 67.65 -99.95 L65.7 -98.35 Q60.25 -101.95 63.7 -107.75 L64.6 -109.75 Q66.1 -115.3 61.3 -118.55 L59.9 -115.15 52.4 -123.2 59.9 -115.15 61.3 -118.55 Q66.1 -115.3 64.6 -109.75 L63.7 -107.75 Q60.25 -101.95 65.7 -98.35 L67.65 -99.95 Q68.55 -100.75 69.1 -101.7 69.9 -103.05 69.7 -104.8 72.1 -100.55 69.1 -96.15 64.7 -89.6 65.5 -81.9 65.9 -78.1 64.9 -74.45 64.7 -73.65 64.9 -72.7 66.2 -72.45 67.35 -73.05 69.4 -74.05 70.35 -76.1 70.8 -77.05 71.6 -77.85 L71.3 -76.1 Q68.95 -69.4 64.5 -63.8 63.65 -62.75 63.15 -61.45 62.2 -58.9 62.35 -56.0 L59.3 -44.95 61.25 -45.35 Q62.45 -45.75 63.6 -46.55 65.15 -47.55 66.2 -49.0 66.3 -42.7 61.8 -39.05 60.55 -38.1 59.85 -36.45 58.3 -32.8 54.65 -31.5 L50.45 -25.1 52.5 -25.0 Q55.2 -24.65 57.7 -24.95 58.85 -25.15 59.9 -26.0 58.45 -20.65 53.45 -18.0 49.25 -15.75 46.95 -11.6 46.4 -10.6 46.35 -9.4 L46.45 -6.75 Q50.55 -5.9 54.3 -7.55 56.55 -8.55 58.15 -10.45 58.25 -6.85 55.4 -3.95 50.8 0.8 43.75 -0.35 40.75 -1.0 38.65 1.2 36.8 3.15 35.4 5.5 L32.8 10.25 33.9 10.9 45.6 9.9 46.7 11.45 Q43.05 11.75 39.8 13.05" fill="url(#gradient0)" fill-rule="evenodd" stroke="none"/>
    <path d="M12.85 13.05 L-25.15 13.05 -25.2 12.8 Q-27.65 2.35 -44.75 -21.3 L-40.6 -22.65 -32.55 -25.2 Q-26.75 -27.15 -20.8 -27.15 L-20.35 -27.65 -11.05 -28.25 7.45 -28.65 24.05 -28.35 Q34.95 -27.2 45.55 -24.35 40.9 -17.0 27.85 -4.25 19.55 3.85 12.85 13.05" fill="url(#gradient1)" fill-rule="evenodd" stroke="none"/>
    <path d="M45.55 -24.35 Q52.05 -34.0 55.6 -45.3 56.55 -48.4 57.1 -51.6 L59.6 -66.75 Q60.85 -75.25 60.95 -83.7 61.05 -95.55 57.3 -106.8 54.7 -114.6 49.35 -120.7 44.5 -126.3 38.6 -130.7 40.2 -131.95 42.15 -131.5 48.3 -130.95 53.8 -128.75 58.15 -127.05 61.9 -124.7 L78.05 -113.65 Q83.9 -102.55 89.05 -90.95 90.1 -88.6 90.65 -86.05 92.3 -78.5 93.4 -70.85 95.5 -56.35 94.85 -41.65 94.3 -29.5 91.8 -17.45 91.45 -15.9 90.7 -14.45 86.35 -5.6 81.4 2.8 79.9 5.4 79.35 8.35 78.9 10.7 78.9 13.05 M-81.75 13.05 L-83.15 9.25 Q-85.2 3.8 -87.85 -1.35 -92.95 -11.35 -96.95 -21.55 L-102.4 -35.95 Q-106.75 -47.6 -106.6 -60.0 -106.45 -73.4 -103.4 -86.65 -102.2 -92.0 -100.2 -97.1 -95.65 -108.85 -87.2 -118.3 -79.65 -126.75 -69.05 -130.5 -61.25 -133.2 -52.95 -132.4 -54.7 -129.55 -57.15 -127.15 -63.75 -120.8 -67.75 -112.4 -71.45 -104.7 -72.85 -96.2 -74.7 -85.05 -74.15 -73.8 L-73.5 -73.0 Q-74.05 -63.65 -71.2 -54.7 -67.6 -43.25 -59.6 -34.25 -53.0 -26.85 -44.75 -21.3 L-40.6 -22.65 -32.55 -25.2 Q-26.75 -27.15 -20.8 -27.15 L-20.35 -27.65 -11.05 -28.25 7.45 -28.65 24.05 -28.35 Q34.95 -27.2 45.55 -24.35 40.9 -17.0 27.85 -4.25 19.55 3.85 12.85 13.05 M-44.75 -21.3 Q-27.65 2.35 -25.2 12.8 L-25.15 13.05" fill="none" stroke="#000000" stroke-linecap="round" stroke-linejoin="round" stroke-width="1.0"/>
    <path d="M52.4 -123.2 L59.9 -115.15 61.3 -118.55 Q66.1 -115.3 64.6 -109.75 L63.7 -107.75 Q60.25 -101.95 65.7 -98.35 L67.65 -99.95 Q68.55 -100.75 69.1 -101.7 69.9 -103.05 69.7 -104.8 72.1 -100.55 69.1 -96.15 64.7 -89.6 65.5 -81.9 65.9 -78.1 64.9 -74.45 64.7 -73.65 64.9 -72.7 66.2 -72.45 67.35 -73.05 69.4 -74.05 70.35 -76.1 70.8 -77.05 71.6 -77.85 L71.3 -76.1 Q68.95 -69.4 64.5 -63.8 63.65 -62.75 63.15 -61.45 62.2 -58.9 62.35 -56.0 L59.3 -44.95 61.25 -45.35 Q62.45 -45.75 63.6 -46.55 65.15 -47.55 66.2 -49.0 66.3 -42.7 61.8 -39.05 60.55 -38.1 59.85 -36.45 58.3 -32.8 54.65 -31.5 L50.45 -25.1 52.5 -25.0 Q55.2 -24.65 57.7 -24.95 58.85 -25.15 59.9 -26.0 58.45 -20.65 53.45 -18.0 49.25 -15.75 46.95 -11.6 46.4 -10.6 46.35 -9.4 L46.45 -6.75 Q50.55 -5.9 54.3 -7.55 56.55 -8.55 58.15 -10.45 58.25 -6.85 55.4 -3.95 50.8 0.8 43.75 -0.35 40.75 -1.0 38.65 1.2 36.8 3.15 35.4 5.5 L32.8 10.25 33.9 10.9 45.6 9.9 46.7 11.45 Q43.05 11.75 39.8 13.05 M-66.8 -124.95 Q-68.95 -120.35 -73.05 -118.45 L-73.95 -118.5 Q-74.7 -118.8 -75.35 -119.25 L-75.25 -121.65 Q-79.55 -118.45 -77.05 -114.1 -76.8 -113.65 -76.2 -113.35 L-75.45 -113.2 Q-73.75 -107.15 -78.2 -103.15 -79.1 -102.9 -79.9 -103.45 -81.4 -104.35 -81.75 -105.95 -84.1 -100.95 -80.25 -97.6 -79.7 -97.15 -79.0 -96.85 -76.45 -91.0 -80.8 -86.45 -81.1 -86.2 -81.55 -86.05 -82.5 -86.05 -83.3 -86.55 L-84.65 -90.4 Q-87.65 -85.15 -83.25 -81.35 -81.85 -80.1 -80.05 -79.45 -78.15 -73.5 -78.6 -67.55 -78.65 -67.0 -79.0 -66.45 -80.7 -66.1 -81.9 -67.05 -83.6 -68.45 -84.1 -70.65 -85.9 -65.6 -82.7 -61.7 -82.0 -60.8 -80.95 -60.1 -77.25 -57.5 -76.9 -53.0 -76.75 -50.75 -75.9 -48.65 -75.35 -47.15 -76.4 -46.0 -79.4 -45.55 -81.95 -47.15 L-84.05 -49.0 Q-81.6 -41.05 -73.6 -38.5 -65.8 -36.1 -61.6 -29.1 -60.7 -27.55 -61.45 -26.05 -62.8 -23.45 -65.8 -24.05 -66.9 -24.0 -67.85 -24.45 -72.1 -26.1 -76.0 -28.85 -70.75 -18.05 -59.0 -16.35 L-54.4 -15.6 Q-50.9 -14.85 -47.95 -12.8 -43.4 -9.65 -40.05 -5.45 -39.0 -4.1 -38.55 -2.4 -41.6 -0.4 -45.3 -1.75 L-51.55 -3.65 -54.7 -4.7 Q-50.25 0.55 -43.8 3.25 -36.75 6.1 -32.4 12.5 L-32.0 13.05 M-84.1 -70.65 L-84.05 -71.45" fill="none" stroke="#cc3333" stroke-linecap="round" stroke-linejoin="round" stroke-width="1.0"/>
  </g>
  <defs>
    <radialGradient cx="0" cy="0" gradientTransform="matrix(0.1136, 0.0, 0.0, 0.1384, -5.2, -59.35)" gradientUnits="userSpaceOnUse" id="gradient0" r="819.2" spreadMethod="pad">
      <stop offset="0.5803921568627451" stop-color="#fff4b5"/>
      <stop offset="0.7294117647058823" stop-color="#e3af39"/>
      <stop offset="0.9450980392156862" stop-color="#9e6a16"/>
      <stop offset="1.0" stop-color="#4a310b"/>
    </radialGradient>
    <radialGradient cx="0" cy="0" gradientTransform="matrix(0.0794, -0.0259, 0.0376, 0.1151, -31.0, -91.0)" gradientUnits="userSpaceOnUse" id="gradient1" r="819.2" spreadMethod="pad">
      <stop offset="0.0" stop-color="#af7630"/>
      <stop offset="0.8274509803921568" stop-color="#7c4721"/>
      <stop offset="1.0" stop-color="#53311a"/>
    </radialGradient>
  </defs>
</svg>
