<?xml version="1.0" encoding="UTF-8" standalone="no"?>
<svg xmlns:xlink="http://www.w3.org/1999/xlink" height="169.15px" width="203.5px" xmlns="http://www.w3.org/2000/svg">
  <g transform="matrix(1.0, 0.0, 0.0, 1.0, 98.05, 148.7)">
    <path d="M-81.75 -126.55 L-83.95 -118.5 -81.15 -114.45 -82.05 -114.05 -83.4 -112.7 -83.9 -111.7 -84.45 -108.7 -84.55 -107.25 -82.1 -105.85 Q-82.7 -102.3 -85.15 -99.6 -87.1 -97.3 -84.05 -95.9 -81.55 -94.7 -79.95 -93.15 L-80.45 -91.7 Q-80.75 -91.05 -81.3 -90.55 L-86.85 -86.05 Q-86.3 -84.7 -85.3 -83.8 -82.5 -81.45 -83.55 -78.7 -85.05 -74.8 -89.1 -73.9 -90.0 -73.55 -90.2 -72.5 L-71.35 -63.85 Q-74.5 -59.95 -79.0 -57.4 L-83.45 -54.05 -75.4 -52.9 -81.15 -47.6 -81.35 -45.7 Q-80.05 -43.8 -77.8 -43.3 -68.6 -41.7 -59.85 -39.1 -65.4 -35.55 -71.05 -32.3 -74.5 -30.25 -75.4 -25.85 L-51.8 -23.55 -53.55 -23.05 Q-59.75 -21.05 -63.3 -15.45 -64.35 -13.9 -65.05 -12.05 -56.5 -14.8 -48.7 -12.5 -47.9 -12.25 -47.55 -11.45 L-48.1 -10.35 -48.4 -9.85 -48.8 -9.45 -49.25 -9.1 -49.75 -8.75 -50.95 -8.25 -51.8 -8.05 Q-51.55 -7.2 -51.05 -6.95 -44.35 -4.3 -35.55 -6.1 -32.8 -6.55 -31.1 -4.0 L-33.95 3.45 -29.45 3.35 Q-22.65 5.65 -16.05 8.7 -14.6 9.35 -13.2 7.95 L-8.9 7.2 Q-8.7 4.65 -8.8 2.2 -8.95 -0.4 -9.45 -2.95 L-9.6 -4.1 Q-7.2 -6.75 -3.6 -7.7 L0.55 -8.35 3.3 -7.95 3.65 -6.5 Q3.8 -5.1 3.6 -3.65 L3.2 -2.15 2.75 -0.8 2.45 0.55 9.55 7.7 8.45 -0.85 Q12.65 -3.65 17.55 -3.8 20.6 -4.25 23.1 -2.3 24.05 -1.6 24.45 -0.5 L20.2 12.1 35.25 13.15 Q36.85 13.1 38.3 12.35 L38.75 11.7 Q40.9 8.25 39.2 4.25 37.45 0.0 34.0 -3.45 L41.95 -3.2 48.6 -1.35 Q49.65 -1.15 50.55 -1.75 50.2 -5.4 47.95 -8.2 46.6 -9.9 45.9 -11.95 45.25 -13.85 45.45 -16.0 L50.0 -15.25 Q53.6 -14.25 56.4 -11.6 57.95 -10.15 60.0 -9.7 61.15 -15.45 60.5 -21.25 60.05 -25.35 56.45 -28.15 L60.85 -27.0 Q64.0 -26.4 66.45 -24.55 68.15 -23.2 70.25 -22.25 74.0 -24.15 73.45 -28.4 72.5 -36.3 67.95 -43.15 73.4 -42.65 78.4 -40.75 81.4 -39.55 84.1 -37.75 L86.3 -38.75 Q86.35 -47.6 80.65 -55.55 78.3 -58.85 74.9 -60.95 80.65 -61.45 85.95 -59.45 89.1 -58.25 91.8 -56.15 93.05 -64.1 88.95 -70.95 86.25 -75.4 81.8 -78.8 L89.05 -78.55 Q93.45 -77.2 98.15 -75.9 L98.75 -76.3 Q100.55 -87.25 89.95 -92.7 86.7 -94.35 84.65 -97.2 L87.1 -98.35 92.2 -99.5 96.35 -100.2 95.5 -102.3 Q92.35 -108.7 85.9 -111.5 84.4 -112.2 83.55 -113.65 L92.05 -115.0 91.1 -119.85 Q89.55 -127.15 86.4 -134.0 89.55 -127.15 91.1 -119.85 L92.05 -115.0 83.55 -113.65 Q84.4 -112.2 85.9 -111.5 92.35 -108.7 95.5 -102.3 L96.35 -100.2 92.2 -99.5 87.1 -98.35 84.65 -97.2 Q86.7 -94.35 89.95 -92.7 100.55 -87.25 98.75 -76.3 L98.15 -75.9 Q93.45 -77.2 89.05 -78.55 L81.8 -78.8 Q86.25 -75.4 88.95 -70.95 93.05 -64.1 91.8 -56.15 89.1 -58.25 85.95 -59.45 80.65 -61.45 74.9 -60.95 78.3 -58.85 80.65 -55.55 86.35 -47.6 86.3 -38.75 L84.1 -37.75 Q81.4 -39.55 78.4 -40.75 73.4 -42.65 67.95 -43.15 72.5 -36.3 73.45 -28.4 74.0 -24.15 70.25 -22.25 68.15 -23.2 66.45 -24.55 64.0 -26.4 60.85 -27.0 L56.45 -28.15 Q60.05 -25.35 60.5 -21.25 61.15 -15.45 60.0 -9.7 57.95 -10.15 56.4 -11.6 53.6 -14.25 50.0 -15.25 L45.45 -16.0 Q45.25 -13.85 45.9 -11.95 46.6 -9.9 47.95 -8.2 50.2 -5.4 50.55 -1.75 49.65 -1.15 48.6 -1.35 L41.95 -3.2 34.0 -3.45 Q37.45 0.0 39.2 4.25 40.9 8.25 38.75 11.7 L38.3 12.35 Q36.85 13.1 35.25 13.15 L20.2 12.1 24.45 -0.5 Q24.05 -1.6 23.1 -2.3 20.6 -4.25 17.55 -3.8 12.65 -3.65 8.45 -0.85 L9.55 7.7 2.45 0.55 2.75 -0.8 3.2 -2.15 3.6 -3.65 Q3.8 -5.1 3.65 -6.5 L3.3 -7.95 0.55 -8.35 -3.6 -7.7 Q-7.2 -6.75 -9.6 -4.1 L-9.45 -2.95 Q-8.95 -0.4 -8.8 2.2 -8.7 4.65 -8.9 7.2 L-13.2 7.95 Q-14.6 9.35 -16.05 8.7 -22.65 5.65 -29.45 3.35 L-33.95 3.45 -31.1 -4.0 Q-32.8 -6.55 -35.55 -6.1 -44.35 -4.3 -51.05 -6.95 -51.55 -7.2 -51.8 -8.05 L-50.95 -8.25 -49.75 -8.75 -49.25 -9.1 -48.8 -9.45 -48.4 -9.85 -48.1 -10.35 -47.55 -11.45 Q-47.9 -12.25 -48.7 -12.5 -56.5 -14.8 -65.05 -12.05 -64.35 -13.9 -63.3 -15.45 -59.75 -21.05 -53.55 -23.05 L-51.8 -23.55 -75.4 -25.85 Q-74.5 -30.25 -71.05 -32.3 -65.4 -35.55 -59.85 -39.1 -68.6 -41.7 -77.8 -43.3 -80.05 -43.8 -81.35 -45.7 L-81.15 -47.6 -75.4 -52.9 -83.45 -54.05 -79.0 -57.4 Q-74.5 -59.95 -71.35 -63.85 L-90.2 -72.5 Q-90.0 -73.55 -89.1 -73.9 -85.05 -74.8 -83.55 -78.7 -82.5 -81.45 -85.3 -83.8 -86.3 -84.7 -86.85 -86.05 L-81.3 -90.55 Q-80.75 -91.05 -80.45 -91.7 L-79.95 -93.15 Q-81.55 -94.7 -84.05 -95.9 -87.1 -97.3 -85.15 -99.6 -82.7 -102.3 -82.1 -105.85 L-84.55 -107.25 -84.45 -108.7 -83.9 -111.7 -83.4 -112.7 -82.05 -114.05 -81.15 -114.45 -83.95 -118.5 -81.75 -126.55 M-59.25 19.95 Q-68.2 9.1 -74.2 -3.6 -82.8 -21.95 -89.95 -40.85 -102.6 -74.35 -94.2 -108.55 -88.95 -130.0 -76.2 -148.2 -78.0 -115.4 -72.3 -83.0 -67.55 -55.75 -50.35 -34.25 -41.65 -23.35 -29.3 -16.9 -9.75 -23.4 10.85 -23.85 24.4 -24.15 36.0 -17.15 55.6 -36.1 67.5 -60.35 77.75 -81.3 80.65 -104.55 83.35 -126.2 80.85 -147.55 L84.9 -142.45 Q102.6 -118.05 104.65 -87.85 106.6 -59.15 95.8 -32.4 85.2 -6.2 74.1 19.95 L-59.25 19.95" fill="url(#gradient0)" fill-rule="evenodd" stroke="none"/>
    <path d="M86.4 -134.0 Q89.55 -127.15 91.1 -119.85 L92.05 -115.0 83.55 -113.65 Q84.4 -112.2 85.9 -111.5 92.35 -108.7 95.5 -102.3 L96.35 -100.2 92.2 -99.5 87.1 -98.35 84.65 -97.2 Q86.7 -94.35 89.95 -92.7 100.55 -87.25 98.75 -76.3 L98.15 -75.9 Q93.45 -77.2 89.05 -78.55 L81.8 -78.8 Q86.25 -75.4 88.95 -70.95 93.05 -64.1 91.8 -56.15 89.1 -58.25 85.95 -59.45 80.65 -61.45 74.9 -60.95 78.3 -58.85 80.65 -55.55 86.35 -47.6 86.3 -38.75 L84.1 -37.75 Q81.4 -39.55 78.4 -40.75 73.4 -42.65 67.95 -43.15 72.5 -36.3 73.45 -28.4 74.0 -24.15 70.25 -22.25 68.15 -23.2 66.45 -24.55 64.0 -26.4 60.85 -27.0 L56.45 -28.15 Q60.05 -25.35 60.5 -21.25 61.15 -15.45 60.0 -9.7 57.95 -10.15 56.4 -11.6 53.6 -14.25 50.0 -15.25 L45.45 -16.0 Q45.25 -13.85 45.9 -11.95 46.6 -9.9 47.95 -8.2 50.2 -5.4 50.55 -1.75 49.65 -1.15 48.6 -1.35 L41.95 -3.2 34.0 -3.45 Q37.45 0.0 39.2 4.25 40.9 8.25 38.75 11.7 L38.3 12.35 Q36.85 13.1 35.25 13.15 L20.2 12.1 24.45 -0.5 Q24.05 -1.6 23.1 -2.3 20.6 -4.25 17.55 -3.8 12.65 -3.65 8.45 -0.85 L9.55 7.7 2.45 0.55 2.75 -0.8 3.2 -2.15 3.6 -3.65 Q3.8 -5.1 3.65 -6.5 L3.3 -7.95 0.55 -8.35 -3.6 -7.7 Q-7.2 -6.75 -9.6 -4.1 L-9.45 -2.95 Q-8.95 -0.4 -8.8 2.2 -8.7 4.65 -8.9 7.2 L-13.2 7.95 Q-14.6 9.35 -16.05 8.7 -22.65 5.65 -29.45 3.35 L-33.95 3.45 -31.1 -4.0 Q-32.8 -6.55 -35.55 -6.1 -44.35 -4.3 -51.05 -6.95 -51.55 -7.2 -51.8 -8.05 L-50.95 -8.25 -49.75 -8.75 -49.25 -9.1 -48.8 -9.45 -48.4 -9.85 -48.1 -10.35 -47.55 -11.45 Q-47.9 -12.25 -48.7 -12.5 -56.5 -14.8 -65.05 -12.05 -64.35 -13.9 -63.3 -15.45 -59.75 -21.05 -53.55 -23.05 L-51.8 -23.55 -75.4 -25.85 Q-74.5 -30.25 -71.05 -32.3 -65.4 -35.55 -59.85 -39.1 -68.6 -41.7 -77.8 -43.3 -80.05 -43.8 -81.35 -45.7 L-81.15 -47.6 -75.4 -52.9 -83.45 -54.05 -79.0 -57.4 Q-74.5 -59.95 -71.35 -63.85 L-90.2 -72.5 Q-90.0 -73.55 -89.1 -73.9 -85.05 -74.8 -83.55 -78.7 -82.5 -81.45 -85.3 -83.8 -86.3 -84.7 -86.85 -86.05 L-81.3 -90.55 Q-80.75 -91.05 -80.45 -91.7 L-79.95 -93.15 Q-81.55 -94.7 -84.05 -95.9 -87.1 -97.3 -85.15 -99.6 -82.7 -102.3 -82.1 -105.85 L-84.55 -107.25 -84.45 -108.7 -83.9 -111.7 -83.4 -112.7 -82.05 -114.05 -81.15 -114.45 -83.95 -118.5 -81.75 -126.55" fill="none" stroke="#ffffcc" stroke-linecap="round" stroke-linejoin="round" stroke-width="1.0"/>
    <path d="M74.1 19.95 Q85.2 -6.2 95.8 -32.4 106.6 -59.15 104.65 -87.85 102.6 -118.05 84.9 -142.45 L80.85 -147.55 Q83.35 -126.2 80.65 -104.55 77.75 -81.3 67.5 -60.35 55.6 -36.1 36.0 -17.15 24.4 -24.15 10.85 -23.85 -9.75 -23.4 -29.3 -16.9 -41.65 -23.35 -50.35 -34.25 -67.55 -55.75 -72.3 -83.0 -78.0 -115.4 -76.2 -148.2 -88.95 -130.0 -94.2 -108.55 -102.6 -74.35 -89.95 -40.85 -82.8 -21.95 -74.2 -3.6 -68.2 9.1 -59.25 19.95" fill="none" stroke="#000000" stroke-linecap="round" stroke-linejoin="round" stroke-width="1.0"/>
  </g>
  <defs>
    <radialGradient cx="0" cy="0" gradientTransform="matrix(0.1113, -0.0363, 0.0456, 0.1396, -6.35, -81.1)" gradientUnits="userSpaceOnUse" id="gradient0" r="819.2" spreadMethod="pad">
      <stop offset="0.0" stop-color="#fdfcdb"/>
      <stop offset="0.8274509803921568" stop-color="#f0db44"/>
      <stop offset="1.0" stop-color="#e6c71e"/>
    </radialGradient>
  </defs>
</svg>
