<?xml version="1.0" encoding="UTF-8" standalone="no"?>
<svg xmlns:xlink="http://www.w3.org/1999/xlink" height="169.85px" width="372.25px" xmlns="http://www.w3.org/2000/svg">
  <g transform="matrix(1.0, 0.0, 0.0, 1.0, 182.3, 124.65)">
    <path d="M27.3 -6.35 L26.35 -5.45 Q18.1 -10.5 8.2 -10.9 L3.9 -11.15 -8.6 2.85 Q-17.1 -5.5 -28.0 -8.55 L-30.45 -8.9 -32.5 -10.6 -39.85 -16.7 Q-29.1 -20.8 -17.75 -21.5 10.1 -22.3 37.05 -15.15 L27.3 -6.35 M21.95 1.55 Q21.95 4.2 23.95 5.8 39.15 18.15 61.0 20.15 L62.15 21.5 59.6 30.8 Q15.25 51.25 -32.65 41.6 -50.5 38.05 -65.5 28.15 L-66.75 17.3 -66.95 16.35 Q-50.1 13.85 -34.6 7.15 L-32.7 6.2 Q-20.75 22.75 -7.05 35.6 -5.5 37.05 -3.25 35.75 15.45 25.05 15.0 2.9 L21.95 1.55 M11.5 -2.9 Q10.0 -0.7 7.5 -1.7 L7.15 -1.75 7.5 4.6 7.15 -1.75 7.5 -1.7 Q10.0 -0.7 11.5 -2.9 M5.8 -6.3 L19.35 -3.25 11.65 0.6 10.6 6.4 2.35 5.2 5.8 -6.3 M18.45 31.05 L18.7 30.45 Q18.65 29.2 19.6 29.1 L20.75 29.05 Q23.05 29.15 24.75 28.15 L21.35 26.4 20.4 25.7 Q20.0 25.15 18.95 24.75 15.65 23.5 17.6 19.95 18.05 19.15 19.0 19.25 L19.65 19.45 21.25 20.2 Q24.25 21.75 27.65 22.4 29.75 22.8 30.5 21.85 L28.25 21.1 27.6 20.8 Q22.55 18.35 18.4 14.4 17.5 13.5 18.1 12.15 19.25 9.75 21.9 8.05 21.9 9.15 22.55 9.65 L28.15 13.9 Q31.7 16.55 35.65 18.5 L36.35 18.8 43.8 21.8 45.35 22.6 Q48.0 24.3 51.85 24.3 54.2 24.3 53.0 23.55 54.2 24.3 51.85 24.3 48.0 24.3 45.35 22.6 L43.8 21.8 36.35 18.8 35.65 18.5 Q31.7 16.55 28.15 13.9 L22.55 9.65 Q21.9 9.15 21.9 8.05 19.25 9.75 18.1 12.15 17.5 13.5 18.4 14.4 22.55 18.35 27.6 20.8 L28.25 21.1 30.5 21.85 Q29.75 22.8 27.65 22.4 24.25 21.75 21.25 20.2 L19.65 19.45 19.0 19.25 Q18.05 19.15 17.6 19.95 15.65 23.5 18.95 24.75 20.0 25.15 20.4 25.7 L21.35 26.4 24.75 28.15 Q23.05 29.15 20.75 29.05 L19.6 29.1 Q18.65 29.2 18.7 30.45 L18.45 31.05 M-16.1 5.2 L-22.45 7.2 Q-27.0 3.3 -32.5 0.75 -34.45 -0.15 -35.9 -1.7 L-36.85 -2.85 -22.85 -3.2 -15.2 4.35 -16.1 5.2 M-5.75 24.7 L-5.2 16.65 -5.75 24.7 M-5.75 11.5 L-10.55 14.9 -10.1 15.3 Q-4.05 16.95 2.3 14.95 -4.05 16.95 -10.1 15.3 L-10.55 14.9 -5.75 11.5 M-17.25 12.65 L-6.75 6.9 7.5 13.25 Q2.8 20.65 -3.3 27.15 L-6.15 29.65 -16.2 13.2 Q-16.7 12.95 -17.25 12.65 M-32.25 0.0 L-24.25 0.65 -20.15 4.6 -24.25 0.65 -32.25 0.0 M-30.5 34.5 Q-29.95 34.15 -29.35 34.1 -26.85 33.9 -24.45 32.2 -24.3 29.8 -26.5 30.0 L-30.45 30.7 -32.75 30.8 -33.4 30.75 Q-35.8 30.85 -35.7 28.75 -35.4 28.45 -35.1 28.4 -32.65 28.25 -30.55 27.45 L-29.9 27.2 Q-28.65 26.8 -27.5 26.05 -26.55 25.45 -26.7 24.75 -27.1 22.65 -28.8 22.55 L-32.8 22.4 -33.85 22.65 -36.25 24.1 Q-37.8 25.2 -39.7 25.3 L-40.55 22.1 Q-39.8 21.25 -38.55 21.25 L-37.5 21.05 Q-36.05 20.5 -34.55 20.25 -31.65 19.8 -31.1 17.25 -31.1 14.45 -33.4 14.4 -35.3 14.35 -36.9 15.45 -37.4 15.85 -38.0 16.05 L-43.2 17.75 -47.8 18.95 Q-53.35 20.25 -59.3 20.7 -53.35 20.25 -47.8 18.95 L-43.2 17.75 -38.0 16.05 Q-37.4 15.85 -36.9 15.45 -35.3 14.35 -33.4 14.4 -31.1 14.45 -31.1 17.25 -31.65 19.8 -34.55 20.25 -36.05 20.5 -37.5 21.05 L-38.55 21.25 Q-39.8 21.25 -40.55 22.1 L-39.7 25.3 Q-37.8 25.2 -36.25 24.1 L-33.85 22.65 -32.8 22.4 -28.8 22.55 Q-27.1 22.65 -26.7 24.75 -26.55 25.45 -27.5 26.05 -28.65 26.8 -29.9 27.2 L-30.55 27.45 Q-32.65 28.25 -35.1 28.4 -35.4 28.45 -35.7 28.75 -35.8 30.85 -33.4 30.75 L-32.75 30.8 -30.45 30.7 -26.5 30.0 Q-24.3 29.8 -24.45 32.2 -26.85 33.9 -29.35 34.1 -29.95 34.15 -30.5 34.5" fill="url(#gradient0)" fill-rule="evenodd" stroke="none"/>
    <path d="M27.85 -5.75 L42.05 -4.6 Q42.05 -7.8 43.2 -10.95 44.25 -13.85 46.85 -14.35 59.2 -17.05 71.0 -22.0 L71.8 -23.25 Q86.9 -38.05 98.05 -57.4 100.95 -62.55 102.4 -68.0 106.65 -84.15 119.85 -89.7 L122.95 -96.8 132.35 -96.55 133.05 -99.15 Q135.7 -111.0 136.3 -123.05 L137.0 -124.0 138.2 -124.15 139.9 -113.05 139.45 -112.55 Q138.0 -86.85 120.3 -65.8 111.05 -54.8 103.35 -42.55 97.0 -32.4 89.2 -23.3 81.5 -14.2 72.5 -6.5 L74.35 -6.0 39.15 1.15 Q59.85 16.9 86.4 18.2 107.95 19.7 129.6 19.45 158.75 18.05 187.4 13.3 163.15 27.75 135.25 31.45 106.65 35.15 79.35 26.1 L61.0 20.15 Q39.15 18.15 23.95 5.8 21.95 4.2 21.95 1.55 L28.75 -3.3 26.35 -5.45 28.75 -3.3 21.95 1.55 15.0 2.9 Q15.45 25.05 -3.25 35.75 -5.5 37.05 -7.05 35.6 -20.75 22.75 -32.7 6.2 L-48.35 -1.7 -46.55 -2.75 Q-39.0 -7.2 -30.45 -8.9 -39.0 -7.2 -46.55 -2.75 L-48.35 -1.7 -32.7 6.2 -34.6 7.15 Q-50.1 13.85 -66.95 16.35 -95.65 22.7 -124.9 23.65 -154.9 25.1 -180.5 9.7 L-181.8 8.85 -180.6 8.75 -180.5 9.7 Q-161.65 18.2 -145.1 13.05 -133.85 9.7 -121.75 14.4 -109.35 19.2 -100.15 8.45 -76.85 14.25 -54.1 4.0 L-67.95 -3.45 -68.15 -4.4 -67.35 -4.6 -76.95 -11.5 Q-99.95 -28.35 -117.2 -51.0 -133.5 -72.35 -140.25 -98.3 -135.1 -80.0 -118.9 -72.7 -109.35 -63.35 -104.05 -51.95 -96.6 -35.9 -80.15 -31.15 -79.2 -24.15 -72.2 -23.4 -62.0 -23.2 -60.2 -15.95 -59.65 -13.85 -58.2 -12.7 -48.6 -5.3 -33.4 -9.85 L-32.5 -10.6 -30.45 -8.9 -28.0 -8.55 Q-17.1 -5.5 -8.6 2.85 L3.9 -11.15 8.2 -10.9 Q18.1 -10.5 26.35 -5.45 L27.3 -6.35 27.85 -5.75 M5.8 -6.3 L2.35 5.2 10.6 6.4 11.65 0.6 19.35 -3.25 5.8 -6.3 M187.4 13.3 L187.5 12.0 189.45 12.1 187.4 13.3 M-15.2 4.35 L-22.85 -3.2 -36.85 -2.85 -35.9 -1.7 Q-34.45 -0.15 -32.5 0.75 -27.0 3.3 -22.45 7.2 L-16.1 5.2 -15.2 4.35 M-17.25 12.65 Q-16.7 12.95 -16.2 13.2 L-6.15 29.65 -3.3 27.15 Q2.8 20.65 7.5 13.25 L-6.75 6.9 -17.25 12.65" fill="#6a7d8c" fill-rule="evenodd" stroke="none"/>
    <path d="M136.3 -123.05 Q135.7 -111.0 133.05 -99.15 L132.35 -96.55 122.95 -96.8 119.85 -89.7 Q106.65 -84.15 102.4 -68.0 100.95 -62.55 98.05 -57.4 86.9 -38.05 71.8 -23.25 L71.0 -22.0 Q59.2 -17.05 46.85 -14.35 44.25 -13.85 43.2 -10.95 42.05 -7.8 42.05 -4.6 L27.85 -5.75 27.3 -6.35 37.05 -15.15 Q56.9 -37.55 77.5 -59.3 95.6 -78.35 114.0 -97.25 125.95 -109.45 136.3 -123.05 M187.4 13.3 Q158.75 18.05 129.6 19.45 107.95 19.7 86.4 18.2 59.85 16.9 39.15 1.15 L74.35 -6.0 Q100.3 0.55 126.8 5.1 151.85 9.15 176.8 11.25 L187.5 12.0 187.4 13.3 M-180.6 8.75 L-168.7 7.75 -119.35 3.65 Q-93.35 1.3 -68.15 -4.4 L-67.95 -3.45 -54.1 4.0 Q-76.85 14.25 -100.15 8.45 -109.35 19.2 -121.75 14.4 -133.85 9.7 -145.1 13.05 -161.65 18.2 -180.5 9.7 L-180.6 8.75 M-140.25 -98.3 L-140.55 -99.5 -140.75 -100.35 -129.05 -89.3 Q-108.4 -70.2 -86.05 -53.25 -62.55 -35.35 -39.85 -16.7 L-32.5 -10.6 -33.4 -9.85 Q-48.6 -5.3 -58.2 -12.7 -59.65 -13.85 -60.2 -15.95 -62.0 -23.2 -72.2 -23.4 -79.2 -24.15 -80.15 -31.15 -96.6 -35.9 -104.05 -51.95 -109.35 -63.35 -118.9 -72.7 -135.1 -80.0 -140.25 -98.3" fill="#99ccff" fill-rule="evenodd" stroke="none"/>
    <path d="M27.3 -6.35 L26.35 -5.45 28.75 -3.3 21.95 1.55 Q21.95 4.2 23.95 5.8 39.15 18.15 61.0 20.15 L79.35 26.1 Q106.65 35.15 135.25 31.45 163.15 27.75 187.4 13.3 M74.35 -6.0 L72.5 -6.5 Q81.5 -14.2 89.2 -23.3 97.0 -32.4 103.35 -42.55 111.05 -54.8 120.3 -65.8 138.0 -86.85 139.45 -112.55 L139.9 -113.05 138.2 -124.15 137.0 -124.0 136.3 -123.05 Q125.95 -109.45 114.0 -97.25 95.6 -78.35 77.5 -59.3 56.9 -37.55 37.05 -15.15 L27.3 -6.35 M26.35 -5.45 Q18.1 -10.5 8.2 -10.9 L3.9 -11.15 -8.6 2.85 Q-17.1 -5.5 -28.0 -8.55 L-30.45 -8.9 Q-39.0 -7.2 -46.55 -2.75 L-48.35 -1.7 -32.7 6.2 Q-20.75 22.75 -7.05 35.6 -5.5 37.05 -3.25 35.75 15.45 25.05 15.0 2.9 L21.95 1.55 M5.8 -6.3 L2.35 5.2 10.6 6.4 11.65 0.6 19.35 -3.25 5.8 -6.3 M187.5 12.0 L176.8 11.25 Q151.85 9.15 126.8 5.1 100.3 0.55 74.35 -6.0 M187.5 12.0 L189.45 12.1 187.4 13.3 M61.0 20.15 L62.15 21.5 59.6 30.8 Q15.25 51.25 -32.65 41.6 -50.5 38.05 -65.5 28.15 L-66.75 17.3 M-66.95 16.35 Q-95.65 22.7 -124.9 23.65 -154.9 25.1 -180.5 9.7 L-181.8 8.85 -180.6 8.75 -168.7 7.75 -119.35 3.65 Q-93.35 1.3 -68.15 -4.4 L-67.35 -4.6 -76.95 -11.5 Q-99.95 -28.35 -117.2 -51.0 -133.5 -72.35 -140.25 -98.3 L-140.55 -99.5 -140.75 -100.35 -129.05 -89.3 Q-108.4 -70.2 -86.05 -53.25 -62.55 -35.35 -39.85 -16.7 -29.1 -20.8 -17.75 -21.5 10.1 -22.3 37.05 -15.15 M-15.2 4.35 L-22.85 -3.2 -36.85 -2.85 -35.9 -1.7 Q-34.45 -0.15 -32.5 0.75 -27.0 3.3 -22.45 7.2 L-16.1 5.2 M-32.5 -10.6 L-30.45 -8.9 M-39.85 -16.7 L-32.5 -10.6 M-17.25 12.65 Q-16.7 12.95 -16.2 13.2 L-6.15 29.65 -3.3 27.15 Q2.8 20.65 7.5 13.25 L-6.75 6.9 -17.25 12.65 M-66.95 16.35 Q-50.1 13.85 -34.6 7.15 L-32.7 6.2" fill="none" stroke="#000000" stroke-linecap="round" stroke-linejoin="round" stroke-width="1.0"/>
    <path d="M136.3 -123.05 Q135.7 -111.0 133.05 -99.15 L132.35 -96.55 122.95 -96.8 119.85 -89.7 Q106.65 -84.15 102.4 -68.0 100.95 -62.55 98.05 -57.4 86.9 -38.05 71.8 -23.25 L71.0 -22.0 Q59.2 -17.05 46.85 -14.35 44.25 -13.85 43.2 -10.95 42.05 -7.8 42.05 -4.6 L27.85 -5.75 M187.4 13.3 Q158.75 18.05 129.6 19.45 107.95 19.7 86.4 18.2 59.85 16.9 39.15 1.15 M7.5 4.6 L7.15 -1.75 7.5 -1.7 Q10.0 -0.7 11.5 -2.9 M53.0 23.55 Q54.2 24.3 51.85 24.3 48.0 24.3 45.35 22.6 L43.8 21.8 36.35 18.8 35.65 18.5 Q31.7 16.55 28.15 13.9 L22.55 9.65 Q21.9 9.15 21.9 8.05 19.25 9.75 18.1 12.15 17.5 13.5 18.4 14.4 22.55 18.35 27.6 20.8 L28.25 21.1 30.5 21.85 Q29.75 22.8 27.65 22.4 24.25 21.75 21.25 20.2 L19.65 19.45 19.0 19.25 Q18.05 19.15 17.6 19.95 15.65 23.5 18.95 24.75 20.0 25.15 20.4 25.7 L21.35 26.4 24.75 28.15 Q23.05 29.15 20.75 29.05 L19.6 29.1 Q18.65 29.2 18.7 30.45 L18.45 31.05 M-32.5 -10.6 L-33.4 -9.85 Q-48.6 -5.3 -58.2 -12.7 -59.65 -13.85 -60.2 -15.95 -62.0 -23.2 -72.2 -23.4 -79.2 -24.15 -80.15 -31.15 -96.6 -35.9 -104.05 -51.95 -109.35 -63.35 -118.9 -72.7 -135.1 -80.0 -140.25 -98.3 M-54.1 4.0 Q-76.85 14.25 -100.15 8.45 -109.35 19.2 -121.75 14.4 -133.85 9.7 -145.1 13.05 -161.65 18.2 -180.5 9.7 M2.3 14.95 Q-4.05 16.95 -10.1 15.3 L-10.55 14.9 -5.75 11.5 M-5.2 16.65 L-5.75 24.7 M-59.3 20.7 Q-53.35 20.25 -47.8 18.95 L-43.2 17.75 -38.0 16.05 Q-37.4 15.85 -36.9 15.45 -35.3 14.35 -33.4 14.4 -31.1 14.45 -31.1 17.25 -31.65 19.8 -34.55 20.25 -36.05 20.5 -37.5 21.05 L-38.55 21.25 Q-39.8 21.25 -40.55 22.1 L-39.7 25.3 Q-37.8 25.2 -36.25 24.1 L-33.85 22.65 -32.8 22.4 -28.8 22.55 Q-27.1 22.65 -26.7 24.75 -26.55 25.45 -27.5 26.05 -28.65 26.8 -29.9 27.2 L-30.55 27.45 Q-32.65 28.25 -35.1 28.4 -35.4 28.45 -35.7 28.75 -35.8 30.85 -33.4 30.75 L-32.75 30.8 -30.45 30.7 -26.5 30.0 Q-24.3 29.8 -24.45 32.2 -26.85 33.9 -29.35 34.1 -29.95 34.15 -30.5 34.5 M-20.15 4.6 L-24.25 0.65 -32.25 0.0" fill="none" stroke="#ccffff" stroke-linecap="round" stroke-linejoin="round" stroke-width="1.0"/>
  </g>
  <defs>
    <radialGradient cx="0" cy="0" gradientTransform="matrix(0.0613, -0.02, 0.0288, 0.0883, -8.0, -18.0)" gradientUnits="userSpaceOnUse" id="gradient0" r="819.2" spreadMethod="pad">
      <stop offset="0.0" stop-color="#82ddea"/>
      <stop offset="0.8274509803921568" stop-color="#1ed5d3"/>
      <stop offset="1.0" stop-color="#2d8eb3"/>
    </radialGradient>
  </defs>
</svg>
