<?xml version="1.0" encoding="UTF-8" standalone="no"?>
<svg xmlns:xlink="http://www.w3.org/1999/xlink" height="62.2px" width="178.8px" xmlns="http://www.w3.org/2000/svg">
  <g transform="matrix(1.0, 0.0, 0.0, 1.0, 86.35, 30.2)">
    <path d="M88.95 -17.0 L79.35 -15.9 66.9 -13.9 Q37.2 -10.05 17.05 10.0 L16.9 10.5 Q15.0 17.95 13.8 27.55 L0.35 27.55 -16.3 27.55 Q-16.05 16.3 -23.7 8.2 -32.0 -0.45 -43.5 -4.75 -64.05 -12.35 -85.75 -14.85 -64.2 -25.05 -39.5 -27.5 -16.85 -29.95 5.9 -29.7 30.2 -29.45 54.25 -25.35 71.7 -22.2 89.0 -17.65 L88.95 -17.0 M-4.0 12.0 L-2.7 13.6 Q7.8 9.5 -3.35 2.7 -5.35 1.45 -7.2 3.4 -17.05 13.45 -4.4 19.55 0.6 22.0 3.95 17.55 11.65 7.15 0.85 -0.5 -7.55 -6.5 -12.9 3.55 -21.45 19.5 -4.8 25.4 L0.35 27.55 -4.8 25.4 Q-21.45 19.5 -12.9 3.55 -7.55 -6.5 0.85 -0.5 11.65 7.15 3.95 17.55 0.6 22.0 -4.4 19.55 -17.05 13.45 -7.2 3.4 -5.35 1.45 -3.35 2.7 7.8 9.5 -2.7 13.6 L-4.0 12.0" fill="url(#gradient0)" fill-rule="evenodd" stroke="none"/>
    <path d="M13.8 27.55 Q15.0 17.95 16.9 10.5 L17.05 10.0 Q37.2 -10.05 66.9 -13.9 L79.35 -15.9 88.95 -17.0 89.0 -17.65 91.95 -16.5 Q65.2 -14.05 59.2 10.3 56.0 23.25 49.6 27.55 L25.3 27.55 25.85 25.4 26.15 24.5 27.2 20.55 28.6 20.35 33.5 21.15 34.6 21.35 Q36.7 21.8 37.75 22.75 38.05 23.0 38.5 23.15 40.8 24.0 41.85 21.9 L43.15 19.05 43.95 16.95 Q44.8 14.85 44.1 12.65 L43.65 12.3 Q41.4 11.15 38.55 11.35 L33.55 11.9 Q31.05 12.35 29.3 11.15 29.05 11.0 29.05 10.5 29.05 8.25 29.55 6.1 L30.0 5.9 31.05 5.75 32.55 5.8 Q38.55 6.0 44.55 5.8 L45.95 5.35 Q46.65 4.85 46.6 3.5 L46.25 1.9 46.05 1.0 Q45.9 -1.15 47.05 -2.0 45.9 -1.15 46.05 1.0 L46.25 1.9 46.6 3.5 Q46.65 4.85 45.95 5.35 L44.55 5.8 Q38.55 6.0 32.55 5.8 L31.05 5.75 30.0 5.9 29.55 6.1 Q29.05 8.25 29.05 10.5 29.05 11.0 29.3 11.15 31.05 12.35 33.55 11.9 L38.55 11.35 Q41.4 11.15 43.65 12.3 L44.1 12.65 Q44.8 14.85 43.95 16.95 L43.15 19.05 41.85 21.9 Q40.8 24.0 38.5 23.15 38.05 23.0 37.75 22.75 36.7 21.8 34.6 21.35 L33.5 21.15 28.6 20.35 27.2 20.55 26.15 24.5 25.85 25.4 25.3 27.55 13.8 27.55 M-85.75 -14.85 Q-64.05 -12.35 -43.5 -4.75 -32.0 -0.45 -23.7 8.2 -16.05 16.3 -16.3 27.55 L-26.4 27.55 -45.5 27.55 Q-56.2 -1.2 -85.8 -14.85 L-85.75 -14.85 M-43.0 5.0 Q-42.5 5.8 -44.0 7.0 L-43.1 7.2 -41.5 8.05 -40.85 8.1 Q-39.4 6.7 -37.5 6.65 -34.3 6.65 -32.05 8.05 L-31.45 8.4 Q-29.95 9.2 -30.2 11.5 -30.25 12.0 -30.55 12.05 L-40.5 12.7 Q-42.7 12.8 -43.6 14.45 L-43.8 15.05 -43.75 16.4 -42.9 18.45 -42.65 19.05 Q-42.15 20.8 -40.5 20.85 L-30.0 21.0 Q-29.5 21.0 -29.4 21.2 -29.05 21.8 -28.0 21.5 -26.95 21.2 -26.9 22.0 L-26.4 27.55 -26.9 22.0 Q-26.95 21.2 -28.0 21.5 -29.05 21.8 -29.4 21.2 -29.5 21.0 -30.0 21.0 L-40.5 20.85 Q-42.15 20.8 -42.65 19.05 L-42.9 18.45 -43.75 16.4 -43.8 15.05 -43.6 14.45 Q-42.7 12.8 -40.5 12.7 L-30.55 12.05 Q-30.25 12.0 -30.2 11.5 -29.95 9.2 -31.45 8.4 L-32.05 8.05 Q-34.3 6.65 -37.5 6.65 -39.4 6.7 -40.85 8.1 L-41.5 8.05 -43.1 7.2 -44.0 7.0 Q-42.5 5.8 -43.0 5.0" fill="url(#gradient1)" fill-rule="evenodd" stroke="none"/>
    <path d="M13.8 27.55 Q15.0 17.95 16.9 10.5 L17.05 10.0 Q37.2 -10.05 66.9 -13.9 L79.35 -15.9 88.95 -17.0 M89.0 -17.65 Q71.7 -22.2 54.25 -25.35 30.2 -29.45 5.9 -29.7 -16.85 -29.95 -39.5 -27.5 -64.2 -25.05 -85.75 -14.85 -64.05 -12.35 -43.5 -4.75 -32.0 -0.45 -23.7 8.2 -16.05 16.3 -16.3 27.55 M89.0 -17.65 L91.95 -16.5 Q65.2 -14.05 59.2 10.3 56.0 23.25 49.6 27.55 M-85.8 -14.85 L-85.85 -14.9 -85.75 -14.85 -85.8 -14.85 Q-56.2 -1.2 -45.5 27.55" fill="none" stroke="#000000" stroke-linecap="round" stroke-linejoin="round" stroke-width="1.0"/>
    <path d="M0.35 27.55 L-4.8 25.4 Q-21.45 19.5 -12.9 3.55 -7.55 -6.5 0.85 -0.5 11.65 7.15 3.95 17.55 0.6 22.0 -4.4 19.55 -17.05 13.45 -7.2 3.4 -5.35 1.45 -3.35 2.7 7.8 9.5 -2.7 13.6 L-4.0 12.0" fill="none" stroke="#66ff99" stroke-linecap="round" stroke-linejoin="round" stroke-width="1.0"/>
    <path d="M25.3 27.55 L25.25 28.0 Q25.05 30.5 23.55 31.5 M25.3 27.55 L25.85 25.4 26.15 24.5 27.2 20.55 28.6 20.35 33.5 21.15 34.6 21.35 Q36.7 21.8 37.75 22.75 38.05 23.0 38.5 23.15 40.8 24.0 41.85 21.9 L43.15 19.05 43.95 16.95 Q44.8 14.85 44.1 12.65 L43.65 12.3 Q41.4 11.15 38.55 11.35 L33.55 11.9 Q31.05 12.35 29.3 11.15 29.05 11.0 29.05 10.5 29.05 8.25 29.55 6.1 L30.0 5.9 31.05 5.75 32.55 5.8 Q38.55 6.0 44.55 5.8 L45.95 5.35 Q46.65 4.85 46.6 3.5 L46.25 1.9 46.05 1.0 Q45.9 -1.15 47.05 -2.0 M-26.4 27.55 L-26.9 22.0 Q-26.95 21.2 -28.0 21.5 -29.05 21.8 -29.4 21.2 -29.5 21.0 -30.0 21.0 L-40.5 20.85 Q-42.15 20.8 -42.65 19.05 L-42.9 18.45 -43.75 16.4 -43.8 15.05 -43.6 14.45 Q-42.7 12.8 -40.5 12.7 L-30.55 12.05 Q-30.25 12.0 -30.2 11.5 -29.95 9.2 -31.45 8.4 L-32.05 8.05 Q-34.3 6.65 -37.5 6.65 -39.4 6.7 -40.85 8.1 L-41.5 8.05 -43.1 7.2 -44.0 7.0 Q-42.5 5.8 -43.0 5.0 M-26.0 31.5 L-26.4 27.55" fill="none" stroke="#d50000" stroke-linecap="round" stroke-linejoin="round" stroke-width="1.0"/>
  </g>
  <defs>
    <linearGradient gradientTransform="matrix(0.0556, 0.0, 0.0, 0.0258, -2.8, -0.05)" gradientUnits="userSpaceOnUse" id="gradient0" spreadMethod="pad" x1="-819.2" x2="819.2">
      <stop offset="0.0" stop-color="#996715"/>
      <stop offset="0.13725490196078433" stop-color="#e3af39"/>
      <stop offset="0.49411764705882355" stop-color="#fff4b5"/>
      <stop offset="0.8705882352941177" stop-color="#e3af39"/>
      <stop offset="1.0" stop-color="#9e6a16"/>
    </linearGradient>
    <radialGradient cx="0" cy="0" gradientTransform="matrix(0.0585, -0.0191, 0.0277, 0.0848, -6.0, -12.5)" gradientUnits="userSpaceOnUse" id="gradient1" r="819.2" spreadMethod="pad">
      <stop offset="0.0" stop-color="#a51616"/>
      <stop offset="0.8274509803921568" stop-color="#720101"/>
      <stop offset="1.0" stop-color="#410101"/>
    </radialGradient>
  </defs>
</svg>
