<?xml version="1.0" encoding="UTF-8" standalone="no"?>
<svg xmlns:xlink="http://www.w3.org/1999/xlink" height="31.0px" width="192.3px" xmlns="http://www.w3.org/2000/svg">
  <g transform="matrix(1.0, 0.0, 0.0, 1.0, 11.3, -3.8)">
    <path d="M175.7 5.3 Q177.3 8.5 178.25 11.6 179.3 15.15 179.5 18.6 L179.5 20.3 179.45 21.5 Q179.15 25.95 177.35 30.15 L175.7 33.3 -6.0 33.3 Q-7.6 30.1 -8.55 27.0 -9.6 23.45 -9.75 20.05 -9.6 23.45 -8.55 27.0 -7.6 30.1 -6.0 33.3 L-6.15 33.3 Q-9.25 27.4 -9.7 21.5 L-9.75 20.05 -9.8 18.35 Q-9.65 14.95 -8.7 11.6 L-7.6 8.45 -6.0 5.3 -7.6 8.45 -6.15 5.3 -6.0 5.3 175.7 5.3 M179.5 20.3 Q179.35 23.65 178.4 27.0 L177.35 30.15 178.4 27.0 Q179.35 23.65 179.5 20.3" fill="url(#gradient0)" fill-rule="evenodd" stroke="none"/>
    <path d="M175.7 5.3 L-6.0 5.3 -7.6 8.45 M-9.8 18.35 L-9.75 20.05 Q-9.6 23.45 -8.55 27.0 -7.6 30.1 -6.0 33.3 M175.85 5.3 L175.7 5.3 M-9.8 18.35 L-9.75 17.1 Q-9.45 12.65 -7.6 8.45" fill="none" stroke="#1f447a" stroke-linecap="round" stroke-linejoin="round" stroke-width="3.0"/>
    <path d="M-6.0 33.3 L175.7 33.3 M177.35 30.15 L178.4 27.0 Q179.35 23.65 179.5 20.3 L179.5 18.6 179.4 17.1 Q178.95 11.2 175.85 5.3 M177.35 30.15 L175.85 33.3 175.7 33.3" fill="none" stroke="#98bede" stroke-linecap="round" stroke-linejoin="round" stroke-width="3.0"/>
  </g>
  <defs>
    <linearGradient gradientTransform="matrix(-0.1743, 0.0, 0.0, 0.0171, 136.65, 19.35)" gradientUnits="userSpaceOnUse" id="gradient0" spreadMethod="pad" x1="-819.2" x2="819.2">
      <stop offset="0.0" stop-color="#4926d9" stop-opacity="0.0"/>
      <stop offset="1.0" stop-color="#06529b" stop-opacity="0.72156864"/>
    </linearGradient>
  </defs>
</svg>
