<?xml version="1.0" encoding="UTF-8" standalone="no"?>
<svg xmlns:xlink="http://www.w3.org/1999/xlink" height="39.7px" width="192.3px" xmlns="http://www.w3.org/2000/svg">
  <g transform="matrix(1.0, 0.0, 0.0, 1.0, 11.3, -3.8)">
    <path d="M175.7 5.3 Q177.3 9.5 178.25 13.55 179.75 20.2 179.45 26.55 179.05 34.55 175.7 42.0 L-6.15 42.0 Q-9.25 34.3 -9.7 26.55 -10.1 20.05 -8.7 13.55 -7.8 9.45 -6.15 5.3 L175.7 5.3" fill="url(#gradient0)" fill-rule="evenodd" stroke="none"/>
    <path d="M-6.15 42.0 L175.7 42.0 Q179.05 34.55 179.45 26.55 179.75 20.2 178.25 13.55 177.3 9.5 175.7 5.3" fill="none" stroke="#653201" stroke-linecap="round" stroke-linejoin="round" stroke-width="3.0"/>
    <path d="M175.7 5.3 L-6.15 5.3 Q-7.8 9.45 -8.7 13.55 -10.1 20.05 -9.7 26.55 -9.25 34.3 -6.15 42.0 Z" fill="none" stroke="#ffcc99" stroke-linecap="round" stroke-linejoin="round" stroke-width="3.0"/>
  </g>
  <defs>
    <linearGradient gradientTransform="matrix(-0.1743, 0.0, 0.0, 0.0224, 136.65, 23.7)" gradientUnits="userSpaceOnUse" id="gradient0" spreadMethod="pad" x1="-819.2" x2="819.2">
      <stop offset="0.0" stop-color="#452c21" stop-opacity="0.42352942"/>
      <stop offset="1.0" stop-color="#a94401" stop-opacity="0.8"/>
    </linearGradient>
  </defs>
</svg>
