<?xml version="1.0" encoding="UTF-8" standalone="no"?>
<svg xmlns:xlink="http://www.w3.org/1999/xlink" height="21.0px" width="21.0px" xmlns="http://www.w3.org/2000/svg">
  <g transform="matrix(1.0, 0.0, 0.0, 1.0, 10.5, 10.5)">
    <path d="M10.0 -2.4 L4.05 2.4 6.2 10.0 0.0 5.5 -6.2 10.0 -4.05 2.4 -10.0 -2.4 -2.5 -2.6 0.0 -10.0 2.5 -2.6 10.0 -2.4" fill="url(#gradient0)" fill-rule="evenodd" stroke="none"/>
    <path d="M10.0 -2.4 L4.05 2.4 6.2 10.0 0.0 5.5 -6.2 10.0 -4.05 2.4 -10.0 -2.4 -2.5 -2.6 0.0 -10.0 2.5 -2.6 10.0 -2.4 Z" fill="none" stroke="#e8c168" stroke-linecap="round" stroke-linejoin="round" stroke-width="1.0"/>
    <path d="M1.5 -1.55 L6.0 -1.4 2.45 1.45 2.5 1.5 Q0.0 -0.85 -2.45 1.5 L-2.45 1.45 -6.0 -1.4 -1.5 -1.55 0.0 -6.0 1.5 -1.55" fill="#ffffcc" fill-opacity="0.7019608" fill-rule="evenodd" stroke="none"/>
  </g>
  <defs>
    <linearGradient gradientTransform="matrix(0.0, 0.0122, -0.0122, 0.0, 0.0, 0.0)" gradientUnits="userSpaceOnUse" id="gradient0" spreadMethod="pad" x1="-819.2" x2="819.2">
      <stop offset="0.0" stop-color="#58410e"/>
      <stop offset="1.0" stop-color="#dca62c"/>
    </linearGradient>
  </defs>
</svg>
