<?xml version="1.0" encoding="UTF-8" standalone="no"?>
<svg
   height="19.7px"
   width="176.8px"
   version="1.1"
   id="svg18"
   sodipodi:docname="AttackIcon.svg"
   inkscape:version="1.1.2 (b8e25be833, 2022-02-05)"
   xmlns:inkscape="http://www.inkscape.org/namespaces/inkscape"
   xmlns:sodipodi="http://sodipodi.sourceforge.net/DTD/sodipodi-0.dtd"
   xmlns="http://www.w3.org/2000/svg"
   xmlns:svg="http://www.w3.org/2000/svg">
  <defs
     id="defs22">
    <clipPath
       clipPathUnits="userSpaceOnUse"
       id="clipPath1049">
      <rect
         style="stroke:#7878fe;stroke-width:0.05"
         id="rect1051"
         width="20.205877"
         height="19.762766"
         x="67.229538"
         y="26.1" />
    </clipPath>
  </defs>
  <sodipodi:namedview
     id="namedview20"
     pagecolor="#ffffff"
     bordercolor="#666666"
     borderopacity="1.0"
     inkscape:pageshadow="2"
     inkscape:pageopacity="0.0"
     inkscape:pagecheckerboard="0"
     showgrid="false"
     inkscape:zoom="4.2314421"
     inkscape:cx="51.873568"
     inkscape:cy="-9.453042"
     inkscape:window-width="1920"
     inkscape:window-height="1017"
     inkscape:window-x="-8"
     inkscape:window-y="-8"
     inkscape:window-maximized="1"
     inkscape:current-layer="svg18" />
  <g
     transform="matrix(1.0, 0.0, 0.0, 1.0, -67.2, -26.1)"
     id="g16"
     clip-path="url(#clipPath1049)">
    <path
       d="M81.9 34.75 L87.2 37.4 81.35 38.05 83.7 43.45 78.85 40.1 77.2 45.8 75.6 40.1 70.65 43.45 73.1 38.05 67.2 37.4 72.55 34.75 68.4 30.55 74.15 31.95 73.7 26.1 77.2 30.9 80.65 26.1 80.3 31.95 85.95 30.55 81.9 34.75"
       fill="#d0c18e"
       fill-opacity="0.3019608"
       fill-rule="evenodd"
       stroke="none"
       id="path2" />
    <path
       d="M83.95 30.2 L75.05 39.35 76.05 40.4 75.4 41.05 73.75 40.15 73.4 40.5 72.25 41.65 70.7 43.2 70.6 43.1 70.35 43.65 69.85 43.85 Q69.55 43.9 69.35 43.65 L69.1 43.15 69.3 42.65 Q69.55 42.4 69.85 42.4 L69.9 42.4 69.8 42.3 70.45 41.65 71.6 40.5 72.85 39.25 71.95 37.6 72.6 36.95 73.65 37.95 84.9 26.75 Q85.7 27.75 83.95 30.2 M70.45 41.65 L72.25 41.65 70.45 41.65 M70.6 43.1 L70.4 42.6 69.9 42.4 70.4 42.6 70.6 43.1 M77.85 35.35 L74.4 38.75 75.05 39.35 74.4 38.75 73.65 37.95 74.4 38.75 77.85 35.35 M72.85 39.25 L73.75 40.15 72.85 39.25 M73.4 40.5 L71.6 40.5 73.4 40.5"
       fill="#d0c18e"
       fill-opacity="0.3019608"
       fill-rule="evenodd"
       stroke="none"
       id="path4" />
    <path
       d="M83.95 30.2 L75.05 39.35 76.05 40.4 75.4 41.05 73.75 40.15 73.4 40.5 72.25 41.65 70.7 43.2 70.6 43.1 70.35 43.65 69.85 43.85 Q69.55 43.9 69.35 43.65 L69.1 43.15 69.3 42.65 Q69.55 42.4 69.85 42.4 L69.9 42.4 69.8 42.3 70.45 41.65 71.6 40.5 72.85 39.25 71.95 37.6 72.6 36.95 73.65 37.95 84.9 26.75 Q85.7 27.75 83.95 30.2 M75.05 39.35 L74.4 38.75 73.65 37.95 M71.6 40.5 L73.4 40.5 M73.75 40.15 L72.85 39.25 M74.4 38.75 L77.85 35.35 M69.9 42.4 L70.4 42.6 70.6 43.1 M72.25 41.65 L70.45 41.65"
       fill="none"
       stroke="#d0c18e"
       stroke-linecap="round"
       stroke-linejoin="round"
       stroke-width="1.0"
       id="path6" />
    <path
       d="M162.5 27.0 L162.5 39.5 Q155.4 46.55 148.3 39.5 L148.3 27.0 Q155.4 30.25 162.5 27.0 M150.35 34.65 Q152.75 35.8 155.1 35.85 157.65 35.9 160.2 34.65 L160.2 29.45 Q157.65 30.65 155.1 30.6 157.65 30.65 160.2 29.45 L160.2 34.65 160.2 38.55 Q157.65 41.2 155.1 41.1 152.75 41.0 150.35 38.55 L150.35 34.65 150.35 29.45 Q152.75 30.55 155.1 30.6 152.75 30.55 150.35 29.45 L150.35 34.65 150.35 38.55 Q152.75 41.0 155.1 41.1 157.65 41.2 160.2 38.55 L160.2 34.65 Q157.65 35.9 155.1 35.85 152.75 35.8 150.35 34.65"
       fill="#d0c18e"
       fill-opacity="0.3019608"
       fill-rule="evenodd"
       stroke="none"
       id="path8" />
    <path
       d="M162.5 27.0 L162.5 39.5 Q155.4 46.55 148.3 39.5 L148.3 27.0 Q155.4 30.25 162.5 27.0 M155.1 30.6 Q157.65 30.65 160.2 29.45 L160.2 34.65 160.2 38.55 Q157.65 41.2 155.1 41.1 152.75 41.0 150.35 38.55 L150.35 34.65 150.35 29.45 Q152.75 30.55 155.1 30.6 M160.2 34.65 Q157.65 35.9 155.1 35.85 152.75 35.8 150.35 34.65"
       fill="none"
       stroke="#d0c18e"
       stroke-linecap="round"
       stroke-linejoin="round"
       stroke-width="1.0"
       id="path10" />
    <path
       d="M240.05 28.4 L241.15 29.35 Q242.35 30.55 242.95 32.05 243.5 33.4 243.5 35.0 243.5 38.3 241.15 40.65 238.8 43.0 235.5 43.0 L232.55 42.45 Q231.05 41.85 229.85 40.65 L228.9 39.55 228.0 37.9 Q227.5 36.55 227.5 35.0 227.5 31.65 229.85 29.35 232.15 27.0 235.5 27.0 237.05 27.0 238.4 27.5 L240.05 28.4 228.9 39.55 240.05 28.4 M242.95 32.05 L232.55 42.45 242.95 32.05 M238.4 27.5 L228.0 37.9 238.4 27.5"
       fill="#72c7eb"
       fill-opacity="0.3019608"
       fill-rule="evenodd"
       stroke="none"
       id="path12" />
    <path
       d="M240.05 28.4 L241.15 29.35 Q242.35 30.55 242.95 32.05 243.5 33.4 243.5 35.0 243.5 38.3 241.15 40.65 238.8 43.0 235.5 43.0 L232.55 42.45 Q231.05 41.85 229.85 40.65 L228.9 39.55 228.0 37.9 Q227.5 36.55 227.5 35.0 227.5 31.65 229.85 29.35 232.15 27.0 235.5 27.0 237.05 27.0 238.4 27.5 L240.05 28.4 228.9 39.55 M228.0 37.9 L238.4 27.5 M232.55 42.45 L242.95 32.05"
       fill="none"
       stroke="#64f9f9"
       stroke-linecap="round"
       stroke-linejoin="round"
       stroke-width="1.0"
       id="path14" />
  </g>
</svg>
