<?xml version="1.0" encoding="UTF-8" standalone="no"?>
<svg xmlns:xlink="http://www.w3.org/1999/xlink" height="16.2px" width="16.2px" xmlns="http://www.w3.org/2000/svg">
  <g transform="matrix(1.0, 0.0, 0.0, 1.0, 8.1, 8.1)">
    <path d="M1.45 -4.75 L4.8 -1.4 Q6.2 0.0 4.75 1.45 L1.4 4.8 Q0.0 6.2 -1.4 4.8 L-4.75 1.45 Q-6.15 0.05 -4.75 -1.35 L-1.4 -4.7 1.45 -4.75" fill="#00ff66" fill-rule="evenodd" stroke="none"/>
    <path d="M1.45 -6.85 L-1.4 -6.9 -6.9 -1.4 Q-8.3 0.0 -6.85 1.45 L-1.4 6.9 Q0.0 8.3 1.4 6.9 L6.9 1.4 Q8.3 0.0 6.9 -1.4 L1.45 -6.85 Z" fill="none" stroke="#00ff66" stroke-linecap="round" stroke-linejoin="round" stroke-width="1.0"/>
    <path d="M-4.6 0.45 Q0.1 1.95 4.8 0.45 L4.3 1.0 1.35 3.6 Q0.1 4.65 -1.15 3.6 L-4.15 1.0 -4.6 0.45" fill="#017630" fill-rule="evenodd" stroke="none"/>
    <path d="M0.35 -4.7 L-0.65 -0.3 -4.75 0.45 Q-4.8 -0.25 -4.1 -0.95 L-0.95 -4.05 Q-0.3 -4.7 0.35 -4.7" fill="#d8ffe2" fill-rule="evenodd" stroke="none"/>
  </g>
</svg>
