<?xml version="1.0" encoding="UTF-8" standalone="no"?>
<svg xmlns:xlink="http://www.w3.org/1999/xlink" height="14.9px" width="26.35px" xmlns="http://www.w3.org/2000/svg">
  <g transform="matrix(1.0, 0.0, 0.0, 1.0, 25.85, 7.45)">
    <path d="M-15.55 -6.95 L-13.75 1.45 -25.35 0.0 -15.55 -6.95" fill="#ffffff" fill-rule="evenodd" stroke="none"/>
    <path d="M-25.35 0.0 L-13.75 1.45 -15.55 6.95 -25.35 0.0" fill="#3399cc" fill-rule="evenodd" stroke="none"/>
    <path d="M-13.75 1.45 L-0.05 0.0 -15.55 6.95 -13.75 1.45" fill="#003399" fill-rule="evenodd" stroke="none"/>
    <path d="M-0.05 0.0 L-13.75 1.45 -15.55 -6.95 0.0 0.0 -0.05 0.0" fill="#3333cc" fill-rule="evenodd" stroke="none"/>
    <path d="M-13.75 1.45 L-0.05 0.0 0.0 0.0 -15.55 -6.95 -13.75 1.45 -25.35 0.0 -15.55 6.95 -13.75 1.45 M-0.05 0.0 L-15.55 6.95 M-25.35 0.0 L-15.55 -6.95" fill="none" stroke="#99ffff" stroke-linecap="round" stroke-linejoin="round" stroke-width="1.0"/>
  </g>
</svg>
