<?xml version="1.0" encoding="UTF-8" standalone="no"?>
<svg xmlns:xlink="http://www.w3.org/1999/xlink" height="24.0px" width="24.0px" xmlns="http://www.w3.org/2000/svg">
  <g transform="matrix(1.0, 0.0, 0.0, 1.0, 12.0, 12.0)">
    <path d="M5.65 -1.45 L12.0 1.8 5.0 2.6 7.8 9.15 2.0 5.05 0.0 12.0 -1.9 5.05 -7.85 9.15 -4.9 2.6 -12.0 1.8 -5.6 -1.45 -10.55 -6.55 -3.65 -4.85 -4.2 -12.0 0.0 -6.15 4.15 -12.0 3.7 -4.85 10.5 -6.55 5.65 -1.45" fill="#d0c18e" fill-opacity="0.3019608" fill-rule="evenodd" stroke="none"/>
    <path d="M-10.0 0.0 Q-0.35 -0.95 0.0 -10.0 0.35 -0.35 10.0 0.0 -0.1 1.35 0.0 10.0 -0.55 0.55 -10.0 0.0" fill="#72c7eb" fill-opacity="0.3019608" fill-rule="evenodd" stroke="none"/>
    <path d="M-10.0 0.0 Q-0.35 -0.95 0.0 -10.0 0.35 -0.35 10.0 0.0 -0.1 1.35 0.0 10.0 -0.55 0.55 -10.0 0.0 Z" fill="none" stroke="#64f9f9" stroke-linecap="round" stroke-linejoin="round" stroke-width="1.0"/>
  </g>
</svg>
