<?xml version="1.0" encoding="UTF-8" standalone="no"?>
<svg xmlns:xlink="http://www.w3.org/1999/xlink" height="14.5px" width="97.0px" xmlns="http://www.w3.org/2000/svg">
  <g transform="matrix(1.0, 0.0, 0.0, 1.0, -5.25, 8.5)">
    <path d="M17.75 -3.25 L13.95 5.0 13.55 5.45 Q13.4 5.5 12.75 4.2 L9.35 -3.05 9.3 -3.05 8.4 4.1 Q8.3 4.75 8.6 4.95 L9.75 5.15 9.8 5.35 9.7 5.45 5.85 5.45 5.75 5.3 Q5.7 5.15 5.8 5.15 L6.55 5.05 Q7.05 4.85 7.2 3.7 L8.8 -7.5 9.0 -7.8 9.35 -7.75 10.4 -5.5 14.1 2.3 18.65 -7.7 19.05 -7.8 19.2 -7.45 20.8 3.55 Q20.95 4.65 21.35 4.85 L22.05 5.1 22.75 5.15 22.85 5.2 22.65 5.45 18.55 5.2 18.55 5.1 18.7 4.95 18.85 4.75 18.85 4.3 17.85 -3.25 17.75 -3.25 M29.6 -7.7 L30.05 -7.35 34.2 3.35 34.8 4.45 35.45 5.0 36.35 5.1 36.45 5.15 36.25 5.4 35.7 5.4 32.15 5.3 32.15 5.15 32.4 5.05 32.55 4.8 31.15 1.05 31.1 1.0 27.4 1.0 27.3 1.2 26.3 3.8 26.2 4.4 Q26.15 4.85 26.35 5.0 L26.6 5.05 27.3 5.1 27.2 5.4 23.2 5.4 23.1 5.3 23.1 5.1 23.3 5.05 24.4 4.8 25.25 3.35 29.35 -7.3 29.6 -7.7 M29.2 -4.15 L27.7 0.05 27.7 0.15 30.85 0.15 29.3 -4.25 29.2 -4.15 M37.35 -5.05 Q37.4 -5.7 37.75 -6.3 38.75 -7.7 40.65 -7.8 L42.65 -7.7 43.5 -7.45 43.45 -5.05 43.3 -4.8 Q43.1 -4.75 43.1 -4.85 L43.0 -5.6 41.85 -6.85 40.5 -7.0 Q39.15 -6.75 38.9 -5.45 L38.9 -5.05 Q38.95 -4.7 39.15 -4.45 L39.5 -3.95 40.05 -3.35 40.8 -2.8 42.15 -1.7 Q43.25 -0.7 43.65 0.45 44.05 1.65 43.65 2.95 L43.6 3.1 Q42.7 5.2 40.0 5.45 L38.6 5.4 37.65 5.15 37.05 4.85 36.95 4.7 37.0 2.95 37.05 2.05 37.2 1.75 37.4 1.8 37.6 2.95 Q38.0 4.35 39.45 4.55 L40.75 4.45 Q41.75 4.1 42.1 2.95 L42.1 2.85 42.0 2.05 41.75 1.35 41.45 0.95 40.65 0.1 38.7 -1.55 37.8 -2.7 37.75 -2.8 Q37.2 -4.0 37.35 -5.05 M45.75 -6.65 Q45.05 -6.6 44.85 -6.35 L44.5 -5.95 44.35 -5.45 Q44.1 -5.3 44.05 -5.45 43.95 -5.6 44.2 -6.8 L44.5 -7.95 44.95 -7.85 46.25 -7.7 54.25 -7.7 55.25 -7.85 55.45 -7.8 55.4 -5.35 55.25 -5.15 55.1 -5.25 55.05 -5.35 55.0 -5.85 Q54.8 -6.45 53.65 -6.65 L50.95 -6.75 50.95 2.4 50.95 2.95 51.05 4.45 Q51.15 4.85 51.4 4.95 L51.8 5.05 52.55 5.1 52.8 5.15 52.65 5.4 Q48.35 5.35 47.7 5.45 L47.35 5.3 Q47.3 5.15 47.4 5.1 L48.45 4.9 Q48.75 4.7 48.75 2.95 L48.75 -6.75 45.75 -6.65 M57.2 -7.15 L56.65 -7.4 55.9 -7.4 55.8 -7.6 56.0 -7.75 62.85 -7.7 63.8 -7.85 63.95 -7.8 63.75 -5.45 63.55 -5.25 63.4 -5.3 63.2 -6.3 62.75 -6.6 61.65 -6.75 59.7 -6.8 59.65 -6.75 59.7 -2.1 62.6 -2.1 63.15 -2.25 63.5 -2.6 63.7 -2.5 Q63.5 -1.4 63.45 0.15 L63.35 0.35 63.15 0.3 63.0 -0.7 62.45 -1.05 59.65 -1.15 59.65 3.35 Q59.75 4.05 60.05 4.25 L60.9 4.45 63.3 4.3 63.7 3.95 63.9 3.45 64.05 2.85 Q64.1 2.65 64.3 2.75 L64.35 2.95 64.35 3.0 64.15 4.8 Q64.05 5.65 63.25 5.45 L56.15 5.4 56.05 5.3 Q56.0 5.1 56.1 5.1 L56.95 5.0 Q57.25 5.0 57.4 4.3 L57.5 2.95 57.5 2.2 57.5 -6.25 57.2 -7.15 M66.4 -7.2 Q66.0 -7.5 65.8 -7.45 L65.1 -7.5 Q64.9 -7.5 64.95 -7.65 L65.2 -7.8 70.5 -7.8 71.85 -7.65 Q73.15 -7.3 73.65 -6.65 L74.35 -5.05 74.35 -4.9 Q74.35 -3.7 73.9 -2.8 L73.75 -2.5 73.0 -1.55 72.15 -0.7 74.85 2.8 75.0 2.95 76.35 4.45 76.65 4.65 78.3 5.1 78.3 5.4 78.0 5.45 75.45 5.4 Q74.7 5.3 74.05 4.75 L72.65 3.1 70.7 0.25 70.35 0.0 68.7 0.0 68.7 0.45 68.7 2.95 68.85 4.6 69.2 5.0 70.45 5.15 Q70.55 5.4 70.3 5.45 L65.35 5.45 65.2 5.35 65.25 5.15 66.1 5.05 Q66.4 5.0 66.55 4.35 L66.65 2.95 66.65 2.25 66.65 -6.3 66.4 -7.2 M68.7 -6.8 L68.7 -1.15 Q68.85 -0.95 69.75 -0.85 L71.05 -0.95 Q71.95 -1.5 72.2 -2.8 L72.3 -3.6 72.15 -5.05 Q71.7 -6.6 70.1 -6.95 L68.7 -6.8 M78.9 -7.4 L78.75 -7.6 79.0 -7.75 85.8 -7.7 86.75 -7.85 86.9 -7.8 86.7 -5.45 86.55 -5.25 86.35 -5.3 86.2 -6.3 85.75 -6.6 84.65 -6.75 82.65 -6.8 82.65 -2.1 85.55 -2.1 86.1 -2.25 86.45 -2.6 86.65 -2.5 86.45 0.15 86.3 0.35 86.15 0.3 85.95 -0.7 85.45 -1.05 82.65 -1.15 82.65 3.35 Q82.7 4.05 83.0 4.25 L83.85 4.45 86.3 4.3 86.65 3.95 86.9 3.45 87.0 2.95 87.0 2.85 Q87.1 2.65 87.3 2.75 L87.35 2.95 87.35 3.0 87.15 4.8 Q87.05 5.65 86.2 5.45 L79.15 5.4 79.0 5.3 79.05 5.1 79.9 5.0 Q80.25 5.0 80.35 4.3 L80.5 2.95 80.45 2.2 80.45 -6.25 80.2 -7.15 79.65 -7.4 78.9 -7.4 M88.85 -7.45 L88.1 -7.45 88.0 -7.65 88.2 -7.8 94.4 -7.8 96.55 -7.65 Q99.05 -7.2 100.4 -5.55 L100.75 -5.05 Q101.4 -4.0 101.65 -2.8 L101.75 -1.7 101.6 0.3 101.55 0.45 Q101.15 1.9 100.4 2.95 98.5 5.4 94.3 5.5 L88.4 5.35 88.25 5.2 Q88.2 5.05 88.3 5.05 L89.15 4.95 Q89.45 4.95 89.55 4.3 L89.7 2.95 89.7 2.15 89.7 -6.3 89.45 -7.2 88.85 -7.45 M91.85 -6.65 L91.8 -5.85 91.8 -5.05 91.8 -2.8 91.85 0.45 91.9 2.95 91.95 3.75 Q92.15 4.45 93.75 4.65 L96.5 4.35 97.9 3.6 98.5 2.95 99.1 1.9 99.45 0.45 99.5 -0.2 99.3 -2.8 99.15 -3.15 98.2 -4.95 98.1 -5.05 97.05 -5.95 Q95.75 -6.75 93.85 -6.95 L91.95 -6.8 91.85 -6.65" fill="#d50000" fill-rule="evenodd" stroke="none"/>
    <path d="M17.75 -3.25 L13.95 5.0 13.55 5.45 Q13.4 5.5 12.75 4.2 L9.35 -3.05 9.3 -3.05 8.4 4.1 Q8.3 4.75 8.6 4.95 L9.75 5.15 9.8 5.35 9.7 5.45 5.85 5.45 5.75 5.3 Q5.7 5.15 5.8 5.15 L6.55 5.05 Q7.05 4.85 7.2 3.7 L8.8 -7.5 9.0 -7.8 9.35 -7.75 10.4 -5.5 14.1 2.3 18.65 -7.7 19.05 -7.8 19.2 -7.45 20.8 3.55 Q20.95 4.65 21.35 4.85 L22.05 5.1 22.75 5.15 22.85 5.2 22.65 5.45 18.55 5.2 18.55 5.1 18.7 4.95 18.85 4.75 18.85 4.3 17.85 -3.25 17.75 -3.25 M29.6 -7.7 L30.05 -7.35 34.2 3.35 34.8 4.45 35.45 5.0 36.35 5.1 36.45 5.15 36.25 5.4 35.7 5.4 32.15 5.3 32.15 5.15 32.4 5.05 32.55 4.8 31.15 1.05 31.1 1.0 27.4 1.0 27.3 1.2 26.3 3.8 26.2 4.4 Q26.15 4.85 26.35 5.0 L26.6 5.05 27.3 5.1 27.2 5.4 23.2 5.4 23.1 5.3 23.1 5.1 23.3 5.05 24.4 4.8 25.25 3.35 29.35 -7.3 29.6 -7.7 M29.2 -4.15 L27.7 0.05 27.7 0.15 30.85 0.15 29.3 -4.25 29.2 -4.15 M37.35 -5.05 Q37.4 -5.7 37.75 -6.3 38.75 -7.7 40.65 -7.8 L42.65 -7.7 43.5 -7.45 43.45 -5.05 43.3 -4.8 Q43.1 -4.75 43.1 -4.85 L43.0 -5.6 41.85 -6.85 40.5 -7.0 Q39.15 -6.75 38.9 -5.45 L38.9 -5.05 Q38.95 -4.7 39.15 -4.45 L39.5 -3.95 40.05 -3.35 40.8 -2.8 42.15 -1.7 Q43.25 -0.7 43.65 0.45 44.05 1.65 43.65 2.95 L43.6 3.1 Q42.7 5.2 40.0 5.45 L38.6 5.4 37.65 5.15 37.05 4.85 36.95 4.7 37.0 2.95 37.05 2.05 37.2 1.75 37.4 1.8 37.6 2.95 Q38.0 4.35 39.45 4.55 L40.75 4.45 Q41.75 4.1 42.1 2.95 L42.1 2.85 42.0 2.05 41.75 1.35 41.45 0.95 40.65 0.1 38.7 -1.55 37.8 -2.7 37.75 -2.8 Q37.2 -4.0 37.35 -5.05 M45.75 -6.65 Q45.05 -6.6 44.85 -6.35 L44.5 -5.95 44.35 -5.45 Q44.1 -5.3 44.05 -5.45 43.95 -5.6 44.2 -6.8 L44.5 -7.95 44.95 -7.85 46.25 -7.7 54.25 -7.7 55.25 -7.85 55.45 -7.8 55.4 -5.35 55.25 -5.15 55.1 -5.25 55.05 -5.35 55.0 -5.85 Q54.8 -6.45 53.65 -6.65 L50.95 -6.75 50.95 2.4 50.95 2.95 51.05 4.45 Q51.15 4.85 51.4 4.95 L51.8 5.05 52.55 5.1 52.8 5.15 52.65 5.4 Q48.35 5.35 47.7 5.45 L47.35 5.3 Q47.3 5.15 47.4 5.1 L48.45 4.9 Q48.75 4.7 48.75 2.95 L48.75 -6.75 45.75 -6.65 M57.2 -7.15 L56.65 -7.4 55.9 -7.4 55.8 -7.6 56.0 -7.75 62.85 -7.7 63.8 -7.85 63.95 -7.8 63.75 -5.45 63.55 -5.25 63.4 -5.3 63.2 -6.3 62.75 -6.6 61.65 -6.75 59.7 -6.8 59.65 -6.75 59.7 -2.1 62.6 -2.1 63.15 -2.25 63.5 -2.6 63.7 -2.5 Q63.5 -1.4 63.45 0.15 L63.35 0.35 63.15 0.3 63.0 -0.7 62.45 -1.05 59.65 -1.15 59.65 3.35 Q59.75 4.05 60.05 4.25 L60.9 4.45 63.3 4.3 63.7 3.95 63.9 3.45 64.05 2.85 Q64.1 2.65 64.3 2.75 L64.35 2.95 64.35 3.0 64.15 4.8 Q64.05 5.65 63.25 5.45 L56.15 5.4 56.05 5.3 Q56.0 5.1 56.1 5.1 L56.95 5.0 Q57.25 5.0 57.4 4.3 L57.5 2.95 57.5 2.2 57.5 -6.25 57.2 -7.15 M66.4 -7.2 Q66.0 -7.5 65.8 -7.45 L65.1 -7.5 Q64.9 -7.5 64.95 -7.65 L65.2 -7.8 70.5 -7.8 71.85 -7.65 Q73.15 -7.3 73.65 -6.65 L74.35 -5.05 74.35 -4.9 Q74.35 -3.7 73.9 -2.8 L73.75 -2.5 73.0 -1.55 72.15 -0.7 74.85 2.8 75.0 2.95 76.35 4.45 76.65 4.65 78.3 5.1 78.3 5.4 78.0 5.45 75.45 5.4 Q74.7 5.3 74.05 4.75 L72.65 3.1 70.7 0.25 70.35 0.0 68.7 0.0 68.7 0.45 68.7 2.95 68.85 4.6 69.2 5.0 70.45 5.15 Q70.55 5.4 70.3 5.45 L65.35 5.45 65.2 5.35 65.25 5.15 66.1 5.05 Q66.4 5.0 66.55 4.35 L66.65 2.95 66.65 2.25 66.65 -6.3 66.4 -7.2 M68.7 -6.8 L68.7 -1.15 Q68.85 -0.95 69.75 -0.85 L71.05 -0.95 Q71.95 -1.5 72.2 -2.8 L72.3 -3.6 72.15 -5.05 Q71.7 -6.6 70.1 -6.95 L68.7 -6.8 M78.9 -7.4 L78.75 -7.6 79.0 -7.75 85.8 -7.7 86.75 -7.85 86.9 -7.8 86.7 -5.45 86.55 -5.25 86.35 -5.3 86.2 -6.3 85.75 -6.6 84.65 -6.75 82.65 -6.8 82.65 -2.1 85.55 -2.1 86.1 -2.25 86.45 -2.6 86.65 -2.5 86.45 0.15 86.3 0.35 86.15 0.3 85.95 -0.7 85.45 -1.05 82.65 -1.15 82.65 3.35 Q82.7 4.05 83.0 4.25 L83.85 4.45 86.3 4.3 86.65 3.95 86.9 3.45 87.0 2.95 87.0 2.85 Q87.1 2.65 87.3 2.75 L87.35 2.95 87.35 3.0 87.15 4.8 Q87.05 5.65 86.2 5.45 L79.15 5.4 79.0 5.3 79.05 5.1 79.9 5.0 Q80.25 5.0 80.35 4.3 L80.5 2.95 80.45 2.2 80.45 -6.25 80.2 -7.15 79.65 -7.4 78.9 -7.4 M88.85 -7.45 L88.1 -7.45 88.0 -7.65 88.2 -7.8 94.4 -7.8 96.55 -7.65 Q99.05 -7.2 100.4 -5.55 L100.75 -5.05 Q101.4 -4.0 101.65 -2.8 L101.75 -1.7 101.6 0.3 101.55 0.45 Q101.15 1.9 100.4 2.95 98.5 5.4 94.3 5.5 L88.4 5.35 88.25 5.2 Q88.2 5.05 88.3 5.05 L89.15 4.95 Q89.45 4.95 89.55 4.3 L89.7 2.95 89.7 2.15 89.7 -6.3 89.45 -7.2 88.85 -7.45 M91.85 -6.65 L91.8 -5.85 91.8 -5.05 91.8 -2.8 91.85 0.45 91.9 2.95 91.95 3.75 Q92.15 4.45 93.75 4.65 L96.5 4.35 97.9 3.6 98.5 2.95 99.1 1.9 99.45 0.45 99.5 -0.2 99.3 -2.8 99.15 -3.15 98.2 -4.95 98.1 -5.05 97.05 -5.95 Q95.75 -6.75 93.85 -6.95 L91.95 -6.8 91.85 -6.65" fill="none" stroke="#ffff99" stroke-linecap="round" stroke-linejoin="round" stroke-width="1.0"/>
    <path d="M10.65 -5.05 L11.7 -2.8 9.5 -2.8 9.35 -3.05 9.3 -3.05 9.3 -2.8 8.15 -2.8 8.45 -5.05 10.65 -5.05 M13.25 0.45 L14.1 2.3 14.95 0.45 16.05 0.45 14.9 2.95 12.2 2.95 11.0 0.45 13.25 0.45 M16.45 -2.8 L17.45 -5.05 19.55 -5.05 19.9 -2.8 17.9 -2.8 17.85 -3.25 17.75 -3.25 17.55 -2.8 16.45 -2.8 M20.35 0.45 L20.75 2.95 18.7 2.95 18.35 0.45 20.35 0.45 M8.9 0.45 L8.55 2.95 7.3 2.95 7.65 0.45 8.9 0.45 M30.95 -5.05 L31.85 -2.8 29.8 -2.8 29.3 -4.25 29.2 -4.15 28.75 -2.8 27.6 -2.8 28.5 -5.05 30.95 -5.05 M33.1 0.45 L34.05 2.95 31.85 2.95 31.15 1.05 31.1 1.0 27.4 1.0 27.3 1.2 26.65 2.95 25.4 2.95 26.35 0.45 33.1 0.45 M41.0 0.45 L43.65 0.45 Q44.05 1.65 43.65 2.95 L42.1 2.95 42.1 2.85 42.0 2.05 41.75 1.35 41.45 0.95 41.0 0.45 M40.8 -2.8 L37.75 -2.8 Q37.2 -4.0 37.35 -5.05 L38.9 -5.05 Q38.95 -4.7 39.15 -4.45 L39.5 -3.95 40.05 -3.35 40.8 -2.8 M43.45 -5.05 L43.3 -4.8 Q43.1 -4.75 43.1 -4.85 L43.1 -5.05 43.45 -5.05 M50.95 -5.05 L50.95 -2.8 48.75 -2.8 48.75 -5.05 50.95 -5.05 M50.95 0.45 L50.95 2.4 50.95 2.95 48.75 2.95 48.75 0.45 50.95 0.45 M59.7 -5.05 L59.7 -2.8 57.5 -2.8 57.5 -5.05 59.7 -5.05 M59.65 0.45 L59.65 2.95 57.5 2.95 57.5 2.2 57.5 0.45 59.65 0.45 M64.05 2.95 L64.05 2.85 Q64.1 2.65 64.3 2.75 L64.35 2.95 64.05 2.95 M72.15 -5.05 L74.35 -5.05 74.35 -4.9 Q74.35 -3.7 73.9 -2.8 L72.2 -2.8 72.3 -3.6 72.15 -5.05 M66.65 -5.05 L68.7 -5.05 68.7 -2.8 66.65 -2.8 66.65 -5.05 M66.65 0.45 L68.7 0.45 68.7 2.95 66.65 2.95 66.65 2.25 66.65 0.45 M70.85 0.45 L73.05 0.45 74.85 2.8 75.0 2.95 72.55 2.95 70.85 0.45 M82.65 -5.05 L82.65 -2.8 80.45 -2.8 80.45 -5.05 82.65 -5.05 M82.65 0.45 L82.65 2.95 80.5 2.95 80.45 2.2 80.45 0.45 82.65 0.45 M87.0 2.95 L87.0 2.85 Q87.1 2.65 87.3 2.75 L87.35 2.95 87.0 2.95 M100.75 -5.05 Q101.4 -4.0 101.65 -2.8 L99.3 -2.8 99.15 -3.15 98.2 -4.95 98.1 -5.05 100.75 -5.05 M101.55 0.45 Q101.15 1.9 100.4 2.95 L98.5 2.95 99.1 1.9 99.45 0.45 101.55 0.45 M89.7 2.95 L89.7 2.15 89.7 0.45 91.85 0.45 91.9 2.95 89.7 2.95 M89.7 -2.8 L89.7 -5.05 91.8 -5.05 91.8 -2.8 89.7 -2.8 M37.0 2.95 L37.05 2.05 37.2 1.75 37.4 1.8 37.6 2.95 37.0 2.95" fill="#ff511a" fill-rule="evenodd" stroke="none"/>
    <path d="M11.7 -2.8 L13.25 0.45 11.0 0.45 9.5 -2.8 11.7 -2.8 M14.95 0.45 L16.45 -2.8 17.55 -2.8 16.05 0.45 14.95 0.45 M19.9 -2.8 L20.35 0.45 18.35 0.45 17.9 -2.8 19.9 -2.8 M9.3 -2.8 L8.9 0.45 7.65 0.45 8.15 -2.8 9.3 -2.8 M31.85 -2.8 L33.1 0.45 26.35 0.45 27.6 -2.8 28.75 -2.8 27.7 0.05 27.7 0.15 30.85 0.15 29.8 -2.8 31.85 -2.8 M41.0 0.45 L40.65 0.1 38.7 -1.55 37.8 -2.7 37.75 -2.8 40.8 -2.8 42.15 -1.7 Q43.25 -0.7 43.65 0.45 L41.0 0.45 M50.95 -2.8 L50.95 0.45 48.75 0.45 48.75 -2.8 50.95 -2.8 M59.7 -2.8 L59.7 -2.1 62.6 -2.1 63.15 -2.25 63.5 -2.6 63.7 -2.5 Q63.5 -1.4 63.45 0.15 L63.35 0.35 63.15 0.3 63.0 -0.7 62.45 -1.05 59.65 -1.15 59.65 0.45 57.5 0.45 57.5 -2.8 59.7 -2.8 M68.7 -2.8 L68.7 -1.15 Q68.85 -0.95 69.75 -0.85 L71.05 -0.95 Q71.95 -1.5 72.2 -2.8 L73.9 -2.8 73.75 -2.5 73.0 -1.55 72.15 -0.7 73.05 0.45 70.85 0.45 70.7 0.25 70.35 0.0 68.7 0.0 68.7 0.45 66.65 0.45 66.65 -2.8 68.7 -2.8 M82.65 -2.8 L82.65 -2.1 85.55 -2.1 86.1 -2.25 86.45 -2.6 86.65 -2.5 86.45 0.15 86.3 0.35 86.15 0.3 85.95 -0.7 85.45 -1.05 82.65 -1.15 82.65 0.45 80.45 0.45 80.45 -2.8 82.65 -2.8 M101.65 -2.8 L101.75 -1.7 101.6 0.3 101.55 0.45 99.45 0.45 99.5 -0.2 99.3 -2.8 101.65 -2.8 M89.7 0.45 L89.7 -2.8 91.8 -2.8 91.85 0.45 89.7 0.45" fill="#ff931a" fill-rule="evenodd" stroke="none"/>
    <path d="M8.45 -5.05 L8.8 -7.5 9.0 -7.8 9.35 -7.75 10.4 -5.5 10.65 -5.05 8.45 -5.05 M17.45 -5.05 L18.65 -7.7 19.05 -7.8 19.2 -7.45 19.55 -5.05 17.45 -5.05 M20.75 2.95 L20.8 3.55 Q20.95 4.65 21.35 4.85 L22.05 5.1 22.75 5.15 22.85 5.2 22.65 5.45 18.55 5.2 18.55 5.1 18.7 4.95 18.85 4.75 18.85 4.3 18.7 2.95 20.75 2.95 M14.9 2.95 L13.95 5.0 13.55 5.45 Q13.4 5.5 12.75 4.2 L12.2 2.95 14.9 2.95 M8.55 2.95 L8.4 4.1 Q8.3 4.75 8.6 4.95 L9.75 5.15 9.8 5.35 9.7 5.45 5.85 5.45 5.75 5.3 Q5.7 5.15 5.8 5.15 L6.55 5.05 Q7.05 4.85 7.2 3.7 L7.3 2.95 8.55 2.95 M28.5 -5.05 L29.35 -7.3 29.6 -7.7 30.05 -7.35 30.95 -5.05 28.5 -5.05 M34.05 2.95 L34.2 3.35 34.8 4.45 35.45 5.0 36.35 5.1 36.45 5.15 36.25 5.4 35.7 5.4 32.15 5.3 32.15 5.15 32.4 5.05 32.55 4.8 31.85 2.95 34.05 2.95 M26.65 2.95 L26.3 3.8 26.2 4.4 Q26.15 4.85 26.35 5.0 L26.6 5.05 27.3 5.1 27.2 5.4 23.2 5.4 23.1 5.3 23.1 5.1 23.3 5.05 24.4 4.8 25.25 3.35 25.4 2.95 26.65 2.95 M37.35 -5.05 Q37.4 -5.7 37.75 -6.3 38.75 -7.7 40.65 -7.8 L42.65 -7.7 43.5 -7.45 43.45 -5.05 43.1 -5.05 43.0 -5.6 41.85 -6.85 40.5 -7.0 Q39.15 -6.75 38.9 -5.45 L38.9 -5.05 37.35 -5.05 M48.75 -5.05 L48.75 -6.75 45.75 -6.65 Q45.05 -6.6 44.85 -6.35 L44.5 -5.95 44.35 -5.45 Q44.1 -5.3 44.05 -5.45 43.95 -5.6 44.2 -6.8 L44.5 -7.95 44.95 -7.85 46.25 -7.7 54.25 -7.7 55.25 -7.85 55.45 -7.8 55.4 -5.35 55.25 -5.15 55.1 -5.25 55.05 -5.35 55.0 -5.85 Q54.8 -6.45 53.65 -6.65 L50.95 -6.75 50.95 -5.05 48.75 -5.05 M50.95 2.95 L51.05 4.45 Q51.15 4.85 51.4 4.95 L51.8 5.05 52.55 5.1 52.8 5.15 52.65 5.4 Q48.35 5.35 47.7 5.45 L47.35 5.3 Q47.3 5.15 47.4 5.1 L48.45 4.9 Q48.75 4.7 48.75 2.95 L50.95 2.95 M57.5 -5.05 L57.5 -6.25 57.2 -7.15 56.65 -7.4 55.9 -7.4 55.8 -7.6 56.0 -7.75 62.85 -7.7 63.8 -7.85 63.95 -7.8 63.75 -5.45 63.55 -5.25 63.4 -5.3 63.2 -6.3 62.75 -6.6 61.65 -6.75 59.7 -6.8 59.65 -6.75 59.7 -5.05 57.5 -5.05 M59.65 2.95 L59.65 3.35 Q59.75 4.05 60.05 4.25 L60.9 4.45 63.3 4.3 63.7 3.95 63.9 3.45 64.05 2.95 64.35 2.95 64.35 3.0 64.15 4.8 Q64.05 5.65 63.25 5.45 L56.15 5.4 56.05 5.3 Q56.0 5.1 56.1 5.1 L56.95 5.0 Q57.25 5.0 57.4 4.3 L57.5 2.95 59.65 2.95 M72.15 -5.05 Q71.7 -6.6 70.1 -6.95 L68.7 -6.8 68.7 -5.05 66.65 -5.05 66.65 -6.3 66.4 -7.2 Q66.0 -7.5 65.8 -7.45 L65.1 -7.5 Q64.9 -7.5 64.95 -7.65 L65.2 -7.8 70.5 -7.8 71.85 -7.65 Q73.15 -7.3 73.65 -6.65 L74.35 -5.05 72.15 -5.05 M80.45 -5.05 L80.45 -6.25 80.2 -7.15 79.65 -7.4 78.9 -7.4 78.75 -7.6 79.0 -7.75 85.8 -7.7 86.75 -7.85 86.9 -7.8 86.7 -5.45 86.55 -5.25 86.35 -5.3 86.2 -6.3 85.75 -6.6 84.65 -6.75 82.65 -6.8 82.65 -5.05 80.45 -5.05 M82.65 2.95 L82.65 3.35 Q82.7 4.05 83.0 4.25 L83.85 4.45 86.3 4.3 86.65 3.95 86.9 3.45 87.0 2.95 87.35 2.95 87.35 3.0 87.15 4.8 Q87.05 5.65 86.2 5.45 L79.15 5.4 79.0 5.3 79.05 5.1 79.9 5.0 Q80.25 5.0 80.35 4.3 L80.5 2.95 82.65 2.95 M89.7 -5.05 L89.7 -6.3 89.45 -7.2 88.85 -7.45 88.1 -7.45 88.0 -7.65 88.2 -7.8 94.4 -7.8 96.55 -7.65 Q99.05 -7.2 100.4 -5.55 L100.75 -5.05 98.1 -5.05 97.05 -5.95 Q95.75 -6.75 93.85 -6.95 L91.95 -6.8 91.85 -6.65 91.8 -5.85 91.8 -5.05 89.7 -5.05 M100.4 2.95 Q98.5 5.4 94.3 5.5 L88.4 5.35 88.25 5.2 Q88.2 5.05 88.3 5.05 L89.15 4.95 Q89.45 4.95 89.55 4.3 L89.7 2.95 91.9 2.95 91.95 3.75 Q92.15 4.45 93.75 4.65 L96.5 4.35 97.9 3.6 98.5 2.95 100.4 2.95 M75.0 2.95 L76.35 4.45 76.65 4.65 78.3 5.1 78.3 5.4 78.0 5.45 75.45 5.4 Q74.7 5.3 74.05 4.75 L72.65 3.1 72.55 2.95 75.0 2.95 M66.65 2.95 L68.7 2.95 68.85 4.6 69.2 5.0 70.45 5.15 Q70.55 5.4 70.3 5.45 L65.35 5.45 65.2 5.35 65.25 5.15 66.1 5.05 Q66.4 5.0 66.55 4.35 L66.65 2.95 M43.65 2.95 L43.6 3.1 Q42.7 5.2 40.0 5.45 L38.6 5.4 37.65 5.15 37.05 4.85 36.95 4.7 37.0 2.95 37.6 2.95 Q38.0 4.35 39.45 4.55 L40.75 4.45 Q41.75 4.1 42.1 2.95 L43.65 2.95" fill="#d50000" fill-rule="evenodd" stroke="none"/>
  </g>
</svg>
