<?xml version="1.0" encoding="UTF-8" standalone="no"?>
<svg xmlns:xlink="http://www.w3.org/1999/xlink" height="24.0px" width="24.0px" xmlns="http://www.w3.org/2000/svg">
  <g transform="matrix(1.0, 0.0, 0.0, 1.0, 12.0, 12.0)">
    <path d="M0.0 12.0 L-12.0 0.0 0.0 -12.0 12.0 0.0 0.0 12.0" fill="#d0c18e" fill-opacity="0.3019608" fill-rule="evenodd" stroke="none"/>
    <path d="M6.75 -5.9 L-2.15 3.25 -1.15 4.3 -1.8 4.95 -3.45 4.05 -3.8 4.4 -4.95 5.55 -6.5 7.1 -6.6 7.0 -6.85 7.55 Q-7.05 7.75 -7.35 7.75 L-7.85 7.55 -8.1 7.05 -7.9 6.55 Q-7.65 6.3 -7.35 6.3 L-7.3 6.3 -7.4 6.2 -6.75 5.55 -5.6 4.4 -4.35 3.15 -5.25 1.5 -4.6 0.85 -3.55 1.85 7.7 -9.35 Q8.5 -8.35 6.75 -5.9 M-6.75 5.55 L-4.95 5.55 -6.75 5.55 M-6.6 7.0 L-6.8 6.5 -7.3 6.3 -6.8 6.5 -6.6 7.0 M0.65 -0.75 L-2.8 2.65 -2.15 3.25 -2.8 2.65 -3.55 1.85 -2.8 2.65 0.65 -0.75 M-4.35 3.15 L-3.45 4.05 -4.35 3.15 M-3.8 4.4 L-5.6 4.4 -3.8 4.4" fill="#d0c18e" fill-opacity="0.3019608" fill-rule="evenodd" stroke="none"/>
    <path d="M6.75 -5.9 L-2.15 3.25 -1.15 4.3 -1.8 4.95 -3.45 4.05 -3.8 4.4 -4.95 5.55 -6.5 7.1 -6.6 7.0 -6.85 7.55 Q-7.05 7.75 -7.35 7.75 L-7.85 7.55 -8.1 7.05 -7.9 6.55 Q-7.65 6.3 -7.35 6.3 L-7.3 6.3 -7.4 6.2 -6.75 5.55 -5.6 4.4 -4.35 3.15 -5.25 1.5 -4.6 0.85 -3.55 1.85 7.7 -9.35 Q8.5 -8.35 6.75 -5.9 M-2.15 3.25 L-2.8 2.65 -3.55 1.85 M-5.6 4.4 L-3.8 4.4 M-3.45 4.05 L-4.35 3.15 M-2.8 2.65 L0.65 -0.75 M-7.3 6.3 L-6.8 6.5 -6.6 7.0 M-4.95 5.55 L-6.75 5.55" fill="none" stroke="#d0c18e" stroke-linecap="round" stroke-linejoin="round" stroke-width="1.0"/>
  </g>
</svg>
