<?xml version="1.0" encoding="UTF-8" standalone="no"?>
<svg
   height="23.35px"
   width="182.6px"
   version="1.1"
   id="svg18"
   sodipodi:docname="MeleeCountIcon.svg"
   inkscape:version="1.1.2 (b8e25be833, 2022-02-05)"
   xmlns:inkscape="http://www.inkscape.org/namespaces/inkscape"
   xmlns:sodipodi="http://sodipodi.sourceforge.net/DTD/sodipodi-0.dtd"
   xmlns="http://www.w3.org/2000/svg"
   xmlns:svg="http://www.w3.org/2000/svg">
  <defs
     id="defs22">
    <clipPath
       clipPathUnits="userSpaceOnUse"
       id="clipPath943">
      <rect
         style="stroke:#7878fe;stroke-width:0.05"
         id="rect945"
         width="17.25898"
         height="18.812288"
         x="101.45686"
         y="26.197731" />
    </clipPath>
  </defs>
  <sodipodi:namedview
     id="namedview20"
     pagecolor="#ffffff"
     bordercolor="#666666"
     borderopacity="1.0"
     inkscape:pageshadow="2"
     inkscape:pageopacity="0.0"
     inkscape:pagecheckerboard="0"
     showgrid="false"
     inkscape:zoom="2.8970426"
     inkscape:cx="67.482611"
     inkscape:cy="93.88885"
     inkscape:window-width="1920"
     inkscape:window-height="1017"
     inkscape:window-x="-8"
     inkscape:window-y="-8"
     inkscape:window-maximized="1"
     inkscape:current-layer="svg18" />
  <g
     transform="matrix(1.0, 0.0, 0.0, 1.0, -101.5, -23.35)"
     id="g16"
     clip-path="url(#clipPath943)">
    <path
       d="M116.9 30.25 L107.95 39.4 109.0 40.45 108.35 41.1 106.65 40.2 106.3 40.55 105.15 41.7 103.6 43.25 103.5 43.15 103.25 43.7 102.75 43.9 Q102.45 43.95 102.25 43.7 L102.0 43.2 102.2 42.7 Q102.45 42.45 102.75 42.45 L102.8 42.45 102.7 42.35 103.35 41.7 104.5 40.55 105.75 39.3 104.85 37.65 105.5 37.0 106.55 38.0 117.85 26.8 Q118.65 27.8 116.9 30.25 M103.35 41.7 L105.15 41.7 103.35 41.7 M103.5 43.15 L103.3 42.65 102.8 42.45 103.3 42.65 103.5 43.15 M110.8 35.4 L107.3 38.8 107.95 39.4 107.3 38.8 106.55 38.0 107.3 38.8 110.8 35.4 M105.75 39.3 L106.65 40.2 105.75 39.3 M106.3 40.55 L104.5 40.55 106.3 40.55"
       fill="#d0c18e"
       fill-opacity="0.3019608"
       fill-rule="evenodd"
       stroke="none"
       id="path2" />
    <path
       d="M116.9 30.25 L107.95 39.4 109.0 40.45 108.35 41.1 106.65 40.2 106.3 40.55 105.15 41.7 103.6 43.25 103.5 43.15 103.25 43.7 102.75 43.9 Q102.45 43.95 102.25 43.7 L102.0 43.2 102.2 42.7 Q102.45 42.45 102.75 42.45 L102.8 42.45 102.7 42.35 103.35 41.7 104.5 40.55 105.75 39.3 104.85 37.65 105.5 37.0 106.55 38.0 117.85 26.8 Q118.65 27.8 116.9 30.25 M107.95 39.4 L107.3 38.8 106.55 38.0 M104.5 40.55 L106.3 40.55 M106.65 40.2 L105.75 39.3 M107.3 38.8 L110.8 35.4 M102.8 42.45 L103.3 42.65 103.5 43.15 M105.15 41.7 L103.35 41.7"
       fill="none"
       stroke="#d0c18e"
       stroke-linecap="round"
       stroke-linejoin="round"
       stroke-width="1.0"
       id="path4" />
    <path
       d="M276.75 28.9 L276.75 26.8 280.25 26.8 280.25 28.9 276.75 28.9 M281.7 36.85 Q282.25 37.75 282.25 38.85 282.25 40.45 281.1 41.5 280.05 42.6 278.45 42.6 276.9 42.6 275.75 41.5 274.7 40.45 274.7 38.85 274.7 37.75 275.25 36.85 L281.7 36.85"
       fill="#d0c18e"
       fill-opacity="0.3019608"
       fill-rule="evenodd"
       stroke="none"
       id="path6" />
    <path
       d="M280.25 28.9 L281.75 28.9 281.75 30.2 280.25 30.2 280.25 34.0 282.15 35.2 Q282.9 35.95 283.3 36.85 L283.6 38.8 Q283.6 40.9 282.15 42.4 280.65 43.9 278.55 43.9 276.4 43.9 274.9 42.4 273.4 40.9 273.4 38.8 273.4 37.75 273.8 36.85 274.15 35.95 274.9 35.2 275.75 34.4 276.75 34.0 L276.75 30.2 275.2 30.2 275.2 28.9 276.75 28.9 280.25 28.9 Z"
       fill="none"
       stroke="#d0c18e"
       stroke-linecap="round"
       stroke-linejoin="round"
       stroke-width="1.0"
       id="path8" />
    <path
       d="M199.55 33.35 Q199.55 37.5 196.6 40.45 193.7 43.35 189.55 43.35 185.45 43.35 182.5 40.45 179.55 37.5 179.55 33.35 179.55 29.2 182.5 26.25 185.45 23.35 189.55 23.35 193.7 23.35 196.6 26.25 199.55 29.2 199.55 33.35"
       fill="#44a4bb"
       fill-opacity="0.3529412"
       fill-rule="evenodd"
       stroke="none"
       id="path10" />
    <path
       d="M188.8 38.95 Q186.65 38.8 184.85 37.1 182.95 35.2 182.95 32.5 182.95 29.8 184.85 27.95 L185.1 27.7 Q184.25 28.95 184.25 30.55 184.25 32.7 185.75 34.25 187.3 35.75 189.45 35.75 191.6 35.75 193.15 34.25 194.65 32.7 194.65 30.55 194.65 29.0 193.8 27.7 L194.05 27.95 Q195.95 29.8 195.95 32.5 195.95 35.2 194.05 37.1 192.5 38.6 190.3 38.95 L188.8 38.95 190.3 38.95 190.3 46.2 188.8 46.2 188.8 38.95 M191.4 32.55 Q190.6 33.35 189.45 33.35 188.35 33.35 187.5 32.55 186.7 31.75 186.7 30.6 186.7 29.45 187.5 28.65 188.35 27.85 189.45 27.85 190.6 27.85 191.4 28.65 192.2 29.45 192.2 30.6 192.2 31.75 191.4 32.55"
       fill="#9b8453"
       fill-rule="evenodd"
       stroke="none"
       id="path12" />
    <path
       d="M190.3 38.95 Q192.5 38.6 194.05 37.1 195.95 35.2 195.95 32.5 195.95 29.8 194.05 27.95 L193.8 27.7 Q194.65 29.0 194.65 30.55 194.65 32.7 193.15 34.25 191.6 35.75 189.45 35.75 187.3 35.75 185.75 34.25 184.25 32.7 184.25 30.55 184.25 28.95 185.1 27.7 L184.85 27.95 Q182.95 29.8 182.95 32.5 182.95 35.2 184.85 37.1 186.65 38.8 188.8 38.95 L190.3 38.95 190.3 46.2 188.8 46.2 188.8 38.95 M191.4 32.55 Q190.6 33.35 189.45 33.35 188.35 33.35 187.5 32.55 186.7 31.75 186.7 30.6 186.7 29.45 187.5 28.65 188.35 27.85 189.45 27.85 190.6 27.85 191.4 28.65 192.2 29.45 192.2 30.6 192.2 31.75 191.4 32.55"
       fill="none"
       stroke="#d0c18e"
       stroke-linecap="round"
       stroke-linejoin="round"
       stroke-width="1.0"
       id="path14" />
  </g>
</svg>
