<?xml version="1.0" encoding="UTF-8" standalone="no"?>
<svg xmlns:xlink="http://www.w3.org/1999/xlink" height="21.0px" width="21.0px" xmlns="http://www.w3.org/2000/svg">
  <g transform="matrix(1.0, 0.0, 0.0, 1.0, 10.5, 10.5)">
    <path d="M7.0 -1.0 Q6.9 -3.45 4.95 -5.2 2.9 -7.0 0.0 -7.0 -2.9 -7.0 -4.95 -5.2 -6.9 -3.45 -7.0 -1.0 -6.9 -3.45 -4.95 -5.2 -2.9 -7.0 0.0 -7.0 2.9 -7.0 4.95 -5.2 6.9 -3.45 7.0 -1.0 M10.0 -0.25 L9.75 -0.25 10.0 0.0 0.0 10.0 -10.0 0.0 -9.75 -0.25 -10.0 -0.25 Q-9.85 -4.2 -7.1 -7.05 -4.15 -10.0 0.0 -10.0 4.15 -10.0 7.05 -7.05 9.85 -4.2 10.0 -0.25" fill="#72c772" fill-opacity="0.3019608" fill-rule="evenodd" stroke="none"/>
    <path d="M-7.0 -1.0 Q-6.9 -3.45 -4.95 -5.2 -2.9 -7.0 0.0 -7.0 2.9 -7.0 4.95 -5.2 6.9 -3.45 7.0 -1.0 M10.0 -0.25 Q9.85 -4.2 7.05 -7.05 4.15 -10.0 0.0 -10.0 -4.15 -10.0 -7.1 -7.05 -9.85 -4.2 -10.0 -0.25 M-9.75 -0.25 L-10.0 0.0 0.0 10.0 10.0 0.0 9.75 -0.25" fill="none" stroke="#64f996" stroke-linecap="round" stroke-linejoin="round" stroke-width="1.0"/>
  </g>
</svg>
