<?xml version="1.0" encoding="UTF-8" standalone="no"?>
<svg xmlns:xlink="http://www.w3.org/1999/xlink" height="16.8px" width="10.7px" xmlns="http://www.w3.org/2000/svg">
  <g transform="matrix(1.0, 0.0, 0.0, 1.0, 5.3, 8.6)">
    <path d="M4.1 -0.9 Q4.8 0.45 4.9 2.6 5.0 4.75 3.55 6.2 2.1 7.7 0.0 7.7 -2.05 7.7 -3.55 6.2 -5.0 4.75 -4.8 2.1 -4.6 -0.6 -4.1 -1.15 -3.6 -1.7 -2.15 -4.9 -0.75 -8.1 0.0 -8.1 0.8 -8.1 2.1 -5.2 L4.1 -0.9 M-2.25 4.55 L-2.55 4.3 Q-3.1 3.85 -2.5 3.55 -3.1 3.85 -2.55 4.3 L-2.25 4.55 M-1.05 -1.9 L-1.2 -1.7 Q-1.5 -1.15 -1.9 -1.0 L-2.05 -0.85 -2.8 0.65 -2.05 -0.85 -1.9 -1.0 Q-1.5 -1.15 -1.2 -1.7 L-1.05 -1.9" fill="#7e0101" fill-rule="evenodd" stroke="none"/>
    <path d="M4.1 -0.9 Q4.8 0.45 4.9 2.6 5.0 4.75 3.55 6.2 2.1 7.7 0.0 7.7 -2.05 7.7 -3.55 6.2 -5.0 4.75 -4.8 2.1 -4.6 -0.6 -4.1 -1.15 -3.6 -1.7 -2.15 -4.9 -0.75 -8.1 0.0 -8.1 0.8 -8.1 2.1 -5.2 L4.1 -0.9" fill="none" stroke="#d50000" stroke-linecap="round" stroke-linejoin="round" stroke-width="1.0"/>
    <path d="M-2.8 0.65 L-2.05 -0.85 -1.9 -1.0 Q-1.5 -1.15 -1.2 -1.7 L-1.05 -1.9 M-2.5 3.55 Q-3.1 3.85 -2.55 4.3 L-2.25 4.55" fill="none" stroke="#fe7070" stroke-linecap="round" stroke-linejoin="round" stroke-width="1.0"/>
  </g>
</svg>
