<?xml version="1.0" encoding="UTF-8" standalone="no"?>
<svg xmlns:xlink="http://www.w3.org/1999/xlink" height="17.0px" width="17.0px" xmlns="http://www.w3.org/2000/svg">
  <g transform="matrix(1.0, 0.0, 0.0, 1.0, 8.5, 8.5)">
    <path d="M2.0 -0.85 L2.05 -0.5 Q2.05 0.1 1.4 0.5 0.75 0.9 -0.2 0.9 L-0.4 0.9 Q-1.2 0.85 -1.8 0.5 -2.45 0.1 -2.45 -0.5 L-2.35 -0.85 2.0 -0.85" fill="#000000" fill-rule="evenodd" stroke="none"/>
    <path d="M-0.4 -5.75 L0.0 -5.75 Q2.25 -5.8 3.85 -4.65 5.45 -3.5 5.5 -1.9 L5.25 -0.85 Q4.9 0.05 3.85 0.8 2.25 1.95 0.0 1.95 L-0.4 1.95 Q-2.4 1.85 -3.85 0.8 -4.9 0.05 -5.25 -0.85 L-2.35 -0.85 -5.25 -0.85 -5.45 -1.9 Q-5.45 -3.5 -3.85 -4.65 -2.4 -5.7 -0.4 -5.75 M-2.35 -0.85 L-2.45 -0.5 Q-2.45 0.1 -1.8 0.5 -1.2 0.85 -0.4 0.9 L-0.2 0.9 Q0.75 0.9 1.4 0.5 2.05 0.1 2.05 -0.5 L2.0 -0.85 5.25 -0.85 2.0 -0.85 -2.35 -0.85" fill="#002142" fill-opacity="0.78039217" fill-rule="evenodd" stroke="none"/>
    <path d="M-0.4 -5.75 L0.0 -5.75 Q2.25 -5.8 3.85 -4.65 5.45 -3.5 5.5 -1.9 L5.25 -0.85 8.0 -0.85 M2.0 -0.85 L2.05 -0.5 Q2.05 0.1 1.4 0.5 0.75 0.9 -0.2 0.9 L-0.4 0.9 Q-1.2 0.85 -1.8 0.5 -2.45 0.1 -2.45 -0.5 L-2.35 -0.85 -5.25 -0.85 Q-4.9 0.05 -3.85 0.8 -2.4 1.85 -0.4 1.95 L0.0 1.95 Q2.25 1.95 3.85 0.8 4.9 0.05 5.25 -0.85 L2.0 -0.85 -2.35 -0.85 M-0.4 -5.75 L-0.4 -8.0 M-5.25 -0.85 L-5.45 -1.9 Q-5.45 -3.5 -3.85 -4.65 -2.4 -5.7 -0.4 -5.75 M-5.25 -0.85 L-8.0 -0.85 M-0.4 8.0 L-0.4 5.0 -2.05 6.05 M-0.4 1.95 L-0.4 5.0 1.15 6.05" fill="none" stroke="#000000" stroke-linecap="round" stroke-linejoin="round" stroke-width="1.0"/>
  </g>
</svg>
