<?xml version="1.0" encoding="UTF-8" standalone="no"?>
<svg xmlns:xlink="http://www.w3.org/1999/xlink" height="17.3px" width="17.75px" xmlns="http://www.w3.org/2000/svg">
  <g transform="matrix(1.0, 0.0, 0.0, 1.0, 8.95, 8.75)">
    <path d="M-7.55 0.35 Q-7.9 -1.0 -7.3 -2.15 -6.5 -3.7 -5.3 -4.8 -3.65 -6.4 -1.45 -7.2 0.15 -7.8 1.9 -7.6 3.5 -7.4 4.85 -6.6 6.1 -5.8 6.8 -4.5 L8.0 -1.85 Q8.9 1.15 7.25 3.8 5.7 6.05 3.45 7.55 2.6 8.05 1.45 8.05 0.3 7.9 -0.7 7.3 L-3.35 5.05 Q-4.3 3.95 -4.5 2.65 -4.7 0.9 -3.9 -0.65 -3.05 -2.2 -1.55 -3.25 -0.95 -3.7 -0.15 -3.55 1.0 -3.35 1.95 -2.7 L3.2 -1.25 3.85 0.55 3.7 1.9 2.9 2.9 1.8 3.6 Q0.55 4.2 -0.35 3.2 -1.75 1.7 -0.3 0.4 0.2 -0.1 0.75 0.5 L1.15 0.85" fill="none" stroke="#000000" stroke-linecap="round" stroke-linejoin="round" stroke-width="1.0"/>
    <path d="M-8.3 -0.25 Q-8.65 -1.6 -8.05 -2.75 -7.25 -4.3 -6.05 -5.4 -4.4 -7.0 -2.2 -7.8 -0.6 -8.4 1.15 -8.2 2.75 -8.0 4.1 -7.2 5.35 -6.4 6.05 -5.1 L7.25 -2.45 Q8.15 0.55 6.5 3.2 4.95 5.45 2.7 6.95 1.85 7.45 0.7 7.45 -0.45 7.3 -1.45 6.7 L-4.1 4.45 Q-5.05 3.35 -5.25 2.05 -5.45 0.3 -4.65 -1.25 -3.8 -2.8 -2.3 -3.85 -1.7 -4.3 -0.9 -4.15 0.25 -3.95 1.2 -3.3 L2.45 -1.85 3.1 -0.05 2.95 1.3 2.15 2.3 1.05 3.0 Q-0.2 3.6 -1.1 2.6 -2.5 1.1 -1.05 -0.2 L0.0 -0.1 0.4 0.25" fill="none" stroke="#cecece" stroke-linecap="round" stroke-linejoin="round" stroke-width="1.0"/>
  </g>
</svg>
