<?xml version="1.0" encoding="UTF-8" standalone="no"?>
<svg xmlns:xlink="http://www.w3.org/1999/xlink" height="17.0px" width="17.0px" xmlns="http://www.w3.org/2000/svg">
  <g transform="matrix(1.0, 0.0, 0.0, 1.0, 8.5, 8.5)">
    <path d="M1.05 7.0 L0.7 8.0 0.3 6.8 1.05 7.0" fill="#663399" fill-opacity="0.6901961" fill-rule="evenodd" stroke="none"/>
    <path d="M-2.4 -3.6 L3.45 -4.75 Q4.05 -4.95 4.1 -5.65 L3.8 -7.5 3.6 -8.0 5.65 -6.6 6.1 -6.25 5.85 -5.15 5.05 -3.2 4.5 -2.35 6.05 -2.3 6.9 -1.3 Q7.6 -0.4 7.85 0.9 L8.0 2.2 7.4 1.6 6.65 1.05 Q6.25 0.8 5.85 0.7 L4.9 0.5 Q4.65 3.5 3.65 6.35 L3.45 6.4 2.2 1.85 1.05 7.0 0.3 6.8 -1.0 1.85 -2.1 5.85 -2.7 5.65 -3.8 2.6 -4.05 0.8 -4.55 0.9 -5.45 1.4 -7.55 2.8 -7.9 2.45 -7.95 2.15 -7.95 1.2 Q-7.8 0.5 -7.3 -0.05 L-5.15 -1.95 -4.3 -2.35 -5.95 -3.5 -6.3 -3.85 -6.85 -4.8 -3.85 -7.15 -4.3 -6.15 -4.4 -5.7 -4.3 -5.2 -3.8 -4.1 -3.45 -3.6 -2.95 -3.45 -2.4 -3.6" fill="#4a2572" fill-opacity="0.6901961" fill-rule="evenodd" stroke="none"/>
    <path d="M3.65 6.35 Q4.65 3.5 4.9 0.5 L5.85 0.7 Q6.25 0.8 6.65 1.05 L7.4 1.6 8.0 2.2 7.85 0.9 Q7.6 -0.4 6.9 -1.3 L6.05 -2.3 4.5 -2.35 5.05 -3.2 5.85 -5.15 6.1 -6.25 5.65 -6.6 3.6 -8.0 3.8 -7.5 4.1 -5.65 Q4.05 -4.95 3.45 -4.75 L-2.4 -3.6 M-2.95 -3.45 L-3.45 -3.6 -3.8 -4.1 -4.3 -5.2 -4.4 -5.7 -4.3 -6.15 -3.85 -7.15 -6.85 -4.8 -6.3 -3.85 -5.95 -3.5 -4.3 -2.35 -5.15 -1.95 -7.3 -0.05 Q-7.8 0.5 -7.95 1.2 L-7.95 2.15 -7.9 2.45 -7.55 2.8 -5.45 1.4 -4.55 0.9 -4.05 0.8 -3.8 2.6 -2.7 5.65 -2.3 6.55 -2.1 5.85 -1.0 1.85 0.3 6.8 0.7 8.0 1.05 7.0 2.2 1.85 3.45 6.4 3.55 6.65 3.65 6.35 Z" fill="none" stroke="#9933ff" stroke-linecap="round" stroke-linejoin="round" stroke-width="1.0"/>
  </g>
</svg>
