<?xml version="1.0" encoding="UTF-8" standalone="no"?>
<svg xmlns:xlink="http://www.w3.org/1999/xlink" height="17.0px" width="17.0px" xmlns="http://www.w3.org/2000/svg">
  <g transform="matrix(1.0, 0.0, 0.0, 1.0, 8.5, 8.5)">
    <path d="M2.35 -1.75 L2.4 -1.75 2.4 -1.5 2.35 -1.75" fill="#ffffff" fill-rule="evenodd" stroke="none"/>
    <path d="M2.4 -1.75 L1.95 -3.5 1.65 -4.4 Q1.45 -5.5 1.9 -6.2 2.35 -6.9 3.0 -6.6 L4.6 -3.7 Q5.2 -2.55 6.05 -1.45 6.65 -0.6 7.55 -0.7 L7.95 1.5 Q8.1 3.7 7.9 5.9 L6.05 6.05 Q5.2 6.3 4.65 7.05 L4.0 7.65 -3.15 7.85 -3.9 7.6 -4.3 6.9 -4.3 6.4 -4.15 6.0 -3.3 5.6 -5.1 5.45 -5.7 4.6 -5.7 4.4 -5.3 4.0 -2.35 3.6 -1.55 3.45 -3.85 3.55 -6.25 3.25 -6.7 2.85 -6.4 2.1 Q-6.25 1.7 -4.9 1.45 L-0.9 1.0 -4.6 0.7 -4.9 0.0 -4.75 -0.55 Q-3.9 -1.8 -2.7 -1.5 L2.1 -1.65 2.35 -1.75 2.4 -1.5 2.4 -1.75 M3.1 2.55 Q2.45 2.3 2.3 0.9 2.1 -0.35 2.4 -1.5 2.1 -0.35 2.3 0.9 2.45 2.3 3.1 2.55 M0.6 5.8 Q0.25 5.55 0.3 5.05 L0.1 0.95 0.05 0.4 0.1 0.95 0.3 5.05 Q0.25 5.55 0.6 5.8 M-0.9 1.0 L0.1 0.95 -0.9 1.0 M-1.55 3.45 L-0.1 3.5 -1.55 3.45 M-0.1 5.5 L-3.3 5.6 -0.1 5.5" fill="#f28651" fill-rule="evenodd" stroke="none"/>
    <path d="M2.4 -1.75 L1.95 -3.5 1.65 -4.4 Q1.45 -5.5 1.9 -6.2 2.35 -6.9 3.0 -6.6 L4.6 -3.7 Q5.2 -2.55 6.05 -1.45 6.65 -0.6 7.55 -0.7 L7.95 1.5 Q8.1 3.7 7.9 5.9 L6.05 6.05 Q5.2 6.3 4.65 7.05 L4.0 7.65 -3.15 7.85 -3.9 7.6 -4.3 6.9 -4.3 6.4 -4.15 6.0 -3.3 5.6 -5.1 5.45 -5.7 4.6 -5.7 4.4 -5.3 4.0 -2.35 3.6 -1.55 3.45 -3.85 3.55 -6.25 3.25 -6.7 2.85 -6.4 2.1 Q-6.25 1.7 -4.9 1.45 L-0.9 1.0 -4.6 0.7 -4.9 0.0 -4.75 -0.55 Q-3.9 -1.8 -2.7 -1.5 L2.1 -1.65 M2.4 -1.75 L2.4 -1.5 Q2.1 -0.35 2.3 0.9 2.45 2.3 3.1 2.55 M-3.3 5.6 L-0.1 5.5 M-0.1 3.5 L-1.55 3.45 M0.1 0.95 L-0.9 1.0" fill="none" stroke="#990000" stroke-linecap="round" stroke-linejoin="round" stroke-width="1.0"/>
    <path d="M0.05 0.4 L0.1 0.95 0.3 5.05 Q0.25 5.55 0.6 5.8 M-8.0 -4.25 L-7.4 -2.6 -7.35 -2.55 Q-6.75 -2.45 -6.2 -2.95 L-6.0 -1.3 M-0.2 -7.05 L-0.5 -5.7 -0.35 -5.25 -0.45 -4.8 -0.75 -3.8 M-3.8 -8.0 L-3.95 -6.15 -2.9 -5.8 -3.0 -4.35" fill="none" stroke="#990000" stroke-linecap="round" stroke-linejoin="round" stroke-width="1.0"/>
  </g>
</svg>
