<?xml version="1.0" encoding="UTF-8" standalone="no"?>
<svg xmlns:xlink="http://www.w3.org/1999/xlink" height="15.9px" width="17.0px" xmlns="http://www.w3.org/2000/svg">
  <g transform="matrix(1.0, 0.0, 0.0, 1.0, 8.5, 8.0)">
    <path d="M2.3 -2.2 Q2.3 -0.05 0.8 1.55 -0.7 3.05 -2.85 3.1 -5.0 3.05 -6.5 1.55 -8.05 -0.05 -8.0 -2.2 -8.05 -4.4 -6.5 -5.95 -5.0 -7.5 -2.85 -7.5 -0.7 -7.5 0.8 -5.95 2.3 -4.4 2.3 -2.2 M5.05 -5.75 L5.75 -6.0 6.35 -5.75 6.65 -5.05 Q6.65 -4.65 6.35 -4.4 6.1 -4.1 5.75 -4.1 5.35 -4.1 5.05 -4.4 4.8 -4.65 4.8 -5.05 4.8 -5.45 5.05 -5.75 M3.75 6.5 Q3.0 5.75 3.0 4.7 3.0 3.65 3.75 2.95 4.45 2.2 5.5 2.2 6.5 2.2 7.25 2.95 7.95 3.65 8.0 4.7 7.95 5.75 7.25 6.5 6.5 7.25 5.5 7.25 4.45 7.25 3.75 6.5 M-2.95 -5.75 L-3.8 -5.6 Q-6.8 -4.45 -5.85 -1.95 -5.9 -3.4 -4.55 -3.9 -3.1 -4.45 -2.15 -5.25 L-2.2 -5.35 Q-2.45 -5.75 -2.95 -5.75 M-1.8 5.85 Q-1.5 6.15 -1.5 6.5 -1.5 6.85 -1.8 7.1 -2.05 7.4 -2.35 7.4 L-3.0 7.1 -3.25 6.5 -3.0 5.85 -2.35 5.6 -1.8 5.85" fill="#66cc00" fill-opacity="0.77254903" fill-rule="evenodd" stroke="none"/>
    <path d="M-2.95 -5.75 Q-2.45 -5.75 -2.2 -5.35 L-2.15 -5.25 Q-3.1 -4.45 -4.55 -3.9 -5.9 -3.4 -5.85 -1.95 -6.8 -4.45 -3.8 -5.6 L-2.95 -5.75" fill="#ccffcc" fill-rule="evenodd" stroke="none"/>
    <path d="M2.3 -2.2 Q2.3 -0.05 0.8 1.55 -0.7 3.05 -2.85 3.1 -5.0 3.05 -6.5 1.55 -8.05 -0.05 -8.0 -2.2 -8.05 -4.4 -6.5 -5.95 -5.0 -7.5 -2.85 -7.5 -0.7 -7.5 0.8 -5.95 2.3 -4.4 2.3 -2.2 M5.05 -5.75 L5.75 -6.0 6.35 -5.75 6.65 -5.05 Q6.65 -4.65 6.35 -4.4 6.1 -4.1 5.75 -4.1 5.35 -4.1 5.05 -4.4 4.8 -4.65 4.8 -5.05 4.8 -5.45 5.05 -5.75 M3.75 6.5 Q3.0 5.75 3.0 4.7 3.0 3.65 3.75 2.95 4.45 2.2 5.5 2.2 6.5 2.2 7.25 2.95 7.95 3.65 8.0 4.7 7.95 5.75 7.25 6.5 6.5 7.25 5.5 7.25 4.45 7.25 3.75 6.5 M-1.8 5.85 Q-1.5 6.15 -1.5 6.5 -1.5 6.85 -1.8 7.1 -2.05 7.4 -2.35 7.4 L-3.0 7.1 -3.25 6.5 -3.0 5.85 -2.35 5.6 -1.8 5.85" fill="none" stroke="#66ff00" stroke-linecap="round" stroke-linejoin="round" stroke-width="1.0"/>
  </g>
</svg>
