<?xml version="1.0" encoding="UTF-8" standalone="no"?>
<svg xmlns:xlink="http://www.w3.org/1999/xlink" height="17.0px" width="17.0px" xmlns="http://www.w3.org/2000/svg">
  <g transform="matrix(1.0, 0.0, 0.0, 1.0, 8.5, 8.5)">
    <path d="M2.4 5.45 L0.0 5.75 Q-3.35 5.75 -5.7 3.7 -8.05 1.7 -8.0 -1.1 -8.05 -3.95 -5.7 -6.0 -3.35 -8.0 0.0 -8.0 3.3 -8.0 5.65 -6.0 8.0 -3.95 8.0 -1.1 8.0 1.7 5.65 3.7 L4.75 4.4 5.4 8.0 2.4 5.45" fill="#ffffff" fill-rule="evenodd" stroke="none"/>
    <path d="M2.4 5.45 L0.0 5.75 Q-3.35 5.75 -5.7 3.7 -8.05 1.7 -8.0 -1.1 -8.05 -3.95 -5.7 -6.0 -3.35 -8.0 0.0 -8.0 3.3 -8.0 5.65 -6.0 8.0 -3.95 8.0 -1.1 8.0 1.7 5.65 3.7 L4.75 4.4" fill="none" stroke="#000000" stroke-linecap="round" stroke-linejoin="round" stroke-width="1.0"/>
    <path d="M4.75 4.4 L5.4 8.0 2.4 5.45 Z" fill="none" stroke="#000000" stroke-linecap="round" stroke-linejoin="round" stroke-width="1.0"/>
    <path d="M-2.95 0.15 L-4.85 0.15 -4.85 -2.0 -2.95 -2.0 -2.95 0.15 M0.75 -2.0 L0.75 0.15 -1.15 0.15 -1.15 -2.0 0.75 -2.0" fill="#000000" fill-rule="evenodd" stroke="none"/>
    <path d="M2.65 -2.0 L4.5 -2.0 4.5 0.15 2.65 0.15 2.65 -2.0" fill="#000000" fill-rule="evenodd" stroke="none"/>
  </g>
</svg>
