<?xml version="1.0" encoding="UTF-8" standalone="no"?>
<svg xmlns:xlink="http://www.w3.org/1999/xlink" height="17.9px" width="15.8px" xmlns="http://www.w3.org/2000/svg">
  <g transform="matrix(1.0, 0.0, 0.0, 1.0, 7.6, 8.5)">
    <path d="M1.75 -1.9 L1.75 -2.3 1.7 -3.5 1.6 -3.75 4.5 -3.7 7.1 -3.9 4.4 0.05 5.95 -0.05 M7.4 1.45 Q7.8 2.1 7.7 2.9 L7.65 3.1 Q7.3 3.4 6.8 3.3 L2.65 3.6 Q2.85 2.7 3.3 1.85 L4.1 0.45 4.4 0.05 3.35 0.0 M-1.55 5.2 L1.35 5.5 1.6 5.5 Q0.5 6.25 -0.25 7.3 L0.9 7.35 1.2 7.35 M1.45 8.8 L0.05 8.85 -0.85 8.9 -1.15 8.8 -0.25 7.3 -1.0 7.2 M-6.05 -4.8 Q-6.35 -5.15 -6.3 -5.95 L-6.35 -6.65 -6.5 -7.4 Q-6.05 -6.9 -5.3 -7.0 L-3.15 -7.25 -1.7 -7.25 -1.0 -7.2 -0.55 -7.25 -2.25 -5.55 -3.45 -3.75 -3.95 -3.05 -3.0 -3.35 -2.7 -3.5 M-1.15 -1.45 L-0.85 0.4 Q-0.65 1.1 -1.15 1.2 L-1.7 1.3 -3.6 1.25 Q-5.15 0.6 -6.5 1.45 L-6.25 0.85 -6.1 0.35 -3.95 -3.05 -5.45 -3.05" fill="none" stroke="#000000" stroke-linecap="round" stroke-linejoin="round" stroke-width="1.0"/>
    <path d="M-6.65 -5.4 Q-6.95 -5.75 -6.9 -6.55 -6.85 -6.9 -6.95 -7.25 L-7.1 -8.0 Q-6.65 -7.5 -5.9 -7.6 L-3.75 -7.85 -2.3 -7.85 -1.6 -7.8 -1.15 -7.85 -2.85 -6.15 -4.05 -4.35 -4.55 -3.65 Q-4.1 -3.75 -3.6 -3.95 L-3.3 -4.1 M-4.55 -3.65 L-6.7 -0.25 -6.85 0.25 -7.1 0.85 Q-5.75 0.0 -4.2 0.65 L-2.3 0.7 -1.75 0.6 Q-1.25 0.5 -1.45 -0.2 L-1.75 -2.05 M-4.55 -3.65 L-6.05 -3.65" fill="none" stroke="#e6e6e6" stroke-linecap="round" stroke-linejoin="round" stroke-width="1.0"/>
    <path d="M1.15 -2.5 L1.15 -2.9 1.1 -4.1 1.0 -4.35 3.9 -4.3 6.5 -4.5 3.8 -0.55 5.35 -0.65 M6.8 0.85 Q7.2 1.5 7.1 2.3 L7.05 2.5 Q6.7 2.8 6.2 2.7 L2.05 3.0 2.7 1.25 3.5 -0.15 3.8 -0.55 2.75 -0.6" fill="none" stroke="#d0d0d0" stroke-linecap="round" stroke-linejoin="round" stroke-width="1.0"/>
    <path d="M-2.15 4.6 L0.75 4.9 1.0 4.9 -0.85 6.7 0.3 6.75 0.6 6.75 M0.85 8.2 L-0.55 8.25 -1.45 8.3 -1.75 8.2 -0.85 6.7 -1.6 6.6" fill="none" stroke="#b7b7b7" stroke-linecap="round" stroke-linejoin="round" stroke-width="1.0"/>
  </g>
</svg>
