<?xml version="1.0" encoding="UTF-8" standalone="no"?>
<svg xmlns:xlink="http://www.w3.org/1999/xlink" height="17.0px" width="17.0px" xmlns="http://www.w3.org/2000/svg">
  <g transform="matrix(1.0, 0.0, 0.0, 1.0, 8.5, 8.5)">
    <path d="M5.5 -8.0 L5.9 -7.55 4.25 -5.65 2.65 -3.45 8.0 -1.25 6.05 -0.05 Q-0.35 3.9 -7.1 7.45 L-7.25 7.15 1.0 -0.55 0.7 -0.8 -4.75 -0.65 3.0 -7.7 3.55 -7.75 5.5 -8.0" fill="#ffffff" fill-rule="evenodd" stroke="none"/>
    <path d="M5.9 -7.55 L6.3 -7.9 5.5 -8.0 3.55 -7.75 M3.0 -7.7 L-4.75 -0.65 0.7 -0.8 1.0 -0.55 -7.25 7.15 -8.0 8.0 -7.1 7.45 Q-0.35 3.9 6.05 -0.05 L8.0 -1.25 2.65 -3.45 4.25 -5.65 5.9 -7.55 Z" fill="none" stroke="#ffff00" stroke-linecap="round" stroke-linejoin="round" stroke-width="1.0"/>
  </g>
</svg>
