<?xml version="1.0" encoding="UTF-8" standalone="no"?>
<svg xmlns:xlink="http://www.w3.org/1999/xlink" height="15.05px" width="17.0px" xmlns="http://www.w3.org/2000/svg">
  <g transform="matrix(1.0, 0.0, 0.0, 1.0, 8.5, 8.5)">
    <path d="M1.1 -2.9 Q1.1 -3.8 1.85 -4.45 2.6 -5.1 3.6 -5.1 4.65 -5.1 5.35 -4.45 6.1 -3.8 6.1 -2.9 6.1 -2.0 5.35 -1.35 4.65 -0.65 3.6 -0.65 2.6 -0.65 1.85 -1.35 1.1 -2.0 1.1 -2.9 M-6.25 -2.7 Q-6.25 -3.55 -5.65 -4.15 -4.95 -4.7 -4.0 -4.7 -3.05 -4.7 -2.4 -4.15 -1.75 -3.55 -1.75 -2.7 -1.75 -1.85 -2.4 -1.3 -3.05 -0.65 -4.0 -0.65 -4.95 -0.65 -5.65 -1.3 -6.25 -1.85 -6.25 -2.7" fill="#ffffff" fill-rule="evenodd" stroke="none"/>
    <path d="M1.1 -2.9 Q1.1 -2.0 1.85 -1.35 2.6 -0.65 3.6 -0.65 4.65 -0.65 5.35 -1.35 6.1 -2.0 6.1 -2.9 6.1 -3.8 5.35 -4.45 4.65 -5.1 3.6 -5.1 2.6 -5.1 1.85 -4.45 1.1 -3.8 1.1 -2.9 M8.0 -2.3 Q8.0 0.1 5.6 1.8 4.55 2.55 3.3 3.0 L3.3 6.05 0.9 6.05 -1.75 6.05 -4.0 6.05 -4.0 2.75 -5.7 1.8 Q-8.0 0.1 -8.0 -2.3 -8.0 -4.65 -5.7 -6.35 -3.3 -8.0 0.0 -8.0 3.25 -8.0 5.6 -6.35 8.0 -4.65 8.0 -2.3 M3.3 1.2 L3.3 3.0 3.3 1.2 M0.9 6.05 L0.9 2.5 0.9 6.05 M-6.25 -2.7 Q-6.25 -1.85 -5.65 -1.3 -4.95 -0.65 -4.0 -0.65 -3.05 -0.65 -2.4 -1.3 -1.75 -1.85 -1.75 -2.7 -1.75 -3.55 -2.4 -4.15 -3.05 -4.7 -4.0 -4.7 -4.95 -4.7 -5.65 -4.15 -6.25 -3.55 -6.25 -2.7 M-1.75 2.35 L-1.75 6.05 -1.75 2.35 M-4.0 1.6 L-4.0 2.75 -4.0 1.6" fill="#006666" fill-rule="evenodd" stroke="none"/>
    <path d="M1.1 -2.9 Q1.1 -3.8 1.85 -4.45 2.6 -5.1 3.6 -5.1 4.65 -5.1 5.35 -4.45 6.1 -3.8 6.1 -2.9 6.1 -2.0 5.35 -1.35 4.65 -0.65 3.6 -0.65 2.6 -0.65 1.85 -1.35 1.1 -2.0 1.1 -2.9 M8.0 -2.3 Q8.0 0.1 5.6 1.8 4.55 2.55 3.3 3.0 L3.3 6.05 0.9 6.05 -1.75 6.05 -4.0 6.05 -4.0 2.75 -5.7 1.8 Q-8.0 0.1 -8.0 -2.3 -8.0 -4.65 -5.7 -6.35 -3.3 -8.0 0.0 -8.0 3.25 -8.0 5.6 -6.35 8.0 -4.65 8.0 -2.3 M0.9 2.5 L0.9 6.05 M3.3 3.0 L3.3 1.2 M-6.25 -2.7 Q-6.25 -3.55 -5.65 -4.15 -4.95 -4.7 -4.0 -4.7 -3.05 -4.7 -2.4 -4.15 -1.75 -3.55 -1.75 -2.7 -1.75 -1.85 -2.4 -1.3 -3.05 -0.65 -4.0 -0.65 -4.95 -0.65 -5.65 -1.3 -6.25 -1.85 -6.25 -2.7 M-4.0 2.75 L-4.0 1.6 M-1.75 6.05 L-1.75 2.35" fill="none" stroke="#003333" stroke-linecap="round" stroke-linejoin="round" stroke-width="1.0"/>
  </g>
</svg>
