<?xml version="1.0" encoding="UTF-8" standalone="no"?>
<svg xmlns:xlink="http://www.w3.org/1999/xlink" height="147.5px" width="102.6px" xmlns="http://www.w3.org/2000/svg">
  <g transform="matrix(1.0, 0.0, 0.0, 1.0, 52.1, 61.85)">
    <path d="M50.5 -16.5 Q50.5 7.5 39.3 30.35 L31.6 45.2 Q28.1 52.45 28.1 56.9 28.1 61.85 29.3 67.85 L30.45 73.85 30.3 79.85 Q30.1 80.8 29.15 81.3 26.6 82.1 20.9 83.3 5.5 86.45 -7.0 85.4 L-22.65 83.7 Q-25.55 83.05 -28.55 81.45 -30.7 78.05 -31.45 71.4 -32.25 63.95 -33.75 60.55 -35.1 57.45 -39.3 50.15 -43.4 43.0 -44.7 39.9 -48.4 30.9 -50.35 19.15 -52.1 8.8 -52.1 -1.2 -52.1 -19.5 -46.4 -32.35 -37.4 -52.65 -15.0 -58.85 19.05 -68.25 37.45 -48.1 44.05 -40.85 47.65 -30.75 50.5 -22.75 50.5 -16.5" fill="#000000" fill-rule="evenodd" stroke="none"/>
  </g>
</svg>
