<?xml version="1.0" encoding="UTF-8" standalone="no"?>
<svg xmlns:xlink="http://www.w3.org/1999/xlink" height="178.45px" width="139.7px" xmlns="http://www.w3.org/2000/svg">
  <g transform="matrix(1.0, 0.0, 0.0, 1.0, 69.85, 89.45)">
    <path d="M-16.15 -88.95 Q-5.7 -83.05 4.25 -76.35 14.4 -69.65 22.6 -60.5 30.25 -52.0 36.4 -42.3 42.85 -32.25 47.2 -21.05 L56.25 2.15 Q60.2 12.3 62.8 22.8 65.9 35.4 68.6 48.05 71.4 61.25 63.9 72.75 59.7 79.3 53.05 83.1 L45.35 87.75 44.7 89.0 Q42.0 87.4 38.85 86.6 31.8 85.1 24.75 85.0 L-1.7 84.4 -4.3 84.35 -9.2 84.75 Q-22.4 84.9 -34.95 88.9 L-35.15 88.25 -44.65 86.7 Q-51.25 82.45 -56.5 76.55 -64.05 68.0 -67.05 56.95 -70.35 44.75 -68.9 32.1 -67.6 20.45 -65.7 8.9 -63.75 -2.75 -61.1 -14.2 -59.35 -21.85 -56.65 -29.35 -52.6 -40.35 -46.6 -50.65 -40.6 -60.95 -33.0 -70.25 -25.35 -79.65 -16.65 -88.25 L-16.15 -88.95 M-26.2 71.65 L-12.05 73.8 -8.9 74.25 Q4.95 73.0 17.1 65.7 19.85 64.05 22.1 61.7 25.45 58.05 27.6 53.5 30.2 48.05 31.85 42.25 32.4 40.4 32.45 38.5 32.55 31.3 30.75 24.3 27.6 11.85 23.9 -0.5 14.65 -31.15 -1.35 -58.9 -6.05 -67.1 -13.3 -72.7 -16.3 -71.75 -18.0 -68.9 -21.65 -62.95 -25.7 -57.3 -31.75 -48.95 -36.55 -39.75 -41.1 -30.9 -44.8 -21.85 -49.35 -10.65 -52.1 0.9 L-54.1 8.65 Q-57.5 20.7 -56.1 32.95 -54.6 46.2 -45.15 55.85 -36.55 64.65 -26.15 71.25 L-26.2 71.65" fill="url(#gradient0)" fill-rule="evenodd" stroke="none"/>
    <path d="M-26.15 71.25 Q-36.55 64.65 -45.15 55.85 -54.6 46.2 -56.1 32.95 -57.5 20.7 -54.1 8.65 L-52.1 0.9 Q-49.35 -10.65 -44.8 -21.85 -41.1 -30.9 -36.55 -39.75 -31.75 -48.95 -25.7 -57.3 -21.65 -62.95 -18.0 -68.9 -16.3 -71.75 -13.3 -72.7 -6.05 -67.1 -1.35 -58.9 14.65 -31.15 23.9 -0.5 27.6 11.85 30.75 24.3 32.55 31.3 32.45 38.5 32.4 40.4 31.85 42.25 30.2 48.05 27.6 53.5 25.45 58.05 22.1 61.7 19.85 64.05 17.1 65.7 4.95 73.0 -8.9 74.25 L-12.05 73.8 -26.2 71.65 -26.15 71.25" fill="#000000" fill-rule="evenodd" stroke="none"/>
    <path d="M-16.15 -88.95 Q-5.7 -83.05 4.25 -76.35 14.4 -69.65 22.6 -60.5 30.25 -52.0 36.4 -42.3 42.85 -32.25 47.2 -21.05 L56.25 2.15 Q60.2 12.3 62.8 22.8 65.9 35.4 68.6 48.05 71.4 61.25 63.9 72.75 59.7 79.3 53.05 83.1 L45.35 87.75 M-35.15 88.25 L-44.65 86.7 Q-51.25 82.45 -56.5 76.55 -64.05 68.0 -67.05 56.95 -70.35 44.75 -68.9 32.1 -67.6 20.45 -65.7 8.9 -63.75 -2.75 -61.1 -14.2 -59.35 -21.85 -56.65 -29.35 -52.6 -40.35 -46.6 -50.65 -40.6 -60.95 -33.0 -70.25 -25.35 -79.65 -16.65 -88.25 M-26.15 71.25 Q-36.55 64.65 -45.15 55.85 -54.6 46.2 -56.1 32.95 -57.5 20.7 -54.1 8.65 L-52.1 0.9 Q-49.35 -10.65 -44.8 -21.85 -41.1 -30.9 -36.55 -39.75 -31.75 -48.95 -25.7 -57.3 -21.65 -62.95 -18.0 -68.9 -16.3 -71.75 -13.3 -72.7 -6.05 -67.1 -1.35 -58.9 14.65 -31.15 23.9 -0.5 27.6 11.85 30.75 24.3 32.55 31.3 32.45 38.5 32.4 40.4 31.85 42.25 30.2 48.05 27.6 53.5 25.45 58.05 22.1 61.7 19.85 64.05 17.1 65.7 4.95 73.0 -8.9 74.25 L-12.05 73.8 -26.2 71.65" fill="none" stroke="#000000" stroke-linecap="round" stroke-linejoin="round" stroke-width="1.0"/>
  </g>
  <defs>
    <radialGradient cx="0" cy="0" gradientTransform="matrix(0.0794, -0.0259, 0.0376, 0.1151, -16.85, 8.35)" gradientUnits="userSpaceOnUse" id="gradient0" r="819.2" spreadMethod="pad">
      <stop offset="0.0" stop-color="#efefef"/>
      <stop offset="0.8274509803921568" stop-color="#dadae2"/>
      <stop offset="1.0" stop-color="#9d9da2"/>
    </radialGradient>
  </defs>
</svg>
