<?xml version="1.0" encoding="UTF-8" standalone="no"?>
<svg xmlns:xlink="http://www.w3.org/1999/xlink" height="191.6px" width="139.75px" xmlns="http://www.w3.org/2000/svg">
  <g transform="matrix(1.0, 0.0, 0.0, 1.0, 69.85, 89.45)">
    <path d="M-56.8 24.1 Q-58.8 4.0 -49.1 -17.55 -35.5 -47.8 -13.3 -72.7 13.3 -44.15 26.25 -7.05 33.9 15.0 31.9 37.75 30.7 51.25 22.1 61.7 L22.4 62.0 5.8 79.25 0.75 84.5 Q-5.7 91.05 -9.3 99.65 L-10.7 100.95 -24.2 86.2 -44.8 57.4 -47.1 53.7 Q-55.3 39.3 -56.8 24.1 M4.7 79.55 L5.8 79.25 4.7 79.55" fill="#000000" fill-rule="evenodd" stroke="none"/>
    <path d="M22.1 61.7 L22.4 61.95 22.4 62.0 22.1 61.7 M-10.7 100.95 L-9.3 99.65 -10.1 101.65 -10.7 100.95" fill="#0099cc" fill-rule="evenodd" stroke="none"/>
    <path d="M-16.15 -88.95 Q-5.7 -83.05 4.25 -76.35 14.4 -69.65 22.6 -60.5 30.25 -52.0 36.4 -42.3 42.85 -32.25 47.2 -21.05 L56.25 2.15 57.35 4.95 Q60.55 13.75 62.8 22.8 L67.1 41.05 68.6 48.05 69.05 50.4 Q70.75 62.25 63.9 72.75 59.7 79.3 53.05 83.1 L52.8 83.3 45.35 87.75 44.7 89.0 Q43.3 88.3 41.85 87.75 33.6 84.85 24.75 84.8 L0.75 84.5 5.8 79.25 22.4 62.0 22.4 61.95 22.1 61.7 Q30.7 51.25 31.9 37.75 33.9 15.0 26.25 -7.05 13.3 -44.15 -13.3 -72.7 -35.5 -47.8 -49.1 -17.55 -58.8 4.0 -56.8 24.1 -58.85 24.25 -60.45 23.4 L-60.6 24.6 -61.0 25.95 -61.3 26.55 Q-64.2 27.2 -67.15 26.55 -64.2 27.2 -61.3 26.55 L-61.0 25.95 -60.6 24.6 -60.45 23.4 Q-58.85 24.25 -56.8 24.1 -55.3 39.3 -47.1 53.7 L-44.8 57.4 -24.2 86.2 -34.95 88.9 -35.15 88.25 -45.75 86.0 Q-51.7 81.95 -56.5 76.55 -64.05 68.0 -67.05 56.95 -70.35 44.75 -68.9 32.1 -67.6 20.45 -65.7 8.9 -63.75 -2.75 -61.1 -14.2 -59.35 -21.85 -56.65 -29.35 -52.6 -40.35 -46.6 -50.65 -40.6 -60.95 -33.0 -70.25 -25.35 -79.65 -16.65 -88.25 L-16.15 -88.95 M58.4 41.7 Q63.05 42.2 67.1 41.05 63.05 42.2 58.4 41.7 M32.2 13.9 L34.9 13.7 37.6 13.6 Q43.05 13.7 47.65 12.0 46.45 11.9 46.6 10.05 L46.45 8.8 46.1 7.65 45.65 6.95 Q49.2 5.65 53.05 5.6 L57.35 4.95 53.05 5.6 Q49.2 5.65 45.65 6.95 L46.1 7.65 46.45 8.8 46.6 10.05 Q46.45 11.9 47.65 12.0 43.05 13.7 37.6 13.6 L34.9 13.7 32.2 13.9 M55.05 51.15 L69.05 50.4 55.05 51.15" fill="url(#gradient0)" fill-rule="evenodd" stroke="none"/>
    <path d="M-16.15 -88.95 Q-5.7 -83.05 4.25 -76.35 14.4 -69.65 22.6 -60.5 30.25 -52.0 36.4 -42.3 42.85 -32.25 47.2 -21.05 L56.25 2.15 57.35 4.95 Q60.55 13.75 62.8 22.8 L67.1 41.05 68.6 48.05 69.05 50.4 Q70.75 62.25 63.9 72.75 59.7 79.3 53.05 83.1 L52.8 83.3 53.7 83.35 M-35.15 88.25 L-45.75 86.0 Q-51.7 81.95 -56.5 76.55 -64.05 68.0 -67.05 56.95 -70.35 44.75 -68.9 32.1 -67.6 20.45 -65.7 8.9 -63.75 -2.75 -61.1 -14.2 -59.35 -21.85 -56.65 -29.35 -52.6 -40.35 -46.6 -50.65 -40.6 -60.95 -33.0 -70.25 -25.35 -79.65 -16.65 -88.25 M-56.8 24.1 Q-58.8 4.0 -49.1 -17.55 -35.5 -47.8 -13.3 -72.7 13.3 -44.15 26.25 -7.05 33.9 15.0 31.9 37.75 30.7 51.25 22.1 61.7 M22.4 61.95 L22.4 62.0 5.8 79.25 0.75 84.5 M45.35 87.75 L52.8 83.3 M-56.8 24.1 Q-55.3 39.3 -47.1 53.7 L-44.8 57.4 -24.2 86.2 -10.7 100.95 -10.1 101.65 -9.3 99.65 Q-5.7 91.05 0.75 84.5 M5.8 79.25 L4.7 79.55" fill="none" stroke="#000000" stroke-linecap="round" stroke-linejoin="round" stroke-width="1.0"/>
    <path d="M-67.15 26.55 Q-64.2 27.2 -61.3 26.55 L-61.0 25.95 -60.6 24.6 -60.45 23.4 Q-58.85 24.25 -56.8 24.1 M57.35 4.95 L53.05 5.6 Q49.2 5.65 45.65 6.95 L46.1 7.65 46.45 8.8 46.6 10.05 Q46.45 11.9 47.65 12.0 43.05 13.7 37.6 13.6 L34.9 13.7 32.2 13.9 M67.1 41.05 Q63.05 42.2 58.4 41.7 M69.05 50.4 L55.05 51.15" fill="none" stroke="#6600ff" stroke-linecap="round" stroke-linejoin="round" stroke-width="1.0"/>
  </g>
  <defs>
    <radialGradient cx="0" cy="0" gradientTransform="matrix(0.0794, -0.0259, 0.0376, 0.1151, -16.85, 8.35)" gradientUnits="userSpaceOnUse" id="gradient0" r="819.2" spreadMethod="pad">
      <stop offset="0.0" stop-color="#48246c"/>
      <stop offset="0.8274509803921568" stop-color="#4f2c65"/>
      <stop offset="1.0" stop-color="#412851"/>
    </radialGradient>
  </defs>
</svg>
