<?xml version="1.0" encoding="UTF-8" standalone="no"?>
<svg xmlns:xlink="http://www.w3.org/1999/xlink" height="205.3px" width="139.7px" xmlns="http://www.w3.org/2000/svg">
  <g transform="matrix(1.0, 0.0, 0.0, 1.0, 69.85, 89.45)">
    <path d="M14.65 84.8 Q5.1 101.45 -8.95 114.7 L-9.65 115.35 -29.45 115.35 -36.15 88.1 Q-53.85 61.2 -54.5 29.95 -55.2 -1.95 -41.3 -31.1 -30.2 -54.35 -13.3 -72.7 10.05 -47.5 21.15 -14.2 29.9 12.0 31.8 39.05 31.95 40.95 31.5 42.9 26.45 65.35 14.65 84.8" fill="#000000" fill-rule="evenodd" stroke="none"/>
    <path d="M-16.15 -88.95 Q-5.7 -83.05 4.25 -76.35 14.4 -69.65 22.6 -60.5 30.25 -52.0 36.4 -42.3 42.85 -32.25 47.2 -21.05 L56.25 2.15 Q60.2 12.3 62.8 22.8 65.9 35.4 68.6 48.05 71.4 61.25 63.9 72.75 59.7 79.3 53.05 83.1 L45.35 87.75 44.7 89.0 Q42.0 87.4 38.85 86.6 31.8 85.1 24.75 85.0 L14.65 84.8 Q26.45 65.35 31.5 42.9 31.95 40.95 31.8 39.05 29.9 12.0 21.15 -14.2 10.05 -47.5 -13.3 -72.7 -30.2 -54.35 -41.3 -31.1 -55.2 -1.95 -54.5 29.95 -53.85 61.2 -36.15 88.1 L-44.65 86.7 Q-51.25 82.45 -56.5 76.55 -64.05 68.0 -67.05 56.95 -68.15 52.8 -68.75 48.65 -69.85 40.45 -68.9 32.1 -67.6 20.45 -65.7 8.9 -63.75 -2.75 -61.1 -14.2 -59.35 -21.85 -56.65 -29.35 -52.6 -40.35 -46.6 -50.65 -40.6 -60.95 -33.0 -70.25 -25.35 -79.65 -16.65 -88.25 L-16.15 -88.95 M45.65 -6.3 Q44.8 -3.1 47.0 -1.95 L47.95 -1.05 Q49.95 2.65 47.65 6.3 49.95 2.65 47.95 -1.05 L47.0 -1.95 Q44.8 -3.1 45.65 -6.3 M36.9 -3.8 L38.25 -2.55 39.2 -1.1 Q39.6 0.0 39.15 1.05 36.65 6.95 39.6 13.25 36.65 6.95 39.15 1.05 39.6 0.0 39.2 -1.1 L38.25 -2.55 36.9 -3.8 M38.25 -38.5 L37.05 -35.95 36.0 -34.3 Q34.15 -31.9 31.65 -33.6 25.35 -37.9 23.5 -44.85 23.5 -42.6 23.95 -40.5 26.15 -30.8 31.0 -22.15 36.55 -12.2 47.65 -12.0 36.55 -12.2 31.0 -22.15 26.15 -30.8 23.95 -40.5 23.5 -42.6 23.5 -44.85 25.35 -37.9 31.65 -33.6 34.15 -31.9 36.0 -34.3 L37.05 -35.95 38.25 -38.5 M-57.75 -5.05 L-57.75 -3.15 Q-57.75 -1.9 -58.2 -0.8 -58.75 0.65 -59.6 2.0 -60.75 3.8 -61.1 5.75 -61.75 9.7 -60.45 13.25 -61.75 9.7 -61.1 5.75 -60.75 3.8 -59.6 2.0 -58.75 0.65 -58.2 -0.8 -57.75 -1.9 -57.75 -3.15 L-57.75 -5.05 M-56.4 -29.05 L-55.05 -29.7 -52.4 -30.95 Q-49.2 -32.55 -47.0 -35.35 -48.1 -27.95 -51.95 -21.0 -55.3 -14.9 -61.1 -12.65 -55.3 -14.9 -51.95 -21.0 -48.1 -27.95 -47.0 -35.35 -49.2 -32.55 -52.4 -30.95 L-55.05 -29.7 -56.4 -29.05 M60.4 24.6 L60.25 29.05 Q60.1 31.95 59.15 34.7 58.75 36.0 58.8 37.25 58.9 39.35 57.75 39.75 L52.5 34.6 Q45.1 26.8 49.0 17.05 41.65 26.75 45.65 38.5 46.65 41.35 48.2 43.85 52.0 50.15 56.15 56.35 57.95 59.0 61.1 59.9 65.65 61.15 66.45 64.4 65.65 61.15 61.1 59.9 57.95 59.0 56.15 56.35 52.0 50.15 48.2 43.85 46.65 41.35 45.65 38.5 41.65 26.75 49.0 17.05 45.1 26.8 52.5 34.6 L57.75 39.75 Q58.9 39.35 58.8 37.25 58.75 36.0 59.15 34.7 60.1 31.95 60.25 29.05 L60.4 24.6 M-65.15 29.05 L-64.5 28.9 Q-62.7 28.15 -61.6 26.65 L-60.1 24.4 Q-58.8 22.2 -58.45 23.35 L-58.5 24.0 -58.9 27.15 Q-59.1 29.05 -59.7 30.75 -63.15 40.35 -68.75 48.65 -63.15 40.35 -59.7 30.75 -59.1 29.05 -58.9 27.15 L-58.5 24.0 -58.45 23.35 Q-58.8 22.2 -60.1 24.4 L-61.6 26.65 Q-62.7 28.15 -64.5 28.9 L-65.15 29.05" fill="url(#gradient0)" fill-rule="evenodd" stroke="none"/>
    <path d="M-16.15 -88.95 Q-5.7 -83.05 4.25 -76.35 14.4 -69.65 22.6 -60.5 30.25 -52.0 36.4 -42.3 42.85 -32.25 47.2 -21.05 L56.25 2.15 Q60.2 12.3 62.8 22.8 65.9 35.4 68.6 48.05 71.4 61.25 63.9 72.75 59.7 79.3 53.05 83.1 L45.35 87.75 M14.65 84.8 Q5.1 101.45 -8.95 114.7 L-9.65 115.35 M-29.45 115.35 L-36.15 88.1 M-44.65 86.7 Q-51.25 82.45 -56.5 76.55 -64.05 68.0 -67.05 56.95 -68.15 52.8 -68.75 48.65 -69.85 40.45 -68.9 32.1 -67.6 20.45 -65.7 8.9 -63.75 -2.75 -61.1 -14.2 -59.35 -21.85 -56.65 -29.35 -52.6 -40.35 -46.6 -50.65 -40.6 -60.95 -33.0 -70.25 -25.35 -79.65 -16.65 -88.25 M14.65 84.8 Q26.45 65.35 31.5 42.9 31.95 40.95 31.8 39.05 29.9 12.0 21.15 -14.2 10.05 -47.5 -13.3 -72.7 -30.2 -54.35 -41.3 -31.1 -55.2 -1.95 -54.5 29.95 -53.85 61.2 -36.15 88.1" fill="none" stroke="#000000" stroke-linecap="round" stroke-linejoin="round" stroke-width="1.0"/>
    <path d="M-68.75 48.65 L-69.15 49.25 M47.65 -12.0 Q36.55 -12.2 31.0 -22.15 26.15 -30.8 23.95 -40.5 23.5 -42.6 23.5 -44.85 25.35 -37.9 31.65 -33.6 34.15 -31.9 36.0 -34.3 L37.05 -35.95 38.25 -38.5 M39.6 13.25 Q36.65 6.95 39.15 1.05 39.6 0.0 39.2 -1.1 L38.25 -2.55 36.9 -3.8 M47.65 6.3 Q49.95 2.65 47.95 -1.05 L47.0 -1.95 Q44.8 -3.1 45.65 -6.3 M-61.1 -12.65 Q-55.3 -14.9 -51.95 -21.0 -48.1 -27.95 -47.0 -35.35 -49.2 -32.55 -52.4 -30.95 L-55.05 -29.7 -56.4 -29.05 M-60.45 13.25 Q-61.75 9.7 -61.1 5.75 -60.75 3.8 -59.6 2.0 -58.75 0.65 -58.2 -0.8 -57.75 -1.9 -57.75 -3.15 L-57.75 -5.05 M-68.75 48.65 Q-63.15 40.35 -59.7 30.75 -59.1 29.05 -58.9 27.15 L-58.5 24.0 -58.45 23.35 Q-58.8 22.2 -60.1 24.4 L-61.6 26.65 Q-62.7 28.15 -64.5 28.9 L-65.15 29.05 M66.45 64.4 Q65.65 61.15 61.1 59.9 57.95 59.0 56.15 56.35 52.0 50.15 48.2 43.85 46.65 41.35 45.65 38.5 41.65 26.75 49.0 17.05 45.1 26.8 52.5 34.6 L57.75 39.75 Q58.9 39.35 58.8 37.25 58.75 36.0 59.15 34.7 60.1 31.95 60.25 29.05 L60.4 24.6" fill="none" stroke="#ff9900" stroke-linecap="round" stroke-linejoin="round" stroke-width="1.0"/>
  </g>
  <defs>
    <radialGradient cx="0" cy="0" gradientTransform="matrix(0.0794, -0.0259, 0.0376, 0.1151, -16.85, 8.35)" gradientUnits="userSpaceOnUse" id="gradient0" r="819.2" spreadMethod="pad">
      <stop offset="0.0" stop-color="#af7630"/>
      <stop offset="0.8274509803921568" stop-color="#7c4721"/>
      <stop offset="1.0" stop-color="#53311a"/>
    </radialGradient>
  </defs>
</svg>
