<?xml version="1.0" encoding="UTF-8" standalone="no"?>
<svg xmlns:xlink="http://www.w3.org/1999/xlink" height="191.6px" width="139.65px" xmlns="http://www.w3.org/2000/svg">
  <g transform="matrix(1.0, 0.0, 0.0, 1.0, 69.8, 89.45)">
    <path d="M-47.1 53.7 L-44.2 56.8 -44.8 57.4 -47.1 53.7 M22.8 -44.9 L22.25 -44.6 22.2 -44.75 22.8 -44.9" fill="url(#gradient0)" fill-rule="evenodd" stroke="none"/>
    <path d="M-47.1 53.7 Q-51.0 46.6 -53.5 39.1 -55.95 31.75 -56.7 24.1 -57.7 13.85 -55.65 3.7 -54.55 -1.6 -52.75 -6.65 -39.6 -43.5 -13.3 -72.7 L-10.0 -69.05 Q-1.95 -59.9 4.7 -50.0 11.45 -40.0 16.85 -29.35 22.35 -18.5 26.35 -7.05 30.05 3.65 31.55 15.2 33.2 28.2 31.3 41.05 29.6 52.7 22.1 61.7 L22.4 62.0 5.8 79.25 0.75 84.5 Q-4.9 90.35 -8.35 97.55 L-9.3 99.65 -10.7 100.95 -24.2 86.2 -44.8 57.4 -44.2 56.8 -47.1 53.7 M4.7 79.55 L5.8 79.25 4.7 79.55" fill="#000000" fill-rule="evenodd" stroke="none"/>
    <path d="M-10.7 100.95 L-9.3 99.65 -10.1 101.65 -10.7 100.95 M22.4 62.0 L22.1 61.7 22.4 61.95 22.4 62.0" fill="#0099cc" fill-rule="evenodd" stroke="none"/>
    <path d="M22.1 61.7 Q29.6 52.7 31.3 41.05 33.2 28.2 31.55 15.2 30.05 3.65 26.35 -7.05 22.35 -18.5 16.85 -29.35 11.45 -40.0 4.7 -50.0 -1.95 -59.9 -10.0 -69.05 L-13.3 -72.7 Q-39.6 -43.5 -52.75 -6.65 -54.55 -1.6 -55.65 3.7 -57.7 13.85 -56.7 24.1 -55.95 31.75 -53.5 39.1 -51.0 46.6 -47.1 53.7 L-44.8 57.4 -24.2 86.2 -34.95 88.9 -35.15 88.25 Q-40.45 87.1 -45.15 84.75 -53.75 80.65 -59.45 72.85 -66.55 62.9 -68.45 50.85 -69.95 41.55 -68.75 32.1 -67.3 20.5 -65.35 8.95 L-61.0 -14.2 Q-58.8 -24.85 -54.55 -34.85 -49.95 -45.7 -43.55 -55.7 -37.0 -65.9 -29.05 -74.9 -22.95 -81.85 -16.65 -88.25 L-16.15 -88.95 -0.6 -79.75 Q8.4 -74.0 16.15 -66.85 25.45 -58.2 32.65 -47.9 L32.7 -47.85 Q38.1 -40.25 42.25 -31.9 47.6 -21.0 51.9 -9.5 L58.65 9.5 Q62.45 20.55 65.1 31.95 67.2 41.15 68.9 50.45 70.2 57.75 67.85 64.7 63.75 76.8 52.8 83.3 L45.35 87.75 44.7 89.0 Q30.3 83.3 14.7 84.75 L20.75 80.15 Q17.85 78.2 13.55 77.8 18.6 72.0 25.55 69.75 27.25 71.1 27.65 73.75 27.85 75.25 28.35 76.75 29.75 80.9 27.5 84.6 41.5 79.6 54.15 72.25 L54.65 71.8 Q52.45 64.85 49.6 58.3 49.0 56.95 48.0 55.9 L45.65 53.65 62.45 59.35 Q56.35 42.45 44.3 29.65 L56.8 26.1 32.9 -10.1 40.3 -13.9 22.25 -44.6 40.3 -13.9 32.9 -10.1 56.8 26.1 44.3 29.65 Q56.35 42.45 62.45 59.35 L45.65 53.65 48.0 55.9 Q49.0 56.95 49.6 58.3 52.45 64.85 54.65 71.8 L54.15 72.25 Q41.5 79.6 27.5 84.6 29.75 80.9 28.35 76.75 27.85 75.25 27.65 73.75 27.25 71.1 25.55 69.75 18.6 72.0 13.55 77.8 17.85 78.2 20.75 80.15 L14.7 84.75 0.75 84.5 5.8 79.25 22.4 62.0 22.4 61.95 22.1 61.7 M22.25 -44.6 L22.8 -44.9 32.65 -47.9 22.8 -44.9 22.2 -44.75 22.25 -44.6 M42.3 8.2 L36.15 26.45 42.15 34.15 41.95 34.6 Q35.75 43.85 34.9 54.9 35.75 43.85 41.95 34.6 L42.15 34.15 36.15 26.45 42.3 8.2 M-24.85 -77.65 L-21.5 -75.15 -23.25 -72.9 Q-36.65 -56.75 -47.15 -38.6 -48.4 -36.45 -49.95 -34.55 -52.45 -31.45 -53.45 -27.95 L-49.25 -24.85 -58.35 -13.15 -58.9 -9.6 Q-61.0 0.0 -61.75 9.8 -61.95 12.35 -62.85 15.0 -65.65 23.05 -61.15 30.35 -62.1 34.9 -62.5 39.7 -62.6 40.85 -62.2 41.95 -61.45 44.1 -58.95 44.8 L-58.8 56.2 -59.45 72.85 -58.8 56.2 -58.95 44.8 Q-61.45 44.1 -62.2 41.95 -62.6 40.85 -62.5 39.7 -62.1 34.9 -61.15 30.35 -65.65 23.05 -62.85 15.0 -61.95 12.35 -61.75 9.8 -61.0 0.0 -58.9 -9.6 L-58.35 -13.15 -49.25 -24.85 -53.45 -27.95 Q-52.45 -31.45 -49.95 -34.55 -48.4 -36.45 -47.15 -38.6 -36.65 -56.75 -23.25 -72.9 L-21.5 -75.15 -24.85 -77.65 M-39.65 83.35 L-40.9 78.15 Q-41.25 77.0 -42.2 76.65 L-51.05 73.25 -49.4 63.9 Q-51.7 59.85 -56.35 57.85 -57.7 57.3 -58.8 56.2 -57.7 57.3 -56.35 57.85 -51.7 59.85 -49.4 63.9 L-51.05 73.25 -42.2 76.65 Q-41.25 77.0 -40.9 78.15 L-39.65 83.35" fill="url(#gradient1)" fill-rule="evenodd" stroke="none"/>
    <path d="M22.1 61.7 Q29.6 52.7 31.3 41.05 33.2 28.2 31.55 15.2 30.05 3.65 26.35 -7.05 22.35 -18.5 16.85 -29.35 11.45 -40.0 4.7 -50.0 -1.95 -59.9 -10.0 -69.05 L-13.3 -72.7 Q-39.6 -43.5 -52.75 -6.65 -54.55 -1.6 -55.65 3.7 -57.7 13.85 -56.7 24.1 -55.95 31.75 -53.5 39.1 -51.0 46.6 -47.1 53.7 L-44.8 57.4 -24.2 86.2 -10.7 100.95 -10.1 101.65 -9.3 99.65 -8.35 97.55 Q-4.9 90.35 0.75 84.5 L5.8 79.25 4.7 79.55 M45.35 87.75 L52.8 83.3 Q63.75 76.8 67.85 64.7 70.2 57.75 68.9 50.45 67.2 41.15 65.1 31.95 62.45 20.55 58.65 9.5 L51.9 -9.5 Q47.6 -21.0 42.25 -31.9 38.1 -40.25 32.7 -47.85 M32.65 -47.9 Q25.45 -58.2 16.15 -66.85 8.4 -74.0 -0.6 -79.75 L-16.15 -88.95 M-16.65 -88.25 Q-22.95 -81.85 -29.05 -74.9 -37.0 -65.9 -43.55 -55.7 -49.95 -45.7 -54.55 -34.85 -58.8 -24.85 -61.0 -14.2 L-65.35 8.95 Q-67.3 20.5 -68.75 32.1 -69.95 41.55 -68.45 50.85 -66.55 62.9 -59.45 72.85 M22.4 62.0 L22.4 61.95 M22.4 62.0 L5.8 79.25 M52.8 83.3 L53.7 83.35 M-35.15 88.25 Q-40.45 87.1 -45.15 84.75 -53.75 80.65 -59.45 72.85" fill="none" stroke="#000000" stroke-linecap="round" stroke-linejoin="round" stroke-width="1.0"/>
    <path d="M22.25 -44.6 L40.3 -13.9 32.9 -10.1 56.8 26.1 44.3 29.65 Q56.35 42.45 62.45 59.35 L45.65 53.65 48.0 55.9 Q49.0 56.95 49.6 58.3 52.45 64.85 54.65 71.8 L54.15 72.25 Q41.5 79.6 27.5 84.6 29.75 80.9 28.35 76.75 27.85 75.25 27.65 73.75 27.25 71.1 25.55 69.75 18.6 72.0 13.55 77.8 17.85 78.2 20.75 80.15 L14.7 84.75 13.2 86.1 Q9.55 89.1 8.1 93.45 M32.7 -47.85 L32.65 -47.9 22.8 -44.9 22.2 -44.75 22.25 -44.6 M-59.45 72.85 L-58.8 56.2 -58.95 44.8 Q-61.45 44.1 -62.2 41.95 -62.6 40.85 -62.5 39.7 -62.1 34.9 -61.15 30.35 -65.65 23.05 -62.85 15.0 -61.95 12.35 -61.75 9.8 -61.0 0.0 -58.9 -9.6 L-58.35 -13.15 -49.25 -24.85 -53.45 -27.95 Q-52.45 -31.45 -49.95 -34.55 -48.4 -36.45 -47.15 -38.6 -36.65 -56.75 -23.25 -72.9 L-21.5 -75.15 -24.85 -77.65 M34.9 54.9 Q35.75 43.85 41.95 34.6 L42.15 34.15 36.15 26.45 42.3 8.2 M-58.8 56.2 Q-57.7 57.3 -56.35 57.85 -51.7 59.85 -49.4 63.9 L-51.05 73.25 -42.2 76.65 Q-41.25 77.0 -40.9 78.15 L-39.65 83.35" fill="none" stroke="#ffffcc" stroke-linecap="round" stroke-linejoin="round" stroke-width="1.0"/>
  </g>
  <defs>
    <radialGradient cx="0" cy="0" gradientTransform="matrix(0.0794, -0.0259, 0.0376, 0.1151, -16.85, 8.35)" gradientUnits="userSpaceOnUse" id="gradient0" r="819.2" spreadMethod="pad">
      <stop offset="0.0" stop-color="#efefef"/>
      <stop offset="0.8274509803921568" stop-color="#dadae2"/>
      <stop offset="1.0" stop-color="#9d9da2"/>
    </radialGradient>
    <radialGradient cx="0" cy="0" gradientTransform="matrix(0.0794, -0.0259, 0.0376, 0.1151, -16.85, 8.35)" gradientUnits="userSpaceOnUse" id="gradient1" r="819.2" spreadMethod="pad">
      <stop offset="0.0" stop-color="#fdfcdb"/>
      <stop offset="0.8274509803921568" stop-color="#f0db44"/>
      <stop offset="1.0" stop-color="#e6c71e"/>
    </radialGradient>
  </defs>
</svg>
