<?xml version="1.0" encoding="UTF-8" standalone="no"?>
<svg xmlns:xlink="http://www.w3.org/1999/xlink" height="191.6px" width="139.55px" xmlns="http://www.w3.org/2000/svg">
  <g transform="matrix(1.0, 0.0, 0.0, 1.0, 69.65, 89.45)">
    <path d="M-24.2 86.2 L-44.6 57.25 Q-50.5 48.7 -53.6 39.1 -55.95 31.75 -56.7 24.1 -57.7 13.85 -55.65 3.7 -54.55 -1.6 -52.75 -6.65 -39.6 -43.5 -13.3 -72.7 L-10.0 -69.05 Q-1.95 -59.9 4.7 -50.0 11.45 -40.0 16.85 -29.35 22.35 -18.5 26.35 -7.05 30.05 3.65 31.55 15.2 33.2 28.2 31.3 41.05 29.6 52.7 22.1 61.7 L21.9 62.0 5.8 79.25 0.75 84.5 Q-4.9 90.35 -8.35 97.55 L-9.3 99.65 -10.7 100.95 -24.2 86.2 M4.7 79.55 L5.8 79.25 4.7 79.55" fill="#000000" fill-rule="evenodd" stroke="none"/>
    <path d="M22.1 61.7 L22.2 61.8 21.9 62.0 22.1 61.7 M-9.3 99.65 L-10.1 101.65 -10.7 100.95 -9.3 99.65" fill="#0099cc" fill-rule="evenodd" stroke="none"/>
    <path d="M-16.15 -88.95 Q-5.65 -83.05 4.25 -76.35 14.4 -69.65 22.6 -60.5 30.25 -51.95 36.45 -42.35 42.95 -32.2 47.25 -21.05 L56.3 2.1 Q60.25 12.15 62.9 22.75 66.0 35.35 68.65 48.0 71.45 61.45 64.05 72.85 61.45 76.8 57.65 79.75 51.95 84.25 45.35 87.75 L44.7 89.0 Q35.15 84.85 24.75 84.75 L0.75 84.5 5.8 79.25 21.9 62.0 22.2 61.8 22.1 61.7 Q29.6 52.7 31.3 41.05 33.2 28.2 31.55 15.2 30.05 3.65 26.35 -7.05 22.35 -18.5 16.85 -29.35 11.45 -40.0 4.7 -50.0 -1.95 -59.9 -10.0 -69.05 L-13.3 -72.7 Q-39.6 -43.5 -52.75 -6.65 -54.55 -1.6 -55.65 3.7 -57.7 13.85 -56.7 24.1 -55.95 31.75 -53.6 39.1 -50.5 48.7 -44.6 57.25 L-24.2 86.2 -34.95 88.9 -35.15 88.25 Q-41.9 86.1 -48.2 83.15 -51.3 81.55 -53.85 79.05 -62.45 70.8 -66.1 59.65 -70.0 47.9 -68.95 35.35 -68.3 27.9 -67.2 20.55 -65.5 8.9 -63.25 -2.6 -61.35 -12.25 -58.8 -21.75 -55.5 -34.1 -49.5 -45.45 -43.85 -56.0 -36.6 -65.4 -29.2 -75.1 -20.9 -83.9 L-16.65 -88.25 -16.15 -88.95 M50.35 25.9 L43.9 23.0 43.25 23.35 42.05 23.85 42.65 22.35 43.15 22.6 43.25 23.35 43.15 22.6 43.05 21.45 47.5 13.8 43.05 21.45 43.15 22.6 43.9 23.0 47.1 21.0 43.9 23.0 43.15 22.6 42.65 22.35 42.05 23.85 43.25 23.35 43.9 23.0 50.35 25.9 M42.3 14.5 L43.05 21.45 42.65 22.35 36.25 18.95 42.65 22.35 43.05 21.45 42.3 14.5 M32.9 -45.45 L26.3 -39.1 29.6 -31.15 Q31.7 -26.15 33.2 -20.9 34.05 -17.9 36.45 -16.3 L42.55 -17.05 Q46.95 -12.0 50.3 -6.25 51.65 -4.0 50.95 -1.55 L47.65 0.6 50.95 -1.55 Q51.65 -4.0 50.3 -6.25 46.95 -12.0 42.55 -17.05 L36.45 -16.3 Q34.05 -17.9 33.2 -20.9 31.7 -26.15 29.6 -31.15 L26.3 -39.1 32.9 -45.45 M6.05 -49.25 L13.4 -55.55 10.65 -57.3 Q6.7 -59.35 4.95 -62.9 L8.05 -66.3 4.95 -62.9 Q6.7 -59.35 10.65 -57.3 L13.4 -55.55 6.05 -49.25 M16.75 70.05 L18.0 71.3 Q22.9 75.65 29.55 75.75 22.9 75.65 18.0 71.3 L16.75 70.05 M-58.45 48.6 L-58.95 55.55 -64.5 54.3 -58.95 55.55 -58.45 48.6 M-59.75 62.5 L-58.95 55.55 -53.75 55.5 Q-53.0 55.65 -52.45 56.1 -51.8 56.6 -51.3 57.3 -46.15 65.05 -40.3 72.6 L-40.55 73.8 -43.65 76.4 -40.95 77.65 -43.65 76.4 -40.55 73.8 -40.3 72.6 Q-46.15 65.05 -51.3 57.3 -51.8 56.6 -52.45 56.1 -53.0 55.65 -53.75 55.5 L-58.95 55.55 -59.75 62.5 M-35.6 -53.7 L-49.05 -41.7 -39.65 -42.95 -41.75 -41.0 Q-47.8 -33.75 -53.05 -25.9 L-45.65 -27.8 -57.1 -14.55 -50.35 -15.8 -57.1 -14.55 -45.65 -27.8 -53.05 -25.9 Q-47.8 -33.75 -41.75 -41.0 L-39.65 -42.95 -49.05 -41.7 -35.6 -53.7 M37.6 25.25 L42.05 23.85 38.95 29.05 42.05 23.85 37.6 25.25 M65.8 63.75 Q60.1 61.05 54.4 57.95 52.45 56.95 50.4 56.5 46.45 56.05 44.15 53.55 L43.25 23.35 44.15 53.55 Q46.45 56.05 50.4 56.5 52.45 56.95 54.4 57.95 60.1 61.05 65.8 63.75" fill="url(#gradient0)" fill-rule="evenodd" stroke="none"/>
    <path d="M45.35 87.75 Q51.95 84.25 57.65 79.75 61.45 76.8 64.05 72.85 71.45 61.45 68.65 48.0 66.0 35.35 62.9 22.75 60.25 12.15 56.3 2.1 L47.25 -21.05 Q42.95 -32.2 36.45 -42.35 30.25 -51.95 22.6 -60.5 14.4 -69.65 4.25 -76.35 -5.65 -83.05 -16.15 -88.95 M-16.65 -88.25 L-20.9 -83.9 Q-29.2 -75.1 -36.6 -65.4 -43.85 -56.0 -49.5 -45.45 -55.5 -34.1 -58.8 -21.75 -61.35 -12.25 -63.25 -2.6 -65.5 8.9 -67.2 20.55 -68.3 27.9 -68.95 35.35 -70.0 47.9 -66.1 59.65 -62.45 70.8 -53.85 79.05 -51.3 81.55 -48.2 83.15 -41.9 86.1 -35.15 88.25 M-24.2 86.2 L-44.6 57.25 Q-50.5 48.7 -53.6 39.1 -55.95 31.75 -56.7 24.1 -57.7 13.85 -55.65 3.7 -54.55 -1.6 -52.75 -6.65 -39.6 -43.5 -13.3 -72.7 L-10.0 -69.05 Q-1.95 -59.9 4.7 -50.0 11.45 -40.0 16.85 -29.35 22.35 -18.5 26.35 -7.05 30.05 3.65 31.55 15.2 33.2 28.2 31.3 41.05 29.6 52.7 22.1 61.7 M21.9 62.0 L5.8 79.25 0.75 84.5 M5.8 79.25 L4.7 79.55 M-9.3 99.65 L-10.1 101.65 -10.7 100.95 -24.2 86.2 M-9.3 99.65 L-8.35 97.55 Q-4.9 90.35 0.75 84.5" fill="none" stroke="#000000" stroke-linecap="round" stroke-linejoin="round" stroke-width="1.0"/>
    <path d="M8.05 -66.3 L4.95 -62.9 Q6.7 -59.35 10.65 -57.3 L13.4 -55.55 6.05 -49.25 M47.65 0.6 L50.95 -1.55 Q51.65 -4.0 50.3 -6.25 46.95 -12.0 42.55 -17.05 L36.45 -16.3 Q34.05 -17.9 33.2 -20.9 31.7 -26.15 29.6 -31.15 L26.3 -39.1 32.9 -45.45 M47.5 13.8 L43.05 21.45 43.15 22.6 43.9 23.0 47.1 21.0 M43.15 22.6 L42.65 22.35 42.05 23.85 43.25 23.35 43.15 22.6 M36.25 18.95 L42.65 22.35 43.05 21.45 42.3 14.5 M43.25 23.35 L43.9 23.0 50.35 25.9 M29.55 75.75 Q22.9 75.65 18.0 71.3 L16.75 70.05 M43.25 23.35 L44.15 53.55 Q46.45 56.05 50.4 56.5 52.45 56.95 54.4 57.95 60.1 61.05 65.8 63.75 M38.95 29.05 L42.05 23.85 37.6 25.25 M-50.35 -15.8 L-57.1 -14.55 -45.65 -27.8 -53.05 -25.9 Q-47.8 -33.75 -41.75 -41.0 L-39.65 -42.95 -49.05 -41.7 -35.6 -53.7 M-40.95 77.65 L-43.65 76.4 -40.55 73.8 -40.3 72.6 Q-46.15 65.05 -51.3 57.3 -51.8 56.6 -52.45 56.1 -53.0 55.65 -53.75 55.5 L-58.95 55.55 -59.75 62.5 M-64.5 54.3 L-58.95 55.55 -58.45 48.6" fill="none" stroke="#33ffff" stroke-linecap="round" stroke-linejoin="round" stroke-width="1.0"/>
  </g>
  <defs>
    <radialGradient cx="0" cy="0" gradientTransform="matrix(0.0859, -0.028, 0.0404, 0.1239, -13.4, -1.9)" gradientUnits="userSpaceOnUse" id="gradient0" r="819.2" spreadMethod="pad">
      <stop offset="0.0" stop-color="#82ddea"/>
      <stop offset="0.8274509803921568" stop-color="#1ed5d3"/>
      <stop offset="1.0" stop-color="#2d8eb3"/>
    </radialGradient>
  </defs>
</svg>
