<?xml version="1.0" encoding="UTF-8" standalone="no"?>
<svg xmlns:xlink="http://www.w3.org/1999/xlink" height="180.75px" width="139.4px" xmlns="http://www.w3.org/2000/svg">
  <g transform="matrix(1.0, 0.0, 0.0, 1.0, 69.55, 89.45)">
    <path d="M-56.85 23.4 L-56.8 24.1 -56.85 24.1 -56.85 23.4" fill="url(#gradient0)" fill-rule="evenodd" stroke="none"/>
    <path d="M-56.85 23.4 Q-56.9 12.85 -55.05 2.4 -53.2 -7.95 -49.0 -17.6 -35.65 -48.1 -13.3 -72.7 L-4.95 -62.95 Q3.05 -53.2 9.6 -42.4 16.2 -31.6 21.4 -20.0 26.25 -9.15 29.3 2.4 32.3 13.65 33.8 25.05 L36.8 50.2 Q37.95 61.35 37.0 72.5 36.85 73.95 36.3 75.25 L32.7 82.7 28.6 86.85 Q20.05 88.9 11.2 89.95 L-10.2 90.75 Q-21.05 90.45 -31.7 88.5 L-36.15 85.75 -40.9 82.05 Q-47.7 75.9 -50.6 67.45 L-55.45 52.35 -56.0 49.55 Q-58.05 36.85 -56.8 24.1 L-56.85 23.4" fill="#000000" fill-rule="evenodd" stroke="none"/>
    <path d="M-16.15 -88.95 Q-5.65 -83.05 4.3 -76.4 13.55 -70.2 21.1 -62.15 L22.6 -60.5 Q31.2 -51.0 37.9 -39.95 L28.9 -36.65 37.9 -39.95 41.6 -33.35 43.1 -30.25 Q47.95 -20.2 51.95 -9.5 L58.65 9.5 Q62.45 20.55 65.1 31.95 67.2 41.15 68.9 50.45 70.2 57.75 67.85 64.75 64.0 76.25 53.75 82.7 L32.7 82.7 36.3 75.25 Q36.85 73.95 37.0 72.5 37.95 61.35 36.8 50.2 L33.8 25.05 Q32.3 13.65 29.3 2.4 26.25 -9.15 21.4 -20.0 16.2 -31.6 9.6 -42.4 3.05 -53.2 -4.95 -62.95 L-13.3 -72.7 Q-35.65 -48.1 -49.0 -17.6 -53.2 -7.95 -55.05 2.4 -56.9 12.85 -56.85 23.4 L-56.85 24.1 -56.8 24.1 Q-58.05 36.85 -56.0 49.55 L-55.45 52.35 -50.6 67.45 Q-47.7 75.9 -40.9 82.05 L-52.35 84.6 -52.75 85.0 Q-60.6 76.35 -64.7 65.3 -69.0 53.75 -69.05 41.55 -69.05 29.5 -67.0 17.65 L-63.6 -2.45 -58.8 -21.7 Q-56.25 -31.25 -52.1 -40.15 L-52.05 -40.25 -49.75 -44.85 -46.55 -50.65 Q-40.55 -61.0 -33.0 -70.25 -25.2 -79.7 -16.65 -88.25 L-16.15 -88.95 M-23.5 -75.8 Q-27.55 -73.2 -29.9 -68.65 L-30.05 -68.25 -28.3 -65.75 Q-31.1 -60.95 -35.05 -56.3 -38.2 -52.45 -40.45 -47.95 L-42.5 -43.8 Q-43.1 -42.6 -44.3 -41.5 L-49.75 -44.85 -44.3 -41.5 Q-43.1 -42.6 -42.5 -43.8 L-40.45 -47.95 Q-38.2 -52.45 -35.05 -56.3 -31.1 -60.95 -28.3 -65.75 L-30.05 -68.25 -29.9 -68.65 Q-27.55 -73.2 -23.5 -75.8 M66.5 46.1 L54.3 45.9 43.5 -5.3 38.15 -5.05 Q36.7 -16.95 30.6 -27.55 L24.2 -27.7 16.1 -51.15 Q17.65 -51.0 18.85 -51.7 21.05 -52.95 20.4 -55.5 L16.8 -58.1 21.1 -62.15 16.8 -58.1 20.4 -55.5 Q21.05 -52.95 18.85 -51.7 17.65 -51.0 16.1 -51.15 L24.2 -27.7 30.6 -27.55 Q36.7 -16.95 38.15 -5.05 L43.5 -5.3 54.3 45.9 66.5 46.1 M35.6 -30.95 L41.6 -33.35 35.6 -30.95 M36.95 41.65 L44.9 40.7 45.6 41.2 45.9 42.5 46.15 46.7 Q46.2 52.6 46.95 58.6 47.05 59.4 46.45 59.75 L44.45 60.2 43.75 61.3 44.6 64.55 Q46.6 65.4 48.35 64.2 51.15 62.15 48.85 59.75 L47.7 59.35 48.85 59.75 Q51.15 62.15 48.35 64.2 46.6 65.4 44.6 64.55 L43.75 61.3 44.45 60.2 46.45 59.75 Q47.05 59.4 46.95 58.6 46.2 52.6 46.15 46.7 L45.9 42.5 45.6 41.2 44.9 40.7 36.95 41.65 M-63.6 -2.45 L-62.9 -2.1 Q-59.95 -1.2 -57.8 -3.6 L-55.8 -10.3 Q-53.9 -16.1 -51.25 -21.65 -48.05 -28.25 -47.75 -35.7 L-52.1 -40.15 -47.75 -35.7 Q-48.05 -28.25 -51.25 -21.65 -53.9 -16.1 -55.8 -10.3 L-57.8 -3.6 Q-59.95 -1.2 -62.9 -2.1 L-63.6 -2.45 M-62.45 66.9 Q-57.05 65.6 -59.3 60.7 -60.4 58.3 -60.85 55.7 L-55.45 52.35 -60.85 55.7 Q-60.4 58.3 -59.3 60.7 -57.05 65.6 -62.45 66.9" fill="url(#gradient1)" fill-rule="evenodd" stroke="none"/>
    <path d="M21.1 -62.15 Q13.55 -70.2 4.3 -76.4 -5.65 -83.05 -16.15 -88.95 M-16.65 -88.25 Q-25.2 -79.7 -33.0 -70.25 -40.55 -61.0 -46.55 -50.65 L-49.75 -44.85 -52.05 -40.25 M37.9 -39.95 Q31.2 -51.0 22.6 -60.5 L21.1 -62.15 M32.7 82.7 L36.3 75.25 Q36.85 73.95 37.0 72.5 37.95 61.35 36.8 50.2 L33.8 25.05 Q32.3 13.65 29.3 2.4 26.25 -9.15 21.4 -20.0 16.2 -31.6 9.6 -42.4 3.05 -53.2 -4.95 -62.95 L-13.3 -72.7 Q-35.65 -48.1 -49.0 -17.6 -53.2 -7.95 -55.05 2.4 -56.9 12.85 -56.85 23.4 L-56.8 24.1 Q-58.05 36.85 -56.0 49.55 L-55.45 52.35 -50.6 67.45 Q-47.7 75.9 -40.9 82.05 L-36.15 85.75 -31.7 88.5 Q-21.05 90.45 -10.2 90.75 L11.2 89.95 Q20.05 88.9 28.6 86.85 L32.7 82.7 53.75 82.7 Q64.0 76.25 67.85 64.75 70.2 57.75 68.9 50.45 67.2 41.15 65.1 31.95 62.45 20.55 58.65 9.5 L51.95 -9.5 Q47.95 -20.2 43.1 -30.25 L41.6 -33.35 37.9 -39.95 M53.75 82.7 L52.8 83.3 53.7 83.35 M-63.6 -2.45 L-67.0 17.65 Q-69.05 29.5 -69.05 41.55 -69.0 53.75 -64.7 65.3 -60.6 76.35 -52.75 85.0 M-52.35 84.6 L-40.9 82.05 M-52.1 -40.15 Q-56.25 -31.25 -58.8 -21.7 L-63.6 -2.45 M-56.85 24.1 L-56.8 24.1" fill="none" stroke="#000000" stroke-linecap="round" stroke-linejoin="round" stroke-width="1.0"/>
    <path d="M-49.75 -44.85 L-44.3 -41.5 Q-43.1 -42.6 -42.5 -43.8 L-40.45 -47.95 Q-38.2 -52.45 -35.05 -56.3 -31.1 -60.95 -28.3 -65.75 L-30.05 -68.25 -29.9 -68.65 Q-27.55 -73.2 -23.5 -75.8 M21.1 -62.15 L16.8 -58.1 20.4 -55.5 Q21.05 -52.95 18.85 -51.7 17.65 -51.0 16.1 -51.15 L24.2 -27.7 30.6 -27.55 Q36.7 -16.95 38.15 -5.05 L43.5 -5.3 54.3 45.9 66.5 46.1 M41.6 -33.35 L35.6 -30.95 M37.9 -39.95 L28.9 -36.65 M41.6 -33.35 L42.3 -33.5 M47.7 59.35 L48.85 59.75 Q51.15 62.15 48.35 64.2 46.6 65.4 44.6 64.55 L43.75 61.3 44.45 60.2 46.45 59.75 Q47.05 59.4 46.95 58.6 46.2 52.6 46.15 46.7 L45.9 42.5 45.6 41.2 44.9 40.7 36.95 41.65 M-52.05 -40.25 L-52.1 -40.15 -47.75 -35.7 Q-48.05 -28.25 -51.25 -21.65 -53.9 -16.1 -55.8 -10.3 L-57.8 -3.6 Q-59.95 -1.2 -62.9 -2.1 L-63.6 -2.45 M-55.45 52.35 L-60.85 55.7 Q-60.4 58.3 -59.3 60.7 -57.05 65.6 -62.45 66.9" fill="none" stroke="#990000" stroke-linecap="round" stroke-linejoin="round" stroke-width="1.0"/>
  </g>
  <defs>
    <radialGradient cx="0" cy="0" gradientTransform="matrix(0.0794, -0.0259, 0.0376, 0.1151, -16.85, 8.35)" gradientUnits="userSpaceOnUse" id="gradient0" r="819.2" spreadMethod="pad">
      <stop offset="0.0" stop-color="#efefef"/>
      <stop offset="0.8274509803921568" stop-color="#dadae2"/>
      <stop offset="1.0" stop-color="#9d9da2"/>
    </radialGradient>
    <radialGradient cx="0" cy="0" gradientTransform="matrix(0.0794, -0.0259, 0.0376, 0.1151, -16.85, 8.35)" gradientUnits="userSpaceOnUse" id="gradient1" r="819.2" spreadMethod="pad">
      <stop offset="0.0" stop-color="#a51616"/>
      <stop offset="0.8274509803921568" stop-color="#720101"/>
      <stop offset="1.0" stop-color="#410101"/>
    </radialGradient>
  </defs>
</svg>
