<?xml version="1.0" encoding="UTF-8" standalone="no"?>
<svg
   height="60.0px"
   width="60.0px"
   version="1.1"
   id="svg26"
   sodipodi:docname="AetherThick5.svg"
   inkscape:version="1.1.2 (b8e25be833, 2022-02-05)"
   xmlns:inkscape="http://www.inkscape.org/namespaces/inkscape"
   xmlns:sodipodi="http://sodipodi.sourceforge.net/DTD/sodipodi-0.dtd"
   xmlns:xlink="http://www.w3.org/1999/xlink"
   xmlns="http://www.w3.org/2000/svg"
   xmlns:svg="http://www.w3.org/2000/svg">
  <sodipodi:namedview
     id="namedview28"
     pagecolor="#ffffff"
     bordercolor="#666666"
     borderopacity="1.0"
     inkscape:pageshadow="2"
     inkscape:pageopacity="0.0"
     inkscape:pagecheckerboard="0"
     showgrid="false"
     inkscape:zoom="13.85"
     inkscape:cx="30"
     inkscape:cy="30.036101"
     inkscape:window-width="1920"
     inkscape:window-height="1017"
     inkscape:window-x="-8"
     inkscape:window-y="-8"
     inkscape:window-maximized="1"
     inkscape:current-layer="svg26" />
  <g
     transform="matrix(1.0, 0.0, 0.0, 1.0, 30.0, 30.0)"
     id="g8">
    <path
       d="M30.0 0.0 Q30.0 12.35 21.2 21.2 12.35 30.0 0.0 30.0 -12.4 30.0 -21.2 21.2 -30.05 12.35 -30.0 0.0 -30.05 -12.4 -21.2 -21.2 -12.4 -30.0 0.0 -30.0 12.35 -30.0 21.2 -21.2 30.0 -12.4 30.0 0.0"
       fill="url(#gradient0)"
       fill-rule="evenodd"
       stroke="none"
       id="path2" />
    <path
       d="M17.7 -17.65 Q25.0 -10.35 25.0 0.0 25.0 10.35 17.7 17.7 10.35 25.0 0.0 25.0 -10.35 25.0 -17.65 17.7 -25.0 10.35 -25.0 0.0 -25.0 -10.35 -17.65 -17.65 -10.35 -25.0 0.0 -25.0 10.35 -25.0 17.7 -17.65 M-0.05 -24.75 Q3.3 -20.15 2.15 -15.5 1.55 -13.3 -0.05 -11.0 -1.2 -9.1 -1.6 -7.0 -2.25 -3.25 -0.05 1.0 -2.25 -3.25 -1.6 -7.0 -1.2 -9.1 -0.05 -11.0 1.55 -13.3 2.15 -15.5 3.3 -20.15 -0.05 -24.75"
       fill="url(#gradient1)"
       fill-rule="evenodd"
       stroke="none"
       id="path4"
       style="fill-opacity:1.0" />
    <path
       d="M17.7 -17.65 Q25.0 -10.35 25.0 0.0 25.0 10.35 17.7 17.7 10.35 25.0 0.0 25.0 -10.35 25.0 -17.65 17.7 -25.0 10.35 -25.0 0.0 -25.0 -10.35 -17.65 -17.65 -10.35 -25.0 0.0 -25.0 10.35 -25.0 17.7 -17.65 M-0.05 1.0 Q-2.25 -3.25 -1.6 -7.0 -1.2 -9.1 -0.05 -11.0 1.55 -13.3 2.15 -15.5 3.3 -20.15 -0.05 -24.75"
       fill="none"
       stroke="#00ffcc"
       stroke-linecap="round"
       stroke-linejoin="round"
       stroke-width="0.05"
       id="path6"
       style="stroke-width:1;stroke-miterlimit:4;stroke-dasharray:none" />
  </g>
  <defs
     id="defs24">
    <radialGradient
       cx="0"
       cy="0"
       gradientTransform="matrix(0.0365, 0.0, 0.0, 0.0365, -0.5, 0.0)"
       gradientUnits="userSpaceOnUse"
       id="gradient0"
       r="819.2"
       spreadMethod="pad">
      <stop
         offset="0.5019607843137255"
         stop-color="#48ecc7"
         stop-opacity="0.0"
         id="stop10" />
      <stop
         offset="0.7490196078431373"
         stop-color="#04fbe8"
         stop-opacity="0.28235295"
         id="stop12" />
      <stop
         offset="0.8941176470588236"
         stop-color="#12ed9a"
         stop-opacity="0.22352941"
         id="stop14" />
      <stop
         offset="1.0"
         stop-color="#42e1d5"
         stop-opacity="0.0"
         id="stop16" />
    </radialGradient>
    <radialGradient
       cx="0"
       cy="0"
       gradientTransform="matrix(0.0312,0,0,0.0312,-0.5,0)"
       gradientUnits="userSpaceOnUse"
       id="gradient1"
       r="819.20001"
       spreadMethod="pad"
       xlink:href="#gradient0">
      <stop
         offset="0.5019607843137255"
         stop-color="#10b89e"
         stop-opacity="0.0"
         id="stop19" />
      <stop
         offset="1.0"
         stop-color="#04fbe8"
         stop-opacity="0.4"
         id="stop21" />
    </radialGradient>
  </defs>
</svg>
