<?xml version="1.0" encoding="UTF-8" standalone="no"?>
<svg
   height="60.0px"
   width="60.0px"
   version="1.1"
   id="svg33"
   sodipodi:docname="Air.svg"
   inkscape:version="1.1.2 (b8e25be833, 2022-02-05)"
   xmlns:inkscape="http://www.inkscape.org/namespaces/inkscape"
   xmlns:sodipodi="http://sodipodi.sourceforge.net/DTD/sodipodi-0.dtd"
   xmlns="http://www.w3.org/2000/svg"
   xmlns:svg="http://www.w3.org/2000/svg">
  <sodipodi:namedview
     id="namedview35"
     pagecolor="#ffffff"
     bordercolor="#666666"
     borderopacity="1.0"
     inkscape:pageshadow="2"
     inkscape:pageopacity="0.0"
     inkscape:pagecheckerboard="0"
     showgrid="false"
     inkscape:zoom="13.85"
     inkscape:cx="30"
     inkscape:cy="30.036101"
     inkscape:window-width="1920"
     inkscape:window-height="1017"
     inkscape:window-x="-8"
     inkscape:window-y="-8"
     inkscape:window-maximized="1"
     inkscape:current-layer="svg33" />
  <g
     transform="matrix(1.0, 0.0, 0.0, 1.0, 30.0, 30.0)"
     id="g10">
    <path
       d="M30.0 0.0 Q30.0 12.35 21.2 21.2 12.35 30.0 0.0 30.0 -12.4 30.0 -21.2 21.2 -30.05 12.35 -30.0 0.0 -30.05 -12.4 -21.2 -21.2 -12.4 -30.0 0.0 -30.0 12.35 -30.0 21.2 -21.2 30.0 -12.4 30.0 0.0"
       fill="url(#gradient0)"
       fill-rule="evenodd"
       stroke="none"
       id="path2" />
    <path
       d="M17.7 -17.65 Q25.0 -10.35 25.0 0.0 25.0 10.35 17.7 17.7 10.35 25.0 0.0 25.0 -10.35 25.0 -17.65 17.7 -25.0 10.35 -25.0 0.0 -25.0 -10.35 -17.65 -17.65 -10.35 -25.0 0.0 -25.0 10.35 -25.0 17.7 -17.65 M0.0 23.75 L20.55 -11.85 -20.55 -11.85 0.0 23.75"
       fill="url(#gradient1)"
       fill-rule="evenodd"
       stroke="none"
       id="path4" />
    <path
       d="M0.0 23.75 L-20.55 -11.85 20.55 -11.85 0.0 23.75"
       fill="url(#gradient2)"
       fill-rule="evenodd"
       stroke="none"
       id="path6" />
    <path
       d="M17.7 -17.65 Q25.0 -10.35 25.0 0.0 25.0 10.35 17.7 17.7 10.35 25.0 0.0 25.0 -10.35 25.0 -17.65 17.7 -25.0 10.35 -25.0 0.0 -25.0 -10.35 -17.65 -17.65 -10.35 -25.0 0.0 -25.0 10.35 -25.0 17.7 -17.65 M0.0 23.75 L-20.55 -11.85 20.55 -11.85 0.0 23.75"
       fill="none"
       stroke="#ffffcc"
       stroke-linecap="round"
       stroke-linejoin="round"
       stroke-width="0.05"
       id="path8"
       style="stroke-width:0.25;stroke-miterlimit:4;stroke-dasharray:none" />
  </g>
  <defs
     id="defs31">
    <radialGradient
       cx="0"
       cy="0"
       gradientTransform="matrix(0.0365, 0.0, 0.0, 0.0365, -0.5, 0.0)"
       gradientUnits="userSpaceOnUse"
       id="gradient0"
       r="819.2"
       spreadMethod="pad">
      <stop
         offset="0.5019607843137255"
         stop-color="#ffffff"
         stop-opacity="0.0"
         id="stop12" />
      <stop
         offset="0.7490196078431373"
         stop-color="#fdfdac"
         stop-opacity="0.28235295"
         id="stop14" />
      <stop
         offset="0.8941176470588236"
         stop-color="#fefe67"
         stop-opacity="0.22352941"
         id="stop16" />
      <stop
         offset="1.0"
         stop-color="#ffffff"
         stop-opacity="0.0"
         id="stop18" />
    </radialGradient>
    <radialGradient
       cx="0"
       cy="0"
       gradientTransform="matrix(0.0312, 0.0, 0.0, 0.0312, -0.5, 0.0)"
       gradientUnits="userSpaceOnUse"
       id="gradient1"
       r="819.2"
       spreadMethod="pad">
      <stop
         offset="0.5019607843137255"
         stop-color="#ffffff"
         stop-opacity="0.0"
         id="stop21" />
      <stop
         offset="1.0"
         stop-color="#fefe67"
         stop-opacity="0.2901961"
         id="stop23" />
    </radialGradient>
    <radialGradient
       cx="0"
       cy="0"
       gradientTransform="matrix(0.0332, 0.0, 0.0, 0.0332, 0.0, 5.95)"
       gradientUnits="userSpaceOnUse"
       id="gradient2"
       r="819.2"
       spreadMethod="pad">
      <stop
         offset="0.5019607843137255"
         stop-color="#ffffff"
         stop-opacity="0.0"
         id="stop26" />
      <stop
         offset="1.0"
         stop-color="#fefe67"
         stop-opacity="0.2901961"
         id="stop28" />
    </radialGradient>
  </defs>
</svg>
