<?xml version="1.0" encoding="UTF-8" standalone="no"?>
<svg xmlns:xlink="http://www.w3.org/1999/xlink" height="60.0px" width="60.0px" xmlns="http://www.w3.org/2000/svg">
  <g transform="matrix(1.0, 0.0, 0.0, 1.0, 30.0, 30.0)">
    <path d="M30.0 0.0 Q30.0 12.35 21.2 21.2 12.35 30.0 0.0 30.0 -12.4 30.0 -21.2 21.2 -30.05 12.35 -30.0 0.0 -30.05 -12.4 -21.2 -21.2 -12.4 -30.0 0.0 -30.0 12.35 -30.0 21.2 -21.2 30.0 -12.4 30.0 0.0" fill="url(#gradient0)" fill-rule="evenodd" stroke="none"/>
    <path d="M17.7 -17.65 Q25.0 -10.35 25.0 0.0 25.0 10.35 17.7 17.7 10.35 25.0 0.0 25.0 -10.35 25.0 -17.65 17.7 -25.0 10.35 -25.0 0.0 -25.0 -10.35 -17.65 -17.65 -10.35 -25.0 0.0 -25.0 10.35 -25.0 17.7 -17.65 M21.0 0.0 Q21.0 -8.7 14.85 -14.9 8.7 -21.05 0.0 -21.0 -8.7 -21.05 -14.85 -14.9 -21.0 -8.7 -21.0 0.0 -21.0 8.65 -14.85 14.8 -8.7 21.0 0.0 21.0 8.7 21.0 14.85 14.8 21.0 8.65 21.0 0.0" fill="url(#gradient1)" fill-rule="evenodd" stroke="none"/>
    <path d="M21.0 0.0 Q21.0 8.65 14.85 14.8 8.7 21.0 0.0 21.0 -8.7 21.0 -14.85 14.8 -21.0 8.65 -21.0 0.0 -21.0 -8.7 -14.85 -14.9 -8.7 -21.05 0.0 -21.0 8.7 -21.05 14.85 -14.9 21.0 -8.7 21.0 0.0" fill="url(#gradient2)" fill-rule="evenodd" stroke="none"/>
    <path d="M17.7 -17.65 Q25.0 -10.35 25.0 0.0 25.0 10.35 17.7 17.7 10.35 25.0 0.0 25.0 -10.35 25.0 -17.65 17.7 -25.0 10.35 -25.0 0.0 -25.0 -10.35 -17.65 -17.65 -10.35 -25.0 0.0 -25.0 10.35 -25.0 17.7 -17.65 M21.0 0.0 Q21.0 8.65 14.85 14.8 8.7 21.0 0.0 21.0 -8.7 21.0 -14.85 14.8 -21.0 8.65 -21.0 0.0 -21.0 -8.7 -14.85 -14.9 -8.7 -21.05 0.0 -21.0 8.7 -21.05 14.85 -14.9 21.0 -8.7 21.0 0.0" fill="none" stroke="#000000" stroke-linecap="round" stroke-linejoin="round" stroke-width="0.05"/>
  </g>
  <defs>
    <radialGradient cx="0" cy="0" gradientTransform="matrix(0.0365, 0.0, 0.0, 0.0365, -0.5, 0.0)" gradientUnits="userSpaceOnUse" id="gradient0" r="819.2" spreadMethod="pad">
      <stop offset="0.5019607843137255" stop-color="#8358be" stop-opacity="0.0"/>
      <stop offset="0.7372549019607844" stop-color="#110f20" stop-opacity="0.34117648"/>
      <stop offset="0.8941176470588236" stop-color="#523896" stop-opacity="0.3019608"/>
      <stop offset="1.0" stop-color="#2b3173" stop-opacity="0.0"/>
    </radialGradient>
    <radialGradient cx="0" cy="0" gradientTransform="matrix(0.0312, 0.0, 0.0, 0.0312, -0.5, 0.0)" gradientUnits="userSpaceOnUse" id="gradient1" r="819.2" spreadMethod="pad">
      <stop offset="0.5019607843137255" stop-color="#8358be" stop-opacity="0.0"/>
      <stop offset="1.0" stop-color="#000000" stop-opacity="0.4"/>
    </radialGradient>
    <radialGradient cx="0" cy="0" gradientTransform="matrix(0.0267, 0.0, 0.0, 0.0267, 0.0, 0.0)" gradientUnits="userSpaceOnUse" id="gradient2" r="819.2" spreadMethod="pad">
      <stop offset="0.0" stop-color="#231a40" stop-opacity="0.6117647"/>
      <stop offset="1.0" stop-color="#0a0710" stop-opacity="0.72156864"/>
    </radialGradient>
  </defs>
</svg>
