<?xml version="1.0" encoding="UTF-8" standalone="no"?>
<svg xmlns:xlink="http://www.w3.org/1999/xlink" height="60.0px" width="60.0px" xmlns="http://www.w3.org/2000/svg">
  <g transform="matrix(1.0, 0.0, 0.0, 1.0, 30.0, 30.0)">
    <path d="M30.0 0.0 Q30.0 12.35 21.2 21.2 12.35 30.0 0.0 30.0 -12.4 30.0 -21.2 21.2 -30.05 12.35 -30.0 0.0 -30.05 -12.4 -21.2 -21.2 -12.4 -30.0 0.0 -30.0 12.35 -30.0 21.2 -21.2 30.0 -12.4 30.0 0.0" fill="url(#gradient0)" fill-rule="evenodd" stroke="none"/>
    <path d="M8.35 -8.35 Q4.9 -11.8 0.0 -11.8 -4.9 -11.8 -8.35 -8.35 -11.8 -4.9 -11.75 0.0 L-11.75 0.5 -15.3 0.5 -15.3 0.0 Q-15.35 -6.4 -10.85 -10.9 -6.35 -15.35 0.0 -15.35 6.35 -15.35 10.85 -10.9 15.35 -6.4 15.35 0.0 L15.35 0.5 11.8 0.5 11.8 0.0 Q11.8 -4.9 8.35 -8.35 11.8 -4.9 11.8 0.0 L11.8 0.5 15.35 0.5 15.35 0.0 Q15.35 -6.4 10.85 -10.9 6.35 -15.35 0.0 -15.35 -6.35 -15.35 -10.85 -10.9 -15.35 -6.4 -15.3 0.0 L-15.3 0.5 -11.75 0.5 -11.75 0.0 Q-11.8 -4.9 -8.35 -8.35 -4.9 -11.8 0.0 -11.8 4.9 -11.8 8.35 -8.35 M17.7 -17.65 Q25.0 -10.35 25.0 0.0 L25.0 0.5 Q24.8 10.55 17.7 17.7 10.35 25.0 0.0 25.0 L-0.05 25.0 Q-10.4 25.0 -17.65 17.7 -24.8 10.55 -25.0 0.5 L-25.0 0.0 Q-25.0 -10.35 -17.65 -17.65 -10.35 -25.0 0.0 -25.0 10.35 -25.0 17.7 -17.65 M-11.75 0.5 L11.8 0.5 -11.75 0.5 M11.45 4.0 L-0.05 4.0 -3.75 11.0 3.65 19.5 -0.05 25.0 3.65 19.5 -3.75 11.0 -0.05 4.0 -11.8 4.0 -0.05 4.0 11.45 4.0 M-25.0 0.5 L-15.3 0.5 -25.0 0.5 M15.35 0.5 L25.0 0.5 15.35 0.5" fill="url(#gradient1)" fill-rule="evenodd" stroke="none"/>
    <path d="M8.35 -8.35 Q11.8 -4.9 11.8 0.0 L11.8 0.5 15.35 0.5 15.35 0.0 Q15.35 -6.4 10.85 -10.9 6.35 -15.35 0.0 -15.35 -6.35 -15.35 -10.85 -10.9 -15.35 -6.4 -15.3 0.0 L-15.3 0.5 -11.75 0.5 -11.75 0.0 Q-11.8 -4.9 -8.35 -8.35 -4.9 -11.8 0.0 -11.8 4.9 -11.8 8.35 -8.35 M17.7 -17.65 Q25.0 -10.35 25.0 0.0 L25.0 0.5 Q24.8 10.55 17.7 17.7 10.35 25.0 0.0 25.0 L-0.05 25.0 Q-10.4 25.0 -17.65 17.7 -24.8 10.55 -25.0 0.5 L-25.0 0.0 Q-25.0 -10.35 -17.65 -17.65 -10.35 -25.0 0.0 -25.0 10.35 -25.0 17.7 -17.65 M25.0 0.5 L15.35 0.5 M-0.05 25.0 L3.65 19.5 -3.75 11.0 -0.05 4.0 -11.8 4.0 M-15.3 0.5 L-25.0 0.5 M-0.05 4.0 L11.45 4.0 M11.8 0.5 L-11.75 0.5" fill="none" stroke="#00ff00" stroke-linecap="round" stroke-linejoin="round" stroke-width="0.05"/>
  </g>
  <defs>
    <radialGradient cx="0" cy="0" gradientTransform="matrix(0.0365, 0.0, 0.0, 0.0365, -0.5, 0.0)" gradientUnits="userSpaceOnUse" id="gradient0" r="819.2" spreadMethod="pad">
      <stop offset="0.5019607843137255" stop-color="#54cf63" stop-opacity="0.0"/>
      <stop offset="0.7490196078431373" stop-color="#41ae37" stop-opacity="0.28235295"/>
      <stop offset="0.8941176470588236" stop-color="#44ed12" stop-opacity="0.22352941"/>
      <stop offset="1.0" stop-color="#549935" stop-opacity="0.0"/>
    </radialGradient>
    <radialGradient cx="0" cy="0" gradientTransform="matrix(0.0312, 0.0, 0.0, 0.0312, -0.5, 0.0)" gradientUnits="userSpaceOnUse" id="gradient1" r="819.2" spreadMethod="pad">
      <stop offset="0.5019607843137255" stop-color="#3f9137" stop-opacity="0.0"/>
      <stop offset="1.0" stop-color="#44ed12" stop-opacity="0.4"/>
    </radialGradient>
  </defs>
</svg>
