<?xml version="1.0" encoding="UTF-8" standalone="no"?>
<svg xmlns:xlink="http://www.w3.org/1999/xlink" height="60.0px" width="60.0px" xmlns="http://www.w3.org/2000/svg">
  <g transform="matrix(1.0, 0.0, 0.0, 1.0, 30.0, 30.0)">
    <path d="M30.0 0.0 Q30.0 12.35 21.2 21.2 12.35 30.0 0.0 30.0 -12.4 30.0 -21.2 21.2 -30.05 12.35 -30.0 0.0 -30.05 -12.4 -21.2 -21.2 -12.4 -30.0 0.0 -30.0 12.35 -30.0 21.2 -21.2 30.0 -12.4 30.0 0.0" fill="url(#gradient0)" fill-rule="evenodd" stroke="none"/>
    <path d="M0.25 -25.0 L0.5 -25.0 0.9 -24.95 Q10.65 -24.7 17.7 -17.65 25.0 -10.35 25.0 0.0 25.0 9.65 18.65 16.65 L17.7 17.7 Q10.35 25.0 0.0 25.0 -10.35 25.0 -17.65 17.7 L-18.65 16.65 Q-25.0 9.65 -25.0 0.0 -25.0 -10.35 -17.65 -17.65 -10.6 -24.75 -0.6 -25.0 L-0.3 -25.0 -0.25 -25.0 0.0 -25.0 0.25 -25.0 M-4.2 -0.65 Q-2.35 -0.05 -0.25 0.0 L0.0 0.0 Q2.25 0.0 4.2 -0.65 6.75 -1.55 8.85 -3.65 12.5 -7.3 12.5 -12.5 12.5 -17.7 8.85 -21.35 5.5 -24.7 0.9 -24.95 5.5 -24.7 8.85 -21.35 12.5 -17.7 12.5 -12.5 12.5 -7.3 8.85 -3.65 6.75 -1.55 4.2 -0.65 6.4 14.45 18.65 16.65 6.4 14.45 4.2 -0.65 2.25 0.0 0.0 0.0 L0.0 25.0 0.0 0.0 -0.25 0.0 Q-2.35 -0.05 -4.2 -0.65 -6.45 14.45 -18.65 16.65 -6.45 14.45 -4.2 -0.65 -6.8 -1.6 -8.85 -3.65 -12.5 -7.3 -12.5 -12.5 -12.5 -17.7 -8.85 -21.35 -5.45 -24.75 -0.6 -25.0 -5.45 -24.75 -8.85 -21.35 -12.5 -17.7 -12.5 -12.5 -12.5 -7.3 -8.85 -3.65 -6.8 -1.6 -4.2 -0.65 M-0.25 -25.0 L-0.3 -25.0 Q-2.2 -24.9 -3.55 -23.55 -5.0 -22.1 -5.0 -20.0 -5.0 -17.9 -3.55 -16.45 -2.1 -15.0 0.0 -15.0 2.1 -15.0 3.55 -16.45 5.0 -17.9 5.0 -20.0 5.0 -22.1 3.55 -23.55 2.25 -24.85 0.5 -25.0 2.25 -24.85 3.55 -23.55 5.0 -22.1 5.0 -20.0 5.0 -17.9 3.55 -16.45 2.1 -15.0 0.0 -15.0 -2.1 -15.0 -3.55 -16.45 -5.0 -17.9 -5.0 -20.0 -5.0 -22.1 -3.55 -23.55 -2.2 -24.9 -0.3 -25.0 L-0.25 -25.0" fill="url(#gradient1)" fill-rule="evenodd" stroke="none"/>
    <path d="M0.25 -25.0 L0.5 -25.0 0.9 -24.95 Q10.65 -24.7 17.7 -17.65 25.0 -10.35 25.0 0.0 25.0 9.65 18.65 16.65 L17.7 17.7 Q10.35 25.0 0.0 25.0 -10.35 25.0 -17.65 17.7 L-18.65 16.65 Q-25.0 9.65 -25.0 0.0 -25.0 -10.35 -17.65 -17.65 -10.6 -24.75 -0.6 -25.0 L-0.3 -25.0 -0.25 -25.0 0.0 -25.0 0.25 -25.0 M0.5 -25.0 Q2.25 -24.85 3.55 -23.55 5.0 -22.1 5.0 -20.0 5.0 -17.9 3.55 -16.45 2.1 -15.0 0.0 -15.0 -2.1 -15.0 -3.55 -16.45 -5.0 -17.9 -5.0 -20.0 -5.0 -22.1 -3.55 -23.55 -2.2 -24.9 -0.3 -25.0 L-0.25 -25.0 M0.9 -24.95 Q5.5 -24.7 8.85 -21.35 12.5 -17.7 12.5 -12.5 12.5 -7.3 8.85 -3.65 6.75 -1.55 4.2 -0.65 6.4 14.45 18.65 16.65 M4.2 -0.65 Q2.25 0.0 0.0 0.0 L0.0 25.0 M-18.65 16.65 Q-6.45 14.45 -4.2 -0.65 -6.8 -1.6 -8.85 -3.65 -12.5 -7.3 -12.5 -12.5 -12.5 -17.7 -8.85 -21.35 -5.45 -24.75 -0.6 -25.0 M0.0 0.0 L-0.25 0.0 Q-2.35 -0.05 -4.2 -0.65" fill="none" stroke="#bf44ff" stroke-linecap="round" stroke-linejoin="round" stroke-width="0.05"/>
  </g>
  <defs>
    <radialGradient cx="0" cy="0" gradientTransform="matrix(0.0365, 0.0, 0.0, 0.0365, -0.5, 0.0)" gradientUnits="userSpaceOnUse" id="gradient0" r="819.2" spreadMethod="pad">
      <stop offset="0.5019607843137255" stop-color="#e849e9" stop-opacity="0.0"/>
      <stop offset="0.7490196078431373" stop-color="#be58eb" stop-opacity="0.28235295"/>
      <stop offset="0.8941176470588236" stop-color="#b32bd5" stop-opacity="0.22352941"/>
      <stop offset="1.0" stop-color="#d53ae7" stop-opacity="0.0"/>
    </radialGradient>
    <radialGradient cx="0" cy="0" gradientTransform="matrix(0.0312, 0.0, 0.0, 0.0312, -0.5, 0.0)" gradientUnits="userSpaceOnUse" id="gradient1" r="819.2" spreadMethod="pad">
      <stop offset="0.5019607843137255" stop-color="#6a3988" stop-opacity="0.0"/>
      <stop offset="1.0" stop-color="#a944bb" stop-opacity="0.4"/>
    </radialGradient>
  </defs>
</svg>
