<?xml version="1.0" encoding="UTF-8" standalone="no"?>
<svg
   height="60.0px"
   width="60.0px"
   version="1.1"
   id="svg26"
   sodipodi:docname="FireBlur.svg"
   inkscape:version="1.1.2 (b8e25be833, 2022-02-05)"
   xmlns:inkscape="http://www.inkscape.org/namespaces/inkscape"
   xmlns:sodipodi="http://sodipodi.sourceforge.net/DTD/sodipodi-0.dtd"
   xmlns="http://www.w3.org/2000/svg"
   xmlns:svg="http://www.w3.org/2000/svg">
  <sodipodi:namedview
     id="namedview28"
     pagecolor="#ffffff"
     bordercolor="#666666"
     borderopacity="1.0"
     inkscape:pageshadow="2"
     inkscape:pageopacity="0.0"
     inkscape:pagecheckerboard="0"
     showgrid="false"
     inkscape:zoom="9.7934289"
     inkscape:cx="19.451818"
     inkscape:cy="32.77708"
     inkscape:window-width="1920"
     inkscape:window-height="1017"
     inkscape:window-x="-8"
     inkscape:window-y="-8"
     inkscape:window-maximized="1"
     inkscape:current-layer="svg26" />
  <g
     transform="matrix(1.0, 0.0, 0.0, 1.0, 30.0, 30.0)"
     id="g8">
    <path
       d="M30.0 0.0 Q30.0 12.35 21.2 21.2 12.35 30.0 0.0 30.0 -12.4 30.0 -21.2 21.2 -30.05 12.35 -30.0 0.0 -30.05 -12.4 -21.2 -21.2 -12.4 -30.0 0.0 -30.0 12.35 -30.0 21.2 -21.2 30.0 -12.4 30.0 0.0"
       fill="url(#gradient0)"
       fill-rule="evenodd"
       stroke="none"
       id="path2" />
    <path
       d="M17.7 -17.65 Q25.0 -10.35 25.0 0.0 25.0 10.35 17.7 17.7 10.35 25.0 0.0 25.0 -10.35 25.0 -17.65 17.7 -25.0 10.35 -25.0 0.0 -25.0 -10.35 -17.65 -17.65 -10.35 -25.0 0.0 -25.0 10.35 -25.0 17.7 -17.65 M-11.3 -13.75 Q-7.95 -9.15 -9.1 -4.5 -9.7 -2.3 -11.3 0.0 -12.45 1.9 -12.85 4.0 -13.5 7.75 -11.3 12.0 -13.5 7.75 -12.85 4.0 -12.45 1.9 -11.3 0.0 -9.7 -2.3 -9.1 -4.5 -7.95 -9.15 -11.3 -13.75 M11.2 -13.75 Q14.55 -9.15 13.4 -4.5 12.8 -2.3 11.2 0.0 10.05 1.9 9.65 4.0 9.0 7.75 11.2 12.0 9.0 7.75 9.65 4.0 10.05 1.9 11.2 0.0 12.8 -2.3 13.4 -4.5 14.55 -9.15 11.2 -13.75 M-0.05 -19.75 Q4.0 -11.85 2.8 -7.1 1.6 -2.4 0.35 -0.15 -0.9 2.1 -2.5 6.65 -4.1 11.15 -0.05 18.25 -4.1 11.15 -2.5 6.65 -0.9 2.1 0.35 -0.15 1.6 -2.4 2.8 -7.1 4.0 -11.85 -0.05 -19.75"
       fill="url(#gradient1)"
       fill-rule="evenodd"
       stroke="none"
       id="path4" />
    <path
       d="M17.7 -17.65 Q25.0 -10.35 25.0 0.0 25.0 10.35 17.7 17.7 10.35 25.0 0.0 25.0 -10.35 25.0 -17.65 17.7 -25.0 10.35 -25.0 0.0 -25.0 -10.35 -17.65 -17.65 -10.35 -25.0 0.0 -25.0 10.35 -25.0 17.7 -17.65 M-0.05 18.25 Q-4.1 11.15 -2.5 6.65 -0.9 2.1 0.35 -0.15 1.6 -2.4 2.8 -7.1 4.0 -11.85 -0.05 -19.75 M11.2 12.0 Q9.0 7.75 9.65 4.0 10.05 1.9 11.2 0.0 12.8 -2.3 13.4 -4.5 14.55 -9.15 11.2 -13.75 M-11.3 12.0 Q-13.5 7.75 -12.85 4.0 -12.45 1.9 -11.3 0.0 -9.7 -2.3 -9.1 -4.5 -7.95 -9.15 -11.3 -13.75"
       fill="none"
       stroke="#ffcc00"
       stroke-linecap="round"
       stroke-linejoin="round"
       stroke-width="0.05"
       id="path6"
       style="stroke-width:2;stroke-miterlimit:4;stroke-dasharray:none;filter:url(#filter902)" />
  </g>
  <defs
     id="defs24">
    <radialGradient
       cx="0"
       cy="0"
       gradientTransform="matrix(0.0365, 0.0, 0.0, 0.0365, -0.5, 0.0)"
       gradientUnits="userSpaceOnUse"
       id="gradient0"
       r="819.2"
       spreadMethod="pad">
      <stop
         offset="0.5019607843137255"
         stop-color="#b45b1b"
         stop-opacity="0.0"
         id="stop10" />
      <stop
         offset="0.7490196078431373"
         stop-color="#e3a20a"
         stop-opacity="0.28235295"
         id="stop12" />
      <stop
         offset="0.8941176470588236"
         stop-color="#ffcc00"
         stop-opacity="0.22352941"
         id="stop14" />
      <stop
         offset="1.0"
         stop-color="#ffcc00"
         stop-opacity="0.0"
         id="stop16" />
    </radialGradient>
    <radialGradient
       cx="0"
       cy="0"
       gradientTransform="matrix(0.0312, 0.0, 0.0, 0.0312, -0.5, 0.0)"
       gradientUnits="userSpaceOnUse"
       id="gradient1"
       r="819.2"
       spreadMethod="pad">
      <stop
         offset="0.5019607843137255"
         stop-color="#b45b1b"
         stop-opacity="0.0"
         id="stop19" />
      <stop
         offset="1.0"
         stop-color="#ffcc00"
         stop-opacity="0.4"
         id="stop21" />
    </radialGradient>
    <filter
       inkscape:collect="always"
       style="color-interpolation-filters:sRGB"
       id="filter902"
       x="-0.068"
       y="-0.068"
       width="1.136"
       height="1.136">
      <feGaussianBlur
         inkscape:collect="always"
         stdDeviation="1"
         id="feGaussianBlur904" />
    </filter>
  </defs>
</svg>
