<?xml version="1.0" encoding="UTF-8" standalone="no"?>
<svg xmlns:xlink="http://www.w3.org/1999/xlink" height="60.0px" width="60.0px" xmlns="http://www.w3.org/2000/svg">
  <g transform="matrix(1.0, 0.0, 0.0, 1.0, 30.0, 30.0)">
    <path d="M30.0 0.0 Q30.0 12.35 21.2 21.2 12.35 30.0 0.0 30.0 -12.4 30.0 -21.2 21.2 -30.05 12.35 -30.0 0.0 -30.05 -12.4 -21.2 -21.2 -12.4 -30.0 0.0 -30.0 12.35 -30.0 21.2 -21.2 30.0 -12.4 30.0 0.0" fill="url(#gradient0)" fill-rule="evenodd" stroke="none"/>
    <path d="M17.7 -17.65 Q25.0 -10.35 25.0 0.0 25.0 10.35 17.7 17.7 10.35 25.0 0.0 25.0 -10.35 25.0 -17.65 17.7 -25.0 10.35 -25.0 0.0 -25.0 -10.35 -17.65 -17.65 -10.35 -25.0 0.0 -25.0 10.35 -25.0 17.7 -17.65 M-11.3 -13.75 Q-7.95 -9.15 -9.1 -4.5 -9.7 -2.3 -11.3 0.0 -12.45 1.9 -12.85 4.0 -13.5 7.75 -11.3 12.0 -13.5 7.75 -12.85 4.0 -12.45 1.9 -11.3 0.0 -9.7 -2.3 -9.1 -4.5 -7.95 -9.15 -11.3 -13.75 M11.2 -13.75 Q14.55 -9.15 13.4 -4.5 12.8 -2.3 11.2 0.0 10.05 1.9 9.65 4.0 9.0 7.75 11.2 12.0 9.0 7.75 9.65 4.0 10.05 1.9 11.2 0.0 12.8 -2.3 13.4 -4.5 14.55 -9.15 11.2 -13.75 M-0.05 -19.75 Q4.0 -11.85 2.8 -7.1 1.6 -2.4 0.35 -0.15 -0.9 2.1 -2.5 6.65 -4.1 11.15 -0.05 18.25 -4.1 11.15 -2.5 6.65 -0.9 2.1 0.35 -0.15 1.6 -2.4 2.8 -7.1 4.0 -11.85 -0.05 -19.75" fill="url(#gradient1)" fill-rule="evenodd" stroke="none"/>
    <path d="M17.7 -17.65 Q25.0 -10.35 25.0 0.0 25.0 10.35 17.7 17.7 10.35 25.0 0.0 25.0 -10.35 25.0 -17.65 17.7 -25.0 10.35 -25.0 0.0 -25.0 -10.35 -17.65 -17.65 -10.35 -25.0 0.0 -25.0 10.35 -25.0 17.7 -17.65 M-0.05 18.25 Q-4.1 11.15 -2.5 6.65 -0.9 2.1 0.35 -0.15 1.6 -2.4 2.8 -7.1 4.0 -11.85 -0.05 -19.75 M11.2 12.0 Q9.0 7.75 9.65 4.0 10.05 1.9 11.2 0.0 12.8 -2.3 13.4 -4.5 14.55 -9.15 11.2 -13.75 M-11.3 12.0 Q-13.5 7.75 -12.85 4.0 -12.45 1.9 -11.3 0.0 -9.7 -2.3 -9.1 -4.5 -7.95 -9.15 -11.3 -13.75" fill="none" stroke="#ffcc00" stroke-linecap="round" stroke-linejoin="round" stroke-width="0.05"/>
  </g>
  <defs>
    <radialGradient cx="0" cy="0" gradientTransform="matrix(0.0365, 0.0, 0.0, 0.0365, -0.5, 0.0)" gradientUnits="userSpaceOnUse" id="gradient0" r="819.2" spreadMethod="pad">
      <stop offset="0.5019607843137255" stop-color="#b45b1b" stop-opacity="0.0"/>
      <stop offset="0.7490196078431373" stop-color="#e3a20a" stop-opacity="0.28235295"/>
      <stop offset="0.8941176470588236" stop-color="#ffcc00" stop-opacity="0.22352941"/>
      <stop offset="1.0" stop-color="#ffcc00" stop-opacity="0.0"/>
    </radialGradient>
    <radialGradient cx="0" cy="0" gradientTransform="matrix(0.0312, 0.0, 0.0, 0.0312, -0.5, 0.0)" gradientUnits="userSpaceOnUse" id="gradient1" r="819.2" spreadMethod="pad">
      <stop offset="0.5019607843137255" stop-color="#b45b1b" stop-opacity="0.0"/>
      <stop offset="1.0" stop-color="#ffcc00" stop-opacity="0.4"/>
    </radialGradient>
  </defs>
</svg>
