<?xml version="1.0" encoding="UTF-8" standalone="no"?>
<svg
   height="60.0px"
   width="60.0px"
   version="1.1"
   id="svg35"
   sodipodi:docname="Light.svg"
   inkscape:version="1.1.2 (b8e25be833, 2022-02-05)"
   xmlns:inkscape="http://www.inkscape.org/namespaces/inkscape"
   xmlns:sodipodi="http://sodipodi.sourceforge.net/DTD/sodipodi-0.dtd"
   xmlns="http://www.w3.org/2000/svg"
   xmlns:svg="http://www.w3.org/2000/svg">
  <sodipodi:namedview
     id="namedview37"
     pagecolor="#ffffff"
     bordercolor="#666666"
     borderopacity="1.0"
     inkscape:pageshadow="2"
     inkscape:pageopacity="0.0"
     inkscape:pagecheckerboard="0"
     showgrid="false"
     inkscape:zoom="13.85"
     inkscape:cx="30"
     inkscape:cy="30.036101"
     inkscape:window-width="1920"
     inkscape:window-height="1017"
     inkscape:window-x="-8"
     inkscape:window-y="-8"
     inkscape:window-maximized="1"
     inkscape:current-layer="svg35" />
  <g
     transform="matrix(1.0, 0.0, 0.0, 1.0, 30.0, 30.0)"
     id="g10">
    <path
       d="M30.0 0.0 Q30.0 12.35 21.2 21.2 12.35 30.0 0.0 30.0 -12.4 30.0 -21.2 21.2 -30.05 12.35 -30.0 0.0 -30.05 -12.4 -21.2 -21.2 -12.4 -30.0 0.0 -30.0 12.35 -30.0 21.2 -21.2 30.0 -12.4 30.0 0.0"
       fill="url(#gradient0)"
       fill-rule="evenodd"
       stroke="none"
       id="path2" />
    <path
       d="M0.0 -25.0 Q10.35 -25.0 17.65 -17.7 L10.6 -10.6 17.65 -17.7 17.7 -17.65 Q25.0 -10.35 25.0 0.0 L25.0 0.5 Q24.8 10.3 18.0 17.35 L17.7 17.7 Q10.35 25.0 0.0 25.0 -10.35 25.0 -17.65 17.7 L-17.7 17.65 Q-24.8 10.55 -25.0 0.5 L-25.0 0.0 Q-25.0 -10.35 -17.65 -17.65 L-17.35 -18.0 Q-10.15 -25.0 0.0 -25.0 L0.0 -14.95 0.0 -25.0 M10.6 -10.6 Q6.25 -15.0 0.05 -14.95 L0.0 -14.95 Q-6.0 -14.95 -10.3 -10.95 L-10.6 -10.6 Q-15.0 -6.2 -14.95 0.05 L-14.95 0.5 Q-14.8 6.4 -10.6 10.6 L-17.7 17.65 -10.6 10.6 Q-6.2 15.0 0.0 15.05 L0.05 15.05 Q6.25 15.0 10.6 10.6 L10.95 10.3 Q14.85 6.2 15.05 0.5 L15.05 0.05 Q15.0 -6.2 10.6 -10.6 M0.0 25.0 L0.0 15.05 0.0 25.0 M25.0 0.5 L15.05 0.5 25.0 0.5 M-17.35 -18.0 L-10.3 -10.95 -17.35 -18.0 M18.0 17.35 L10.95 10.3 18.0 17.35 M-25.0 0.5 L-14.95 0.5 -25.0 0.5"
       fill="url(#gradient1)"
       fill-rule="evenodd"
       stroke="none"
       id="path4" />
    <path
       d="M0.0 -14.95 L0.05 -14.95 Q6.25 -15.0 10.6 -10.6 15.0 -6.2 15.05 0.05 L15.05 0.5 Q14.85 6.2 10.95 10.3 L10.6 10.6 Q6.25 15.0 0.05 15.05 L0.0 15.05 Q-6.2 15.0 -10.6 10.6 -14.8 6.4 -14.95 0.5 L-14.95 0.05 Q-15.0 -6.2 -10.6 -10.6 L-10.3 -10.95 Q-6.0 -14.95 0.0 -14.95"
       fill="url(#gradient2)"
       fill-rule="evenodd"
       stroke="none"
       id="path6" />
    <path
       d="M17.65 -17.7 Q10.35 -25.0 0.0 -25.0 L0.0 -14.95 0.05 -14.95 Q6.25 -15.0 10.6 -10.6 L17.65 -17.7 17.7 -17.65 Q25.0 -10.35 25.0 0.0 L25.0 0.5 Q24.8 10.3 18.0 17.35 L17.7 17.7 Q10.35 25.0 0.0 25.0 -10.35 25.0 -17.65 17.7 L-17.7 17.65 Q-24.8 10.55 -25.0 0.5 L-25.0 0.0 Q-25.0 -10.35 -17.65 -17.65 L-17.35 -18.0 Q-10.15 -25.0 0.0 -25.0 M10.95 10.3 L10.6 10.6 Q6.25 15.0 0.05 15.05 L0.0 15.05 0.0 25.0 M10.6 -10.6 Q15.0 -6.2 15.05 0.05 L15.05 0.5 25.0 0.5 M15.05 0.5 Q14.85 6.2 10.95 10.3 L18.0 17.35 M-10.3 -10.95 L-17.35 -18.0 M-14.95 0.5 L-14.95 0.05 Q-15.0 -6.2 -10.6 -10.6 L-10.3 -10.95 Q-6.0 -14.95 0.0 -14.95 M-10.6 10.6 Q-14.8 6.4 -14.95 0.5 L-25.0 0.5 M-10.6 10.6 L-17.7 17.65 M0.0 15.05 Q-6.2 15.0 -10.6 10.6"
       fill="none"
       stroke="#ffffff"
       stroke-linecap="round"
       stroke-linejoin="round"
       stroke-width="0.05"
       id="path8"
       style="stroke-width:0.25;stroke-miterlimit:4;stroke-dasharray:none" />
  </g>
  <defs
     id="defs33">
    <radialGradient
       cx="0"
       cy="0"
       gradientTransform="matrix(0.0365, 0.0, 0.0, 0.0365, -0.5, 0.0)"
       gradientUnits="userSpaceOnUse"
       id="gradient0"
       r="819.2"
       spreadMethod="pad">
      <stop
         offset="0.5019607843137255"
         stop-color="#f9f991"
         stop-opacity="0.0"
         id="stop12" />
      <stop
         offset="0.7490196078431373"
         stop-color="#fefded"
         stop-opacity="0.28235295"
         id="stop14" />
      <stop
         offset="0.8941176470588236"
         stop-color="#ffffff"
         stop-opacity="0.22352941"
         id="stop16" />
      <stop
         offset="1.0"
         stop-color="#fcfcad"
         stop-opacity="0.0"
         id="stop18" />
    </radialGradient>
    <radialGradient
       cx="0"
       cy="0"
       gradientTransform="matrix(0.0312, 0.0, 0.0, 0.0312, -0.5, 0.0)"
       gradientUnits="userSpaceOnUse"
       id="gradient1"
       r="819.2"
       spreadMethod="pad">
      <stop
         offset="0.5019607843137255"
         stop-color="#f9f991"
         stop-opacity="0.0"
         id="stop21" />
      <stop
         offset="1.0"
         stop-color="#ffffff"
         stop-opacity="0.4"
         id="stop23" />
    </radialGradient>
    <radialGradient
       cx="0"
       cy="0"
       gradientTransform="matrix(0.0312, 0.0, 0.0, 0.0312, -0.5, 0.0)"
       gradientUnits="userSpaceOnUse"
       id="gradient2"
       r="819.2"
       spreadMethod="pad">
      <stop
         offset="0.0"
         stop-color="#ffffff"
         stop-opacity="0.6901961"
         id="stop26" />
      <stop
         offset="0.5019607843137255"
         stop-color="#fcfcd1"
         stop-opacity="0.37254903"
         id="stop28" />
      <stop
         offset="1.0"
         stop-color="#ffffff"
         stop-opacity="0.3529412"
         id="stop30" />
    </radialGradient>
  </defs>
</svg>
