<?xml version="1.0" encoding="UTF-8" standalone="no"?>
<svg
   height="50.0px"
   width="50.0px"
   version="1.1"
   id="svg15"
   sodipodi:docname="PhysicalThick5.svg"
   inkscape:version="1.1.2 (b8e25be833, 2022-02-05)"
   xmlns:inkscape="http://www.inkscape.org/namespaces/inkscape"
   xmlns:sodipodi="http://sodipodi.sourceforge.net/DTD/sodipodi-0.dtd"
   xmlns="http://www.w3.org/2000/svg"
   xmlns:svg="http://www.w3.org/2000/svg">
  <sodipodi:namedview
     id="namedview17"
     pagecolor="#ffffff"
     bordercolor="#666666"
     borderopacity="1.0"
     inkscape:pageshadow="2"
     inkscape:pageopacity="0.0"
     inkscape:pagecheckerboard="0"
     showgrid="false"
     inkscape:zoom="16.62"
     inkscape:cx="24.939832"
     inkscape:cy="15.34296"
     inkscape:window-width="1920"
     inkscape:window-height="1017"
     inkscape:window-x="-8"
     inkscape:window-y="-8"
     inkscape:window-maximized="1"
     inkscape:current-layer="svg15" />
  <g
     transform="matrix(1.0, 0.0, 0.0, 1.0, 25.0, 25.0)"
     id="g6">
    <path
       d="M17.7 -17.65 Q25.0 -10.35 25.0 0.0 25.0 10.35 17.7 17.7 10.35 25.0 0.0 25.0 -10.35 25.0 -17.65 17.7 -25.0 10.35 -25.0 0.0 -25.0 -10.35 -17.65 -17.65 -10.35 -25.0 0.0 -25.0 10.35 -25.0 17.7 -17.65 M10.0 0.0 L10.0 -15.0 -10.0 -15.0 -10.0 0.0 -10.0 15.0 10.0 15.0 10.0 0.0 25.0 0.0 10.0 0.0 10.0 15.0 -10.0 15.0 -10.0 0.0 -25.0 0.0 -10.0 0.0 -10.0 -15.0 10.0 -15.0 10.0 0.0"
       fill="url(#gradient0)"
       fill-rule="evenodd"
       stroke="none"
       id="path2" />
    <path
       d="M17.7 -17.65 Q25.0 -10.35 25.0 0.0 25.0 10.35 17.7 17.7 10.35 25.0 0.0 25.0 -10.35 25.0 -17.65 17.7 -25.0 10.35 -25.0 0.0 -25.0 -10.35 -17.65 -17.65 -10.35 -25.0 0.0 -25.0 10.35 -25.0 17.7 -17.65 M25.0 0.0 L10.0 0.0 10.0 15.0 -10.0 15.0 -10.0 0.0 -25.0 0.0 M-10.0 0.0 L-10.0 -15.0 10.0 -15.0 10.0 0.0"
       fill="none"
       stroke="#cccccc"
       stroke-linecap="round"
       stroke-linejoin="round"
       stroke-width="0.05"
       id="path4"
       style="stroke-width:1;stroke-miterlimit:4;stroke-dasharray:none" />
  </g>
  <defs
     id="defs13">
    <radialGradient
       cx="0"
       cy="0"
       gradientTransform="matrix(0.0312, 0.0, 0.0, 0.0312, -0.5, 0.0)"
       gradientUnits="userSpaceOnUse"
       id="gradient0"
       r="819.2"
       spreadMethod="pad">
      <stop
         offset="0.5019607843137255"
         stop-color="#5e5e5e"
         stop-opacity="0.0"
         id="stop8" />
      <stop
         offset="1.0"
         stop-color="#808080"
         stop-opacity="0.4"
         id="stop10" />
    </radialGradient>
  </defs>
</svg>
