<?xml version="1.0" encoding="UTF-8" standalone="no"?>
<svg xmlns:xlink="http://www.w3.org/1999/xlink" height="60.0px" width="60.0px" xmlns="http://www.w3.org/2000/svg">
  <g transform="matrix(1.0, 0.0, 0.0, 1.0, 30.0, 30.0)">
    <path d="M30.0 0.0 Q30.0 12.35 21.2 21.2 12.35 30.0 0.0 30.0 -12.4 30.0 -21.2 21.2 -30.05 12.35 -30.0 0.0 -30.05 -12.4 -21.2 -21.2 -12.4 -30.0 0.0 -30.0 12.35 -30.0 21.2 -21.2 30.0 -12.4 30.0 0.0" fill="url(#gradient0)" fill-rule="evenodd" stroke="none"/>
    <path d="M0.9 -24.95 Q10.65 -24.7 17.7 -17.65 25.0 -10.35 25.0 0.0 25.0 9.65 18.65 16.65 L17.7 17.7 Q10.35 25.0 0.0 25.0 -10.35 25.0 -17.65 17.7 L-18.65 16.65 Q-25.0 9.65 -25.0 0.0 -25.0 -10.35 -17.65 -17.65 -10.6 -24.75 -0.6 -25.0 L-0.3 -25.0 -0.25 -25.0 0.0 -25.0 0.25 -25.0 0.9 -24.95" fill="url(#gradient1)" fill-rule="evenodd" stroke="none"/>
    <path d="M23.65 -7.65 L9.55 3.1 14.6 20.1 0.0 10.05 -14.6 20.1 -9.6 3.1 -23.65 -7.65 -5.9 -8.1 0.0 -24.75 5.9 -8.1 23.65 -7.65 M17.7 -17.65 Q25.0 -10.35 25.0 0.0 25.0 9.65 18.65 16.65 L17.7 17.7 Q10.35 25.0 0.0 25.0 -10.35 25.0 -17.65 17.7 L-18.65 16.65 Q-25.0 9.65 -25.0 0.0 -25.0 -10.35 -17.65 -17.65 -10.6 -24.75 -0.6 -25.0 L-0.3 -25.0 -0.25 -25.0 0.0 -25.0 0.25 -25.0 0.9 -24.95 Q10.65 -24.7 17.7 -17.65 M9.55 3.1 L5.9 -8.1 -5.9 -8.1 -9.6 3.1 0.0 10.05 9.55 3.1 M-0.25 -25.0 L-0.3 -25.0" fill="none" stroke="#7878fe" stroke-linecap="round" stroke-linejoin="round" stroke-width="0.05"/>
  </g>
  <defs>
    <radialGradient cx="0" cy="0" gradientTransform="matrix(0.0365, 0.0, 0.0, 0.0365, -0.5, 0.0)" gradientUnits="userSpaceOnUse" id="gradient0" r="819.2" spreadMethod="pad">
      <stop offset="0.5019607843137255" stop-color="#0000ff" stop-opacity="0.0"/>
      <stop offset="0.7490196078431373" stop-color="#0000fd" stop-opacity="0.28235295"/>
      <stop offset="0.8941176470588236" stop-color="#0000fd" stop-opacity="0.36078432"/>
      <stop offset="1.0" stop-color="#0000ff" stop-opacity="0.0"/>
    </radialGradient>
    <radialGradient cx="0" cy="0" gradientTransform="matrix(0.0312, 0.0, 0.0, 0.0312, -0.5, 0.0)" gradientUnits="userSpaceOnUse" id="gradient1" r="819.2" spreadMethod="pad">
      <stop offset="0.5019607843137255" stop-color="#0000ff" stop-opacity="0.0"/>
      <stop offset="1.0" stop-color="#232dff" stop-opacity="0.4"/>
    </radialGradient>
  </defs>
</svg>
