<?xml version="1.0" encoding="UTF-8" standalone="no"?>
<svg
   height="60.0px"
   width="60.0px"
   version="1.1"
   id="svg26"
   sodipodi:docname="ThaumaBlur.svg"
   inkscape:version="1.1.2 (b8e25be833, 2022-02-05)"
   xmlns:inkscape="http://www.inkscape.org/namespaces/inkscape"
   xmlns:sodipodi="http://sodipodi.sourceforge.net/DTD/sodipodi-0.dtd"
   xmlns="http://www.w3.org/2000/svg"
   xmlns:svg="http://www.w3.org/2000/svg">
  <sodipodi:namedview
     id="namedview28"
     pagecolor="#ffffff"
     bordercolor="#666666"
     borderopacity="1.0"
     inkscape:pageshadow="2"
     inkscape:pageopacity="0.0"
     inkscape:pagecheckerboard="0"
     showgrid="false"
     inkscape:zoom="9.7934289"
     inkscape:cx="27.620561"
     inkscape:cy="33.185517"
     inkscape:window-width="1920"
     inkscape:window-height="1017"
     inkscape:window-x="-8"
     inkscape:window-y="-8"
     inkscape:window-maximized="1"
     inkscape:current-layer="svg26" />
  <g
     transform="matrix(1.0, 0.0, 0.0, 1.0, 30.0, 30.0)"
     id="g8">
    <path
       d="M30.0 0.0 Q30.0 12.35 21.2 21.2 12.35 30.0 0.0 30.0 -12.4 30.0 -21.2 21.2 -30.05 12.35 -30.0 0.0 -30.05 -12.4 -21.2 -21.2 -12.4 -30.0 0.0 -30.0 12.35 -30.0 21.2 -21.2 30.0 -12.4 30.0 0.0"
       fill="url(#gradient0)"
       fill-rule="evenodd"
       stroke="none"
       id="path2" />
    <path
       d="M0.9 -24.95 Q10.65 -24.7 17.7 -17.65 25.0 -10.35 25.0 0.0 25.0 9.65 18.65 16.65 L17.7 17.7 Q10.35 25.0 0.0 25.0 -10.35 25.0 -17.65 17.7 L-18.65 16.65 Q-25.0 9.65 -25.0 0.0 -25.0 -10.35 -17.65 -17.65 -10.6 -24.75 -0.6 -25.0 L-0.3 -25.0 -0.25 -25.0 0.0 -25.0 0.25 -25.0 0.9 -24.95"
       fill="url(#gradient1)"
       fill-rule="evenodd"
       stroke="none"
       id="path4" />
    <path
       d="M23.65 -7.65 L9.55 3.1 14.6 20.1 0.0 10.05 -14.6 20.1 -9.6 3.1 -23.65 -7.65 -5.9 -8.1 0.0 -24.75 5.9 -8.1 23.65 -7.65 M17.7 -17.65 Q25.0 -10.35 25.0 0.0 25.0 9.65 18.65 16.65 L17.7 17.7 Q10.35 25.0 0.0 25.0 -10.35 25.0 -17.65 17.7 L-18.65 16.65 Q-25.0 9.65 -25.0 0.0 -25.0 -10.35 -17.65 -17.65 -10.6 -24.75 -0.6 -25.0 L-0.3 -25.0 -0.25 -25.0 0.0 -25.0 0.25 -25.0 0.9 -24.95 Q10.65 -24.7 17.7 -17.65 M9.55 3.1 L5.9 -8.1 -5.9 -8.1 -9.6 3.1 0.0 10.05 9.55 3.1 M-0.25 -25.0 L-0.3 -25.0"
       fill="none"
       stroke="#7878fe"
       stroke-linecap="round"
       stroke-linejoin="round"
       stroke-width="0.05"
       id="path6"
       style="stroke-width:2;stroke-miterlimit:4;stroke-dasharray:none;stroke:#7878fe;stroke-opacity:1;opacity:1;filter:url(#filter7084)" />
  </g>
  <defs
     id="defs24">
    <radialGradient
       cx="0"
       cy="0"
       gradientTransform="matrix(0.0365, 0.0, 0.0, 0.0365, -0.5, 0.0)"
       gradientUnits="userSpaceOnUse"
       id="gradient0"
       r="819.2"
       spreadMethod="pad">
      <stop
         offset="0.5019607843137255"
         stop-color="#0000ff"
         stop-opacity="0.0"
         id="stop10" />
      <stop
         offset="0.7490196078431373"
         stop-color="#0000fd"
         stop-opacity="0.28235295"
         id="stop12" />
      <stop
         offset="0.8941176470588236"
         stop-color="#0000fd"
         stop-opacity="0.36078432"
         id="stop14" />
      <stop
         offset="1.0"
         stop-color="#0000ff"
         stop-opacity="0.0"
         id="stop16" />
    </radialGradient>
    <radialGradient
       cx="0"
       cy="0"
       gradientTransform="matrix(0.0312, 0.0, 0.0, 0.0312, -0.5, 0.0)"
       gradientUnits="userSpaceOnUse"
       id="gradient1"
       r="819.2"
       spreadMethod="pad">
      <stop
         offset="0.5019607843137255"
         stop-color="#0000ff"
         stop-opacity="0.0"
         id="stop19" />
      <stop
         offset="1.0"
         stop-color="#232dff"
         stop-opacity="0.4"
         id="stop21" />
    </radialGradient>
    <filter
       inkscape:collect="always"
       style="color-interpolation-filters:sRGB"
       id="filter7084"
       x="-0.068"
       y="-0.068"
       width="1.136"
       height="1.136">
      <feGaussianBlur
         inkscape:collect="always"
         stdDeviation="1"
         id="feGaussianBlur7086" />
    </filter>
  </defs>
</svg>
