<?xml version="1.0" encoding="UTF-8" standalone="no"?>
<svg
   height="60.0px"
   width="60.0px"
   version="1.1"
   id="svg26"
   sodipodi:docname="Water.svg"
   inkscape:version="1.1.2 (b8e25be833, 2022-02-05)"
   xmlns:inkscape="http://www.inkscape.org/namespaces/inkscape"
   xmlns:sodipodi="http://sodipodi.sourceforge.net/DTD/sodipodi-0.dtd"
   xmlns="http://www.w3.org/2000/svg"
   xmlns:svg="http://www.w3.org/2000/svg">
  <sodipodi:namedview
     id="namedview28"
     pagecolor="#ffffff"
     bordercolor="#666666"
     borderopacity="1.0"
     inkscape:pageshadow="2"
     inkscape:pageopacity="0.0"
     inkscape:pagecheckerboard="0"
     showgrid="false"
     inkscape:zoom="13.85"
     inkscape:cx="30"
     inkscape:cy="30.036101"
     inkscape:window-width="1920"
     inkscape:window-height="1017"
     inkscape:window-x="-8"
     inkscape:window-y="-8"
     inkscape:window-maximized="1"
     inkscape:current-layer="svg26" />
  <g
     transform="matrix(1.0, 0.0, 0.0, 1.0, 30.0, 30.0)"
     id="g8">
    <path
       d="M30.0 0.0 Q30.0 12.35 21.2 21.2 12.35 30.0 0.0 30.0 -12.4 30.0 -21.2 21.2 -30.05 12.35 -30.0 0.0 -30.05 -12.4 -21.2 -21.2 -12.4 -30.0 0.0 -30.0 12.35 -30.0 21.2 -21.2 30.0 -12.4 30.0 0.0"
       fill="url(#gradient0)"
       fill-rule="evenodd"
       stroke="none"
       id="path2" />
    <path
       d="M10.7 -11.5 Q10.7 -12.2 10.15 -12.75 9.65 -13.25 8.95 -13.25 8.25 -13.25 7.7 -12.75 7.2 -12.2 7.2 -11.5 7.2 -10.8 7.7 -10.3 8.25 -9.75 8.95 -9.75 9.65 -9.75 10.15 -10.3 10.7 -10.8 10.7 -11.5 10.7 -10.8 10.15 -10.3 9.65 -9.75 8.95 -9.75 8.25 -9.75 7.7 -10.3 7.2 -10.8 7.2 -11.5 7.2 -12.2 7.7 -12.75 8.25 -13.25 8.95 -13.25 9.65 -13.25 10.15 -12.75 10.7 -12.2 10.7 -11.5 M17.7 -17.65 Q25.0 -10.35 25.0 0.0 L25.0 0.25 Q24.95 6.3 22.4 11.3 20.65 14.75 17.7 17.7 10.35 25.0 0.0 25.0 -10.35 25.0 -17.65 17.7 -24.9 10.45 -25.0 0.25 L-25.0 0.0 Q-25.0 -6.25 -22.35 -11.35 -20.6 -14.75 -17.65 -17.65 -10.35 -25.0 0.0 -25.0 10.35 -25.0 17.7 -17.65 M-9.05 10.75 Q-9.05 10.15 -9.5 9.7 -9.95 9.25 -10.55 9.25 -11.15 9.25 -11.6 9.7 -12.05 10.15 -12.05 10.75 -12.05 11.35 -11.6 11.8 -11.15 12.25 -10.55 12.25 -9.95 12.25 -9.5 11.8 -9.05 11.35 -9.05 10.75 -9.05 11.35 -9.5 11.8 -9.95 12.25 -10.55 12.25 -11.15 12.25 -11.6 11.8 -12.05 11.35 -12.05 10.75 -12.05 10.15 -11.6 9.7 -11.15 9.25 -10.55 9.25 -9.95 9.25 -9.5 9.7 -9.05 10.15 -9.05 10.75 M3.5 -11.3 Q-1.1 -7.95 -5.75 -9.1 -7.95 -9.7 -10.25 -11.3 -12.15 -12.45 -14.25 -12.85 -18.0 -13.5 -22.35 -11.35 -18.0 -13.5 -14.25 -12.85 -12.15 -12.45 -10.25 -11.3 -7.95 -9.7 -5.75 -9.1 -1.1 -7.95 3.5 -11.3 M-25.0 0.25 Q-17.65 -5.15 -10.3 0.25 -1.25 5.9 9.7 0.25 17.8 -4.0 25.0 0.25 17.8 -4.0 9.7 0.25 -1.25 5.9 -10.3 0.25 -17.65 -5.15 -25.0 0.25 M22.4 11.3 Q17.85 14.55 13.25 13.4 11.05 12.8 8.75 11.2 6.85 10.05 4.75 9.65 1.0 9.0 -3.25 11.2 1.0 9.0 4.75 9.65 6.85 10.05 8.75 11.2 11.05 12.8 13.25 13.4 17.85 14.55 22.4 11.3"
       fill="url(#gradient1)"
       fill-rule="evenodd"
       stroke="none"
       id="path4" />
    <path
       d="M10.7 -11.5 Q10.7 -10.8 10.15 -10.3 9.65 -9.75 8.95 -9.75 8.25 -9.75 7.7 -10.3 7.2 -10.8 7.2 -11.5 7.2 -12.2 7.7 -12.75 8.25 -13.25 8.95 -13.25 9.65 -13.25 10.15 -12.75 10.7 -12.2 10.7 -11.5 M17.7 -17.65 Q25.0 -10.35 25.0 0.0 L25.0 0.25 Q24.95 6.3 22.4 11.3 20.65 14.75 17.7 17.7 10.35 25.0 0.0 25.0 -10.35 25.0 -17.65 17.7 -24.9 10.45 -25.0 0.25 L-25.0 0.0 Q-25.0 -6.25 -22.35 -11.35 -20.6 -14.75 -17.65 -17.65 -10.35 -25.0 0.0 -25.0 10.35 -25.0 17.7 -17.65 M-3.25 11.2 Q1.0 9.0 4.75 9.65 6.85 10.05 8.75 11.2 11.05 12.8 13.25 13.4 17.85 14.55 22.4 11.3 M25.0 0.25 Q17.8 -4.0 9.7 0.25 -1.25 5.9 -10.3 0.25 -17.65 -5.15 -25.0 0.25 M-22.35 -11.35 Q-18.0 -13.5 -14.25 -12.85 -12.15 -12.45 -10.25 -11.3 -7.95 -9.7 -5.75 -9.1 -1.1 -7.95 3.5 -11.3 M-9.05 10.75 Q-9.05 11.35 -9.5 11.8 -9.95 12.25 -10.55 12.25 -11.15 12.25 -11.6 11.8 -12.05 11.35 -12.05 10.75 -12.05 10.15 -11.6 9.7 -11.15 9.25 -10.55 9.25 -9.95 9.25 -9.5 9.7 -9.05 10.15 -9.05 10.75"
       fill="none"
       stroke="#00ccff"
       stroke-linecap="round"
       stroke-linejoin="round"
       stroke-width="0.05"
       id="path6"
       style="stroke-width:0.25;stroke-miterlimit:4;stroke-dasharray:none" />
  </g>
  <defs
     id="defs24">
    <radialGradient
       cx="0"
       cy="0"
       gradientTransform="matrix(0.0365, 0.0, 0.0, 0.0365, -0.5, 0.0)"
       gradientUnits="userSpaceOnUse"
       id="gradient0"
       r="819.2"
       spreadMethod="pad">
      <stop
         offset="0.5019607843137255"
         stop-color="#13adb5"
         stop-opacity="0.0"
         id="stop10" />
      <stop
         offset="0.7490196078431373"
         stop-color="#21c4cb"
         stop-opacity="0.28235295"
         id="stop12" />
      <stop
         offset="0.8941176470588236"
         stop-color="#348bcb"
         stop-opacity="0.22352941"
         id="stop14" />
      <stop
         offset="1.0"
         stop-color="#0cd7f3"
         stop-opacity="0.0"
         id="stop16" />
    </radialGradient>
    <radialGradient
       cx="0"
       cy="0"
       gradientTransform="matrix(0.0, 0.0312, -0.0312, 0.0, 0.0, -0.5)"
       gradientUnits="userSpaceOnUse"
       id="gradient1"
       r="819.2"
       spreadMethod="pad">
      <stop
         offset="0.5019607843137255"
         stop-color="#3fd0e4"
         stop-opacity="0.0"
         id="stop19" />
      <stop
         offset="1.0"
         stop-color="#348bcb"
         stop-opacity="0.4"
         id="stop21" />
    </radialGradient>
  </defs>
</svg>
